<?xml version="1.0" standalone="no"?>
<!DOCTYPE svg PUBLIC "-//W3C//DTD SVG 1.1//EN" "http://www.w3.org/Graphics/SVG/1.1/DTD/svg11.dtd" >
<svg xmlns="http://www.w3.org/2000/svg" xmlns:xlink="http://www.w3.org/1999/xlink" version="1.1">
<metadata>
Created by FontForge 20190801 at Mon Sep 10 16:38:47 2018
 By www-data
copyright missing
</metadata>
<defs>
<font id="FormulaCondensedBold" horiz-adv-x="396" >
  <font-face 
    font-family="FormulaCondensedBold"
    font-weight="700"
    font-stretch="normal"
    units-per-em="1000"
    panose-1="0 0 8 0 0 0 0 0 0 0"
    ascent="800"
    descent="-200"
    x-height="650"
    cap-height="800"
    bbox="-360 -300 1496 992"
    underline-thickness="50"
    underline-position="-100"
    unicode-range="U+0020-25CA"
  />
<missing-glyph horiz-adv-x="550" 
d="M451 800v-1100h-349v1100h349zM366 726h-181v-36h71v-41h-72v-36h182v36h-72v41h72v36zM294 584h-110v-114h182v37h-72v77zM256 547v-40h-36v40h36zM366 440h-182v-36h72v-41h-72v-36h110v77h72v36zM366 374h-36v-72h-146v-38h182v110zM366 240h-110v-61h38v25h36v-52
h-110v88h-36v-124h182v124zM366 50h-182v-124h182v124zM330 14v-52h-110v52h110zM366 -100h-182v-36h77l-77 -52v-36h182v36h-112l77 52h35v36z" />
    <glyph glyph-name=".notdef" horiz-adv-x="550" 
d="M451 800v-1100h-349v1100h349zM366 726h-181v-36h71v-41h-72v-36h182v36h-72v41h72v36zM294 584h-110v-114h182v37h-72v77zM256 547v-40h-36v40h36zM366 440h-182v-36h72v-41h-72v-36h110v77h72v36zM366 374h-36v-72h-146v-38h182v110zM366 240h-110v-61h38v25h36v-52
h-110v88h-36v-124h182v124zM366 50h-182v-124h182v124zM330 14v-52h-110v52h110zM366 -100h-182v-36h77l-77 -52v-36h182v36h-112l77 52h35v36z" />
    <glyph glyph-name=".null" horiz-adv-x="0" 
 />
    <glyph glyph-name="nonmarkingreturn" horiz-adv-x="333" 
 />
    <glyph glyph-name="space" unicode=" " horiz-adv-x="140" 
 />
    <glyph glyph-name="exclam" unicode="!" horiz-adv-x="180" 
d="M15 800h150l-10 -550h-130zM90 -10q-34 0 -57 22t-23 57q0 37 23 59t57 22t57 -22t23 -59q0 -35 -23 -57t-57 -22z" />
    <glyph glyph-name="quotedbl" unicode="&#x22;" horiz-adv-x="150" 
d="M10 810h50v-250h-50v250zM90 810h50v-250h-50v250z" />
    <glyph glyph-name="numbersign" unicode="#" horiz-adv-x="721" 
d="M711 505h-176l-77 -210h176v-50h-194l-92 -255h-53l92 255h-167l-92 -255h-53l92 255h-157v50h175l77 210h-175v50h193l92 255h53l-92 -255h167l92 255h53l-92 -255h158v-50zM405 295l77 210h-167l-77 -210h167z" />
    <glyph glyph-name="dollar" unicode="$" horiz-adv-x="386" 
d="M376 233q0 -154 -158 -163v-80h-50v82q-158 17 -158 231h50q0 -89 25.5 -131t82.5 -50v269q-71 26 -109.5 68.5t-38.5 112.5q0 66 37.5 108.5t110.5 48.5v81h50v-81q79 -9 113.5 -63t34.5 -134h-50q0 131 -98 146v-254q37 -15 60.5 -28t48.5 -35t37 -54t12 -74zM70 572
q0 -49 26 -78t72 -50v235q-98 -10 -98 -107zM218 120q60 4 84 32.5t24 80.5q0 54 -29 84.5t-79 52.5v-250z" />
    <glyph glyph-name="percent" unicode="%" horiz-adv-x="490" 
d="M132 510q63 0 92.5 43t29.5 107t-29.5 107t-92.5 43t-92.5 -43t-29.5 -107t29.5 -107t92.5 -43zM420 810l-297 -820h-53l297 820h53zM132 560q-72 0 -72 100t72 100t72 -100t-72 -100zM358 -10q63 0 92.5 43t29.5 107t-29.5 107t-92.5 43t-92.5 -43t-29.5 -107t29.5 -107
t92.5 -43zM358 40q-72 0 -72 100t72 100t72 -100t-72 -100z" />
    <glyph glyph-name="ampersand" unicode="&#x26;" horiz-adv-x="453" 
d="M443 471v-130h-47v-93q0 -258 -195 -258q-93 0 -142 54.5t-49 153.5q0 157 101 208q-101 48 -101 196q0 99 49 153.5t142 54.5q195 0 195 -248h-150q0 98 -45 98q-41 0 -41 -78q0 -62 17.5 -86.5t63.5 -24.5h5v47h150v-47h47zM246 248v93h-5q-47 0 -64 -26.5t-17 -96.5
q0 -78 41 -78q45 0 45 108z" />
    <glyph glyph-name="quotesingle" unicode="'" horiz-adv-x="70" 
d="M10 810h50v-250h-50v250z" />
    <glyph glyph-name="parenleft" unicode="(" horiz-adv-x="150" 
d="M90 810h50q-80 -196 -80 -410t80 -410h-50q-80 196 -80 410t80 410z" />
    <glyph glyph-name="parenright" unicode=")" horiz-adv-x="150" 
d="M60 810q80 -196 80 -410t-80 -410h-50q80 196 80 410t-80 410h50z" />
    <glyph glyph-name="asterisk" unicode="*" horiz-adv-x="266" 
d="M256 708l-83 -48l83 -48l-20 -34l-83 48v-116h-40v116l-83 -48l-20 34l83 48l-83 48l20 34l83 -48v116h40v-116l83 48z" />
    <glyph glyph-name="plus" unicode="+" horiz-adv-x="430" 
d="M420 355v-50h-180v-180h-50v180h-180v50h180v180h50v-180h180z" />
    <glyph glyph-name="comma" unicode="," horiz-adv-x="180" 
d="M10 69q0 37 23 59t57 22q35 0 57.5 -25.5t22.5 -75.5q0 -18 -5 -38t-18.5 -47t-43.5 -51t-73 -39v50q63 27 70 76q-34 -8 -62 13t-28 56z" />
    <glyph glyph-name="hyphen" unicode="-" horiz-adv-x="430" 
d="M10 355h410v-50h-410v50z" />
    <glyph glyph-name="period" unicode="." horiz-adv-x="180" 
d="M90 -10q-34 0 -57 22t-23 57q0 37 23 59t57 22t57 -22t23 -59q0 -35 -23 -57t-57 -22z" />
    <glyph glyph-name="slash" unicode="/" horiz-adv-x="370" 
d="M360 810l-297 -820h-53l297 820h53z" />
    <glyph glyph-name="zero" unicode="0" 
d="M198 810q188 0 188 -228v-364q0 -228 -188 -228t-188 228v364q0 228 188 228zM198 660q-24 0 -31 -17.5t-7 -70.5v-162l76 125v37q0 53 -7 70.5t-31 17.5zM198 140q24 0 31 17.5t7 70.5v162l-76 -125v-37q0 -53 7 -70.5t31 -17.5z" />
    <glyph glyph-name="one" unicode="1" horiz-adv-x="376" 
d="M263 150h103v-150h-356v150h103v470q-9 -13 -16.5 -20t-29.5 -13.5t-57 -6.5v140q91 0 123 80h130v-650z" />
    <glyph glyph-name="two" unicode="2" horiz-adv-x="406" 
d="M236 304q-49 -40 -62.5 -68t-13.5 -86h236v-150h-386v150q0 49 8 88t17.5 63.5t32.5 50t38 38.5t48 38q49 38 70.5 69t21.5 85q0 78 -36 78q-19 0 -29.5 -25t-10.5 -93h-150q0 141 47 204.5t143 63.5q186 0 186 -228q0 -43 -10.5 -81.5t-23.5 -63.5t-39 -53.5
t-41.5 -41.5t-45.5 -38z" />
    <glyph glyph-name="three" unicode="3" horiz-adv-x="406" 
d="M295 406q101 -51 101 -208q0 -99 -49 -153.5t-142 -54.5q-195 0 -195 258h150q0 -108 45 -108q41 0 41 78q0 70 -17 96.5t-64 26.5h-40v130h40q46 0 63.5 24.5t17.5 86.5q0 78 -41 78q-45 0 -45 -98h-150q0 248 195 248q93 0 142 -54.5t49 -153.5q0 -148 -101 -196z" />
    <glyph glyph-name="four" unicode="4" horiz-adv-x="376" 
d="M366 292v-150h-53v-142h-150v142h-153v150l153 508h150v-508h53zM89 292h74v248z" />
    <glyph glyph-name="five" unicode="5" horiz-adv-x="406" 
d="M252 536q144 0 144 -273q0 -144 -47.5 -208.5t-143.5 -64.5q-195 0 -195 258h150q0 -108 45 -108q13 0 21 8.5t14 37t6 77.5q0 72 -11 97.5t-32 25.5q-18 0 -28 -11t-15 -37h-140l20 462h324v-150h-193l-10 -150q44 36 91 36z" />
    <glyph glyph-name="six" unicode="6" horiz-adv-x="406" 
d="M255 536q141 0 141 -273q0 -143 -48.5 -208t-144.5 -65q-97 0 -144.5 64.5t-48.5 208.5v264q1 154 43.5 218.5t140.5 64.5q90 0 136 -56t46 -162h-150q0 68 -32 68q-18 0 -26 -20t-8 -73v-82q39 51 95 51zM203 140q21 0 32 25.5t11 97.5t-11 97.5t-32 25.5t-32 -25.5
t-11 -97.5t11 -97.5t32 -25.5z" />
    <glyph glyph-name="seven" unicode="7" horiz-adv-x="376" 
d="M10 800h356v-150q-47 -78 -76 -159t-41 -170t-15.5 -154.5t-3.5 -166.5h-150q0 94 5 165t20.5 157t49.5 168t86 160h-231v150z" />
    <glyph glyph-name="eight" unicode="8" 
d="M278 419q108 -44 108 -188v-18q0 -223 -188 -223t-188 223v18q0 144 108 188q-98 40 -98 173v20q0 97 46.5 147.5t131.5 50.5t131.5 -50.5t46.5 -147.5v-20q0 -133 -98 -173zM198 660q-24 0 -31 -17t-7 -66t7 -66t31 -17t31 17t7 66t-7 66t-31 17zM236 233v18
q0 56 -7 74.5t-31 18.5t-31 -18.5t-7 -74.5v-18q0 -56 7 -74.5t31 -18.5t31 18.5t7 74.5z" />
    <glyph glyph-name="nine" unicode="9" horiz-adv-x="406" 
d="M203 810q97 0 144.5 -64.5t48.5 -208.5v-264q-1 -154 -43.5 -218.5t-140.5 -64.5q-90 0 -136 56t-46 162h150q0 -68 32 -68q18 0 26 20t8 73v82q-39 -51 -95 -51q-141 0 -141 273q0 143 48.5 208t144.5 65zM203 414q21 0 32 25.5t11 97.5t-11 97.5t-32 25.5t-32 -25.5
t-11 -97.5t11 -97.5t32 -25.5z" />
    <glyph glyph-name="colon" unicode=":" horiz-adv-x="180" 
d="M90 320q-34 0 -57 22t-23 57q0 37 23 59t57 22t57 -22t23 -59q0 -35 -23 -57t-57 -22zM90 -10q-34 0 -57 22t-23 57q0 37 23 59t57 22t57 -22t23 -59q0 -35 -23 -57t-57 -22z" />
    <glyph glyph-name="semicolon" unicode=";" horiz-adv-x="180" 
d="M90 320q-34 0 -57 22t-23 57q0 37 23 59t57 22t57 -22t23 -59q0 -35 -23 -57t-57 -22zM10 69q0 37 23 59t57 22q35 0 57.5 -25.5t22.5 -75.5q0 -18 -5 -38t-18.5 -47t-43.5 -51t-73 -39v50q63 27 70 76q-34 -8 -62 13t-28 56z" />
    <glyph glyph-name="less" unicode="&#x3c;" horiz-adv-x="430" 
d="M420 509v-50l-340 -129l340 -129v-50l-410 159v40z" />
    <glyph glyph-name="equal" unicode="=" horiz-adv-x="430" 
d="M10 405h410v-50h-410v50zM10 305h410v-50h-410v50z" />
    <glyph glyph-name="greater" unicode="&#x3e;" horiz-adv-x="430" 
d="M10 509l410 -159v-40l-410 -159v50l340 129l-340 129v50z" />
    <glyph glyph-name="question" unicode="?" 
d="M202 660q-42 0 -42 -98h-150q0 248 192 248q91 0 137.5 -50.5t46.5 -137.5q0 -44 -15 -80.5t-36.5 -64t-43 -57t-36.5 -73t-15 -97.5h-130q0 66 13 118t31.5 82t37 53.5t31.5 48t13 50.5q0 58 -34 58zM175 150q34 0 57 -22t23 -59q0 -35 -23 -57t-57 -22t-57 22t-23 57
q0 37 23 59t57 22z" />
    <glyph glyph-name="at" unicode="@" horiz-adv-x="539" 
d="M356 562h50v-319q0 -71 8 -96.5t26 -25.5q13 0 21.5 17t13 64t4.5 128q0 80 -8 139.5t-28 112t-59 80.5t-97 28q-115 0 -171 -94t-56 -256q0 -166 55.5 -258t186.5 -92q95 0 170 30v-50q-75 -30 -170 -30q-157 0 -224.5 105t-67.5 295q0 186 68 293t209 107
q71 0 120 -31.5t75 -90.5t36.5 -128t10.5 -160q0 -130 -18.5 -194.5t-70.5 -64.5q-40 0 -58.5 27.5t-23.5 87.5q-35 -74 -100 -74q-128 0 -128 230t128 230q62 0 98 -71v61zM273 162q44 0 63.5 42t19.5 138q0 95 -20 137.5t-63 42.5q-93 0 -93 -180t93 -180z" />
    <glyph glyph-name="A" unicode="A" horiz-adv-x="421" 
d="M261 0l-11 136h-79l-11 -136h-150l98 800h205l98 -800h-150zM183 286h55l-27 355z" />
    <glyph glyph-name="B" unicode="B" horiz-adv-x="398" 
d="M298 421q90 -44 90 -172v-41q0 -113 -50.5 -160t-177.5 -48h-150v800h150q126 0 172 -47.5t46 -170.5v-7q0 -114 -80 -154zM228 582q0 44 -12 56t-56 12v-163q44 0 56 12.5t12 55.5v27zM160 150q45 0 61.5 13t16.5 55v51q0 42 -16.5 55t-61.5 13v-187z" />
    <glyph glyph-name="C" unicode="C" 
d="M236 475v97q0 53 -7 70.5t-31 17.5t-31 -17.5t-7 -70.5v-344q0 -53 7 -70.5t31 -17.5t31 17.5t7 70.5v97h150v-107q0 -228 -188 -228t-188 228v364q0 228 188 228t188 -228v-107h-150z" />
    <glyph glyph-name="D" unicode="D" horiz-adv-x="398" 
d="M160 800q128 0 178 -48.5t50 -169.5v-364q0 -120 -50.5 -169t-177.5 -49h-150v800h150zM160 150q45 0 61.5 13t16.5 55v364q0 42 -16.5 55t-61.5 13v-500z" />
    <glyph glyph-name="E" unicode="E" horiz-adv-x="305" 
d="M295 650h-135v-175h135v-150h-135v-175h135v-150h-285v800h285v-150z" />
    <glyph glyph-name="F" unicode="F" horiz-adv-x="305" 
d="M295 650h-135v-215h135v-150h-135v-285h-150v800h285v-150z" />
    <glyph glyph-name="G" unicode="G" 
d="M386 475h-150v97q0 52 -7.5 70t-30.5 18q-24 0 -31 -17.5t-7 -70.5v-344q0 -53 7 -70.5t31 -17.5t31 17.5t7 70.5v37h-38v150h188v-415h-60l-24 57q-53 -67 -127 -67q-83 0 -124 54.5t-41 173.5v364q0 228 188 228t188 -228v-107z" />
    <glyph glyph-name="H" unicode="H" horiz-adv-x="414" 
d="M254 800h150v-800h-150v325h-94v-325h-150v800h150v-325h94v325z" />
    <glyph glyph-name="I" unicode="I" horiz-adv-x="170" 
d="M10 800h150v-800h-150v800z" />
    <glyph glyph-name="J" unicode="J" 
d="M386 800v-582q0 -228 -188 -228t-188 228v60h150v-50q0 -53 7 -70.5t31 -17.5t31 17.5t7 70.5v572h150z" />
    <glyph glyph-name="K" unicode="K" horiz-adv-x="418" 
d="M10 800h150v-800h-150v800zM408 800l-99 -400l99 -400h-155l-93 400l93 400h155z" />
    <glyph glyph-name="L" unicode="L" horiz-adv-x="305" 
d="M160 150h135v-150h-285v800h150v-650z" />
    <glyph glyph-name="M" unicode="M" horiz-adv-x="514" 
d="M354 800h150v-800h-150v343l-62 -343h-70l-62 343v-343h-150v800h150l97 -462z" />
    <glyph glyph-name="N" unicode="N" horiz-adv-x="449" 
d="M289 800h150v-800h-150l-129 395v-395h-150v800h150l129 -395v395z" />
    <glyph glyph-name="O" unicode="O" 
d="M198 810q188 0 188 -228v-364q0 -228 -188 -228t-188 228v364q0 228 188 228zM236 228v344q0 53 -7 70.5t-31 17.5t-31 -17.5t-7 -70.5v-344q0 -53 7 -70.5t31 -17.5t31 17.5t7 70.5z" />
    <glyph glyph-name="P" unicode="P" horiz-adv-x="398" 
d="M160 800q128 0 178 -48.5t50 -169.5v-101q0 -120 -50 -168t-178 -50v-263h-150v800h150zM160 413q45 0 61.5 13t16.5 55v101q0 42 -16.5 55t-61.5 13v-237z" />
    <glyph glyph-name="Q" unicode="Q" 
d="M198 810q188 0 188 -228v-364q0 -194 -134 -223q65 -8 124 -45v-150q-60 36 -104 49t-124 21v124q-138 28 -138 224v364q0 228 188 228zM236 228v344q0 53 -7 70.5t-31 17.5t-31 -17.5t-7 -70.5v-344q0 -53 7 -70.5t31 -17.5t31 17.5t7 70.5z" />
    <glyph glyph-name="R" unicode="R" horiz-adv-x="399" 
d="M388 71q0 -58 11 -71h-150q-11 13 -11 71v154q0 42 -16.5 55t-61.5 13v-293h-150v800h150q128 0 178 -48.5t50 -169.5v-71q0 -125 -74 -179q74 -30 74 -137v-124zM238 582q0 42 -16.5 55t-61.5 13v-207q45 0 61.5 13t16.5 55v71z" />
    <glyph glyph-name="S" unicode="S" 
d="M242 478q37 -28 58.5 -49t44 -52.5t32 -72.5t9.5 -96q0 -109 -44 -163.5t-140 -54.5q-69 0 -109 23.5t-61.5 87t-21.5 177.5h150q0 -84 9.5 -111t32.5 -27q20 0 27 15t7 53q0 45 -14 71t-62 65q-3 2 -24 19t-25 20.5t-21.5 19.5t-22.5 24t-18 24.5t-17 30t-11 33t-9 41
t-2 46.5q0 208 181 208q95 0 140 -60t45 -188h-150q0 56 -8.5 77t-26.5 21q-31 0 -31 -58q0 -40 17.5 -64t64.5 -60z" />
    <glyph glyph-name="T" unicode="T" horiz-adv-x="376" 
d="M366 800v-150h-103v-650h-150v650h-103v150h356z" />
    <glyph glyph-name="U" unicode="U" 
d="M386 800v-582q0 -228 -188 -228t-188 228v582h150v-572q0 -53 7 -70.5t31 -17.5t31 17.5t7 70.5v572h150z" />
    <glyph glyph-name="V" unicode="V" horiz-adv-x="421" 
d="M261 800h150l-98 -800h-205l-98 800h150l51 -641z" />
    <glyph glyph-name="W" unicode="W" horiz-adv-x="753" 
d="M573 800h170l-138 -800h-258v585l-79 -585h-258v800h150v-633l76 633h261v-633z" />
    <glyph glyph-name="X" unicode="X" horiz-adv-x="458" 
d="M10 0l119 400l-119 400h160l59 -290l59 290h160l-119 -400l119 -400h-160l-59 290l-59 -290h-160z" />
    <glyph glyph-name="Y" unicode="Y" horiz-adv-x="458" 
d="M154 280l-144 520h160l59 -342l59 342h160l-144 -520v-280h-150v280z" />
    <glyph glyph-name="Z" unicode="Z" horiz-adv-x="365" 
d="M355 800v-150l-195 -500h195v-150h-345v150l195 500h-195v150h345z" />
    <glyph glyph-name="bracketleft" unicode="[" horiz-adv-x="150" 
d="M140 770h-80v-740h80v-40h-130v820h130v-40z" />
    <glyph glyph-name="backslash" unicode="\" horiz-adv-x="370" 
d="M10 810h53l297 -820h-53z" />
    <glyph glyph-name="bracketright" unicode="]" horiz-adv-x="150" 
d="M140 810v-820h-130v40h80v740h-80v40h130z" />
    <glyph glyph-name="asciicircum" unicode="^" horiz-adv-x="336" 
d="M326 500h-54l-104 256l-104 -256h-54l122 300h72z" />
    <glyph glyph-name="underscore" unicode="_" horiz-adv-x="600" 
d="M10 -5h580v-50h-580v50z" />
    <glyph glyph-name="grave" unicode="`" horiz-adv-x="305" 
d="M295 748l-10 -38l-275 73l10 39z" />
    <glyph glyph-name="a" unicode="a" horiz-adv-x="416" 
d="M396 96q0 -64 10 -96h-130q-30 18 -30 73q-18 -44 -43 -63.5t-67 -19.5q-54 0 -90 42.5t-36 126.5q0 54 17.5 95.5t43.5 64.5t56.5 43.5t57 33.5t44 33t17.5 44q0 27 -8 37t-29 10t-30 -15.5t-9 -52.5v-20h-150v20q0 106 45.5 157t143.5 51q97 0 142 -50.5t45 -157.5
v-356zM246 155v157q-11 -15 -34.5 -36.5t-37.5 -42t-14 -47.5q0 -56 42 -56q23 0 44 25z" />
    <glyph glyph-name="b" unicode="b" 
d="M277 660q66 0 87.5 -47.5t21.5 -160.5v-254q0 -113 -21.5 -160.5t-87.5 -47.5q-80 0 -117 83q0 -55 -30 -73h-130q10 32 10 96v704h150v-223q37 83 117 83zM236 188v274q0 34 -9 46t-29 12t-29 -12t-9 -46v-274q0 -34 9 -46t29 -12t29 12t9 46z" />
    <glyph glyph-name="c" unicode="c" 
d="M236 395v37q0 52 -7.5 70t-30.5 18q-24 0 -31 -17.5t-7 -70.5v-214q0 -53 7 -70.5t31 -17.5t31 17.5t7 70.5v37h150v-37q0 -228 -188 -228t-188 228v214q0 228 188 228t188 -228v-37h-150z" />
    <glyph glyph-name="d" unicode="d" 
d="M386 96q0 -64 10 -96h-130q-30 18 -30 73q-37 -83 -117 -83q-66 0 -87.5 47.5t-21.5 160.5v254q0 113 21.5 160.5t87.5 47.5q80 0 117 -83v223h150v-704zM236 188v274q0 34 -9 46t-29 12t-29 -12t-9 -46v-274q0 -34 9 -46t29 -12t29 12t9 46z" />
    <glyph glyph-name="e" unicode="e" 
d="M198 660q188 0 188 -228v-137h-226v-77q0 -53 7 -70.5t31 -17.5t31 17.5t7 70.5v37h150v-37q0 -228 -188 -228t-188 228v214q0 228 188 228zM236 395v37q0 52 -7.5 70t-30.5 18q-24 0 -31 -17.5t-7 -70.5v-37h76z" />
    <glyph glyph-name="f" unicode="f" horiz-adv-x="330" 
d="M288 690q-37 0 -52.5 -10.5t-15.5 -39.5v-30q12 19 30.5 28t32 10.5t37.5 1.5v-140h-100v-510h-150v510h-60v140h60q0 77 33.5 118.5t124.5 41.5q48 0 92 -10v-110h-32z" />
    <glyph glyph-name="g" unicode="g" 
d="M236 650h150v-632q0 -125 -33 -171.5t-135 -46.5h-178v140h138q31 0 44.5 15t13.5 63v55q-37 -83 -117 -83q-66 0 -87.5 47.5t-21.5 160.5v254q0 113 21.5 160.5t87.5 47.5q80 0 117 -83v73zM198 130q20 0 29 12t9 46v274q0 34 -9 46t-29 12t-29 -12t-9 -46v-274
q0 -34 9 -46t29 -12z" />
    <glyph glyph-name="h" unicode="h" 
d="M277 660q66 0 87.5 -47.5t21.5 -160.5v-452h-150v462q0 34 -9 46t-29 12t-29 -12t-9 -46v-462h-150v800h150v-223q37 83 117 83z" />
    <glyph glyph-name="i" unicode="i" horiz-adv-x="170" 
d="M85 680q-31 0 -53 19t-22 45q0 28 22 47t53 19t53 -19t22 -47q0 -26 -22 -45t-53 -19zM10 650h150v-650h-150v650z" />
    <glyph glyph-name="j" unicode="j" horiz-adv-x="260" 
d="M175 680q-31 0 -53 19t-22 45q0 28 22 47t53 19t53 -19t22 -47q0 -26 -22 -45t-53 -19zM100 18v632h150v-632q0 -125 -33 -171.5t-135 -46.5h-82v140h42q31 0 44.5 15t13.5 63z" />
    <glyph glyph-name="k" unicode="k" horiz-adv-x="418" 
d="M10 800h150v-800h-150v800zM408 650l-99 -325l99 -325h-155l-93 325l93 325h155z" />
    <glyph glyph-name="l" unicode="l" horiz-adv-x="170" 
d="M10 800h150v-800h-150v800z" />
    <glyph glyph-name="m" unicode="m" horiz-adv-x="602" 
d="M488 660q62 0 83 -47.5t21 -160.5v-452h-150v462q0 34 -8 46t-25 12t-25 -12t-8 -46v-10v-452h-150v462q0 34 -8 46t-25 12t-25 -12t-8 -46v-462h-150v650h150v-73q37 83 112 83q42 0 64.5 -21.5t31.5 -66.5q14 36 46 62t74 26z" />
    <glyph glyph-name="n" unicode="n" 
d="M277 660q66 0 87.5 -47.5t21.5 -160.5v-452h-150v462q0 34 -9 46t-29 12t-29 -12t-9 -46v-462h-150v650h150v-73q37 83 117 83z" />
    <glyph glyph-name="o" unicode="o" 
d="M10 218v214q0 228 188 228t188 -228v-214q0 -228 -188 -228t-188 228zM160 218q0 -53 7 -70.5t31 -17.5t31 17.5t7 70.5v214q0 52 -7.5 70t-30.5 18q-24 0 -31 -17.5t-7 -70.5v-214z" />
    <glyph glyph-name="p" unicode="p" 
d="M277 660q66 0 87.5 -47.5t21.5 -160.5v-254q0 -113 -21.5 -160.5t-87.5 -47.5q-80 0 -117 83v-273h-150v850h150v-73q37 83 117 83zM236 188v274q0 34 -9 46t-29 12t-29 -12t-9 -46v-274q0 -34 9 -46t29 -12t29 12t9 46z" />
    <glyph glyph-name="q" unicode="q" 
d="M236 650h150v-850h-150v273q-37 -83 -117 -83q-66 0 -87.5 47.5t-21.5 160.5v254q0 113 21.5 160.5t87.5 47.5q80 0 117 -83v73zM236 188v274q0 34 -9 46t-29 12t-29 -12t-9 -46v-274q0 -34 9 -46t29 -12t29 12t9 46z" />
    <glyph glyph-name="r" unicode="r" 
d="M280 660q64 0 85 -47.5t21 -160.5v-40h-150v50q0 32 -9 45t-29 13t-29 -13t-9 -45v-462h-150v650h150v-73q37 83 120 83z" />
    <glyph glyph-name="s" unicode="s" 
d="M261 379q66 -49 95.5 -90t29.5 -111q0 -88 -45 -138t-139 -50q-101 0 -146.5 53t-45.5 185h150q0 -56 10 -77t32 -21q34 0 34 48q0 25 -18.5 47.5t-82.5 66.5q-27 19 -38 27t-32 27.5t-30 36t-17 42.5t-8 57q0 80 45.5 129t135.5 49q185 0 185 -218h-150q0 78 -35 78
q-31 0 -31 -38q0 -5 1 -9.5t2 -8.5t4 -8.5t5.5 -8t8.5 -8.5t10.5 -8.5l13.5 -10.5t15.5 -11.5t19 -14t21.5 -15.5z" />
    <glyph glyph-name="t" unicode="t" horiz-adv-x="330" 
d="M320 510h-100v-292q0 -48 13.5 -63t44.5 -15h42v-140h-82q-102 0 -135 46.5t-33 171.5v292h-60v140q72 21 70 150h150q0 -133 -70 -150h160v-140z" />
    <glyph glyph-name="u" unicode="u" 
d="M386 96q0 -64 10 -96h-130q-30 18 -30 73q-37 -83 -117 -83q-66 0 -87.5 47.5t-21.5 160.5v452h150v-462q0 -34 9 -46t29 -12t29 12t9 46v462h150v-554z" />
    <glyph glyph-name="v" unicode="v" horiz-adv-x="401" 
d="M241 650h150l-88 -650h-205l-88 650h150l41 -462z" />
    <glyph glyph-name="w" unicode="w" horiz-adv-x="753" 
d="M573 650h170l-138 -650h-258v475l-79 -475h-258v650h150v-515l76 515h261v-515z" />
    <glyph glyph-name="x" unicode="x" horiz-adv-x="458" 
d="M10 0l119 325l-119 325h160l59 -231l59 231h160l-119 -325l119 -325h-160l-59 231l-59 -231h-160z" />
    <glyph glyph-name="y" unicode="y" 
d="M236 650h150v-632q0 -125 -33 -171.5t-135 -46.5h-178v140h138q31 0 44.5 15t13.5 63v55q-37 -83 -117 -83q-66 0 -87.5 47.5t-21.5 160.5v452h150v-462q0 -34 9 -46t29 -12t29 12t9 46v462z" />
    <glyph glyph-name="z" unicode="z" horiz-adv-x="365" 
d="M355 650v-140l-183 -370h183v-140h-345v140l183 370h-183v140h345z" />
    <glyph glyph-name="braceleft" unicode="{" horiz-adv-x="150" 
d="M140 810v-40q-31 0 -42 -33t-8 -81.5t6.5 -99t-4 -91.5t-32.5 -52v-26q25 -11 32.5 -52t4 -91.5t-6.5 -99t8 -81.5t42 -33v-40q-54 0 -77 38t-22 92t6 107.5t-1.5 91.5t-35.5 38v86q29 0 35.5 38t1.5 91.5t-6 107.5t22 92t77 38z" />
    <glyph glyph-name="bar" unicode="|" horiz-adv-x="70" 
d="M10 810h50v-820h-50v820z" />
    <glyph glyph-name="braceright" unicode="}" horiz-adv-x="150" 
d="M10 810q54 0 77 -38t22 -92t-6 -107.5t1.5 -91.5t35.5 -38v-86q-29 0 -35.5 -38t-1.5 -92t6 -107.5t-22 -91.5t-77 -38v40q31 0 42 33t8 81.5t-6.5 99t4 91.5t32.5 52v26q-25 11 -32.5 52t-4 91.5t6.5 99t-8 81.5t-42 33v40z" />
    <glyph glyph-name="asciitilde" unicode="~" horiz-adv-x="430" 
d="M10 290q0 110 100 110q41 0 79.5 -22.5t71 -45t59.5 -22.5q50 0 50 60h50q0 -110 -100 -110q-41 0 -79.5 22.5t-71 45t-59.5 22.5q-50 0 -50 -60h-50z" />
    <glyph glyph-name="exclamdown" unicode="&#xa1;" horiz-adv-x="180" 
d="M90 660q34 0 57 -22t23 -57q0 -37 -23 -59t-57 -22t-57 22t-23 59q0 35 23 57t57 22zM15 -150l10 550h130l10 -550h-150z" />
    <glyph glyph-name="cent" unicode="&#xa2;" 
d="M223 201q51 7 82 47t31 110h50q0 -86 -44 -143t-119 -64v-161h-50v162q-73 12 -118 76.5t-45 171.5t45 171.5t118 76.5v162h50v-161q75 -7 119 -64t44 -143h-50q0 70 -31.5 110t-81.5 47v-398zM60 400q0 -89 31.5 -137.5t81.5 -59.5v394q-50 -11 -81.5 -59.5
t-31.5 -137.5z" />
    <glyph glyph-name="sterling" unicode="&#xa3;" horiz-adv-x="382" 
d="M127 302q8 -57 9 -104t-17.5 -89t-58.5 -69h312v-40h-362v40q40 27 58.5 69t17.5 89t-9 104h-67v50h58q-31 168 -31 236q0 116 46.5 169t119.5 53q74 0 121.5 -59t47.5 -189h-50q0 198 -119 198q-55 0 -85.5 -39t-30.5 -133q0 -68 31 -236h180v-50h-171z" />
    <glyph glyph-name="currency" unicode="&#xa4;" horiz-adv-x="334" 
d="M303 400q0 -83 -34 -137l55 -75l-35 -35l-53 74q-29 -23 -69 -23t-69 23l-53 -74l-35 35l55 75q-34 54 -34 137t34 137l-55 75l35 35l53 -74q29 23 69 23q39 0 69 -22l53 73l35 -35l-55 -76q34 -54 34 -136zM81 400q0 -64 21.5 -105t64.5 -41t64.5 41t21.5 105t-21.5 105
t-64.5 41t-64.5 -41t-21.5 -105z" />
    <glyph glyph-name="yen" unicode="&#xa5;" horiz-adv-x="458" 
d="M448 800l-180 -483h117v-50h-131v-40h131v-50h-131v-177h-50v177h-131v50h131v40h-131v50h117l-180 483h55l164 -449l164 449h55z" />
    <glyph glyph-name="brokenbar" unicode="&#xa6;" horiz-adv-x="70" 
d="M10 810h50v-320h-50v320zM10 310h50v-320h-50v320z" />
    <glyph glyph-name="section" unicode="&#xa7;" horiz-adv-x="366" 
d="M273 251q38 -21 55.5 -49.5t17.5 -73.5q0 -59 -38.5 -98.5t-119.5 -39.5q-168 0 -168 198h50q0 -68 25.5 -108t92.5 -40q61 0 84.5 23.5t23.5 64.5q0 48 -34 74.5t-106 47.5q-82 24 -114 47t-32 64q0 79 83 91q-38 21 -55.5 49.5t-17.5 73.5q0 59 38.5 98.5t119.5 39.5
q168 0 168 -198h-50q0 68 -25.5 108t-92.5 40q-61 0 -84.5 -23.5t-23.5 -64.5q0 -48 34 -74.5t106 -47.5q82 -24 114 -47t32 -64q0 -79 -83 -91zM60 372q0 -28 23.5 -43t92.5 -38h1q129 -43 129 40q0 28 -23.5 43t-92.5 38h-1q-129 43 -129 -40z" />
    <glyph glyph-name="dieresis" unicode="&#xa8;" horiz-adv-x="265" 
d="M60 706q-21 0 -35.5 14t-14.5 35q0 23 14.5 37t35.5 14q20 0 35 -14t15 -37q0 -21 -15 -35t-35 -14zM205 706q-21 0 -35.5 14t-14.5 35q0 23 14.5 37t35.5 14q20 0 35 -14t15 -37q0 -21 -15 -35t-35 -14z" />
    <glyph glyph-name="copyright" unicode="&#xa9;" horiz-adv-x="604" 
d="M302 -10q292 0 292 410t-292 410t-292 -410t292 -410zM302 40q-242 0 -242 360t242 360t242 -360t-242 -360zM420 442q0 64 -32.5 101t-80.5 37q-123 0 -123 -180t123 -180q49 0 81 37t32 101h50q0 -79 -45 -133.5t-118 -54.5q-82 0 -127.5 61.5t-45.5 168.5t45.5 168.5
t127.5 61.5q73 0 118 -54.5t45 -133.5h-50z" />
    <glyph glyph-name="guillemotleft" unicode="&#xab;" horiz-adv-x="309" 
d="M159 449l-111 -119l111 -119v-60l-149 159v40l149 159v-60zM299 509v-60l-111 -119l111 -119v-60l-149 159v40z" />
    <glyph glyph-name="logicalnot" unicode="&#xac;" horiz-adv-x="430" 
d="M10 355h410v-189h-50v139h-360v50z" />
    <glyph glyph-name="registered" unicode="&#xae;" horiz-adv-x="404" 
d="M202 310q46 0 81.5 16t56 41t33 59.5t17 66.5t4.5 67t-4.5 67t-17 66.5t-33 59.5t-56 41t-81.5 16t-81.5 -16t-56 -41t-33 -59.5t-17 -66.5t-4.5 -67t4.5 -67t17 -66.5t33 -59.5t56 -41t81.5 -16zM202 360q-36 0 -62.5 14t-41.5 34.5t-24 49t-11.5 52.5t-2.5 50t2.5 50
t11.5 52.5t24 49t41.5 34.5t62.5 14t62.5 -14t41.5 -34.5t24 -49t11.5 -52.5t2.5 -50t-2.5 -50t-11.5 -52.5t-24 -49t-41.5 -34.5t-62.5 -14zM129 452v222h70q90 0 90 -80q0 -49 -31 -67l30 -75h-54l-25 62h-30v-62h-50zM179 564h20q40 0 40 30t-40 30h-20v-60z" />
    <glyph glyph-name="macron" unicode="&#xaf;" horiz-adv-x="305" 
d="M10 786h285v-40h-285v40z" />
    <glyph glyph-name="degree" unicode="&#xb0;" horiz-adv-x="264" 
d="M132 510q63 0 92.5 43t29.5 107t-29.5 107t-92.5 43t-92.5 -43t-29.5 -107t29.5 -107t92.5 -43zM132 560q-72 0 -72 100t72 100t72 -100t-72 -100z" />
    <glyph glyph-name="plusminus" unicode="&#xb1;" horiz-adv-x="430" 
d="M420 305h-180v-135h180v-50h-410v50h180v135h-180v50h180v180h50v-180h180v-50z" />
    <glyph glyph-name="acute" unicode="&#xb4;" horiz-adv-x="305" 
d="M10 748l275 74l10 -39l-275 -73z" />
    <glyph glyph-name="paragraph" unicode="&#xb6;" horiz-adv-x="303" 
d="M143 800h50v-800h-50v452q-72 0 -102.5 34t-30.5 140t30.5 140t102.5 34zM243 800h50v-800h-50v800z" />
    <glyph glyph-name="periodcentered" unicode="&#xb7;" horiz-adv-x="180" 
d="M90 249q-34 0 -57 22t-23 57q0 37 23 59t57 22t57 -22t23 -59q0 -35 -23 -57t-57 -22z" />
    <glyph glyph-name="cedilla" unicode="&#xb8;" horiz-adv-x="201" 
d="M46 0h50l-16 -67q111 18 111 -60q0 -23 -13 -39t-29.5 -24t-45.5 -12t-46 -4.5t-47 -0.5l1 40q72 0 101 7.5t29 32.5t-27.5 30t-82.5 -4z" />
    <glyph glyph-name="guillemotright" unicode="&#xbb;" horiz-adv-x="309" 
d="M159 350v-40l-149 -159v60l111 119l-111 119v60zM150 509l149 -159v-40l-149 -159v60l111 119l-111 119v60z" />
    <glyph glyph-name="questiondown" unicode="&#xbf;" 
d="M221 500q-34 0 -57 22t-23 59q0 35 23 57t57 22t57 -22t23 -57q0 -37 -23 -59t-57 -22zM236 88h150q0 -248 -192 -248q-91 0 -137.5 50.5t-46.5 137.5q0 44 15 80.5t36.5 64t43 57t36.5 73t15 97.5h130q0 -66 -13 -118t-31.5 -82t-37 -53.5t-31.5 -48t-13 -50.5
q0 -58 34 -58q42 0 42 98z" />
    <glyph glyph-name="Agrave" unicode="&#xc0;" horiz-adv-x="421" 
d="M353 898l-10 -38l-275 73l10 39zM261 0l-11 136h-79l-11 -136h-150l98 800h205l98 -800h-150zM183 286h55l-27 355z" />
    <glyph glyph-name="Aacute" unicode="&#xc1;" horiz-adv-x="421" 
d="M353 933l-275 -73l-10 38l275 74zM261 0l-11 136h-79l-11 -136h-150l98 800h205l98 -800h-150zM183 286h55l-27 355z" />
    <glyph glyph-name="Acircumflex" unicode="&#xc2;" horiz-adv-x="421" 
d="M212 942l-79 -82h-65l109 112h70l106 -112h-65zM261 0l-11 136h-79l-11 -136h-150l98 800h205l98 -800h-150zM183 286h55l-27 355z" />
    <glyph glyph-name="Atilde" unicode="&#xc3;" horiz-adv-x="421" 
d="M151 932q-33 0 -33 -60h-50q0 100 80 100q26 0 45 -11t28 -25t22 -25t27 -11q33 0 33 60h50q0 -100 -80 -100q-26 0 -45 11t-28.5 25t-22 25t-26.5 11zM261 0l-11 136h-79l-11 -136h-150l98 800h205l98 -800h-150zM183 286h55l-27 355z" />
    <glyph glyph-name="Adieresis" unicode="&#xc4;" horiz-adv-x="421" 
d="M138 856q-21 0 -35.5 14t-14.5 35q0 23 14.5 37t35.5 14q20 0 35 -14t15 -37q0 -21 -15 -35t-35 -14zM283 856q-21 0 -35.5 14t-14.5 35q0 23 14.5 37t35.5 14q20 0 35 -14t15 -37q0 -21 -15 -35t-35 -14zM261 0l-11 136h-79l-11 -136h-150l98 800h205l98 -800h-150z
M183 286h55l-27 355z" />
    <glyph glyph-name="Aring" unicode="&#xc5;" horiz-adv-x="421" 
d="M211 860q-27 0 -46.5 19t-19.5 47t19.5 47t46.5 19t46.5 -19t19.5 -47t-19.5 -47t-46.5 -19zM211 952q-12 0 -19 -7.5t-7 -18.5t7 -18.5t19 -7.5t19 7.5t7 18.5t-7 18.5t-19 7.5zM261 0l-11 136h-79l-11 -136h-150l98 800h205l98 -800h-150zM183 286h55l-27 355z" />
    <glyph glyph-name="AE" unicode="&#xc6;" horiz-adv-x="580" 
d="M570 650h-135v-175h135v-150h-135v-175h135v-150h-285v136h-110l-15 -136h-150l98 800h462v-150zM192 286h93v364h-52z" />
    <glyph glyph-name="Ccedilla" unicode="&#xc7;" 
d="M386 475h-150v97q0 53 -7 70.5t-31 17.5t-31 -17.5t-7 -70.5v-344q0 -53 7 -70.5t31 -17.5t31 17.5t7 70.5v97h150v-107q0 -215 -165 -227l-14 -58q111 18 111 -60q0 -23 -13 -39t-29.5 -24t-45.5 -12t-46 -4.5t-47 -0.5l1 40q72 0 101 7.5t29 32.5t-27.5 30t-82.5 -4
l14 92q-162 15 -162 227v364q0 228 188 228t188 -228v-107z" />
    <glyph glyph-name="Egrave" unicode="&#xc8;" horiz-adv-x="305" 
d="M295 898l-10 -38l-275 73l10 39zM295 800v-150h-135v-175h135v-150h-135v-175h135v-150h-285v800h285z" />
    <glyph glyph-name="Eacute" unicode="&#xc9;" horiz-adv-x="305" 
d="M295 933l-275 -73l-10 38l275 74zM295 800v-150h-135v-175h135v-150h-135v-175h135v-150h-285v800h285z" />
    <glyph glyph-name="Ecircumflex" unicode="&#xca;" horiz-adv-x="305" 
d="M154 942l-79 -82h-65l109 112h70l106 -112h-65zM295 800v-150h-135v-175h135v-150h-135v-175h135v-150h-285v800h285z" />
    <glyph glyph-name="Edieresis" unicode="&#xcb;" horiz-adv-x="305" 
d="M80 856q-21 0 -35.5 14t-14.5 35q0 23 14.5 37t35.5 14q20 0 35 -14t15 -37q0 -21 -15 -35t-35 -14zM225 856q-21 0 -35.5 14t-14.5 35q0 23 14.5 37t35.5 14q20 0 35 -14t15 -37q0 -21 -15 -35t-35 -14zM295 650h-135v-175h135v-150h-135v-175h135v-150h-285v800h285
v-150z" />
    <glyph glyph-name="Igrave" unicode="&#xcc;" horiz-adv-x="170" 
d="M227 898l-10 -38l-275 73l10 39zM10 800h150v-800h-150v800z" />
    <glyph glyph-name="Iacute" unicode="&#xcd;" horiz-adv-x="170" 
d="M-58 898l275 74l10 -39l-275 -73zM10 800h150v-800h-150v800z" />
    <glyph glyph-name="Icircumflex" unicode="&#xce;" horiz-adv-x="170" 
d="M51 972h70l106 -112h-65l-76 82l-79 -82h-65zM10 800h150v-800h-150v800z" />
    <glyph glyph-name="Idieresis" unicode="&#xcf;" horiz-adv-x="170" 
d="M12 856q-21 0 -35.5 14t-14.5 35q0 23 14.5 37t35.5 14q20 0 35 -14t15 -37q0 -21 -15 -35t-35 -14zM157 856q-21 0 -35.5 14t-14.5 35q0 23 14.5 37t35.5 14q20 0 35 -14t15 -37q0 -21 -15 -35t-35 -14zM10 800h150v-800h-150v800z" />
    <glyph glyph-name="Eth" unicode="&#xd0;" horiz-adv-x="456" 
d="M218 800q128 0 178 -48.5t50 -169.5v-364q0 -120 -50.5 -169t-177.5 -49h-150v380h-68v40h68v380h150zM218 150q45 0 61.5 13t16.5 55v364q0 42 -16.5 55t-61.5 13v-230h67v-40h-67v-230z" />
    <glyph glyph-name="Ntilde" unicode="&#xd1;" horiz-adv-x="449" 
d="M165 932q-33 0 -33 -60h-50q0 100 80 100q26 0 45 -11t28 -25t22 -25t27 -11q33 0 33 60h50q0 -100 -80 -100q-26 0 -45 11t-28.5 25t-22 25t-26.5 11zM289 800h150v-800h-150l-129 395v-395h-150v800h150l129 -395v395z" />
    <glyph glyph-name="Ograve" unicode="&#xd2;" 
d="M340 898l-10 -38l-275 73l10 39zM198 810q188 0 188 -228v-364q0 -228 -188 -228t-188 228v364q0 228 188 228zM236 228v344q0 53 -7 70.5t-31 17.5t-31 -17.5t-7 -70.5v-344q0 -53 7 -70.5t31 -17.5t31 17.5t7 70.5z" />
    <glyph glyph-name="Oacute" unicode="&#xd3;" 
d="M340 933l-275 -73l-10 38l275 74zM198 810q188 0 188 -228v-364q0 -228 -188 -228t-188 228v364q0 228 188 228zM236 228v344q0 53 -7 70.5t-31 17.5t-31 -17.5t-7 -70.5v-344q0 -53 7 -70.5t31 -17.5t31 17.5t7 70.5z" />
    <glyph glyph-name="Ocircumflex" unicode="&#xd4;" 
d="M199 942l-79 -82h-65l109 112h70l106 -112h-65zM198 810q188 0 188 -228v-364q0 -228 -188 -228t-188 228v364q0 228 188 228zM236 228v344q0 53 -7 70.5t-31 17.5t-31 -17.5t-7 -70.5v-344q0 -53 7 -70.5t31 -17.5t31 17.5t7 70.5z" />
    <glyph glyph-name="Otilde" unicode="&#xd5;" 
d="M138 932q-33 0 -33 -60h-50q0 100 80 100q26 0 45 -11t28.5 -25t22 -25t26.5 -11q33 0 33 60h50q0 -100 -80 -100q-26 0 -45 11t-28 25t-22 25t-27 11zM198 810q188 0 188 -228v-364q0 -228 -188 -228t-188 228v364q0 228 188 228zM236 228v344q0 53 -7 70.5t-31 17.5
t-31 -17.5t-7 -70.5v-344q0 -53 7 -70.5t31 -17.5t31 17.5t7 70.5z" />
    <glyph glyph-name="Odieresis" unicode="&#xd6;" 
d="M125 856q-21 0 -35.5 14t-14.5 35q0 23 14.5 37t35.5 14q20 0 35 -14t15 -37q0 -21 -15 -35t-35 -14zM270 856q-21 0 -35.5 14t-14.5 35q0 23 14.5 37t35.5 14q20 0 35 -14t15 -37q0 -21 -15 -35t-35 -14zM198 810q188 0 188 -228v-364q0 -228 -188 -228t-188 228v364
q0 228 188 228zM236 228v344q0 53 -7 70.5t-31 17.5t-31 -17.5t-7 -70.5v-344q0 -53 7 -70.5t31 -17.5t31 17.5t7 70.5z" />
    <glyph glyph-name="multiply" unicode="&#xd7;" horiz-adv-x="338" 
d="M332 457l-127 -127l127 -127l-35 -35l-127 127l-128 -128l-35 35l128 128l-128 128l35 35l128 -128l127 127z" />
    <glyph glyph-name="Oslash" unicode="&#xd8;" 
d="M348 742q38 -56 38 -160v-364q0 -228 -188 -228q-68 0 -112 29l-10 -29h-53l25 68q-38 56 -38 160v364q0 228 188 228q68 0 112 -29l10 29h53zM160 572v-204l76 210q0 49 -7.5 65.5t-30.5 16.5q-24 0 -31 -17.5t-7 -70.5zM236 228v204l-76 -210q0 -49 7.5 -65.5
t30.5 -16.5q24 0 31 17.5t7 70.5z" />
    <glyph glyph-name="Ugrave" unicode="&#xd9;" 
d="M340 898l-10 -38l-275 73l10 39zM386 800v-582q0 -228 -188 -228t-188 228v582h150v-572q0 -53 7 -70.5t31 -17.5t31 17.5t7 70.5v572h150z" />
    <glyph glyph-name="Uacute" unicode="&#xda;" 
d="M55 898l275 74l10 -39l-275 -73zM386 800v-582q0 -228 -188 -228t-188 228v582h150v-572q0 -53 7 -70.5t31 -17.5t31 17.5t7 70.5v572h150z" />
    <glyph glyph-name="Ucircumflex" unicode="&#xdb;" 
d="M164 972h70l106 -112h-65l-76 82l-79 -82h-65zM386 800v-582q0 -228 -188 -228t-188 228v582h150v-572q0 -53 7 -70.5t31 -17.5t31 17.5t7 70.5v572h150z" />
    <glyph glyph-name="Udieresis" unicode="&#xdc;" 
d="M125 856q-21 0 -35.5 14t-14.5 35q0 23 14.5 37t35.5 14q20 0 35 -14t15 -37q0 -21 -15 -35t-35 -14zM270 856q-21 0 -35.5 14t-14.5 35q0 23 14.5 37t35.5 14q20 0 35 -14t15 -37q0 -21 -15 -35t-35 -14zM386 800v-582q0 -228 -188 -228t-188 228v582h150v-572
q0 -53 7 -70.5t31 -17.5t31 17.5t7 70.5v572h150z" />
    <glyph glyph-name="Yacute" unicode="&#xdd;" horiz-adv-x="458" 
d="M86 898l275 74l10 -39l-275 -73zM154 280l-144 520h160l59 -342l59 342h160l-144 -520v-280h-150v280z" />
    <glyph glyph-name="Thorn" unicode="&#xde;" horiz-adv-x="398" 
d="M160 650q128 0 178 -48.5t50 -169.5v-101q0 -120 -50 -168t-178 -50v-113h-150v800h150v-150zM160 263q45 0 61.5 13t16.5 55v101q0 42 -16.5 55t-61.5 13v-237z" />
    <glyph glyph-name="germandbls" unicode="&#xdf;" horiz-adv-x="416" 
d="M321 420q85 -51 85 -197q0 -124 -45.5 -173.5t-155.5 -49.5h-22v140h22q26 0 38.5 22t12.5 81q0 56 -12.5 79.5t-38.5 23.5h-22v140h22q31 0 31 91q0 49 -8 71t-28 22q-21 0 -30.5 -25t-9.5 -83v-562h-150v562q0 130 44.5 189t145.5 59q93 0 139.5 -53t46.5 -150
q0 -136 -65 -187z" />
    <glyph glyph-name="agrave" unicode="&#xe0;" horiz-adv-x="416" 
d="M350 748l-10 -38l-275 73l10 39zM396 96q0 -64 10 -96h-130q-30 18 -30 73q-18 -44 -43 -63.5t-67 -19.5q-54 0 -90 42.5t-36 126.5q0 54 17.5 95.5t43.5 64.5t56.5 43.5t57 33.5t44 33t17.5 44q0 27 -8 37t-29 10t-30 -15.5t-9 -52.5v-20h-150v20q0 106 45.5 157
t143.5 51q97 0 142 -50.5t45 -157.5v-356zM246 155v157q-11 -15 -34.5 -36.5t-37.5 -42t-14 -47.5q0 -56 42 -56q23 0 44 25z" />
    <glyph glyph-name="aacute" unicode="&#xe1;" horiz-adv-x="416" 
d="M350 783l-275 -73l-10 38l275 74zM396 96q0 -64 10 -96h-130q-30 18 -30 73q-18 -44 -43 -63.5t-67 -19.5q-54 0 -90 42.5t-36 126.5q0 54 17.5 95.5t43.5 64.5t56.5 43.5t57 33.5t44 33t17.5 44q0 27 -8 37t-29 10t-30 -15.5t-9 -52.5v-20h-150v20q0 106 45.5 157
t143.5 51q97 0 142 -50.5t45 -157.5v-356zM246 155v157q-11 -15 -34.5 -36.5t-37.5 -42t-14 -47.5q0 -56 42 -56q23 0 44 25z" />
    <glyph glyph-name="acircumflex" unicode="&#xe2;" horiz-adv-x="416" 
d="M209 792l-79 -82h-65l109 112h70l106 -112h-65zM396 96q0 -64 10 -96h-130q-30 18 -30 73q-18 -44 -43 -63.5t-67 -19.5q-54 0 -90 42.5t-36 126.5q0 54 17.5 95.5t43.5 64.5t56.5 43.5t57 33.5t44 33t17.5 44q0 27 -8 37t-29 10t-30 -15.5t-9 -52.5v-20h-150v20
q0 106 45.5 157t143.5 51q97 0 142 -50.5t45 -157.5v-356zM246 155v157q-11 -15 -34.5 -36.5t-37.5 -42t-14 -47.5q0 -56 42 -56q23 0 44 25z" />
    <glyph glyph-name="atilde" unicode="&#xe3;" horiz-adv-x="416" 
d="M148 782q-33 0 -33 -60h-50q0 100 80 100q26 0 45 -11t28.5 -25t22 -25t26.5 -11q33 0 33 60h50q0 -100 -80 -100q-26 0 -45 11t-28 25t-22 25t-27 11zM396 96q0 -64 10 -96h-130q-30 18 -30 73q-18 -44 -43 -63.5t-67 -19.5q-54 0 -90 42.5t-36 126.5q0 54 17.5 95.5
t43.5 64.5t56.5 43.5t57 33.5t44 33t17.5 44q0 27 -8 37t-29 10t-30 -15.5t-9 -52.5v-20h-150v20q0 106 45.5 157t143.5 51q97 0 142 -50.5t45 -157.5v-356zM246 155v157q-11 -15 -34.5 -36.5t-37.5 -42t-14 -47.5q0 -56 42 -56q23 0 44 25z" />
    <glyph glyph-name="adieresis" unicode="&#xe4;" horiz-adv-x="416" 
d="M135 706q-21 0 -35.5 14t-14.5 35q0 23 14.5 37t35.5 14q20 0 35 -14t15 -37q0 -21 -15 -35t-35 -14zM280 706q-21 0 -35.5 14t-14.5 35q0 23 14.5 37t35.5 14q20 0 35 -14t15 -37q0 -21 -15 -35t-35 -14zM396 96q0 -64 10 -96h-130q-30 18 -30 73q-18 -44 -43 -63.5
t-67 -19.5q-54 0 -90 42.5t-36 126.5q0 54 17.5 95.5t43.5 64.5t56.5 43.5t57 33.5t44 33t17.5 44q0 27 -8 37t-29 10t-30 -15.5t-9 -52.5v-20h-150v20q0 106 45.5 157t143.5 51q97 0 142 -50.5t45 -157.5v-356zM246 155v157q-11 -15 -34.5 -36.5t-37.5 -42t-14 -47.5
q0 -56 42 -56q23 0 44 25z" />
    <glyph glyph-name="aring" unicode="&#xe5;" horiz-adv-x="416" 
d="M208 710q-27 0 -46.5 19t-19.5 47t19.5 47t46.5 19t46.5 -19t19.5 -47t-19.5 -47t-46.5 -19zM208 802q-12 0 -19 -7.5t-7 -18.5t7 -18.5t19 -7.5t19 7.5t7 18.5t-7 18.5t-19 7.5zM396 96q0 -64 10 -96h-130q-30 18 -30 73q-18 -44 -43 -63.5t-67 -19.5q-54 0 -90 42.5
t-36 126.5q0 54 17.5 95.5t43.5 64.5t56.5 43.5t57 33.5t44 33t17.5 44q0 27 -8 37t-29 10t-30 -15.5t-9 -52.5v-20h-150v20q0 106 45.5 157t143.5 51q97 0 142 -50.5t45 -157.5v-356zM246 155v157q-11 -15 -34.5 -36.5t-37.5 -42t-14 -47.5q0 -56 42 -56q23 0 44 25z" />
    <glyph glyph-name="ae" unicode="&#xe6;" horiz-adv-x="632" 
d="M434 660q188 0 188 -228v-137h-226v-77q0 -53 7 -70.5t31 -17.5t31 17.5t7 70.5v37h150v-37q0 -228 -188 -228q-114 0 -159 82q-27 -44 -55 -63t-76 -19q-56 0 -95 36t-39 108q0 53 17.5 96t43.5 68.5t56.5 49.5t57 40.5t44 38.5t17.5 46q0 27 -8 37t-29 10t-30 -15.5
t-9 -52.5v-20h-150v20q0 208 168 208q69 0 112 -48q45 48 134 48zM472 395v37q0 52 -7.5 70t-30.5 18q-24 0 -31 -17.5t-7 -70.5v-37h76zM202 130q13 0 49 22q-5 33 -5 66v94q-11 -15 -34.5 -36.5t-37.5 -42t-14 -47.5q0 -56 42 -56z" />
    <glyph glyph-name="ccedilla" unicode="&#xe7;" 
d="M386 395h-150v37q0 52 -7.5 70t-30.5 18q-24 0 -31 -17.5t-7 -70.5v-214q0 -53 7 -70.5t31 -17.5t31 17.5t7 70.5v37h150v-37q0 -215 -165 -227l-14 -58q111 18 111 -60q0 -23 -13 -39t-29.5 -24t-45.5 -12t-46 -4.5t-47 -0.5l1 40q72 0 101 7.5t29 32.5t-27.5 30
t-82.5 -4l14 92q-162 15 -162 227v214q0 228 188 228t188 -228v-37z" />
    <glyph glyph-name="egrave" unicode="&#xe8;" 
d="M340 748l-10 -38l-275 73l10 39zM198 660q188 0 188 -228v-137h-226v-77q0 -53 7 -70.5t31 -17.5t31 17.5t7 70.5v37h150v-37q0 -228 -188 -228t-188 228v214q0 228 188 228zM236 395v37q0 52 -7.5 70t-30.5 18q-24 0 -31 -17.5t-7 -70.5v-37h76z" />
    <glyph glyph-name="eacute" unicode="&#xe9;" 
d="M340 783l-275 -73l-10 38l275 74zM198 660q188 0 188 -228v-137h-226v-77q0 -53 7 -70.5t31 -17.5t31 17.5t7 70.5v37h150v-37q0 -228 -188 -228t-188 228v214q0 228 188 228zM236 395v37q0 52 -7.5 70t-30.5 18q-24 0 -31 -17.5t-7 -70.5v-37h76z" />
    <glyph glyph-name="ecircumflex" unicode="&#xea;" 
d="M199 792l-79 -82h-65l109 112h70l106 -112h-65zM198 660q188 0 188 -228v-137h-226v-77q0 -53 7 -70.5t31 -17.5t31 17.5t7 70.5v37h150v-37q0 -228 -188 -228t-188 228v214q0 228 188 228zM236 395v37q0 52 -7.5 70t-30.5 18q-24 0 -31 -17.5t-7 -70.5v-37h76z" />
    <glyph glyph-name="edieresis" unicode="&#xeb;" 
d="M125 706q-21 0 -35.5 14t-14.5 35q0 23 14.5 37t35.5 14q20 0 35 -14t15 -37q0 -21 -15 -35t-35 -14zM270 706q-21 0 -35.5 14t-14.5 35q0 23 14.5 37t35.5 14q20 0 35 -14t15 -37q0 -21 -15 -35t-35 -14zM198 660q188 0 188 -228v-137h-226v-77q0 -53 7 -70.5t31 -17.5
t31 17.5t7 70.5v37h150v-37q0 -228 -188 -228t-188 228v214q0 228 188 228zM236 395v37q0 52 -7.5 70t-30.5 18q-24 0 -31 -17.5t-7 -70.5v-37h76z" />
    <glyph glyph-name="igrave" unicode="&#xec;" horiz-adv-x="170" 
d="M227 748l-10 -38l-275 73l10 39zM10 650h150v-650h-150v650z" />
    <glyph glyph-name="iacute" unicode="&#xed;" horiz-adv-x="170" 
d="M-58 748l275 74l10 -39l-275 -73zM10 650h150v-650h-150v650z" />
    <glyph glyph-name="icircumflex" unicode="&#xee;" horiz-adv-x="170" 
d="M51 822h70l106 -112h-65l-76 82l-79 -82h-65zM10 650h150v-650h-150v650z" />
    <glyph glyph-name="idieresis" unicode="&#xef;" horiz-adv-x="170" 
d="M12 706q-21 0 -35.5 14t-14.5 35q0 23 14.5 37t35.5 14q20 0 35 -14t15 -37q0 -21 -15 -35t-35 -14zM157 706q-21 0 -35.5 14t-14.5 35q0 23 14.5 37t35.5 14q20 0 35 -14t15 -37q0 -21 -15 -35t-35 -14zM10 650h150v-650h-150v650z" />
    <glyph glyph-name="eth" unicode="&#xf0;" horiz-adv-x="464" 
d="M322 676q132 -147 132 -363q0 -150 -62 -236.5t-170 -86.5q-100 0 -156 70.5t-56 195.5q0 104 46 172.5t138 68.5q66 0 110 -61q-25 94 -105 164l-132 -81v56l91 56q-40 29 -91 51l60 128q89 -33 161 -99l124 77v-56zM233 130q38 0 54.5 27.5t16.5 90.5q0 60 -17.5 84.5
t-53.5 24.5t-54.5 -25t-18.5 -84q0 -67 17 -92.5t56 -25.5z" />
    <glyph glyph-name="ntilde" unicode="&#xf1;" 
d="M138 782q-33 0 -33 -60h-50q0 100 80 100q26 0 45 -11t28.5 -25t22 -25t26.5 -11q33 0 33 60h50q0 -100 -80 -100q-26 0 -45 11t-28 25t-22 25t-27 11zM277 660q66 0 87.5 -47.5t21.5 -160.5v-452h-150v462q0 34 -9 46t-29 12t-29 -12t-9 -46v-462h-150v650h150v-73
q37 83 117 83z" />
    <glyph glyph-name="ograve" unicode="&#xf2;" 
d="M340 748l-10 -38l-275 73l10 39zM10 218v214q0 228 188 228t188 -228v-214q0 -228 -188 -228t-188 228zM160 218q0 -53 7 -70.5t31 -17.5t31 17.5t7 70.5v214q0 52 -7.5 70t-30.5 18q-24 0 -31 -17.5t-7 -70.5v-214z" />
    <glyph glyph-name="oacute" unicode="&#xf3;" 
d="M55 748l275 74l10 -39l-275 -73zM10 218v214q0 228 188 228t188 -228v-214q0 -228 -188 -228t-188 228zM160 218q0 -53 7 -70.5t31 -17.5t31 17.5t7 70.5v214q0 52 -7.5 70t-30.5 18q-24 0 -31 -17.5t-7 -70.5v-214z" />
    <glyph glyph-name="ocircumflex" unicode="&#xf4;" 
d="M164 822h70l106 -112h-65l-76 82l-79 -82h-65zM10 218v214q0 228 188 228t188 -228v-214q0 -228 -188 -228t-188 228zM160 218q0 -53 7 -70.5t31 -17.5t31 17.5t7 70.5v214q0 52 -7.5 70t-30.5 18q-24 0 -31 -17.5t-7 -70.5v-214z" />
    <glyph glyph-name="otilde" unicode="&#xf5;" 
d="M55 722q0 100 80 100q26 0 45 -11t28.5 -25t22 -25t26.5 -11q33 0 33 60h50q0 -100 -80 -100q-26 0 -45 11t-28 25t-22 25t-27 11q-33 0 -33 -60h-50zM10 218v214q0 228 188 228t188 -228v-214q0 -228 -188 -228t-188 228zM160 218q0 -53 7 -70.5t31 -17.5t31 17.5
t7 70.5v214q0 52 -7.5 70t-30.5 18q-24 0 -31 -17.5t-7 -70.5v-214z" />
    <glyph glyph-name="odieresis" unicode="&#xf6;" 
d="M125 706q-21 0 -35.5 14t-14.5 35q0 23 14.5 37t35.5 14q20 0 35 -14t15 -37q0 -21 -15 -35t-35 -14zM270 706q-21 0 -35.5 14t-14.5 35q0 23 14.5 37t35.5 14q20 0 35 -14t15 -37q0 -21 -15 -35t-35 -14zM10 218v214q0 228 188 228t188 -228v-214q0 -228 -188 -228
t-188 228zM160 218q0 -53 7 -70.5t31 -17.5t31 17.5t7 70.5v214q0 52 -7.5 70t-30.5 18q-24 0 -31 -17.5t-7 -70.5v-214z" />
    <glyph glyph-name="divide" unicode="&#xf7;" horiz-adv-x="430" 
d="M215 415q-13 0 -21.5 8.5t-8.5 21.5q0 12 8.5 21t21.5 9q12 0 21 -9t9 -21q0 -13 -9 -21.5t-21 -8.5zM10 355h410v-50h-410v50zM215 185q-13 0 -21.5 8.5t-8.5 21.5q0 12 8.5 21t21.5 9q12 0 21 -9t9 -21q0 -13 -9 -21.5t-21 -8.5z" />
    <glyph glyph-name="oslash" unicode="&#xf8;" 
d="M329 615q57 -57 57 -183v-214q0 -228 -188 -228q-53 0 -89 16l-33 -91h-53l44 120q-57 57 -57 183v214q0 228 188 228q53 0 89 -16l33 91h53zM160 432v-139l72 199q-7 28 -34 28q-24 0 -31 -17.5t-7 -70.5zM198 130q24 0 31 17.5t7 70.5v139l-72 -199q5 -28 34 -28z" />
    <glyph glyph-name="ugrave" unicode="&#xf9;" 
d="M340 748l-10 -38l-275 73l10 39zM386 96q0 -64 10 -96h-130q-30 18 -30 73q-37 -83 -117 -83q-66 0 -87.5 47.5t-21.5 160.5v452h150v-462q0 -34 9 -46t29 -12t29 12t9 46v462h150v-554z" />
    <glyph glyph-name="uacute" unicode="&#xfa;" 
d="M340 783l-275 -73l-10 38l275 74zM386 96q0 -64 10 -96h-130q-30 18 -30 73q-37 -83 -117 -83q-66 0 -87.5 47.5t-21.5 160.5v452h150v-462q0 -34 9 -46t29 -12t29 12t9 46v462h150v-554z" />
    <glyph glyph-name="ucircumflex" unicode="&#xfb;" 
d="M199 792l-79 -82h-65l109 112h70l106 -112h-65zM386 96q0 -64 10 -96h-130q-30 18 -30 73q-37 -83 -117 -83q-66 0 -87.5 47.5t-21.5 160.5v452h150v-462q0 -34 9 -46t29 -12t29 12t9 46v462h150v-554z" />
    <glyph glyph-name="udieresis" unicode="&#xfc;" 
d="M125 706q-21 0 -35.5 14t-14.5 35q0 23 14.5 37t35.5 14q20 0 35 -14t15 -37q0 -21 -15 -35t-35 -14zM270 706q-21 0 -35.5 14t-14.5 35q0 23 14.5 37t35.5 14q20 0 35 -14t15 -37q0 -21 -15 -35t-35 -14zM386 96q0 -64 10 -96h-130q-30 18 -30 73q-37 -83 -117 -83
q-66 0 -87.5 47.5t-21.5 160.5v452h150v-462q0 -34 9 -46t29 -12t29 12t9 46v462h150v-554z" />
    <glyph glyph-name="yacute" unicode="&#xfd;" 
d="M340 783l-275 -73l-10 38l275 74zM236 650h150v-632q0 -125 -33 -171.5t-135 -46.5h-178v140h138q31 0 44.5 15t13.5 63v55q-37 -83 -117 -83q-66 0 -87.5 47.5t-21.5 160.5v452h150v-462q0 -34 9 -46t29 -12t29 12t9 46v462z" />
    <glyph glyph-name="thorn" unicode="&#xfe;" 
d="M277 660q66 0 87.5 -47.5t21.5 -160.5v-254q0 -113 -21.5 -160.5t-87.5 -47.5q-80 0 -117 83v-273h-150v1000h150v-223q37 83 117 83zM236 188v274q0 34 -9 46t-29 12t-29 -12t-9 -46v-274q0 -34 9 -46t29 -12t29 12t9 46z" />
    <glyph glyph-name="ydieresis" unicode="&#xff;" 
d="M125 706q-21 0 -35.5 14t-14.5 35q0 23 14.5 37t35.5 14q20 0 35 -14t15 -37q0 -21 -15 -35t-35 -14zM270 706q-21 0 -35.5 14t-14.5 35q0 23 14.5 37t35.5 14q20 0 35 -14t15 -37q0 -21 -15 -35t-35 -14zM236 650h150v-632q0 -125 -33 -171.5t-135 -46.5h-178v140h138
q31 0 44.5 15t13.5 63v55q-37 -83 -117 -83q-66 0 -87.5 47.5t-21.5 160.5v452h150v-462q0 -34 9 -46t29 -12t29 12t9 46v462z" />
    <glyph glyph-name="Amacron" unicode="&#x100;" horiz-adv-x="421" 
d="M353 936v-40h-285v40h285zM261 0l-11 136h-79l-11 -136h-150l98 800h205l98 -800h-150zM183 286h55l-27 355z" />
    <glyph glyph-name="amacron" unicode="&#x101;" horiz-adv-x="416" 
d="M350 786v-40h-285v40h285zM396 96q0 -64 10 -96h-130q-30 18 -30 73q-18 -44 -43 -63.5t-67 -19.5q-54 0 -90 42.5t-36 126.5q0 54 17.5 95.5t43.5 64.5t56.5 43.5t57 33.5t44 33t17.5 44q0 27 -8 37t-29 10t-30 -15.5t-9 -52.5v-20h-150v20q0 106 45.5 157t143.5 51
q97 0 142 -50.5t45 -157.5v-356zM246 155v157q-11 -15 -34.5 -36.5t-37.5 -42t-14 -47.5q0 -56 42 -56q23 0 44 25z" />
    <glyph glyph-name="Abreve" unicode="&#x102;" horiz-adv-x="421" 
d="M212 860q-61 0 -102.5 26t-41.5 86h50q0 -38 29.5 -55t64.5 -17t63 17t28 55h50q0 -60 -40 -86t-101 -26zM261 0l-11 136h-79l-11 -136h-150l98 800h205l98 -800h-150zM183 286h55l-27 355z" />
    <glyph glyph-name="abreve" unicode="&#x103;" horiz-adv-x="416" 
d="M209 710q-61 0 -102.5 26t-41.5 86h50q0 -38 29.5 -55t64.5 -17t63 17t28 55h50q0 -60 -40 -86t-101 -26zM396 96q0 -64 10 -96h-130q-30 18 -30 73q-18 -44 -43 -63.5t-67 -19.5q-54 0 -90 42.5t-36 126.5q0 54 17.5 95.5t43.5 64.5t56.5 43.5t57 33.5t44 33t17.5 44
q0 27 -8 37t-29 10t-30 -15.5t-9 -52.5v-20h-150v20q0 106 45.5 157t143.5 51q97 0 142 -50.5t45 -157.5v-356zM246 155v157q-11 -15 -34.5 -36.5t-37.5 -42t-14 -47.5q0 -56 42 -56q23 0 44 25z" />
    <glyph glyph-name="Aogonek" unicode="&#x104;" horiz-adv-x="421" 
d="M294 -90q0 -32 29 -48.5t101 -18.5l-40 -40q-160 0 -160 98q0 69 96 99h-59l-11 136h-79l-11 -136h-150l98 800h205l97 -790h4l-2 -1l-2 -1l1 -8h-22q-50 -20 -72.5 -41.5t-22.5 -48.5zM183 286h55l-27 355z" />
    <glyph glyph-name="aogonek" unicode="&#x105;" horiz-adv-x="416" 
d="M286 -100q0 -32 29 -48.5t101 -18.5l-40 -40q-160 0 -160 98q0 47 40 73t100 36h-80q-30 18 -30 73q-18 -44 -43 -63.5t-67 -19.5q-54 0 -90 42.5t-36 126.5q0 54 17.5 95.5t43.5 64.5t56.5 43.5t57 33.5t44 33t17.5 44q0 27 -8 37t-29 10t-30 -15.5t-9 -52.5v-20h-150
v20q0 106 45.5 157t143.5 51q97 0 142 -50.5t45 -157.5v-356q0 -64 10 -96q-63 -24 -91.5 -47t-28.5 -53zM246 155v157q-11 -15 -34.5 -36.5t-37.5 -42t-14 -47.5q0 -56 42 -56q23 0 44 25z" />
    <glyph glyph-name="Cacute" unicode="&#x106;" 
d="M55 898l275 74l10 -39l-275 -73zM236 475v97q0 53 -7 70.5t-31 17.5t-31 -17.5t-7 -70.5v-344q0 -53 7 -70.5t31 -17.5t31 17.5t7 70.5v97h150v-107q0 -228 -188 -228t-188 228v364q0 228 188 228t188 -228v-107h-150z" />
    <glyph glyph-name="cacute" unicode="&#x107;" 
d="M55 748l275 74l10 -39l-275 -73zM236 395v37q0 52 -7.5 70t-30.5 18q-24 0 -31 -17.5t-7 -70.5v-214q0 -53 7 -70.5t31 -17.5t31 17.5t7 70.5v37h150v-37q0 -228 -188 -228t-188 228v214q0 228 188 228t188 -228v-37h-150z" />
    <glyph glyph-name="Cdotaccent" unicode="&#x10a;" 
d="M198 856q-21 0 -35.5 14t-14.5 35q0 23 14.5 37t35.5 14q20 0 35 -14t15 -37q0 -21 -15 -35t-35 -14zM236 475v97q0 53 -7 70.5t-31 17.5t-31 -17.5t-7 -70.5v-344q0 -53 7 -70.5t31 -17.5t31 17.5t7 70.5v97h150v-107q0 -228 -188 -228t-188 228v364q0 228 188 228
t188 -228v-107h-150z" />
    <glyph glyph-name="cdotaccent" unicode="&#x10b;" 
d="M198 706q-21 0 -35.5 14t-14.5 35q0 23 14.5 37t35.5 14q20 0 35 -14t15 -37q0 -21 -15 -35t-35 -14zM236 395v37q0 52 -7.5 70t-30.5 18q-24 0 -31 -17.5t-7 -70.5v-214q0 -53 7 -70.5t31 -17.5t31 17.5t7 70.5v37h150v-37q0 -228 -188 -228t-188 228v214q0 228 188 228
t188 -228v-37h-150z" />
    <glyph glyph-name="Ccaron" unicode="&#x10c;" 
d="M164 860l-109 112h65l79 -82l76 82h65l-106 -112h-70zM236 475v97q0 53 -7 70.5t-31 17.5t-31 -17.5t-7 -70.5v-344q0 -53 7 -70.5t31 -17.5t31 17.5t7 70.5v97h150v-107q0 -228 -188 -228t-188 228v364q0 228 188 228t188 -228v-107h-150z" />
    <glyph glyph-name="ccaron" unicode="&#x10d;" 
d="M164 710l-109 112h65l79 -82l76 82h65l-106 -112h-70zM236 395v37q0 52 -7.5 70t-30.5 18q-24 0 -31 -17.5t-7 -70.5v-214q0 -53 7 -70.5t31 -17.5t31 17.5t7 70.5v37h150v-37q0 -228 -188 -228t-188 228v214q0 228 188 228t188 -228v-37h-150z" />
    <glyph glyph-name="Dcaron" unicode="&#x10e;" horiz-adv-x="398" 
d="M235 860h-70l-109 112h65l79 -82l76 82h65zM160 800q128 0 178 -48.5t50 -169.5v-364q0 -120 -50.5 -169t-177.5 -49h-150v800h150zM160 150q45 0 61.5 13t16.5 55v364q0 42 -16.5 55t-61.5 13v-500z" />
    <glyph glyph-name="dcaron" unicode="&#x10f;" horiz-adv-x="516" 
d="M466 810h50l-40 -250h-40zM386 800v-704q0 -64 10 -96h-130q-30 18 -30 73q-37 -83 -117 -83q-66 0 -87.5 47.5t-21.5 160.5v254q0 113 21.5 160.5t87.5 47.5q80 0 117 -83v223h150zM236 188v274q0 34 -9 46t-29 12t-29 -12t-9 -46v-274q0 -34 9 -46t29 -12t29 12t9 46z
" />
    <glyph glyph-name="Dcroat" unicode="&#x110;" horiz-adv-x="456" 
d="M218 800q128 0 178 -48.5t50 -169.5v-364q0 -120 -50.5 -169t-177.5 -49h-150v380h-68v40h68v380h150zM218 150q45 0 61.5 13t16.5 55v364q0 42 -16.5 55t-61.5 13v-230h67v-40h-67v-230z" />
    <glyph glyph-name="dcroat" unicode="&#x111;" 
d="M455 695h-69v-599q0 -64 10 -96h-130q-30 18 -30 73q-37 -83 -117 -83q-66 0 -87.5 47.5t-21.5 160.5v254q0 113 21.5 160.5t87.5 47.5q80 0 117 -83v118h-66v40h66v65h150v-65h69v-40zM236 188v274q0 34 -9 46t-29 12t-29 -12t-9 -46v-274q0 -34 9 -46t29 -12t29 12
t9 46z" />
    <glyph glyph-name="Emacron" unicode="&#x112;" horiz-adv-x="305" 
d="M10 936h285v-40h-285v40zM295 800v-150h-135v-175h135v-150h-135v-175h135v-150h-285v800h285z" />
    <glyph glyph-name="emacron" unicode="&#x113;" 
d="M340 786v-40h-285v40h285zM198 660q188 0 188 -228v-137h-226v-77q0 -53 7 -70.5t31 -17.5t31 17.5t7 70.5v37h150v-37q0 -228 -188 -228t-188 228v214q0 228 188 228zM236 395v37q0 52 -7.5 70t-30.5 18q-24 0 -31 -17.5t-7 -70.5v-37h76z" />
    <glyph glyph-name="Edotaccent" unicode="&#x116;" horiz-adv-x="305" 
d="M153 856q-21 0 -35.5 14t-14.5 35q0 23 14.5 37t35.5 14q20 0 35 -14t15 -37q0 -21 -15 -35t-35 -14zM295 650h-135v-175h135v-150h-135v-175h135v-150h-285v800h285v-150z" />
    <glyph glyph-name="edotaccent" unicode="&#x117;" 
d="M198 706q-21 0 -35.5 14t-14.5 35q0 23 14.5 37t35.5 14q20 0 35 -14t15 -37q0 -21 -15 -35t-35 -14zM198 660q188 0 188 -228v-137h-226v-77q0 -53 7 -70.5t31 -17.5t31 17.5t7 70.5v37h150v-37q0 -228 -188 -228t-188 228v214q0 228 188 228zM236 395v37q0 52 -7.5 70
t-30.5 18q-24 0 -31 -17.5t-7 -70.5v-37h76z" />
    <glyph glyph-name="Eogonek" unicode="&#x118;" horiz-adv-x="305" 
d="M175 -100q0 -32 29 -48.5t101 -18.5l-40 -40q-160 0 -160 98q0 47 40 73t100 36h-235v800h285v-150h-135v-175h135v-150h-135v-175h135v-150q-63 -24 -91.5 -47t-28.5 -53z" />
    <glyph glyph-name="eogonek" unicode="&#x119;" 
d="M198 660q188 0 188 -228v-137h-226v-77q0 -53 7 -70.5t31 -17.5t31 17.5t7 70.5v37h150v-37q0 -185 -121 -219q-61 -24 -88.5 -47t-27.5 -52q0 -32 29 -48.5t101 -18.5l-40 -40q-160 0 -160 98q0 70 98 100q-167 11 -167 227v214q0 228 188 228zM236 395v37q0 52 -7.5 70
t-30.5 18q-24 0 -31 -17.5t-7 -70.5v-37h76z" />
    <glyph glyph-name="Ecaron" unicode="&#x11a;" horiz-adv-x="305" 
d="M189 860h-70l-109 112h65l79 -82l76 82h65zM295 800v-150h-135v-175h135v-150h-135v-175h135v-150h-285v800h285z" />
    <glyph glyph-name="ecaron" unicode="&#x11b;" 
d="M234 710h-70l-109 112h65l79 -82l76 82h65zM198 660q188 0 188 -228v-137h-226v-77q0 -53 7 -70.5t31 -17.5t31 17.5t7 70.5v37h150v-37q0 -228 -188 -228t-188 228v214q0 228 188 228zM236 395v37q0 52 -7.5 70t-30.5 18q-24 0 -31 -17.5t-7 -70.5v-37h76z" />
    <glyph glyph-name="Gbreve" unicode="&#x11e;" 
d="M199 860q-61 0 -102.5 26t-41.5 86h50q0 -38 29.5 -55t64.5 -17t63 17t28 55h50q0 -60 -40 -86t-101 -26zM386 475h-150v97q0 52 -7.5 70t-30.5 18q-24 0 -31 -17.5t-7 -70.5v-344q0 -53 7 -70.5t31 -17.5t31 17.5t7 70.5v37h-38v150h188v-415h-60l-24 57
q-53 -67 -127 -67q-83 0 -124 54.5t-41 173.5v364q0 228 188 228t188 -228v-107z" />
    <glyph glyph-name="gbreve" unicode="&#x11f;" 
d="M199 710q-61 0 -102.5 26t-41.5 86h50q0 -38 29.5 -55t64.5 -17t63 17t28 55h50q0 -60 -40 -86t-101 -26zM236 650h150v-632q0 -125 -33 -171.5t-135 -46.5h-178v140h138q31 0 44.5 15t13.5 63v55q-37 -83 -117 -83q-66 0 -87.5 47.5t-21.5 160.5v254q0 113 21.5 160.5
t87.5 47.5q80 0 117 -83v73zM198 130q20 0 29 12t9 46v274q0 34 -9 46t-29 12t-29 -12t-9 -46v-274q0 -34 9 -46t29 -12z" />
    <glyph glyph-name="Gdotaccent" unicode="&#x120;" 
d="M198 856q-21 0 -35.5 14t-14.5 35q0 23 14.5 37t35.5 14q20 0 35 -14t15 -37q0 -21 -15 -35t-35 -14zM386 475h-150v97q0 52 -7.5 70t-30.5 18q-24 0 -31 -17.5t-7 -70.5v-344q0 -53 7 -70.5t31 -17.5t31 17.5t7 70.5v37h-38v150h188v-415h-60l-24 57q-53 -67 -127 -67
q-83 0 -124 54.5t-41 173.5v364q0 228 188 228t188 -228v-107z" />
    <glyph glyph-name="gdotaccent" unicode="&#x121;" 
d="M198 706q-21 0 -35.5 14t-14.5 35q0 23 14.5 37t35.5 14q20 0 35 -14t15 -37q0 -21 -15 -35t-35 -14zM236 650h150v-632q0 -125 -33 -171.5t-135 -46.5h-178v140h138q31 0 44.5 15t13.5 63v55q-37 -83 -117 -83q-66 0 -87.5 47.5t-21.5 160.5v254q0 113 21.5 160.5
t87.5 47.5q80 0 117 -83v73zM198 130q20 0 29 12t9 46v274q0 34 -9 46t-29 12t-29 -12t-9 -46v-274q0 -34 9 -46t29 -12z" />
    <glyph glyph-name="Gcommaaccent" unicode="&#x122;" 
d="M386 475h-150v97q0 52 -7.5 70t-30.5 18q-24 0 -31 -17.5t-7 -70.5v-344q0 -53 7 -70.5t31 -17.5t31 17.5t7 70.5v37h-38v150h188v-415h-60l-24 57q-53 -67 -127 -67q-83 0 -124 54.5t-41 173.5v364q0 228 188 228t188 -228v-107zM198 -57q19 0 32.5 -13t13.5 -38
q0 -80 -80 -119v44q29 14 35 39q-21 -4 -34.5 7.5t-13.5 32.5q0 20 13.5 33.5t33.5 13.5z" />
    <glyph glyph-name="gcommaaccent" unicode="&#x123;" 
d="M200 710q-48 0 -48 61q0 27 18.5 55.5t61.5 43.5v-44q-29 -14 -35 -39q22 10 35 0.5t13 -30.5q0 -20 -12.5 -33.5t-32.5 -13.5zM236 650h150v-632q0 -125 -33 -171.5t-135 -46.5h-178v140h138q31 0 44.5 15t13.5 63v55q-37 -83 -117 -83q-66 0 -87.5 47.5t-21.5 160.5
v254q0 113 21.5 160.5t87.5 47.5q80 0 117 -83v73zM198 130q20 0 29 12t9 46v274q0 34 -9 46t-29 12t-29 -12t-9 -46v-274q0 -34 9 -46t29 -12z" />
    <glyph glyph-name="Hbar" unicode="&#x126;" horiz-adv-x="485" 
d="M485 735v-40h-45v-695h-150v325h-94v-325h-150v695h-46v40h46v65h150v-65h94v65h150v-65h45zM290 475v220h-94v-220h94z" />
    <glyph glyph-name="hbar" unicode="&#x127;" 
d="M277 660q66 0 87.5 -47.5t21.5 -160.5v-452h-150v462q0 34 -9 46t-29 12t-29 -12t-9 -46v-462h-150v695h-68v40h68v65h150v-65h67v-40h-67v-118q37 83 117 83z" />
    <glyph glyph-name="Imacron" unicode="&#x12a;" horiz-adv-x="170" 
d="M-58 936h285v-40h-285v40zM10 800h150v-800h-150v800z" />
    <glyph glyph-name="imacron" unicode="&#x12b;" horiz-adv-x="170" 
d="M-58 786h285v-40h-285v40zM10 650h150v-650h-150v650z" />
    <glyph glyph-name="Iogonek" unicode="&#x12e;" horiz-adv-x="170" 
d="M40 -100q0 -32 29 -48.5t101 -18.5l-40 -40q-160 0 -160 98q0 47 40 73t100 36h-100v800h150v-800q-63 -24 -91.5 -47t-28.5 -53z" />
    <glyph glyph-name="iogonek" unicode="&#x12f;" horiz-adv-x="170" 
d="M85 706q-21 0 -35.5 14t-14.5 35q0 23 14.5 37t35.5 14q20 0 35 -14t15 -37q0 -21 -15 -35t-35 -14zM40 -100q0 -32 29 -48.5t101 -18.5l-40 -40q-160 0 -160 98q0 47 40 73t100 36h-100v650h150v-650q-63 -24 -91.5 -47t-28.5 -53z" />
    <glyph glyph-name="Idotaccent" unicode="&#x130;" horiz-adv-x="170" 
d="M85 856q-21 0 -35.5 14t-14.5 35q0 23 14.5 37t35.5 14q20 0 35 -14t15 -37q0 -21 -15 -35t-35 -14zM10 800h150v-800h-150v800z" />
    <glyph glyph-name="dotlessi" unicode="&#x131;" horiz-adv-x="170" 
d="M10 650h150v-650h-150v650z" />
    <glyph glyph-name="Kcommaaccent" unicode="&#x136;" horiz-adv-x="418" 
d="M10 800h150v-800h-150v800zM408 800l-99 -400l99 -400h-155l-93 400l93 400h155zM209 -57q19 0 32.5 -13t13.5 -38q0 -80 -80 -119v44q29 14 35 39q-21 -4 -34.5 7.5t-13.5 32.5q0 20 13.5 33.5t33.5 13.5z" />
    <glyph glyph-name="kcommaaccent" unicode="&#x137;" horiz-adv-x="418" 
d="M10 800h150v-800h-150v800zM408 650l-99 -325l99 -325h-155l-93 325l93 325h155zM209 -57q19 0 32.5 -13t13.5 -38q0 -80 -80 -119v44q29 14 35 39q-21 -4 -34.5 7.5t-13.5 32.5q0 20 13.5 33.5t33.5 13.5z" />
    <glyph glyph-name="Lacute" unicode="&#x139;" horiz-adv-x="305" 
d="M217 972l10 -39l-275 -73l-10 38zM160 150h135v-150h-285v800h150v-650z" />
    <glyph glyph-name="lacute" unicode="&#x13a;" horiz-adv-x="170" 
d="M-58 898l275 74l10 -39l-275 -73zM10 800h150v-800h-150v800z" />
    <glyph glyph-name="Lcommaaccent" unicode="&#x13b;" horiz-adv-x="305" 
d="M160 150h135v-150h-285v800h150v-650zM153 -57q19 0 32.5 -13t13.5 -38q0 -80 -80 -119v44q29 14 35 39q-21 -4 -34.5 7.5t-13.5 32.5q0 20 13.5 33.5t33.5 13.5z" />
    <glyph glyph-name="lcommaaccent" unicode="&#x13c;" horiz-adv-x="170" 
d="M10 800h150v-800h-150v800zM86 -144q-21 -4 -34.5 7.5t-13.5 32.5q0 20 13.5 33.5t33.5 13.5q19 0 32.5 -13t13.5 -38q0 -80 -80 -119v44q29 14 35 39z" />
    <glyph glyph-name="Lcaron" unicode="&#x13d;" horiz-adv-x="305" 
d="M295 810l-40 -250h-40l30 250h50zM160 800v-650h135v-150h-285v800h150z" />
    <glyph glyph-name="lcaron" unicode="&#x13e;" horiz-adv-x="280" 
d="M230 810h50l-40 -250h-40zM10 800h150v-800h-150v800z" />
    <glyph glyph-name="Lslash" unicode="&#x141;" horiz-adv-x="355" 
d="M345 566l-135 -83v-333h135v-150h-285v390l-60 -37v56l60 37v354h150v-261l135 83v-56z" />
    <glyph glyph-name="lslash" unicode="&#x142;" horiz-adv-x="345" 
d="M345 622v-56l-97 -60v-506h-150v414l-98 -61v56l98 61v330h150v-238z" />
    <glyph glyph-name="Nacute" unicode="&#x143;" horiz-adv-x="449" 
d="M367 933l-275 -73l-10 38l275 74zM289 800h150v-800h-150l-129 395v-395h-150v800h150l129 -395v395z" />
    <glyph glyph-name="nacute" unicode="&#x144;" 
d="M340 783l-275 -73l-10 38l275 74zM277 660q66 0 87.5 -47.5t21.5 -160.5v-452h-150v462q0 34 -9 46t-29 12t-29 -12t-9 -46v-462h-150v650h150v-73q37 83 117 83z" />
    <glyph glyph-name="Ncommaaccent" unicode="&#x145;" horiz-adv-x="449" 
d="M289 800h150v-800h-150l-129 395v-395h-150v800h150l129 -395v395zM225 -57q19 0 32.5 -13t13.5 -38q0 -80 -80 -119v44q29 14 35 39q-21 -4 -34.5 7.5t-13.5 32.5q0 20 13.5 33.5t33.5 13.5z" />
    <glyph glyph-name="ncommaaccent" unicode="&#x146;" 
d="M277 660q66 0 87.5 -47.5t21.5 -160.5v-452h-150v462q0 34 -9 46t-29 12t-29 -12t-9 -46v-462h-150v650h150v-73q37 83 117 83zM198 -57q19 0 32.5 -13t13.5 -38q0 -80 -80 -119v44q29 14 35 39q-21 -4 -34.5 7.5t-13.5 32.5q0 20 13.5 33.5t33.5 13.5z" />
    <glyph glyph-name="Ncaron" unicode="&#x147;" horiz-adv-x="449" 
d="M261 860h-70l-109 112h65l79 -82l76 82h65zM289 800h150v-800h-150l-129 395v-395h-150v800h150l129 -395v395z" />
    <glyph glyph-name="ncaron" unicode="&#x148;" 
d="M234 710h-70l-109 112h65l79 -82l76 82h65zM277 660q66 0 87.5 -47.5t21.5 -160.5v-452h-150v462q0 34 -9 46t-29 12t-29 -12t-9 -46v-462h-150v650h150v-73q37 83 117 83z" />
    <glyph glyph-name="Eng" unicode="&#x14a;" horiz-adv-x="449" 
d="M289 800h150v-800q0 -113 -33 -156.5t-135 -43.5h-82v140h42q42 0 55.5 12t2.5 48l-129 395v-395h-150v800h150l129 -395v395z" />
    <glyph glyph-name="eng" unicode="&#x14b;" 
d="M277 660q66 0 87.5 -47.5t21.5 -160.5v-452q0 -113 -33 -156.5t-135 -43.5h-82v140h42q31 0 44.5 12t13.5 48v462q0 34 -9 46t-29 12t-29 -12t-9 -46v-462h-150v650h150v-73q37 83 117 83z" />
    <glyph glyph-name="Omacron" unicode="&#x14c;" 
d="M340 936v-40h-285v40h285zM198 810q188 0 188 -228v-364q0 -228 -188 -228t-188 228v364q0 228 188 228zM236 228v344q0 53 -7 70.5t-31 17.5t-31 -17.5t-7 -70.5v-344q0 -53 7 -70.5t31 -17.5t31 17.5t7 70.5z" />
    <glyph glyph-name="omacron" unicode="&#x14d;" 
d="M55 786h285v-40h-285v40zM10 218v214q0 228 188 228t188 -228v-214q0 -228 -188 -228t-188 228zM160 218q0 -53 7 -70.5t31 -17.5t31 17.5t7 70.5v214q0 52 -7.5 70t-30.5 18q-24 0 -31 -17.5t-7 -70.5v-214z" />
    <glyph glyph-name="Ohungarumlaut" unicode="&#x150;" 
d="M276 972l-105 -112h-70l115 112h60zM281 860h-70l115 112h60zM198 810q188 0 188 -228v-364q0 -228 -188 -228t-188 228v364q0 228 188 228zM236 228v344q0 53 -7 70.5t-31 17.5t-31 -17.5t-7 -70.5v-344q0 -53 7 -70.5t31 -17.5t31 17.5t7 70.5z" />
    <glyph glyph-name="ohungarumlaut" unicode="&#x151;" 
d="M171 710h-70l115 112h60zM281 710h-70l115 112h60zM10 218v214q0 228 188 228t188 -228v-214q0 -228 -188 -228t-188 228zM160 218q0 -53 7 -70.5t31 -17.5t31 17.5t7 70.5v214q0 52 -7.5 70t-30.5 18q-24 0 -31 -17.5t-7 -70.5v-214z" />
    <glyph glyph-name="OE" unicode="&#x152;" horiz-adv-x="599" 
d="M589 650h-135v-175h135v-150h-135v-175h135v-150h-285v84q-39 -94 -136 -94q-72 0 -115 56t-43 172v364q0 116 43 172t115 56q97 0 136 -94v84h285v-150zM236 228v344q0 53 -7 70.5t-31 17.5t-31 -17.5t-7 -70.5v-344q0 -53 7 -70.5t31 -17.5t31 17.5t7 70.5z" />
    <glyph glyph-name="oe" unicode="&#x153;" horiz-adv-x="622" 
d="M424 660q188 0 188 -228v-137h-226v-77q0 -53 7 -70.5t31 -17.5t31 17.5t7 70.5v37h150v-37q0 -228 -188 -228q-95 0 -141 56q-40 -56 -115 -56q-72 0 -115 56t-43 172v214q0 116 43 172t115 56q75 0 115 -56q46 56 141 56zM198 130q24 0 31 17.5t7 70.5v214
q0 52 -7.5 70t-30.5 18q-24 0 -31 -17.5t-7 -70.5v-214q0 -53 7 -70.5t31 -17.5zM462 395v37q0 52 -7.5 70t-30.5 18q-24 0 -31 -17.5t-7 -70.5v-37h76z" />
    <glyph glyph-name="Racute" unicode="&#x154;" horiz-adv-x="399" 
d="M342 933l-275 -73l-10 38l275 74zM388 71q0 -58 11 -71h-150q-11 13 -11 71v154q0 42 -16.5 55t-61.5 13v-293h-150v800h150q128 0 178 -48.5t50 -169.5v-71q0 -125 -74 -179q74 -30 74 -137v-124zM238 582q0 42 -16.5 55t-61.5 13v-207q45 0 61.5 13t16.5 55v71z" />
    <glyph glyph-name="racute" unicode="&#x155;" 
d="M340 783l-275 -73l-10 38l275 74zM280 660q64 0 85 -47.5t21 -160.5v-40h-150v50q0 32 -9 45t-29 13t-29 -13t-9 -45v-462h-150v650h150v-73q37 83 120 83z" />
    <glyph glyph-name="Rcommaaccent" unicode="&#x156;" horiz-adv-x="399" 
d="M388 71q0 -58 11 -71h-150q-11 13 -11 71v154q0 42 -16.5 55t-61.5 13v-293h-150v800h150q128 0 178 -48.5t50 -169.5v-71q0 -125 -74 -179q74 -30 74 -137v-124zM238 582q0 42 -16.5 55t-61.5 13v-207q45 0 61.5 13t16.5 55v71zM200 -57q19 0 32.5 -13t13.5 -38
q0 -80 -80 -119v44q29 14 35 39q-21 -4 -34.5 7.5t-13.5 32.5q0 20 13.5 33.5t33.5 13.5z" />
    <glyph glyph-name="rcommaaccent" unicode="&#x157;" 
d="M280 660q64 0 85 -47.5t21 -160.5v-40h-150v50q0 32 -9 45t-29 13t-29 -13t-9 -45v-462h-150v650h150v-73q37 83 120 83zM85 -57q19 0 32.5 -13t13.5 -38q0 -80 -80 -119v44q29 14 35 39q-21 -4 -34.5 7.5t-13.5 32.5q0 20 13.5 33.5t33.5 13.5z" />
    <glyph glyph-name="Rcaron" unicode="&#x158;" horiz-adv-x="399" 
d="M236 860h-70l-109 112h65l79 -82l76 82h65zM388 71q0 -58 11 -71h-150q-11 13 -11 71v154q0 42 -16.5 55t-61.5 13v-293h-150v800h150q128 0 178 -48.5t50 -169.5v-71q0 -125 -74 -179q74 -30 74 -137v-124zM238 582q0 42 -16.5 55t-61.5 13v-207q45 0 61.5 13t16.5 55
v71z" />
    <glyph glyph-name="rcaron" unicode="&#x159;" 
d="M234 710h-70l-109 112h65l79 -82l76 82h65zM280 660q64 0 85 -47.5t21 -160.5v-40h-150v50q0 32 -9 45t-29 13t-29 -13t-9 -45v-462h-150v650h150v-73q37 83 120 83z" />
    <glyph glyph-name="Sacute" unicode="&#x15a;" 
d="M340 933l-275 -73l-10 38l275 74zM242 478q37 -28 58.5 -49t44 -52.5t32 -72.5t9.5 -96q0 -109 -44 -163.5t-140 -54.5q-69 0 -109 23.5t-61.5 87t-21.5 177.5h150q0 -84 9.5 -111t32.5 -27q20 0 27 15t7 53q0 45 -14 71t-62 65q-3 2 -24 19t-25 20.5t-21.5 19.5
t-22.5 24t-18 24.5t-17 30t-11 33t-9 41t-2 46.5q0 208 181 208q95 0 140 -60t45 -188h-150q0 56 -8.5 77t-26.5 21q-31 0 -31 -58q0 -40 17.5 -64t64.5 -60z" />
    <glyph glyph-name="sacute" unicode="&#x15b;" 
d="M340 783l-275 -73l-10 38l275 74zM261 379q66 -49 95.5 -90t29.5 -111q0 -88 -45 -138t-139 -50q-101 0 -146.5 53t-45.5 185h150q0 -56 10 -77t32 -21q34 0 34 48q0 25 -18.5 47.5t-82.5 66.5q-27 19 -38 27t-32 27.5t-30 36t-17 42.5t-8 57q0 80 45.5 129t135.5 49
q185 0 185 -218h-150q0 78 -35 78q-31 0 -31 -38q0 -5 1 -9.5t2 -8.5t4 -8.5t5.5 -8t8.5 -8.5t10.5 -8.5l13.5 -10.5t15.5 -11.5t19 -14t21.5 -15.5z" />
    <glyph glyph-name="Scedilla" unicode="&#x15e;" 
d="M386 208q0 -202 -156 -217l-14 -58q111 18 111 -60q0 -23 -13 -39t-29.5 -24t-45.5 -12t-46 -4.5t-47 -0.5l1 40q72 0 101 7.5t29 32.5t-27.5 30t-82.5 -4l14 92q-61 3 -97 28.5t-55 88t-19 170.5h150q0 -84 9.5 -111t32.5 -27q20 0 27 15t7 53q0 45 -14 71t-62 65
q-3 2 -24 19t-25 20.5t-21.5 19.5t-22.5 24t-18 24.5t-17 30t-11 33t-9 41t-2 46.5q0 208 181 208q95 0 140 -60t45 -188h-150q0 56 -8.5 77t-26.5 21q-31 0 -31 -58q0 -40 17.5 -64t64.5 -60q37 -28 58.5 -49t44 -52.5t32 -72.5t9.5 -96z" />
    <glyph glyph-name="scedilla" unicode="&#x15f;" 
d="M386 178q0 -177 -165 -187l-14 -58q111 18 111 -60q0 -23 -13 -39t-29.5 -24t-45.5 -12t-46 -4.5t-47 -0.5l1 40q72 0 101 7.5t29 32.5t-27.5 30t-82.5 -4l14 92q-85 7 -123.5 61t-38.5 176h150q0 -56 10 -77t32 -21q34 0 34 48q0 25 -18.5 47.5t-82.5 66.5
q-27 19 -38 27t-32 27.5t-30 36t-17 42.5t-8 57q0 80 45.5 129t135.5 49q185 0 185 -218h-150q0 78 -35 78q-31 0 -31 -38q0 -5 1 -9.5t2 -8.5t4 -8.5t5.5 -8t8.5 -8.5t10.5 -8.5l13.5 -10.5t15.5 -11.5t19 -14t21.5 -15.5q66 -49 95.5 -90t29.5 -111z" />
    <glyph glyph-name="Scaron" unicode="&#x160;" 
d="M234 860h-70l-109 112h65l79 -82l76 82h65zM242 478q37 -28 58.5 -49t44 -52.5t32 -72.5t9.5 -96q0 -109 -44 -163.5t-140 -54.5q-69 0 -109 23.5t-61.5 87t-21.5 177.5h150q0 -84 9.5 -111t32.5 -27q20 0 27 15t7 53q0 45 -14 71t-62 65q-3 2 -24 19t-25 20.5
t-21.5 19.5t-22.5 24t-18 24.5t-17 30t-11 33t-9 41t-2 46.5q0 208 181 208q95 0 140 -60t45 -188h-150q0 56 -8.5 77t-26.5 21q-31 0 -31 -58q0 -40 17.5 -64t64.5 -60z" />
    <glyph glyph-name="scaron" unicode="&#x161;" 
d="M234 710h-70l-109 112h65l79 -82l76 82h65zM261 379q66 -49 95.5 -90t29.5 -111q0 -88 -45 -138t-139 -50q-101 0 -146.5 53t-45.5 185h150q0 -56 10 -77t32 -21q34 0 34 48q0 25 -18.5 47.5t-82.5 66.5q-27 19 -38 27t-32 27.5t-30 36t-17 42.5t-8 57q0 80 45.5 129
t135.5 49q185 0 185 -218h-150q0 78 -35 78q-31 0 -31 -38q0 -5 1 -9.5t2 -8.5t4 -8.5t5.5 -8t8.5 -8.5t10.5 -8.5l13.5 -10.5t15.5 -11.5t19 -14t21.5 -15.5z" />
    <glyph glyph-name="uni0162" unicode="&#x162;" horiz-adv-x="376" 
d="M263 0h-50l-16 -67q111 18 111 -60q0 -23 -13 -39t-29.5 -24t-45.5 -12t-46 -4.5t-47 -0.5l1 40q72 0 101 7.5t29 32.5t-27.5 30t-82.5 -4l15 101h-50v650h-103v150h356v-150h-103v-650z" />
    <glyph glyph-name="uni0163" unicode="&#x163;" horiz-adv-x="330" 
d="M320 510h-100v-292q0 -48 13.5 -63t44.5 -15h42v-140h-82h-17l-15 -61q111 18 111 -60q0 -23 -13 -39t-29.5 -24t-45.5 -12t-46 -4.5t-47 -0.5l1 40q72 0 101 7.5t29 32.5t-27.5 30t-82.5 -4l15 101q-60 13 -81 60.5t-21 151.5v292h-60v140q72 21 70 150h150
q0 -133 -70 -150h160v-140z" />
    <glyph glyph-name="Tcaron" unicode="&#x164;" horiz-adv-x="376" 
d="M224 860h-70l-109 112h65l79 -82l76 82h65zM366 800v-150h-103v-650h-150v650h-103v150h356z" />
    <glyph glyph-name="tcaron" unicode="&#x165;" horiz-adv-x="330" 
d="M330 810l-40 -120h-40l30 120h50zM160 650h160v-140h-100v-292q0 -48 13.5 -63t44.5 -15h42v-140h-82q-102 0 -135 46.5t-33 171.5v292h-60v140q72 21 70 150h150q0 -133 -70 -150z" />
    <glyph glyph-name="Tbar" unicode="&#x166;" horiz-adv-x="376" 
d="M366 650h-103v-230h67v-40h-67v-380h-150v380h-68v40h68v230h-103v150h356v-150z" />
    <glyph glyph-name="tbar" unicode="&#x167;" horiz-adv-x="330" 
d="M320 510h-100v-135h77v-40h-77v-117q0 -48 13.5 -63t44.5 -15h42v-140h-82q-102 0 -135 46.5t-33 171.5v117h-58v40h58v135h-60v140q72 21 70 150h150q0 -133 -70 -150h160v-140z" />
    <glyph glyph-name="Umacron" unicode="&#x16a;" 
d="M55 936h285v-40h-285v40zM386 800v-582q0 -228 -188 -228t-188 228v582h150v-572q0 -53 7 -70.5t31 -17.5t31 17.5t7 70.5v572h150z" />
    <glyph glyph-name="umacron" unicode="&#x16b;" 
d="M340 786v-40h-285v40h285zM386 96q0 -64 10 -96h-130q-30 18 -30 73q-37 -83 -117 -83q-66 0 -87.5 47.5t-21.5 160.5v452h150v-462q0 -34 9 -46t29 -12t29 12t9 46v462h150v-554z" />
    <glyph glyph-name="Uring" unicode="&#x16e;" 
d="M198 860q-27 0 -46.5 19t-19.5 47t19.5 47t46.5 19t46.5 -19t19.5 -47t-19.5 -47t-46.5 -19zM198 900q12 0 19 7.5t7 18.5t-7 18.5t-19 7.5t-19 -7.5t-7 -18.5t7 -18.5t19 -7.5zM386 800v-582q0 -228 -188 -228t-188 228v582h150v-572q0 -53 7 -70.5t31 -17.5t31 17.5
t7 70.5v572h150z" />
    <glyph glyph-name="uring" unicode="&#x16f;" 
d="M198 710q-27 0 -46.5 19t-19.5 47t19.5 47t46.5 19t46.5 -19t19.5 -47t-19.5 -47t-46.5 -19zM198 802q-12 0 -19 -7.5t-7 -18.5t7 -18.5t19 -7.5t19 7.5t7 18.5t-7 18.5t-19 7.5zM386 96q0 -64 10 -96h-130q-30 18 -30 73q-37 -83 -117 -83q-66 0 -87.5 47.5t-21.5 160.5
v452h150v-462q0 -34 9 -46t29 -12t29 12t9 46v462h150v-554z" />
    <glyph glyph-name="Uhungarumlaut" unicode="&#x170;" 
d="M171 860h-70l115 112h60zM281 860h-70l115 112h60zM386 800v-582q0 -228 -188 -228t-188 228v582h150v-572q0 -53 7 -70.5t31 -17.5t31 17.5t7 70.5v572h150z" />
    <glyph glyph-name="uhungarumlaut" unicode="&#x171;" 
d="M276 822l-105 -112h-70l115 112h60zM281 710h-70l115 112h60zM386 96q0 -64 10 -96h-130q-30 18 -30 73q-37 -83 -117 -83q-66 0 -87.5 47.5t-21.5 160.5v452h150v-462q0 -34 9 -46t29 -12t29 12t9 46v462h150v-554z" />
    <glyph glyph-name="Uogonek" unicode="&#x172;" 
d="M236 800h150v-582q0 -185 -121 -219q-61 -24 -88.5 -47t-27.5 -52q0 -32 29 -48.5t101 -18.5l-40 -40q-160 0 -160 98q0 70 98 100q-167 11 -167 227v582h150v-572q0 -53 7 -70.5t31 -17.5t31 17.5t7 70.5v572z" />
    <glyph glyph-name="uogonek" unicode="&#x173;" 
d="M276 -100q0 -32 29 -48.5t101 -18.5l-40 -40q-160 0 -160 98q0 47 40 73t100 36h-80q-30 18 -30 73q-37 -83 -117 -83q-66 0 -87.5 47.5t-21.5 160.5v452h150v-462q0 -34 9 -46t29 -12t29 12t9 46v462h150v-554q0 -64 10 -96q-63 -24 -91.5 -47t-28.5 -53z" />
    <glyph glyph-name="Wcircumflex" unicode="&#x174;" horiz-adv-x="753" 
d="M378 942l-79 -82h-65l109 112h70l106 -112h-65zM573 800h170l-138 -800h-258v585l-79 -585h-258v800h150v-633l76 633h261v-633z" />
    <glyph glyph-name="wcircumflex" unicode="&#x175;" horiz-adv-x="753" 
d="M378 792l-79 -82h-65l109 112h70l106 -112h-65zM573 650h170l-138 -650h-258v475l-79 -475h-258v650h150v-515l76 515h261v-515z" />
    <glyph glyph-name="Ycircumflex" unicode="&#x176;" horiz-adv-x="458" 
d="M195 972h70l106 -112h-65l-76 82l-79 -82h-65zM154 280l-144 520h160l59 -342l59 342h160l-144 -520v-280h-150v280z" />
    <glyph glyph-name="ycircumflex" unicode="&#x177;" 
d="M199 792l-79 -82h-65l109 112h70l106 -112h-65zM236 650h150v-632q0 -125 -33 -171.5t-135 -46.5h-178v140h138q31 0 44.5 15t13.5 63v55q-37 -83 -117 -83q-66 0 -87.5 47.5t-21.5 160.5v452h150v-462q0 -34 9 -46t29 -12t29 12t9 46v462z" />
    <glyph glyph-name="Ydieresis" unicode="&#x178;" horiz-adv-x="458" 
d="M156 856q-21 0 -35.5 14t-14.5 35q0 23 14.5 37t35.5 14q20 0 35 -14t15 -37q0 -21 -15 -35t-35 -14zM301 856q-21 0 -35.5 14t-14.5 35q0 23 14.5 37t35.5 14q20 0 35 -14t15 -37q0 -21 -15 -35t-35 -14zM154 280l-144 520h160l59 -342l59 342h160l-144 -520v-280h-150
v280z" />
    <glyph glyph-name="Zacute" unicode="&#x179;" horiz-adv-x="365" 
d="M325 933l-275 -73l-10 38l275 74zM355 800v-150l-195 -500h195v-150h-345v150l195 500h-195v150h345z" />
    <glyph glyph-name="zacute" unicode="&#x17a;" horiz-adv-x="365" 
d="M325 783l-275 -73l-10 38l275 74zM355 650v-140l-183 -370h183v-140h-345v140l183 370h-183v140h345z" />
    <glyph glyph-name="Zdotaccent" unicode="&#x17b;" horiz-adv-x="365" 
d="M183 856q-21 0 -35.5 14t-14.5 35q0 23 14.5 37t35.5 14q20 0 35 -14t15 -37q0 -21 -15 -35t-35 -14zM355 800v-150l-195 -500h195v-150h-345v150l195 500h-195v150h345z" />
    <glyph glyph-name="zdotaccent" unicode="&#x17c;" horiz-adv-x="365" 
d="M183 706q-21 0 -35.5 14t-14.5 35q0 23 14.5 37t35.5 14q20 0 35 -14t15 -37q0 -21 -15 -35t-35 -14zM355 650v-140l-183 -370h183v-140h-345v140l183 370h-183v140h345z" />
    <glyph glyph-name="Zcaron" unicode="&#x17d;" horiz-adv-x="365" 
d="M219 860h-70l-109 112h65l79 -82l76 82h65zM355 800v-150l-195 -500h195v-150h-345v150l195 500h-195v150h345z" />
    <glyph glyph-name="zcaron" unicode="&#x17e;" horiz-adv-x="365" 
d="M219 710h-70l-109 112h65l79 -82l76 82h65zM355 650v-140l-183 -370h183v-140h-345v140l183 370h-183v140h345z" />
    <glyph glyph-name="Scommaaccent" unicode="&#x218;" 
d="M242 478q37 -28 58.5 -49t44 -52.5t32 -72.5t9.5 -96q0 -109 -44 -163.5t-140 -54.5q-69 0 -109 23.5t-61.5 87t-21.5 177.5h150q0 -84 9.5 -111t32.5 -27q20 0 27 15t7 53q0 45 -14 71t-62 65q-3 2 -24 19t-25 20.5t-21.5 19.5t-22.5 24t-18 24.5t-17 30t-11 33t-9 41
t-2 46.5q0 208 181 208q95 0 140 -60t45 -188h-150q0 56 -8.5 77t-26.5 21q-31 0 -31 -58q0 -40 17.5 -64t64.5 -60zM207 -57q19 0 32.5 -13t13.5 -38q0 -80 -80 -119v44q29 14 35 39q-21 -4 -34.5 7.5t-13.5 32.5q0 20 13.5 33.5t33.5 13.5z" />
    <glyph glyph-name="scommaaccent" unicode="&#x219;" 
d="M261 379q66 -49 95.5 -90t29.5 -111q0 -88 -45 -138t-139 -50q-101 0 -146.5 53t-45.5 185h150q0 -56 10 -77t32 -21q34 0 34 48q0 25 -18.5 47.5t-82.5 66.5q-27 19 -38 27t-32 27.5t-30 36t-17 42.5t-8 57q0 80 45.5 129t135.5 49q185 0 185 -218h-150q0 78 -35 78
q-31 0 -31 -38q0 -5 1 -9.5t2 -8.5t4 -8.5t5.5 -8t8.5 -8.5t10.5 -8.5l13.5 -10.5t15.5 -11.5t19 -14t21.5 -15.5zM198 -57q19 0 32.5 -13t13.5 -38q0 -80 -80 -119v44q29 14 35 39q-21 -4 -34.5 7.5t-13.5 32.5q0 20 13.5 33.5t33.5 13.5z" />
    <glyph glyph-name="uni021A" unicode="&#x21a;" horiz-adv-x="376" 
d="M366 800v-150h-103v-650h-150v650h-103v150h356zM188 -57q19 0 32.5 -13t13.5 -38q0 -80 -80 -119v44q29 14 35 39q-21 -4 -34.5 7.5t-13.5 32.5q0 20 13.5 33.5t33.5 13.5z" />
    <glyph glyph-name="uni021B" unicode="&#x21b;" horiz-adv-x="330" 
d="M320 510h-100v-292q0 -48 13.5 -63t44.5 -15h42v-140h-82q-102 0 -135 46.5t-33 171.5v292h-60v140q72 21 70 150h150q0 -133 -70 -150h160v-140zM197 -51q19 0 32.5 -13t13.5 -38q0 -80 -80 -119v44q29 14 35 39q-21 -4 -34.5 7.5t-13.5 32.5q0 20 13.5 33.5t33.5 13.5z
" />
    <glyph glyph-name="circumflex" unicode="&#x2c6;" horiz-adv-x="305" 
d="M119 822h70l106 -112h-65l-76 82l-79 -82h-65z" />
    <glyph glyph-name="caron" unicode="&#x2c7;" horiz-adv-x="305" 
d="M119 710l-109 112h65l79 -82l76 82h65l-106 -112h-70z" />
    <glyph glyph-name="breve" unicode="&#x2d8;" horiz-adv-x="305" 
d="M154 710q-61 0 -102.5 26t-41.5 86h50q0 -38 29.5 -55t64.5 -17t63 17t28 55h50q0 -60 -40 -86t-101 -26z" />
    <glyph glyph-name="dotaccent" unicode="&#x2d9;" horiz-adv-x="120" 
d="M60 706q-21 0 -35.5 14t-14.5 35q0 23 14.5 37t35.5 14q20 0 35 -14t15 -37q0 -21 -15 -35t-35 -14z" />
    <glyph glyph-name="ring" unicode="&#x2da;" horiz-adv-x="152" 
d="M76 710q-27 0 -46.5 19t-19.5 47t19.5 47t46.5 19t46.5 -19t19.5 -47t-19.5 -47t-46.5 -19zM76 750q12 0 19 7.5t7 18.5t-7 18.5t-19 7.5t-19 -7.5t-7 -18.5t7 -18.5t19 -7.5z" />
    <glyph glyph-name="ogonek" unicode="&#x2db;" horiz-adv-x="201" 
d="M180 0q-63 -24 -91.5 -47t-28.5 -53q0 -32 29 -48.5t101 -18.5l-40 -40q-160 0 -160 98q0 47 40 73t100 36h50z" />
    <glyph glyph-name="tilde" unicode="&#x2dc;" horiz-adv-x="305" 
d="M10 722q0 100 80 100q26 0 45 -11t28 -25t22 -25t27 -11q33 0 33 60h50q0 -100 -80 -100q-26 0 -45 11t-28.5 25t-22 25t-26.5 11q-33 0 -33 -60h-50z" />
    <glyph glyph-name="hungarumlaut" unicode="&#x2dd;" horiz-adv-x="305" 
d="M80 710h-70l115 112h60zM190 710h-70l115 112h60z" />
    <glyph glyph-name="gravecomb" unicode="&#x300;" horiz-adv-x="0" 
d="M-10 748l-10 -38l-275 73l10 39z" />
    <glyph glyph-name="acutecomb" unicode="&#x301;" horiz-adv-x="0" 
d="M-295 748l275 74l10 -39l-275 -73z" />
    <glyph glyph-name="uni0302" unicode="&#x302;" horiz-adv-x="0" 
d="M-186 822h70l106 -112h-65l-76 82l-79 -82h-65z" />
    <glyph glyph-name="tildecomb" unicode="&#x303;" horiz-adv-x="0" 
d="M-295 722q0 100 80 100q26 0 45 -11t28.5 -25t22 -25t26.5 -11q33 0 33 60h50q0 -100 -80 -100q-26 0 -45 11t-28 25t-22 25t-27 11q-33 0 -33 -60h-50z" />
    <glyph glyph-name="uni0304" unicode="&#x304;" horiz-adv-x="0" 
d="M-295 786h285v-40h-285v40z" />
    <glyph glyph-name="uni0306" unicode="&#x306;" horiz-adv-x="0" 
d="M-151 710q-61 0 -102.5 26t-41.5 86h50q0 -38 29.5 -55t64.5 -17t63 17t28 55h50q0 -60 -40 -86t-101 -26z" />
    <glyph glyph-name="uni0307" unicode="&#x307;" horiz-adv-x="0" 
d="M-60 706q-21 0 -35.5 14t-14.5 35q0 23 14.5 37t35.5 14q20 0 35 -14t15 -37q0 -21 -15 -35t-35 -14z" />
    <glyph glyph-name="uni0308" unicode="&#x308;" horiz-adv-x="0" 
d="M-205 706q-21 0 -35.5 14t-14.5 35q0 23 14.5 37t35.5 14q20 0 35 -14t15 -37q0 -21 -15 -35t-35 -14zM-60 706q-21 0 -35.5 14t-14.5 35q0 23 14.5 37t35.5 14q20 0 35 -14t15 -37q0 -21 -15 -35t-35 -14z" />
    <glyph glyph-name="uni030A" unicode="&#x30a;" horiz-adv-x="0" 
d="M-76 710q-27 0 -46.5 19t-19.5 47t19.5 47t46.5 19t46.5 -19t19.5 -47t-19.5 -47t-46.5 -19zM-76 750q12 0 19 7.5t7 18.5t-7 18.5t-19 7.5t-19 -7.5t-7 -18.5t7 -18.5t19 -7.5z" />
    <glyph glyph-name="uni030B" unicode="&#x30b;" horiz-adv-x="0" 
d="M-225 710h-70l115 112h60zM-115 710h-70l115 112h60z" />
    <glyph glyph-name="uni030C" unicode="&#x30c;" horiz-adv-x="0" 
d="M-186 710l-109 112h65l79 -82l76 82h65l-106 -112h-70z" />
    <glyph glyph-name="uni0312" unicode="&#x312;" horiz-adv-x="0" 
d="M-58 787q22 10 35 0.5t13 -30.5q0 -20 -12.5 -33.5t-32.5 -13.5q-48 0 -48 61q0 27 18.5 55.5t61.5 43.5v-44q-29 -14 -35 -39z" />
    <glyph glyph-name="uni0326" unicode="&#x326;" horiz-adv-x="0" 
d="M-55 -144q-21 -4 -34.5 7.5t-13.5 32.5q0 20 13.5 33.5t33.5 13.5q19 0 32.5 -13t13.5 -38q0 -80 -80 -119v44q29 14 35 39z" />
    <glyph glyph-name="uni0327" unicode="&#x327;" horiz-adv-x="0" 
d="M-155 0h50l-16 -67q111 18 111 -60q0 -23 -13 -39t-29.5 -24t-45.5 -12t-46 -4.5t-47 -0.5l1 40q72 0 101 7.5t29 32.5t-27.5 30t-82.5 -4z" />
    <glyph glyph-name="uni0328" unicode="&#x328;" horiz-adv-x="0" 
d="M-21 0q-63 -24 -91.5 -47t-28.5 -53q0 -32 29 -48.5t101 -18.5l-40 -40q-160 0 -160 98q0 47 40 73t100 36h50z" />
    <glyph glyph-name="uni0335" unicode="&#x335;" horiz-adv-x="0" 
d="M-295 350h285v-40h-285v40z" />
    <glyph glyph-name="uni0336" unicode="&#x336;" horiz-adv-x="0" 
d="M-295 350h285v-40h-285v40z" />
    <glyph glyph-name="uni0337" unicode="&#x337;" horiz-adv-x="0" 
d="M-10 810l-297 -820h-53l297 820h53z" />
    <glyph glyph-name="uni0338" unicode="&#x338;" horiz-adv-x="0" 
d="M-10 810l-297 -820h-53l297 820h53z" />
    <glyph glyph-name="Wgrave" unicode="&#x1e80;" horiz-adv-x="753" 
d="M519 898l-10 -38l-275 73l10 39zM573 800h170l-138 -800h-258v585l-79 -585h-258v800h150v-633l76 633h261v-633z" />
    <glyph glyph-name="wgrave" unicode="&#x1e81;" horiz-adv-x="753" 
d="M519 748l-10 -38l-275 73l10 39zM573 650h170l-138 -650h-258v475l-79 -475h-258v650h150v-515l76 515h261v-515z" />
    <glyph glyph-name="Wacute" unicode="&#x1e82;" horiz-adv-x="753" 
d="M519 933l-275 -73l-10 38l275 74zM573 800h170l-138 -800h-258v585l-79 -585h-258v800h150v-633l76 633h261v-633z" />
    <glyph glyph-name="wacute" unicode="&#x1e83;" horiz-adv-x="753" 
d="M519 783l-275 -73l-10 38l275 74zM573 650h170l-138 -650h-258v475l-79 -475h-258v650h150v-515l76 515h261v-515z" />
    <glyph glyph-name="Wdieresis" unicode="&#x1e84;" horiz-adv-x="753" 
d="M304 856q-21 0 -35.5 14t-14.5 35q0 23 14.5 37t35.5 14q20 0 35 -14t15 -37q0 -21 -15 -35t-35 -14zM449 856q-21 0 -35.5 14t-14.5 35q0 23 14.5 37t35.5 14q20 0 35 -14t15 -37q0 -21 -15 -35t-35 -14zM573 800h170l-138 -800h-258v585l-79 -585h-258v800h150v-633
l76 633h261v-633z" />
    <glyph glyph-name="wdieresis" unicode="&#x1e85;" horiz-adv-x="753" 
d="M304 706q-21 0 -35.5 14t-14.5 35q0 23 14.5 37t35.5 14q20 0 35 -14t15 -37q0 -21 -15 -35t-35 -14zM449 706q-21 0 -35.5 14t-14.5 35q0 23 14.5 37t35.5 14q20 0 35 -14t15 -37q0 -21 -15 -35t-35 -14zM573 650h170l-138 -650h-258v475l-79 -475h-258v650h150v-515
l76 515h261v-515z" />
    <glyph glyph-name="Ygrave" unicode="&#x1ef2;" horiz-adv-x="458" 
d="M371 898l-10 -38l-275 73l10 39zM154 280l-144 520h160l59 -342l59 342h160l-144 -520v-280h-150v280z" />
    <glyph glyph-name="ygrave" unicode="&#x1ef3;" 
d="M340 748l-10 -38l-275 73l10 39zM236 650h150v-632q0 -125 -33 -171.5t-135 -46.5h-178v140h138q31 0 44.5 15t13.5 63v55q-37 -83 -117 -83q-66 0 -87.5 47.5t-21.5 160.5v452h150v-462q0 -34 9 -46t29 -12t29 12t9 46v462z" />
    <glyph glyph-name="endash" unicode="&#x2013;" horiz-adv-x="600" 
d="M10 355h580v-50h-580v50z" />
    <glyph glyph-name="emdash" unicode="&#x2014;" horiz-adv-x="1020" 
d="M10 355h1000v-50h-1000v50z" />
    <glyph glyph-name="quoteleft" unicode="&#x2018;" horiz-adv-x="100" 
d="M60 560h-50l40 250h40z" />
    <glyph glyph-name="quoteright" unicode="&#x2019;" horiz-adv-x="100" 
d="M40 810h50l-40 -250h-40z" />
    <glyph glyph-name="quotesinglbase" unicode="&#x201a;" horiz-adv-x="180" 
d="M10 69q0 37 23 59t57 22q35 0 57.5 -25.5t22.5 -75.5q0 -18 -5 -38t-18.5 -47t-43.5 -51t-73 -39v50q63 27 70 76q-34 -8 -62 13t-28 56z" />
    <glyph glyph-name="quotedblleft" unicode="&#x201c;" horiz-adv-x="180" 
d="M60 560h-50l40 250h40zM140 560h-50l40 250h40z" />
    <glyph glyph-name="quotedblright" unicode="&#x201d;" horiz-adv-x="180" 
d="M40 810h50l-40 -250h-40zM120 810h50l-40 -250h-40z" />
    <glyph glyph-name="quotedblbase" unicode="&#x201e;" horiz-adv-x="180" 
d="M90 150q35 0 57.5 -25.5t22.5 -75.5q0 -18 -5 -38t-18.5 -47t-43.5 -51t-73 -39v50q63 27 70 76q-34 -8 -62 13t-28 56q0 37 23 59t57 22z" />
    <glyph glyph-name="dagger" unicode="&#x2020;" horiz-adv-x="184" 
d="M174 650v-50h-57v-290h-50v290h-57v50h57v150h50v-150h57z" />
    <glyph glyph-name="daggerdbl" unicode="&#x2021;" horiz-adv-x="184" 
d="M174 600h-57v-100h57v-50h-57v-140h-50v140h-57v50h57v100h-57v50h57v150h50v-150h57v-50z" />
    <glyph glyph-name="bullet" unicode="&#x2022;" horiz-adv-x="294" 
d="M147 193q-58 0 -97.5 37.5t-39.5 97.5q0 62 39.5 100t97.5 38t97.5 -38t39.5 -100q0 -60 -39.5 -97.5t-97.5 -37.5z" />
    <glyph glyph-name="ellipsis" unicode="&#x2026;" horiz-adv-x="540" 
d="M90 -10q-34 0 -57 22t-23 57q0 37 23 59t57 22t57 -22t23 -59q0 -35 -23 -57t-57 -22zM270 -10q-34 0 -57 22t-23 57q0 37 23 59t57 22t57 -22t23 -59q0 -35 -23 -57t-57 -22zM450 -10q-34 0 -57 22t-23 57q0 37 23 59t57 22t57 -22t23 -59q0 -35 -23 -57t-57 -22z" />
    <glyph glyph-name="perthousand" unicode="&#x2030;" horiz-adv-x="764" 
d="M132 510q63 0 92.5 43t29.5 107t-29.5 107t-92.5 43t-92.5 -43t-29.5 -107t29.5 -107t92.5 -43zM420 810l-297 -820h-53l297 820h53zM132 560q-72 0 -72 100t72 100t72 -100t-72 -100zM358 -10q63 0 92.5 43t29.5 107t-29.5 107t-92.5 43t-92.5 -43t-29.5 -107t29.5 -107
t92.5 -43zM632 -10q63 0 92.5 43t29.5 107t-29.5 107t-92.5 43t-92.5 -43t-29.5 -107t29.5 -107t92.5 -43zM358 40q-72 0 -72 100t72 100t72 -100t-72 -100zM632 40q-72 0 -72 100t72 100t72 -100t-72 -100z" />
    <glyph glyph-name="guilsinglleft" unicode="&#x2039;" horiz-adv-x="169" 
d="M159 509v-60l-111 -119l111 -119v-60l-149 159v40z" />
    <glyph glyph-name="guilsinglright" unicode="&#x203a;" horiz-adv-x="169" 
d="M10 509l149 -159v-40l-149 -159v60l111 119l-111 119v60z" />
    <glyph glyph-name="fraction" unicode="&#x2044;" horiz-adv-x="370" 
d="M360 810l-297 -820h-53l297 820h53z" />
    <glyph glyph-name="Euro" unicode="&#x20ac;" horiz-adv-x="402" 
d="M248 40q79 0 94 110h50q-7 -82 -46.5 -121t-97.5 -39q-86 0 -131 77t-55 239h-52v50h50v40h-50v50h51q5 188 49.5 276t137.5 88q58 0 97.5 -39t46.5 -121h-50q-15 110 -94 110q-71 0 -102.5 -74.5t-35.5 -239.5h212v-50h-212v-40h212v-50h-210q7 -139 38.5 -202.5
t97.5 -63.5z" />
    <glyph glyph-name="trademark" unicode="&#x2122;" horiz-adv-x="458" 
d="M174 800v-50h-57v-440h-50v440h-57v50h164zM398 800h50v-490h-50v249l-52 -249h-50l-52 249v-249h-50v490h50l77 -393z" />
    <glyph glyph-name="arrowleft" unicode="&#x2190;" horiz-adv-x="430" 
d="M420 355v-50h-340q45 -18 79 -60t41 -110h-50q-7 63 -48.5 108t-91.5 62v50q50 17 91.5 62t48.5 108h50q-7 -68 -41 -110t-79 -60h340z" />
    <glyph glyph-name="arrowup" unicode="&#x2191;" horiz-adv-x="410" 
d="M230 532q17 -50 62 -91.5t108 -48.5v-50q-68 7 -110 41t-60 79v-340h-50v340q-18 -45 -60 -79t-110 -41v50q63 7 108 48.5t62 91.5h50z" />
    <glyph glyph-name="arrowright" unicode="&#x2192;" horiz-adv-x="430" 
d="M280 525q7 -63 48.5 -108t91.5 -62v-50q-50 -17 -91.5 -62t-48.5 -108h-50q7 68 41 110t79 60h-340v50h340q-45 18 -79 60t-41 110h50z" />
    <glyph glyph-name="arrowdown" unicode="&#x2193;" horiz-adv-x="410" 
d="M230 199q18 45 60 79t110 41v-50q-63 -7 -108 -48.5t-62 -91.5h-50q-17 50 -62 91.5t-108 48.5v50q68 -7 110 -41t60 -79v340h50v-340z" />
    <glyph glyph-name="arrowboth" unicode="&#x2194;" horiz-adv-x="550" 
d="M400 525q7 -63 48.5 -108t91.5 -62v-50q-50 -17 -91.5 -62t-48.5 -108h-50q7 68 41 110t79 60h-390q45 -18 79 -60t41 -110h-50q-7 63 -48.5 108t-91.5 62v50q50 17 91.5 62t48.5 108h50q-7 -68 -41 -110t-79 -60h390q-45 18 -79 60t-41 110h50z" />
    <glyph glyph-name="arrowupdn" unicode="&#x2195;" horiz-adv-x="410" 
d="M230 135q18 45 60 79t110 41v-50q-63 -7 -108 -48.5t-62 -91.5h-50q-17 50 -62 91.5t-108 48.5v50q68 -7 110 -41t60 -79v390q-18 -45 -60 -79t-110 -41v50q63 7 108 48.5t62 91.5h50q17 -50 62 -91.5t108 -48.5v-50q-68 7 -110 41t-60 79v-390z" />
    <glyph glyph-name="uni2196" unicode="&#x2196;" horiz-adv-x="366" 
d="M286 531l35 -36q-99 -80 -205 -35l-50 49q30 -15 66 -20t78 5t76 37zM321 184l-290 290l35 35l290 -290zM10 255q27 33 36.5 75t4.5 78t-20 66l49 -50q12 -27 15.5 -57.5t-8.5 -70.5t-42 -77z" />
    <glyph glyph-name="uni2197" unicode="&#x2197;" horiz-adv-x="367" 
d="M81 494q33 -27 75 -36.5t78 -4.5t66 20l-50 -49q-27 -12 -57.5 -15.5t-70.5 8.5t-77 42zM10 183l290 290l35 -35l-290 -290zM357 218l-36 -35q-80 99 -35 205l49 50q-15 -30 -20 -66t5 -78t37 -76z" />
    <glyph glyph-name="uni2198" unicode="&#x2198;" horiz-adv-x="366" 
d="M45 513l290 -290l-35 -35l-290 290zM356 442q-27 -33 -36.5 -75t-4.5 -78t20 -66l-49 50q-12 27 -15.5 57.5t8.5 70.5t42 77zM80 166l-35 36q99 80 205 35l50 -49q-30 15 -66 20t-78 -5t-76 -37z" />
    <glyph glyph-name="uni2199" unicode="&#x2199;" horiz-adv-x="367" 
d="M357 472l-290 -290l-35 35l290 290zM10 437l36 35q80 -99 35 -205l-49 -50q15 30 20 66t-5 78t-37 76zM286 161q-33 27 -75 36.5t-78 4.5t-66 -20l50 49q27 12 57.5 15.5t70.5 -8.5t77 -42z" />
    <glyph glyph-name="partialdiff" unicode="&#x2202;" horiz-adv-x="464" 
d="M127 690q74 -32 130.5 -75.5t102.5 -107t70 -153t24 -201.5q0 -119 -60.5 -191t-161.5 -72q-95 0 -158.5 70.5t-63.5 185.5q0 43 11.5 83.5t35 77t66.5 58.5t99 22q118 0 172 -100q-23 131 -93.5 217.5t-193.5 139.5zM232 -60q81 0 126.5 59t45.5 154q-8 99 -60 141.5
t-122 42.5q-78 0 -120 -53.5t-42 -137.5q0 -95 49.5 -150.5t122.5 -55.5z" />
    <glyph glyph-name="emptyset" unicode="&#x2205;" horiz-adv-x="560" 
d="M396 648q73 -31 113.5 -97.5t40.5 -149.5q0 -115 -72 -193t-197 -78q-31 0 -70 7l-53 -147h-53l59 162q-74 31 -114 98t-40 151q0 114 72.5 191.5t198.5 77.5q39 0 68 -7l53 147h53zM60 401q0 -67 30.5 -121.5t90.5 -80.5l151 417q-32 4 -51 4q-107 0 -164 -64t-57 -155z
M281 180q106 0 162.5 64t56.5 157q0 66 -31 120.5t-90 79.5l-150 -416q27 -5 52 -5z" />
    <glyph glyph-name="product" unicode="&#x220f;" horiz-adv-x="430" 
d="M420 695v-50h-81v-755h-50v755h-149v-755h-50v755h-80v50h410z" />
    <glyph glyph-name="summation" unicode="&#x2211;" horiz-adv-x="430" 
d="M420 695v-50h-352l213 -355l-213 -355h352v-50h-410v50l215 354l-215 356v50h410z" />
    <glyph glyph-name="minus" unicode="&#x2212;" horiz-adv-x="430" 
d="M10 355h410v-50h-410v50z" />
    <glyph glyph-name="radical" unicode="&#x221a;" horiz-adv-x="528" 
d="M342 690h176v-40h-136l-163 -760h-67l-142 358h53l120 -308z" />
    <glyph glyph-name="infinity" unicode="&#x221e;" horiz-adv-x="550" 
d="M430 460q43 0 76.5 -32.5t33.5 -97.5t-33.5 -97.5t-76.5 -32.5q-65 0 -155 96q-90 -96 -155 -96q-43 0 -76.5 32.5t-33.5 97.5t33.5 97.5t76.5 32.5q65 0 155 -96q90 96 155 96zM125 250q26 0 53 20t65 60q-38 40 -65 60t-53 20q-65 0 -65 -80t65 -80zM426 250
q64 0 64 80t-64 80q-43 0 -119 -80q76 -80 119 -80z" />
    <glyph glyph-name="integral" unicode="&#x222b;" horiz-adv-x="302" 
d="M10 -70q44 0 69 42t33.5 109t12 148t9.5 162t19 148t48 109t91 42v-40q-44 0 -69 -42t-33.5 -109t-12 -148t-9.5 -162t-19 -148t-48 -109t-91 -42v40z" />
    <glyph glyph-name="approxequal" unicode="&#x2248;" horiz-adv-x="430" 
d="M10 370q0 110 100 110q41 0 79.5 -22.5t71 -45t59.5 -22.5q50 0 50 60h50q0 -110 -100 -110q-41 0 -79.5 22.5t-71 45t-59.5 22.5q-50 0 -50 -60h-50zM10 210q0 110 100 110q41 0 79.5 -22.5t71 -45t59.5 -22.5q50 0 50 60h50q0 -110 -100 -110q-41 0 -79.5 22.5t-71 45
t-59.5 22.5q-50 0 -50 -60h-50z" />
    <glyph glyph-name="notequal" unicode="&#x2260;" horiz-adv-x="430" 
d="M420 355h-169l-18 -50h187v-50h-206l-66 -177h-53l66 177h-151v50h170l18 50h-188v50h207l66 177h53l-66 -177h150v-50z" />
    <glyph glyph-name="lessequal" unicode="&#x2264;" horiz-adv-x="430" 
d="M420 509v-50l-340 -129l340 -129v-81h-410v50h361l-361 140v40z" />
    <glyph glyph-name="greaterequal" unicode="&#x2265;" horiz-adv-x="430" 
d="M420 350v-40l-361 -140h361v-50h-410v81l340 129l-340 129v50z" />
    <glyph glyph-name="lozenge" unicode="&#x25ca;" horiz-adv-x="336" 
d="M204 675l122 -300l-122 -300h-72l-122 300l122 300h72zM168 119l104 256l-104 256l-104 -256z" />
    <glyph glyph-name="B.001" horiz-adv-x="398" 
d="M298 421q90 -44 90 -172v-41q0 -113 -50.5 -160t-177.5 -48h-150v800h150q126 0 172 -47.5t46 -170.5v-7q0 -114 -80 -154zM160 650v-163q44 0 56 12.5t12 55.5v27q0 44 -12 56t-56 12zM160 150q45 0 61.5 13t16.5 55v51q0 42 -16.5 55t-61.5 13v-187z" />
    <glyph glyph-name="D.001" horiz-adv-x="398" 
d="M160 800q128 0 178 -48.5t50 -169.5v-364q0 -120 -50.5 -169t-177.5 -49h-150v800h150zM160 150q45 0 61.5 13t16.5 55v364q0 42 -16.5 55t-61.5 13v-500z" />
    <glyph glyph-name="A.ss01" horiz-adv-x="861" 
d="M689 0l-56 141h-405l-56 -141h-162l318 800h205l318 -800h-162zM284 281h293l-146 369z" />
    <glyph glyph-name="Aacute.ss01" horiz-adv-x="861" 
d="M573 933l-275 -73l-10 38l275 74zM689 0l-56 141h-405l-56 -141h-162l318 800h205l318 -800h-162zM284 281h293l-146 369z" />
    <glyph glyph-name="Abreve.ss01" horiz-adv-x="861" 
d="M432 860q-61 0 -102.5 26t-41.5 86h50q0 -38 29.5 -55t64.5 -17t63 17t28 55h50q0 -60 -40 -86t-101 -26zM689 0l-56 141h-405l-56 -141h-162l318 800h205l318 -800h-162zM284 281h293l-146 369z" />
    <glyph glyph-name="Acircumflex.ss01" horiz-adv-x="861" 
d="M432 942l-79 -82h-65l109 112h70l106 -112h-65zM689 0l-56 141h-405l-56 -141h-162l318 800h205l318 -800h-162zM284 281h293l-146 369z" />
    <glyph glyph-name="Adieresis.ss01" horiz-adv-x="861" 
d="M358 856q-21 0 -35.5 14t-14.5 35q0 23 14.5 37t35.5 14q20 0 35 -14t15 -37q0 -21 -15 -35t-35 -14zM503 856q-21 0 -35.5 14t-14.5 35q0 23 14.5 37t35.5 14q20 0 35 -14t15 -37q0 -21 -15 -35t-35 -14zM689 0l-56 141h-405l-56 -141h-162l318 800h205l318 -800h-162z
M284 281h293l-146 369z" />
    <glyph glyph-name="Agrave.ss01" horiz-adv-x="861" 
d="M573 898l-10 -38l-275 73l10 39zM689 0l-56 141h-405l-56 -141h-162l318 800h205l318 -800h-162zM284 281h293l-146 369z" />
    <glyph glyph-name="Amacron.ss01" horiz-adv-x="861" 
d="M573 936v-40h-285v40h285zM689 0l-56 141h-405l-56 -141h-162l318 800h205l318 -800h-162zM284 281h293l-146 369z" />
    <glyph glyph-name="Aogonek.ss01" horiz-adv-x="861" 
d="M690 -90q0 -32 29 -48.5t101 -18.5l-40 -40q-160 0 -160 98q0 69 96 99h-27l-56 141h-405l-56 -141h-162l318 800h205l318 -800h-66q-50 -20 -72.5 -41.5t-22.5 -48.5zM284 281h293l-146 369z" />
    <glyph glyph-name="Aring.ss01" horiz-adv-x="861" 
d="M431 860q-27 0 -46.5 19t-19.5 47t19.5 47t46.5 19t46.5 -19t19.5 -47t-19.5 -47t-46.5 -19zM431 952q-12 0 -19 -7.5t-7 -18.5t7 -18.5t19 -7.5t19 7.5t7 18.5t-7 18.5t-19 7.5zM689 0l-56 141h-405l-56 -141h-162l318 800h205l318 -800h-162zM284 281h293l-146 369z
" />
    <glyph glyph-name="Atilde.ss01" horiz-adv-x="861" 
d="M371 932q-33 0 -33 -60h-50q0 100 80 100q26 0 45 -11t28 -25t22 -25t27 -11q33 0 33 60h50q0 -100 -80 -100q-26 0 -45 11t-28.5 25t-22 25t-26.5 11zM689 0l-56 141h-405l-56 -141h-162l318 800h205l318 -800h-162zM284 281h293l-146 369z" />
    <glyph glyph-name="B.ss01" horiz-adv-x="791" 
d="M655 425q126 -45 126 -197q0 -125 -67.5 -176.5t-220.5 -51.5h-483v800h463q149 0 208.5 -47t59.5 -161q0 -121 -86 -167zM160 660v-178h303q72 0 100 17.5t28 77.5q0 52 -28.5 67.5t-99.5 15.5h-303zM493 140q74 0 106 17.5t32 75.5q0 66 -32.5 87.5t-105.5 21.5h-333
v-202h333z" />
    <glyph glyph-name="C.ss01" horiz-adv-x="815" 
d="M10 401q0 113 45 204t138.5 148t220.5 57q170 0 276 -96t115 -238h-152q-7 80 -70 137t-169 57q-65 0 -115 -22.5t-79.5 -60.5t-44.5 -85t-15 -101q0 -115 63.5 -193t190.5 -78q106 0 169.5 57.5t69.5 138.5h152q-9 -143 -114.5 -239.5t-276.5 -96.5q-127 0 -220.5 57
t-138.5 148.5t-45 205.5z" />
    <glyph glyph-name="Cacute.ss01" horiz-adv-x="815" 
d="M265 898l275 74l10 -39l-275 -73zM10 401q0 113 45 204t138.5 148t220.5 57q170 0 276 -96t115 -238h-152q-7 80 -70 137t-169 57q-65 0 -115 -22.5t-79.5 -60.5t-44.5 -85t-15 -101q0 -115 63.5 -193t190.5 -78q106 0 169.5 57.5t69.5 138.5h152q-9 -143 -114.5 -239.5
t-276.5 -96.5q-127 0 -220.5 57t-138.5 148.5t-45 205.5z" />
    <glyph glyph-name="Ccaron.ss01" horiz-adv-x="815" 
d="M374 860l-109 112h65l79 -82l76 82h65l-106 -112h-70zM10 401q0 113 45 204t138.5 148t220.5 57q170 0 276 -96t115 -238h-152q-7 80 -70 137t-169 57q-65 0 -115 -22.5t-79.5 -60.5t-44.5 -85t-15 -101q0 -115 63.5 -193t190.5 -78q106 0 169.5 57.5t69.5 138.5h152
q-9 -143 -114.5 -239.5t-276.5 -96.5q-127 0 -220.5 57t-138.5 148.5t-45 205.5z" />
    <glyph glyph-name="Ccedilla.ss01" horiz-adv-x="815" 
d="M414 130q106 0 169.5 57.5t69.5 138.5h152q-9 -139 -109.5 -235t-264.5 -101l-14 -57q111 18 111 -60q0 -23 -13 -39t-29.5 -24t-45.5 -12t-46 -4.5t-47 -0.5l1 40q72 0 101 7.5t29 32.5t-27.5 30t-82.5 -4l14 92q-176 11 -274 126.5t-98 283.5q0 113 45 204t138.5 148
t220.5 57q170 0 276 -96t115 -238h-152q-7 80 -70 137t-169 57q-65 0 -115 -22.5t-79.5 -60.5t-44.5 -85t-15 -101q0 -115 63.5 -193t190.5 -78z" />
    <glyph glyph-name="Cdotaccent.ss01" horiz-adv-x="815" 
d="M408 856q-21 0 -35.5 14t-14.5 35q0 23 14.5 37t35.5 14q20 0 35 -14t15 -37q0 -21 -15 -35t-35 -14zM10 401q0 113 45 204t138.5 148t220.5 57q170 0 276 -96t115 -238h-152q-7 80 -70 137t-169 57q-65 0 -115 -22.5t-79.5 -60.5t-44.5 -85t-15 -101q0 -115 63.5 -193
t190.5 -78q106 0 169.5 57.5t69.5 138.5h152q-9 -143 -114.5 -239.5t-276.5 -96.5q-127 0 -220.5 57t-138.5 148.5t-45 205.5z" />
    <glyph glyph-name="D.ss01" horiz-adv-x="796" 
d="M408 800q67 0 121 -10t103 -36t82 -66.5t52.5 -105.5t19.5 -150v-64q0 -85 -19.5 -149.5t-52.5 -105.5t-82 -66.5t-103.5 -36t-120.5 -10.5h-398v800h398zM408 140q38 0 66 3.5t60.5 17t53 37t34.5 67t14 103.5v64q0 60 -14 103.5t-34.5 67t-53 37t-60.5 17t-66 3.5h-248
v-520h248z" />
    <glyph glyph-name="Eth.ss01" horiz-adv-x="854" 
d="M466 800q67 0 121 -10t103 -36t82 -66.5t52.5 -105.5t19.5 -150v-64q0 -85 -19.5 -149.5t-52.5 -105.5t-82 -66.5t-103.5 -36t-120.5 -10.5h-398v380h-68v40h68v380h398zM466 140q38 0 66 3.5t60.5 17t53 37t34.5 67t14 103.5v64q0 60 -14 103.5t-34.5 67t-53 37
t-60.5 17t-66 3.5h-248v-240h237v-40h-237v-240h248z" />
    <glyph glyph-name="Dcaron.ss01" horiz-adv-x="796" 
d="M434 860h-70l-109 112h65l79 -82l76 82h65zM408 800q67 0 121 -10t103 -36t82 -66.5t52.5 -105.5t19.5 -150v-64q0 -85 -19.5 -149.5t-52.5 -105.5t-82 -66.5t-103.5 -36t-120.5 -10.5h-398v800h398zM408 140q38 0 66 3.5t60.5 17t53 37t34.5 67t14 103.5v64
q0 60 -14 103.5t-34.5 67t-53 37t-60.5 17t-66 3.5h-248v-520h248z" />
    <glyph glyph-name="Dcroat.ss01" horiz-adv-x="854" 
d="M466 800q67 0 121 -10t103 -36t82 -66.5t52.5 -105.5t19.5 -150v-64q0 -85 -19.5 -149.5t-52.5 -105.5t-82 -66.5t-103.5 -36t-120.5 -10.5h-398v380h-68v40h68v380h398zM466 140q38 0 66 3.5t60.5 17t53 37t34.5 67t14 103.5v64q0 60 -14 103.5t-34.5 67t-53 37
t-60.5 17t-66 3.5h-248v-240h237v-40h-237v-240h248z" />
    <glyph glyph-name="E.ss01" horiz-adv-x="610" 
d="M600 660h-440v-190h440v-140h-440v-190h440v-140h-590v800h590v-140z" />
    <glyph glyph-name="Eacute.ss01" horiz-adv-x="610" 
d="M447 933l-275 -73l-10 38l275 74zM600 660h-440v-190h440v-140h-440v-190h440v-140h-590v800h590v-140z" />
    <glyph glyph-name="Ecaron.ss01" horiz-adv-x="610" 
d="M341 860h-70l-109 112h65l79 -82l76 82h65zM600 660h-440v-190h440v-140h-440v-190h440v-140h-590v800h590v-140z" />
    <glyph glyph-name="Ecircumflex.ss01" horiz-adv-x="610" 
d="M306 942l-79 -82h-65l109 112h70l106 -112h-65zM600 660h-440v-190h440v-140h-440v-190h440v-140h-590v800h590v-140z" />
    <glyph glyph-name="Edieresis.ss01" horiz-adv-x="610" 
d="M232 856q-21 0 -35.5 14t-14.5 35q0 23 14.5 37t35.5 14q20 0 35 -14t15 -37q0 -21 -15 -35t-35 -14zM377 856q-21 0 -35.5 14t-14.5 35q0 23 14.5 37t35.5 14q20 0 35 -14t15 -37q0 -21 -15 -35t-35 -14zM600 660h-440v-190h440v-140h-440v-190h440v-140h-590v800h590
v-140z" />
    <glyph glyph-name="Edotaccent.ss01" horiz-adv-x="610" 
d="M305 856q-21 0 -35.5 14t-14.5 35q0 23 14.5 37t35.5 14q20 0 35 -14t15 -37q0 -21 -15 -35t-35 -14zM600 660h-440v-190h440v-140h-440v-190h440v-140h-590v800h590v-140z" />
    <glyph glyph-name="Egrave.ss01" horiz-adv-x="610" 
d="M447 898l-10 -38l-275 73l10 39zM600 660h-440v-190h440v-140h-440v-190h440v-140h-590v800h590v-140z" />
    <glyph glyph-name="Emacron.ss01" horiz-adv-x="610" 
d="M447 936v-40h-285v40h285zM600 660h-440v-190h440v-140h-440v-190h440v-140h-590v800h590v-140z" />
    <glyph glyph-name="Eogonek.ss01" horiz-adv-x="610" 
d="M600 660h-440v-190h440v-140h-440v-190h440v-140h-41q-50 -20 -72.5 -41.5t-22.5 -48.5q0 -32 29 -48.5t101 -18.5l-40 -40q-160 0 -160 98q0 69 96 99h-480v800h590v-140z" />
    <glyph glyph-name="F.ss01" horiz-adv-x="610" 
d="M600 660h-440v-230h440v-140h-440v-290h-150v800h590v-140z" />
    <glyph glyph-name="G.ss01" horiz-adv-x="815" 
d="M317 275v140h488v-415h-100l-22 122q-94 -132 -279 -132q-122 0 -213 56.5t-136 149t-45 205.5t45 204t138.5 148t220.5 57q170 0 276 -96t115 -238h-152q-7 80 -70 137t-169 57q-65 0 -115 -22.5t-79.5 -60.5t-44.5 -85t-15 -101q0 -115 63.5 -193t190.5 -78
q87 0 143.5 40t81.5 105h-322z" />
    <glyph glyph-name="Gbreve.ss01" horiz-adv-x="815" 
d="M409 860q-61 0 -102.5 26t-41.5 86h50q0 -38 29.5 -55t64.5 -17t63 17t28 55h50q0 -60 -40 -86t-101 -26zM317 275v140h488v-415h-100l-22 122q-94 -132 -279 -132q-122 0 -213 56.5t-136 149t-45 205.5t45 204t138.5 148t220.5 57q170 0 276 -96t115 -238h-152
q-7 80 -70 137t-169 57q-65 0 -115 -22.5t-79.5 -60.5t-44.5 -85t-15 -101q0 -115 63.5 -193t190.5 -78q87 0 143.5 40t81.5 105h-322z" />
    <glyph glyph-name="Gcommaaccent.ss01" horiz-adv-x="815" 
d="M317 275v140h488v-415h-100l-22 122q-94 -132 -279 -132q-122 0 -213 56.5t-136 149t-45 205.5t45 204t138.5 148t220.5 57q170 0 276 -96t115 -238h-152q-7 80 -70 137t-169 57q-65 0 -115 -22.5t-79.5 -60.5t-44.5 -85t-15 -101q0 -115 63.5 -193t190.5 -78
q87 0 143.5 40t81.5 105h-322zM408 -57q19 0 32.5 -13t13.5 -38q0 -80 -80 -119v44q29 14 35 39q-21 -4 -34.5 7.5t-13.5 32.5q0 20 13.5 33.5t33.5 13.5z" />
    <glyph glyph-name="Gdotaccent.ss01" horiz-adv-x="815" 
d="M408 856q-21 0 -35.5 14t-14.5 35q0 23 14.5 37t35.5 14q20 0 35 -14t15 -37q0 -21 -15 -35t-35 -14zM317 275v140h488v-415h-100l-22 122q-94 -132 -279 -132q-122 0 -213 56.5t-136 149t-45 205.5t45 204t138.5 148t220.5 57q170 0 276 -96t115 -238h-152
q-7 80 -70 137t-169 57q-65 0 -115 -22.5t-79.5 -60.5t-44.5 -85t-15 -101q0 -115 63.5 -193t190.5 -78q87 0 143.5 40t81.5 105h-322z" />
    <glyph glyph-name="H.ss01" horiz-adv-x="783" 
d="M623 800h150v-800h-150v330h-463v-330h-150v800h150v-330h463v330z" />
    <glyph glyph-name="Hbar.ss01" horiz-adv-x="903" 
d="M903 690v-40h-70v-650h-150v330h-463v-330h-150v650h-70v40h70v110h150v-110h463v110h150v-110h70zM683 470v180h-463v-180h463z" />
    <glyph glyph-name="I.ss01" horiz-adv-x="570" 
d="M560 660h-200v-520h200v-140h-550v140h200v520h-200v140h550v-140z" />
    <glyph glyph-name="Iacute.ss01" horiz-adv-x="570" 
d="M427 933l-275 -73l-10 38l275 74zM560 660h-200v-520h200v-140h-550v140h200v520h-200v140h550v-140z" />
    <glyph glyph-name="Icircumflex.ss01" horiz-adv-x="570" 
d="M286 942l-79 -82h-65l109 112h70l106 -112h-65zM560 660h-200v-520h200v-140h-550v140h200v520h-200v140h550v-140z" />
    <glyph glyph-name="Idieresis.ss01" horiz-adv-x="570" 
d="M212 856q-21 0 -35.5 14t-14.5 35q0 23 14.5 37t35.5 14q20 0 35 -14t15 -37q0 -21 -15 -35t-35 -14zM357 856q-21 0 -35.5 14t-14.5 35q0 23 14.5 37t35.5 14q20 0 35 -14t15 -37q0 -21 -15 -35t-35 -14zM560 660h-200v-520h200v-140h-550v140h200v520h-200v140h550
v-140z" />
    <glyph glyph-name="Idotaccent.ss01" horiz-adv-x="570" 
d="M285 856q-21 0 -35.5 14t-14.5 35q0 23 14.5 37t35.5 14q20 0 35 -14t15 -37q0 -21 -15 -35t-35 -14zM560 660h-200v-520h200v-140h-550v140h200v520h-200v140h550v-140z" />
    <glyph glyph-name="Igrave.ss01" horiz-adv-x="570" 
d="M427 898l-10 -38l-275 73l10 39zM560 660h-200v-520h200v-140h-550v140h200v520h-200v140h550v-140z" />
    <glyph glyph-name="Imacron.ss01" horiz-adv-x="570" 
d="M427 936v-40h-285v40h285zM560 660h-200v-520h200v-140h-550v140h200v520h-200v140h550v-140z" />
    <glyph glyph-name="Iogonek.ss01" horiz-adv-x="570" 
d="M440 -100q0 -32 29 -48.5t101 -18.5l-40 -40q-160 0 -160 98q0 47 40 73t100 36h-500v140h200v520h-200v140h550v-140h-200v-520h200v-140q-63 -24 -91.5 -47t-28.5 -53z" />
    <glyph glyph-name="J.ss01" horiz-adv-x="792" 
d="M782 800v-482q0 -174 -89 -251t-297 -77t-297 77t-89 251v49h150v-49q0 -96 50.5 -142t185.5 -46t185.5 46t50.5 142v482h150z" />
    <glyph glyph-name="K.ss01" horiz-adv-x="796" 
d="M786 800l-455 -400l455 -400h-226l-363 330h-37v-330h-150v800h150v-330h37l363 330h226z" />
    <glyph glyph-name="Kcommaaccent.ss01" horiz-adv-x="796" 
d="M786 800l-455 -400l455 -400h-226l-363 330h-37v-330h-150v800h150v-330h37l363 330h226zM340 -57q19 0 32.5 -13t13.5 -38q0 -80 -80 -119v44q29 14 35 39q-21 -4 -34.5 7.5t-13.5 32.5q0 20 13.5 33.5t33.5 13.5z" />
    <glyph glyph-name="L.ss01" horiz-adv-x="610" 
d="M160 140h440v-140h-590v800h150v-660z" />
    <glyph glyph-name="Lacute.ss01" horiz-adv-x="610" 
d="M217 972l10 -39l-275 -73l-10 38zM160 140h440v-140h-590v800h150v-660z" />
    <glyph glyph-name="Lcaron.ss01" horiz-adv-x="610" 
d="M121 860h-70l-109 112h65l79 -82l76 82h65zM160 140h440v-140h-590v800h150v-660z" />
    <glyph glyph-name="Lcommaaccent.ss01" horiz-adv-x="610" 
d="M160 140h440v-140h-590v800h150v-660zM305 -57q19 0 32.5 -13t13.5 -38q0 -80 -80 -119v44q29 14 35 39q-21 -4 -34.5 7.5t-13.5 32.5q0 20 13.5 33.5t33.5 13.5z" />
    <glyph glyph-name="Lslash.ss01" horiz-adv-x="670" 
d="M220 140h440v-140h-590v396l-70 -43v56l70 43v348h150v-255l125 77v-56l-125 -77v-349z" />
    <glyph glyph-name="M.ss01" horiz-adv-x="1028" 
d="M868 800h150v-800h-150v514l-319 -514h-70l-319 514v-514h-150v800h150l354 -575z" />
    <glyph glyph-name="N.ss01" horiz-adv-x="898" 
d="M738 800h150v-800h-150l-578 590v-590h-150v800h150l578 -590v590z" />
    <glyph glyph-name="Nacute.ss01" horiz-adv-x="898" 
d="M591 933l-275 -73l-10 38l275 74zM738 800h150v-800h-150l-578 590v-590h-150v800h150l578 -590v590z" />
    <glyph glyph-name="Ncaron.ss01" horiz-adv-x="898" 
d="M485 860h-70l-109 112h65l79 -82l76 82h65zM738 800h150v-800h-150l-578 590v-590h-150v800h150l578 -590v590z" />
    <glyph glyph-name="Ncommaaccent.ss01" horiz-adv-x="898" 
d="M738 800h150v-800h-150l-578 590v-590h-150v800h150l578 -590v590zM449 -57q19 0 32.5 -13t13.5 -38q0 -80 -80 -119v44q29 14 35 39q-21 -4 -34.5 7.5t-13.5 32.5q0 20 13.5 33.5t33.5 13.5z" />
    <glyph glyph-name="Ntilde.ss01" horiz-adv-x="898" 
d="M389 932q-33 0 -33 -60h-50q0 100 80 100q26 0 45 -11t28 -25t22 -25t27 -11q33 0 33 60h50q0 -100 -80 -100q-26 0 -45 11t-28.5 25t-22 25t-26.5 11zM738 800h150v-800h-150l-578 590v-590h-150v800h150l578 -590v590z" />
    <glyph glyph-name="O.ss01" horiz-adv-x="840" 
d="M421 -10q-190 0 -300.5 118t-110.5 293q0 173 110.5 291t300.5 118q126 0 220.5 -56.5t141.5 -148.5t47 -204q0 -174 -110 -292.5t-299 -118.5zM421 130q126 0 192.5 78.5t66.5 192.5q0 112 -66.5 190.5t-192.5 78.5q-127 0 -194 -78t-67 -191q0 -114 67 -192.5
t194 -78.5z" />
    <glyph glyph-name="Oacute.ss01" horiz-adv-x="840" 
d="M277 898l275 74l10 -39l-275 -73zM421 -10q-190 0 -300.5 118t-110.5 293q0 173 110.5 291t300.5 118q126 0 220.5 -56.5t141.5 -148.5t47 -204q0 -174 -110 -292.5t-299 -118.5zM421 130q126 0 192.5 78.5t66.5 192.5q0 112 -66.5 190.5t-192.5 78.5q-127 0 -194 -78
t-67 -191q0 -114 67 -192.5t194 -78.5z" />
    <glyph glyph-name="Ocircumflex.ss01" horiz-adv-x="840" 
d="M386 972h70l106 -112h-65l-76 82l-79 -82h-65zM421 -10q-190 0 -300.5 118t-110.5 293q0 173 110.5 291t300.5 118q126 0 220.5 -56.5t141.5 -148.5t47 -204q0 -174 -110 -292.5t-299 -118.5zM421 130q126 0 192.5 78.5t66.5 192.5q0 112 -66.5 190.5t-192.5 78.5
q-127 0 -194 -78t-67 -191q0 -114 67 -192.5t194 -78.5z" />
    <glyph glyph-name="Odieresis.ss01" horiz-adv-x="840" 
d="M347 856q-21 0 -35.5 14t-14.5 35q0 23 14.5 37t35.5 14q20 0 35 -14t15 -37q0 -21 -15 -35t-35 -14zM492 856q-21 0 -35.5 14t-14.5 35q0 23 14.5 37t35.5 14q20 0 35 -14t15 -37q0 -21 -15 -35t-35 -14zM421 -10q-190 0 -300.5 118t-110.5 293q0 173 110.5 291
t300.5 118q126 0 220.5 -56.5t141.5 -148.5t47 -204q0 -174 -110 -292.5t-299 -118.5zM421 130q126 0 192.5 78.5t66.5 192.5q0 112 -66.5 190.5t-192.5 78.5q-127 0 -194 -78t-67 -191q0 -114 67 -192.5t194 -78.5z" />
    <glyph glyph-name="Ograve.ss01" horiz-adv-x="840" 
d="M562 898l-10 -38l-275 73l10 39zM421 -10q-190 0 -300.5 118t-110.5 293q0 173 110.5 291t300.5 118q126 0 220.5 -56.5t141.5 -148.5t47 -204q0 -174 -110 -292.5t-299 -118.5zM421 130q126 0 192.5 78.5t66.5 192.5q0 112 -66.5 190.5t-192.5 78.5q-127 0 -194 -78
t-67 -191q0 -114 67 -192.5t194 -78.5z" />
    <glyph glyph-name="Ohungarumlaut.ss01" horiz-adv-x="840" 
d="M393 860h-70l115 112h60zM503 860h-70l115 112h60zM421 -10q-190 0 -300.5 118t-110.5 293q0 173 110.5 291t300.5 118q126 0 220.5 -56.5t141.5 -148.5t47 -204q0 -174 -110 -292.5t-299 -118.5zM421 130q126 0 192.5 78.5t66.5 192.5q0 112 -66.5 190.5t-192.5 78.5
q-127 0 -194 -78t-67 -191q0 -114 67 -192.5t194 -78.5z" />
    <glyph glyph-name="Omacron.ss01" horiz-adv-x="840" 
d="M277 936h285v-40h-285v40zM421 -10q-190 0 -300.5 118t-110.5 293q0 173 110.5 291t300.5 118q126 0 220.5 -56.5t141.5 -148.5t47 -204q0 -174 -110 -292.5t-299 -118.5zM421 130q126 0 192.5 78.5t66.5 192.5q0 112 -66.5 190.5t-192.5 78.5q-127 0 -194 -78t-67 -191
q0 -114 67 -192.5t194 -78.5z" />
    <glyph glyph-name="Oslash.ss01" horiz-adv-x="840" 
d="M585 781q116 -44 180.5 -147t64.5 -233q0 -174 -110 -292.5t-299 -118.5q-62 0 -118 14l-5 -14h-53l11 29q-117 45 -181.5 148t-64.5 234q0 173 110.5 291t300.5 118q60 0 116 -14l5 14h53zM160 401q0 -83 36.5 -150t107.5 -98l185 510q-29 7 -68 7q-127 0 -194 -78
t-67 -191zM421 130q126 0 192.5 78.5t66.5 192.5q0 82 -36.5 148.5t-107.5 98.5l-185 -511q38 -7 70 -7z" />
    <glyph glyph-name="Otilde.ss01" horiz-adv-x="840" 
d="M277 872q0 100 80 100q26 0 45 -11t28.5 -25t22 -25t26.5 -11q33 0 33 60h50q0 -100 -80 -100q-26 0 -45 11t-28 25t-22 25t-27 11q-33 0 -33 -60h-50zM421 -10q-190 0 -300.5 118t-110.5 293q0 173 110.5 291t300.5 118q126 0 220.5 -56.5t141.5 -148.5t47 -204
q0 -174 -110 -292.5t-299 -118.5zM421 130q126 0 192.5 78.5t66.5 192.5q0 112 -66.5 190.5t-192.5 78.5q-127 0 -194 -78t-67 -191q0 -114 67 -192.5t194 -78.5z" />
    <glyph glyph-name="P.ss01" horiz-adv-x="796" 
d="M498 800q147 0 217.5 -62t70.5 -206q0 -143 -70.5 -205t-217.5 -64h-338v-263h-150v800h488zM498 403q76 0 107 26.5t31 102.5q0 75 -31 101.5t-107 26.5h-338v-257h338z" />
    <glyph glyph-name="Q.ss01" horiz-adv-x="840" 
d="M830 401q0 -156 -89 -269t-245 -136q106 -10 198 -46v-150q-85 34 -154 47.5t-174 22.5v123q-111 12 -193 70.5t-122.5 145.5t-40.5 192q0 173 110.5 291t300.5 118q126 0 220.5 -56.5t141.5 -148.5t47 -204zM421 130q126 0 192.5 78.5t66.5 192.5q0 112 -66.5 190.5
t-192.5 78.5q-127 0 -194 -78t-67 -191q0 -114 67 -192.5t194 -78.5z" />
    <glyph glyph-name="R.ss01" horiz-adv-x="738" 
d="M727 71q0 -58 11 -71h-150q-11 13 -11 71v94q0 69 -44 98.5t-165 29.5h-208v-293h-150v800h428q146 0 217 -60t71 -193q0 -149 -112 -212q113 -49 113 -170v-94zM160 433h278q75 0 106.5 24.5t31.5 89.5q0 64 -31.5 88.5t-106.5 24.5h-278v-227z" />
    <glyph glyph-name="Racute.ss01" horiz-adv-x="738" 
d="M511 933l-275 -73l-10 38l275 74zM727 71q0 -58 11 -71h-150q-11 13 -11 71v94q0 69 -44 98.5t-165 29.5h-208v-293h-150v800h428q146 0 217 -60t71 -193q0 -149 -112 -212q113 -49 113 -170v-94zM160 433h278q75 0 106.5 24.5t31.5 89.5q0 64 -31.5 88.5t-106.5 24.5
h-278v-227z" />
    <glyph glyph-name="Rcaron.ss01" horiz-adv-x="738" 
d="M405 860h-70l-109 112h65l79 -82l76 82h65zM727 71q0 -58 11 -71h-150q-11 13 -11 71v94q0 69 -44 98.5t-165 29.5h-208v-293h-150v800h428q146 0 217 -60t71 -193q0 -149 -112 -212q113 -49 113 -170v-94zM160 433h278q75 0 106.5 24.5t31.5 89.5q0 64 -31.5 88.5
t-106.5 24.5h-278v-227z" />
    <glyph glyph-name="Rcommaaccent.ss01" horiz-adv-x="738" 
d="M727 71q0 -58 11 -71h-150q-11 13 -11 71v94q0 69 -44 98.5t-165 29.5h-208v-293h-150v800h428q146 0 217 -60t71 -193q0 -149 -112 -212q113 -49 113 -170v-94zM160 433h278q75 0 106.5 24.5t31.5 89.5q0 64 -31.5 88.5t-106.5 24.5h-278v-227zM369 -57q19 0 32.5 -13
t13.5 -38q0 -80 -80 -119v44q29 14 35 39q-21 -4 -34.5 7.5t-13.5 32.5q0 20 13.5 33.5t33.5 13.5z" />
    <glyph glyph-name="S.ss01" horiz-adv-x="792" 
d="M392 483q168 -25 217 -38q125 -36 158 -120q15 -37 15 -87q0 -130 -83.5 -189t-276.5 -59q-205 0 -308.5 69t-103.5 229h150q0 -83 58.5 -120.5t203.5 -37.5q116 0 163 23t47 75q0 16 -4 29t-14 23.5t-19.5 18t-28.5 14t-33.5 11t-41.5 9t-45 7t-51.5 7.5t-54.5 8
q-46 7 -76.5 13t-70.5 18t-66 28t-50 39.5t-35.5 57t-11.5 76.5q0 109 80 166t269 57q211 0 302 -60.5t91 -197.5h-150q0 66 -53.5 92t-189.5 26q-115 0 -157 -20t-42 -63q0 -18 7.5 -32t24.5 -24t32.5 -17t45.5 -13.5t47.5 -9.5t54.5 -8z" />
    <glyph glyph-name="Sacute.ss01" horiz-adv-x="792" 
d="M538 933l-275 -73l-10 38l275 74zM392 483q168 -25 217 -38q125 -36 158 -120q15 -37 15 -87q0 -130 -83.5 -189t-276.5 -59q-205 0 -308.5 69t-103.5 229h150q0 -83 58.5 -120.5t203.5 -37.5q116 0 163 23t47 75q0 16 -4 29t-14 23.5t-19.5 18t-28.5 14t-33.5 11
t-41.5 9t-45 7t-51.5 7.5t-54.5 8q-46 7 -76.5 13t-70.5 18t-66 28t-50 39.5t-35.5 57t-11.5 76.5q0 109 80 166t269 57q211 0 302 -60.5t91 -197.5h-150q0 66 -53.5 92t-189.5 26q-115 0 -157 -20t-42 -63q0 -18 7.5 -32t24.5 -24t32.5 -17t45.5 -13.5t47.5 -9.5t54.5 -8z
" />
    <glyph glyph-name="Scaron.ss01" horiz-adv-x="792" 
d="M432 860h-70l-109 112h65l79 -82l76 82h65zM392 483q168 -25 217 -38q125 -36 158 -120q15 -37 15 -87q0 -130 -83.5 -189t-276.5 -59q-205 0 -308.5 69t-103.5 229h150q0 -83 58.5 -120.5t203.5 -37.5q116 0 163 23t47 75q0 16 -4 29t-14 23.5t-19.5 18t-28.5 14
t-33.5 11t-41.5 9t-45 7t-51.5 7.5t-54.5 8q-46 7 -76.5 13t-70.5 18t-66 28t-50 39.5t-35.5 57t-11.5 76.5q0 109 80 166t269 57q211 0 302 -60.5t91 -197.5h-150q0 66 -53.5 92t-189.5 26q-115 0 -157 -20t-42 -63q0 -18 7.5 -32t24.5 -24t32.5 -17t45.5 -13.5t47.5 -9.5
t54.5 -8z" />
    <glyph glyph-name="Scedilla.ss01" horiz-adv-x="792" 
d="M422 -10h-3l-14 -57q111 18 111 -60q0 -23 -13 -39t-29.5 -24t-45.5 -12t-46 -4.5t-47 -0.5l1 40q72 0 101 7.5t29 32.5t-27.5 30t-82.5 -4l14 92q-179 8 -269.5 77.5t-90.5 219.5h150q0 -83 58.5 -120.5t203.5 -37.5q116 0 163 23t47 75q0 16 -4 29t-14 23.5t-19.5 18
t-28.5 14t-33.5 11t-41.5 9t-45 7t-51.5 7.5t-54.5 8q-46 7 -76.5 13t-70.5 18t-66 28t-50 39.5t-35.5 57t-11.5 76.5q0 109 80 166t269 57q211 0 302 -60.5t91 -197.5h-150q0 66 -53.5 92t-189.5 26q-115 0 -157 -20t-42 -63q0 -18 7.5 -32t24.5 -24t32.5 -17t45.5 -13.5
t47.5 -9.5t54.5 -8q168 -25 217 -38q125 -36 158 -120q15 -37 15 -87q0 -130 -83.5 -189t-276.5 -59z" />
    <glyph glyph-name="Scommaaccent.ss01" horiz-adv-x="792" 
d="M392 483q168 -25 217 -38q125 -36 158 -120q15 -37 15 -87q0 -130 -83.5 -189t-276.5 -59q-205 0 -308.5 69t-103.5 229h150q0 -83 58.5 -120.5t203.5 -37.5q116 0 163 23t47 75q0 16 -4 29t-14 23.5t-19.5 18t-28.5 14t-33.5 11t-41.5 9t-45 7t-51.5 7.5t-54.5 8
q-46 7 -76.5 13t-70.5 18t-66 28t-50 39.5t-35.5 57t-11.5 76.5q0 109 80 166t269 57q211 0 302 -60.5t91 -197.5h-150q0 66 -53.5 92t-189.5 26q-115 0 -157 -20t-42 -63q0 -18 7.5 -32t24.5 -24t32.5 -17t45.5 -13.5t47.5 -9.5t54.5 -8zM396 -57q19 0 32.5 -13t13.5 -38
q0 -80 -80 -119v44q29 14 35 39q-21 -4 -34.5 7.5t-13.5 32.5q0 20 13.5 33.5t33.5 13.5z" />
    <glyph glyph-name="T.ss01" horiz-adv-x="752" 
d="M742 800v-140h-291v-660h-150v660h-291v140h732z" />
    <glyph glyph-name="Tbar.ss01" horiz-adv-x="752" 
d="M742 660h-291v-240h172v-40h-172v-380h-150v380h-173v40h173v240h-291v140h732v-140z" />
    <glyph glyph-name="Tcaron.ss01" horiz-adv-x="752" 
d="M412 860h-70l-109 112h65l79 -82l76 82h65zM742 800v-140h-291v-660h-150v660h-291v140h732z" />
    <glyph glyph-name="uni0162.ss01" horiz-adv-x="752" 
d="M451 0h-50l-16 -67q111 18 111 -60q0 -23 -13 -39t-29.5 -24t-45.5 -12t-46 -4.5t-47 -0.5l1 40q72 0 101 7.5t29 32.5t-27.5 30t-82.5 -4l15 101h-50v660h-291v140h732v-140h-291v-660z" />
    <glyph glyph-name="uni021A.ss01" horiz-adv-x="752" 
d="M742 800v-140h-291v-660h-150v660h-291v140h732zM376 -57q19 0 32.5 -13t13.5 -38q0 -80 -80 -119v44q29 14 35 39q-21 -4 -34.5 7.5t-13.5 32.5q0 20 13.5 33.5t33.5 13.5z" />
    <glyph glyph-name="U.ss01" horiz-adv-x="792" 
d="M782 800v-482q0 -174 -89 -251t-297 -77t-297 77t-89 251v482h150v-482q0 -96 50.5 -142t185.5 -46t185.5 46t50.5 142v482h150z" />
    <glyph glyph-name="Uacute.ss01" horiz-adv-x="792" 
d="M253 898l275 74l10 -39l-275 -73zM782 800v-482q0 -174 -89 -251t-297 -77t-297 77t-89 251v482h150v-482q0 -96 50.5 -142t185.5 -46t185.5 46t50.5 142v482h150z" />
    <glyph glyph-name="Ucircumflex.ss01" horiz-adv-x="792" 
d="M362 972h70l106 -112h-65l-76 82l-79 -82h-65zM782 800v-482q0 -174 -89 -251t-297 -77t-297 77t-89 251v482h150v-482q0 -96 50.5 -142t185.5 -46t185.5 46t50.5 142v482h150z" />
    <glyph glyph-name="Udieresis.ss01" horiz-adv-x="792" 
d="M323 856q-21 0 -35.5 14t-14.5 35q0 23 14.5 37t35.5 14q20 0 35 -14t15 -37q0 -21 -15 -35t-35 -14zM468 856q-21 0 -35.5 14t-14.5 35q0 23 14.5 37t35.5 14q20 0 35 -14t15 -37q0 -21 -15 -35t-35 -14zM782 800v-482q0 -174 -89 -251t-297 -77t-297 77t-89 251v482
h150v-482q0 -96 50.5 -142t185.5 -46t185.5 46t50.5 142v482h150z" />
    <glyph glyph-name="Ugrave.ss01" horiz-adv-x="792" 
d="M538 898l-10 -38l-275 73l10 39zM782 800v-482q0 -174 -89 -251t-297 -77t-297 77t-89 251v482h150v-482q0 -96 50.5 -142t185.5 -46t185.5 46t50.5 142v482h150z" />
    <glyph glyph-name="Uhungarumlaut.ss01" horiz-adv-x="792" 
d="M369 860h-70l115 112h60zM479 860h-70l115 112h60zM782 800v-482q0 -174 -89 -251t-297 -77t-297 77t-89 251v482h150v-482q0 -96 50.5 -142t185.5 -46t185.5 46t50.5 142v482h150z" />
    <glyph glyph-name="Umacron.ss01" horiz-adv-x="792" 
d="M253 936h285v-40h-285v40zM782 800v-482q0 -174 -89 -251t-297 -77t-297 77t-89 251v482h150v-482q0 -96 50.5 -142t185.5 -46t185.5 46t50.5 142v482h150z" />
    <glyph glyph-name="Uogonek.ss01" horiz-adv-x="792" 
d="M632 800h150v-482q0 -131 -49 -205.5t-157 -103.5q-62 -23 -90 -46t-28 -53q0 -32 29 -48.5t101 -18.5l-40 -40q-160 0 -160 98q0 61 73 91q-42 -2 -65 -2q-208 0 -297 77t-89 251v482h150v-482q0 -96 50.5 -142t185.5 -46t185.5 46t50.5 142v482z" />
    <glyph glyph-name="Uring.ss01" horiz-adv-x="792" 
d="M396 860q-27 0 -46.5 19t-19.5 47t19.5 47t46.5 19t46.5 -19t19.5 -47t-19.5 -47t-46.5 -19zM396 900q12 0 19 7.5t7 18.5t-7 18.5t-19 7.5t-19 -7.5t-7 -18.5t7 -18.5t19 -7.5zM782 800v-482q0 -174 -89 -251t-297 -77t-297 77t-89 251v482h150v-482q0 -96 50.5 -142
t185.5 -46t185.5 46t50.5 142v482h150z" />
    <glyph glyph-name="V.ss01" horiz-adv-x="861" 
d="M689 800h162l-318 -800h-205l-318 800h162l259 -650z" />
    <glyph glyph-name="W.ss01" horiz-adv-x="1506" 
d="M1309 800h187l-582 -800h-227v619l-450 -619h-227v800h150v-649l472 649h205v-649z" />
    <glyph glyph-name="Wacute.ss01" horiz-adv-x="1506" 
d="M895 933l-275 -73l-10 38l275 74zM1309 800h187l-582 -800h-227v619l-450 -619h-227v800h150v-649l472 649h205v-649z" />
    <glyph glyph-name="Wcircumflex.ss01" horiz-adv-x="1506" 
d="M754 942l-79 -82h-65l109 112h70l106 -112h-65zM1309 800h187l-582 -800h-227v619l-450 -619h-227v800h150v-649l472 649h205v-649z" />
    <glyph glyph-name="Wdieresis.ss01" horiz-adv-x="1506" 
d="M680 856q-21 0 -35.5 14t-14.5 35q0 23 14.5 37t35.5 14q20 0 35 -14t15 -37q0 -21 -15 -35t-35 -14zM825 856q-21 0 -35.5 14t-14.5 35q0 23 14.5 37t35.5 14q20 0 35 -14t15 -37q0 -21 -15 -35t-35 -14zM1309 800h187l-582 -800h-227v619l-450 -619h-227v800h150v-649
l472 649h205v-649z" />
    <glyph glyph-name="Wgrave.ss01" horiz-adv-x="1506" 
d="M895 898l-10 -38l-275 73l10 39zM1309 800h187l-582 -800h-227v619l-450 -619h-227v800h150v-649l472 649h205v-649z" />
    <glyph glyph-name="X.ss01" horiz-adv-x="916" 
d="M10 0l348 400l-348 400h200l248 -290l248 290h200l-348 -400l348 -400h-200l-248 290l-248 -290h-200z" />
    <glyph glyph-name="Y.ss01" horiz-adv-x="916" 
d="M383 280l-373 520h185l263 -368l263 368h185l-373 -520v-280h-150v280z" />
    <glyph glyph-name="Yacute.ss01" horiz-adv-x="916" 
d="M315 898l275 74l10 -39l-275 -73zM383 280l-373 520h185l263 -368l263 368h185l-373 -520v-280h-150v280z" />
    <glyph glyph-name="Ycircumflex.ss01" horiz-adv-x="916" 
d="M424 972h70l106 -112h-65l-76 82l-79 -82h-65zM383 280l-373 520h185l263 -368l263 368h185l-373 -520v-280h-150v280z" />
    <glyph glyph-name="Ydieresis.ss01" horiz-adv-x="916" 
d="M385 856q-21 0 -35.5 14t-14.5 35q0 23 14.5 37t35.5 14q20 0 35 -14t15 -37q0 -21 -15 -35t-35 -14zM530 856q-21 0 -35.5 14t-14.5 35q0 23 14.5 37t35.5 14q20 0 35 -14t15 -37q0 -21 -15 -35t-35 -14zM383 280l-373 520h185l263 -368l263 368h185l-373 -520v-280
h-150v280z" />
    <glyph glyph-name="Ygrave.ss01" horiz-adv-x="916" 
d="M600 898l-10 -38l-275 73l10 39zM383 280l-373 520h185l263 -368l263 368h185l-373 -520v-280h-150v280z" />
    <glyph glyph-name="Z.ss01" horiz-adv-x="730" 
d="M720 800v-140l-500 -520h500v-140h-710v140l500 520h-500v140h710z" />
    <glyph glyph-name="Zacute.ss01" horiz-adv-x="730" 
d="M507 933l-275 -73l-10 38l275 74zM720 800v-140l-500 -520h500v-140h-710v140l500 520h-500v140h710z" />
    <glyph glyph-name="Zcaron.ss01" horiz-adv-x="730" 
d="M401 860h-70l-109 112h65l79 -82l76 82h65zM720 800v-140l-500 -520h500v-140h-710v140l500 520h-500v140h710z" />
    <glyph glyph-name="Zdotaccent.ss01" horiz-adv-x="730" 
d="M365 856q-21 0 -35.5 14t-14.5 35q0 23 14.5 37t35.5 14q20 0 35 -14t15 -37q0 -21 -15 -35t-35 -14zM720 800v-140l-500 -520h500v-140h-710v140l500 520h-500v140h710z" />
    <glyph glyph-name="i.loclTRK" horiz-adv-x="170" 
d="M85 706q-21 0 -35.5 14t-14.5 35q0 23 14.5 37t35.5 14q20 0 35 -14t15 -37q0 -21 -15 -35t-35 -14zM10 650h150v-650h-150v650z" />
    <glyph glyph-name="zero.ss01" horiz-adv-x="840" 
d="M421 810q126 0 220.5 -56.5t141.5 -148.5t47 -204q0 -174 -110 -292.5t-299 -118.5q-190 0 -300.5 118t-110.5 293q0 173 110.5 291t300.5 118zM421 670q-127 0 -194 -78t-67 -191q0 -74 28 -133l392 354q-64 48 -159 48zM421 130q126 0 192.5 78.5t66.5 192.5
q0 73 -28 132l-392 -355q66 -48 161 -48z" />
    <glyph glyph-name="one.ss01" horiz-adv-x="652" 
d="M401 140h241v-140h-632v140h241v500q-105 -60 -241 -60v140q166 0 251 80h140v-660z" />
    <glyph glyph-name="two.ss01" horiz-adv-x="782" 
d="M426 311q-56 -11 -83.5 -17t-62.5 -15t-48.5 -13.5t-31.5 -15t-22.5 -18.5t-10.5 -23.5t-6.5 -30t-0.5 -38.5h612v-140h-762v140q0 65 11.5 108.5t44.5 83t99 65.5t170 43q161 26 212 47q75 31 75 90q0 23 -6.5 37.5t-26 28.5t-62 20.5t-108.5 6.5q-142 0 -195.5 -31.5
t-53.5 -106.5h-150q0 146 90.5 212t308.5 66q193 0 273 -61t80 -187q0 -44 -13 -79t-39 -59.5t-54.5 -42t-70 -30t-74.5 -20.5t-79 -17q-3 0 -4.5 -0.5t-3.5 -1l-4 -1t-4 -0.5z" />
    <glyph glyph-name="three.ss01" horiz-adv-x="772" 
d="M650 406q112 -45 112 -178q0 -122 -89 -180t-280 -58q-383 0 -383 258h150q0 -118 233 -118q121 0 170 24.5t49 83.5q0 54 -28.5 76t-92.5 22h-213v140h213q64 0 92.5 22t28.5 74t-49.5 75t-169.5 23q-233 0 -233 -108h-150q0 248 383 248q190 0 279.5 -57t89.5 -174
q0 -128 -112 -173z" />
    <glyph glyph-name="four.ss01" horiz-adv-x="752" 
d="M742 282v-140h-142v-142h-150v142h-440v140l440 518h150v-518h142zM160 282h290v338z" />
    <glyph glyph-name="five.ss01" horiz-adv-x="812" 
d="M455 536q180 0 263.5 -64t83.5 -209q0 -273 -397 -273q-196 0 -295.5 62.5t-99.5 195.5h150q0 -63 62 -90.5t183 -27.5q123 0 185 29.5t62 103.5t-62 103.5t-185 29.5q-88 0 -142.5 -14.5t-102.5 -43.5h-140l20 462h732v-140h-600l-11 -203q126 79 294 79z" />
    <glyph glyph-name="six.ss01" horiz-adv-x="812" 
d="M433 550q349 0 349 -280q0 -143 -89 -211.5t-290 -68.5q-392 0 -393 330v117q1 198 95 285.5t303 87.5q354 0 354 -238h-150q0 51 -49.5 74.5t-154.5 23.5q-248 0 -248 -173v-40q105 93 273 93zM403 130q126 0 177.5 34t51.5 106t-51.5 106t-177.5 34
q-128 0 -185.5 -34.5t-57.5 -105.5t57.5 -105.5t185.5 -34.5z" />
    <glyph glyph-name="seven.ss01" horiz-adv-x="752" 
d="M10 800h732v-140q-81 -43 -145 -91t-106 -92t-72 -96t-46 -94.5t-25 -97.5t-11 -94t-2 -95h-150q0 59 1.5 96.5t9 97.5t21 102.5t40.5 97t65 97t96.5 87.5t133.5 82h-542v140z" />
    <glyph glyph-name="eight.ss01" horiz-adv-x="772" 
d="M582 430q180 -51 180 -203q0 -237 -376 -237t-376 237q0 152 180 203q-150 50 -150 172q0 99 88 153.5t258 54.5t258 -54.5t88 -153.5q0 -122 -150 -172zM386 670q-111 0 -158.5 -20.5t-47.5 -64.5t47.5 -65t158.5 -21t158.5 21t47.5 65t-47.5 64.5t-158.5 20.5zM386 130
q125 0 175.5 27.5t50.5 87.5t-50.5 87t-175.5 27t-175.5 -27t-50.5 -87t50.5 -87.5t175.5 -27.5z" />
    <glyph glyph-name="nine.ss01" horiz-adv-x="812" 
d="M409 810q392 0 393 -330v-117q-1 -198 -95 -285.5t-303 -87.5q-354 0 -354 238h150q0 -51 49.5 -74.5t154.5 -23.5q248 0 248 173v40q-105 -93 -273 -93q-349 0 -349 280q0 143 89 211.5t290 68.5zM409 390q128 0 185.5 34.5t57.5 105.5t-57.5 105.5t-185.5 34.5
q-126 0 -177.5 -34t-51.5 -106t51.5 -106t177.5 -34z" />
    <glyph glyph-name="ampersand.ss01" horiz-adv-x="779" 
d="M769 476v-140h-87v-88q0 -135 -80 -196.5t-251 -61.5q-181 0 -261 56t-80 172q0 141 112 188q-112 44 -112 176q0 116 80 172t261 56q170 0 250.5 -60t80.5 -188h-150q0 58 -43.5 83t-137.5 25q-105 0 -148 -23t-43 -75t28.5 -74t92.5 -22h251v47h150v-47h87zM532 248v88
h-251q-64 0 -92.5 -22t-28.5 -76q0 -59 42.5 -83.5t148.5 -24.5q95 0 138 26.5t43 91.5z" />
    </font>
</defs>
</svg>
