<?xml version="1.0" standalone="no"?>
<!DOCTYPE svg PUBLIC "-//W3C//DTD SVG 1.1//EN" "http://www.w3.org/Graphics/SVG/1.1/DTD/svg11.dtd" >
<svg xmlns="http://www.w3.org/2000/svg" xmlns:xlink="http://www.w3.org/1999/xlink" version="1.1">
<metadata>
Created by FontForge 20190801 at Fri Oct 27 15:06:14 2017
 By www-data
(c) 2017 Connary Fagen
</metadata>
<defs>
<font id="VanguardCFBold" horiz-adv-x="494" >
  <font-face 
    font-family="VanguardCFBold"
    font-weight="700"
    font-stretch="normal"
    units-per-em="1200"
    panose-1="0 0 8 0 0 0 0 0 0 0"
    ascent="960"
    descent="-240"
    x-height="920"
    cap-height="920"
    bbox="-204 -375 1560 1155"
    underline-thickness="50"
    underline-position="-100"
    unicode-range="U+0020-25CA"
  />
<missing-glyph horiz-adv-x="535" 
d="M439 920v-1070h-339v1070h339zM356 848h-176v-35h69v-40h-70v-35h177v35h-70v40h70v35zM286 710h-107v-111h177v36h-70v75zM249 674v-39h-35v39h35zM356 570h-177v-35h70v-40h-70v-35h107v75h70v35zM356 506h-35v-71h-142v-36h177v107zM356 375h-107v-60h37v25h35v-50
h-107v85h-35v-121h177v121zM356 190h-177v-121h177v121zM321 155v-50h-107v50h107zM356 45h-177v-36h75l-75 -50v-35h177v35h-109l75 50h34v36z" />
    <glyph glyph-name=".notdef" horiz-adv-x="535" 
d="M439 920v-1070h-339v1070h339zM356 848h-176v-35h69v-40h-70v-35h177v35h-70v40h70v35zM286 710h-107v-111h177v36h-70v75zM249 674v-39h-35v39h35zM356 570h-177v-35h70v-40h-70v-35h107v75h70v35zM356 506h-35v-71h-142v-36h177v107zM356 375h-107v-60h37v25h35v-50
h-107v85h-35v-121h177v121zM356 190h-177v-121h177v121zM321 155v-50h-107v50h107zM356 45h-177v-36h75l-75 -50v-35h177v35h-109l75 50h34v36z" />
    <glyph glyph-name=".null" horiz-adv-x="0" 
 />
    <glyph glyph-name="nonmarkingreturn" horiz-adv-x="400" 
 />
    <glyph glyph-name="space" unicode=" " horiz-adv-x="160" 
 />
    <glyph glyph-name="exclam" unicode="!" horiz-adv-x="242" 
d="M56 252l-27 668h184l-27 -668h-130zM121 -16q-40 0 -68 28t-28 67t28 67t68 28t68 -28t28 -67t-28 -67t-68 -28z" />
    <glyph glyph-name="quotedbl" unicode="&#x22;" horiz-adv-x="493" 
d="M63 480l-13 440h170l-13 -440h-144zM286 480l-13 440h170l-13 -440h-144z" />
    <glyph glyph-name="numbersign" unicode="#" horiz-adv-x="610" 
d="M585 585h-70v-250h70v-160h-70v-175h-170v175h-80v-175h-170v175h-70v160h70v250h-70v160h70v175h170v-175h80v175h170v-175h70v-160zM345 335v250h-80v-250h80z" />
    <glyph glyph-name="dollar" unicode="$" horiz-adv-x="491" 
d="M209 599q0 -30 26 -50.5t63 -36t74 -35.5t63 -62t26 -104v-38q0 -153 -143 -180v-93h-140v93q-143 27 -143 190v72h174v-71q0 -48 39 -48q38 0 38 48v36q0 30 -26 50.5t-63 36t-73.5 35.5t-62.5 62t-26 104v38q0 152 143 180v94h140v-94q141 -29 141 -190v-72h-174v71
q0 48 -38 48t-38 -48v-36z" />
    <glyph glyph-name="percent" unicode="%" horiz-adv-x="1124" 
d="M235 933q99 0 152 -47.5t53 -158.5v-172q0 -111 -53 -158.5t-152 -47.5t-152 47.5t-53 158.5v172q0 111 53 158.5t152 47.5zM276 0l402 920h170l-402 -920h-170zM273 734q0 49 -38 49t-38 -49v-186q0 -49 38 -49t38 49v186zM889 -13q-99 0 -152 47.5t-53 158.5v172
q0 111 53 158.5t152 47.5t152 -47.5t53 -158.5v-172q0 -111 -53 -158.5t-152 -47.5zM851 186q0 -49 38 -49t38 49v186q0 49 -38 49t-38 -49v-186z" />
    <glyph glyph-name="ampersand" unicode="&#x26;" horiz-adv-x="497" 
d="M467 530v-345q0 -105 -55 -150.5t-159 -45.5q-218 0 -218 196v127q0 102 79 142v8q-71 40 -71 130v151q0 99 54 142.5t156 43.5t156 -43.5t54 -142.5v-134h-172v126q0 44 -38 44t-38 -44v-161q0 -45 38 -45zM292 183v202h-39q-39 0 -39 -45v-157q0 -44 39 -44t39 44z" />
    <glyph glyph-name="quotesingle" unicode="'" horiz-adv-x="270" 
d="M63 480l-13 440h170l-13 -440h-144z" />
    <glyph glyph-name="parenleft" unicode="(" horiz-adv-x="397" 
d="M377 -105q-54 0 -99 10t-78.5 25.5t-60 43t-44 55t-30 69.5t-19.5 78t-10.5 89t-4.5 94t-1 101t1 101t4.5 94t10.5 88.5t19.5 77.5t30 70t44 55.5t60 43t78.5 25.5t99 10v-150q-38 0 -66 -12t-46.5 -39t-30 -58.5t-17 -83.5t-7.5 -100.5t-2 -121.5q0 -62 1 -105.5t5 -90
t11.5 -77.5t20 -60t30.5 -45.5t43 -26.5t58 -10v-150z" />
    <glyph glyph-name="parenright" unicode=")" horiz-adv-x="397" 
d="M20 -105v150q33 0 58 10t43 26.5t30.5 45.5t20 60t11.5 77.5t5 90t1 105.5q0 73 -2 121.5t-7.5 100.5t-17 83.5t-30 58.5t-46.5 39t-66 12v150q54 0 99 -10t78.5 -25.5t60 -43t44 -55.5t30 -70t19.5 -77.5t10.5 -88.5t4.5 -94t1 -101t-1 -101t-4.5 -94t-10.5 -89
t-19.5 -78t-30 -69.5t-44 -55t-60 -43t-78.5 -25.5t-99 -10z" />
    <glyph glyph-name="asterisk" unicode="*" horiz-adv-x="618" 
d="M568 738l-167 -85l167 -85l-56 -97l-157 102l10 -187h-112l10 187l-157 -102l-56 97l167 85l-167 85l56 97l157 -102l-10 187h112l-10 -187l157 102z" />
    <glyph glyph-name="plus" unicode="+" horiz-adv-x="640" 
d="M595 545v-170h-185v-185h-180v185h-185v170h185v185h180v-185h185z" />
    <glyph glyph-name="comma" unicode="," horiz-adv-x="270" 
d="M69 -198q26 98 24 198h-58v150h200v-56q0 -200 -56 -292h-110z" />
    <glyph glyph-name="hyphen" unicode="-" horiz-adv-x="340" 
d="M30 380v160h280v-160h-280z" />
    <glyph glyph-name="period" unicode="." horiz-adv-x="252" 
d="M126 -16q-40 0 -68 28t-28 67t28 67t68 28t68 -28t28 -67t-28 -67t-68 -28z" />
    <glyph glyph-name="slash" unicode="/" horiz-adv-x="344" 
d="M40 0l91 920h173l-99 -920h-165z" />
    <glyph glyph-name="zero" unicode="0" 
d="M247 929q104 0 160.5 -45.5t56.5 -151.5v-544q0 -106 -56.5 -151.5t-160.5 -45.5t-160.5 45.5t-56.5 151.5v544q0 106 56.5 151.5t160.5 45.5zM285 731q0 48 -38 48t-38 -48v-542q0 -48 38 -48t38 48v542z" />
    <glyph glyph-name="one" unicode="1" horiz-adv-x="344" 
d="M135 920h179v-920h-179v721q-37 -51 -110 -51v169q31 0 61.5 20.5t48.5 60.5z" />
    <glyph glyph-name="two" unicode="2" horiz-adv-x="500" 
d="M470 579q0 -50 -19.5 -92t-48.5 -68t-63 -53t-63 -48.5t-48.5 -52t-19.5 -65.5v-50h257v-150h-430v213q0 62 26.5 111t64 80.5t75 59t64 61t26.5 72.5v134q0 48 -38 48t-38 -48v-152h-178v154q0 105 56 150.5t160 45.5q105 0 161 -45.5t56 -150.5v-154z" />
    <glyph glyph-name="three" unicode="3" horiz-adv-x="498" 
d="M468 596q0 -92 -79 -132v-8q79 -40 79 -132v-137q0 -105 -56 -150.5t-161 -45.5t-160.5 45.5t-55.5 150.5v127h178v-125q0 -48 38 -48t38 48v136q0 36 -16 50t-50 14h-44v142h44q34 0 50 14t16 50v136q0 48 -38 48t-38 -48v-125h-178v127q0 105 55.5 150.5t160.5 45.5
t161 -45.5t56 -150.5v-137z" />
    <glyph glyph-name="four" unicode="4" horiz-adv-x="560" 
d="M530 346v-150h-67v-196h-179v196h-259v150l139 574h299v-574h67zM184 346h100v407h-13z" />
    <glyph glyph-name="five" unicode="5" horiz-adv-x="493" 
d="M291 630q77 0 124.5 -45.5t47.5 -147.5v-248q0 -105 -56 -150.5t-161 -45.5t-160.5 45.5t-55.5 150.5v122h178v-118q0 -50 38 -50t38 50v235q0 50 -38 50t-38 -50v-48h-178v540h414v-150h-236v-170q30 30 83 30z" />
    <glyph glyph-name="six" unicode="6" horiz-adv-x="492" 
d="M247 -9q-105 0 -161 45.5t-56 150.5v554q0 105 55.5 150.5t160.5 45.5q104 0 157.5 -45.5t53.5 -150.5v-131h-174v129q0 48 -37 48q-38 0 -38 -48l1 -209q32 32 87 32q71 0 118.5 -41.5t47.5 -141.5v-192q0 -105 -55 -150.5t-160 -45.5zM246 141q38 0 38 48v173
q0 48 -38 48t-38 -48v-173q0 -48 38 -48z" />
    <glyph glyph-name="seven" unicode="7" horiz-adv-x="460" 
d="M25 920h410v-150l-185 -770h-176l191 770h-240v150z" />
    <glyph glyph-name="eight" unicode="8" horiz-adv-x="496" 
d="M248 -9q-106 0 -162 45.5t-56 150.5v142q0 100 79 142v8q-71 43 -71 132v132q0 99 54 142.5t156 43.5t156 -43.5t54 -142.5v-132q0 -89 -71 -132v-8q79 -42 79 -142v-142q0 -105 -56 -150.5t-162 -45.5zM248 540q38 0 38 49v142q0 48 -38 48t-38 -48v-142q0 -49 38 -49z
M248 141q39 0 39 48v173q0 48 -39 48t-39 -48v-173q0 -48 39 -48z" />
    <glyph glyph-name="nine" unicode="9" horiz-adv-x="492" 
d="M245 929q105 0 161 -45.5t56 -150.5v-554q0 -105 -55.5 -150.5t-160.5 -45.5q-104 0 -157.5 45.5t-53.5 150.5v131h174v-129q0 -48 37 -48q38 0 38 48l-1 209q-32 -32 -87 -32q-71 0 -118.5 41.5t-47.5 141.5v192q0 105 55 150.5t160 45.5zM246 779q-38 0 -38 -48v-173
q0 -48 38 -48t38 48v173q0 48 -38 48z" />
    <glyph glyph-name="colon" unicode=":" horiz-adv-x="252" 
d="M126 599q-40 0 -68 28t-28 67t28 67t68 28t68 -28t28 -67t-28 -67t-68 -28zM126 131q-40 0 -68 28t-28 67t28 67t68 28t68 -28t28 -67t-28 -67t-68 -28z" />
    <glyph glyph-name="semicolon" unicode=";" horiz-adv-x="269" 
d="M143 599q-40 0 -68 28t-28 67t28 67t68 28t68 -28t28 -67t-28 -67t-68 -28zM64 -50q26 98 24 198h-58v150h200v-56q0 -200 -56 -292h-110z" />
    <glyph glyph-name="less" unicode="&#x3c;" horiz-adv-x="350" 
d="M310 131l-270 230v198l270 230v-180l-156 -142v-14l156 -142v-180z" />
    <glyph glyph-name="equal" unicode="=" horiz-adv-x="594" 
d="M30 462v170h534v-170h-534zM30 207v170h534v-170h-534z" />
    <glyph glyph-name="greater" unicode="&#x3e;" horiz-adv-x="350" 
d="M40 131v180l156 142v14l-156 142v180l270 -230v-198z" />
    <glyph glyph-name="question" unicode="?" horiz-adv-x="499" 
d="M35 588v144q0 106 56.5 151.5t160.5 45.5t160.5 -45.5t56.5 -151.5v-123q0 -59 -14.5 -99.5t-35 -60t-41 -34.5t-35 -37.5t-14.5 -55.5v-70h-175v90q0 56 14 93t34 54t40 30.5t34 35t14 54.5v122q0 48 -38 48t-38 -48v-143h-179zM241 -16q-40 0 -68 28t-28 67t28 67
t68 28t68 -28t28 -67t-28 -67t-68 -28z" />
    <glyph glyph-name="at" unicode="@" horiz-adv-x="595" 
d="M334 929q121 0 176 -59t55 -185v-388q0 -62 -32 -89.5t-94 -27.5h-79q-61 0 -88 26.5t-27 90.5v177q0 64 27 90.5t88 26.5h65v94q0 104 -91 104h-53q-91 0 -91 -104v-404q0 -77 32.5 -113.5t111.5 -36.5h57v-140h-88q-139 0 -206 61t-67 193v440q0 244 251 244h53z
M403 305q22 0 22 25v136h-32q-23 0 -23 -25v-111q0 -25 22 -25h11z" />
    <glyph glyph-name="A" unicode="A" horiz-adv-x="532" 
d="M339 0l-14 158h-118l-14 -158h-173l91 920h310l91 -920h-173zM219 308h94l-39 450h-16z" />
    <glyph glyph-name="B" unicode="B" horiz-adv-x="495" 
d="M392 469q73 -37 73 -135v-137q0 -111 -35.5 -154t-143.5 -43h-256v920h254q104 0 139 -43t35 -154v-121q0 -46 -14.5 -75.5t-51.5 -47.5v-10zM240 770h-31v-243h31q25 0 34.5 10.5t9.5 38.5v145q0 28 -9.5 38.5t-34.5 10.5zM286 200v160q0 28 -9.5 38.5t-34.5 10.5h-33
v-258h33q25 0 34.5 10.5t9.5 38.5z" />
    <glyph glyph-name="C" unicode="C" 
d="M464 332v-146q0 -106 -56.5 -151.5t-160.5 -45.5t-160.5 45.5t-56.5 151.5v546q0 106 56.5 151.5t160.5 45.5t160.5 -45.5t56.5 -151.5v-144h-179v143q0 48 -38 48t-38 -48v-544q0 -48 38 -48t38 48v145h179z" />
    <glyph glyph-name="D" unicode="D" 
d="M283 920q109 0 145 -43t36 -154v-526q0 -111 -36 -154t-145 -43h-253v920h253zM285 199v522q0 28 -9.5 38.5t-34.5 10.5h-32v-620h32q25 0 34.5 10.5t9.5 38.5z" />
    <glyph glyph-name="E" unicode="E" horiz-adv-x="375" 
d="M345 770h-136v-234h133v-148h-133v-238h136v-150h-315v920h315v-150z" />
    <glyph glyph-name="F" unicode="F" horiz-adv-x="375" 
d="M345 770h-135v-242h135v-148h-135v-380h-180v920h315v-150z" />
    <glyph glyph-name="G" unicode="G" 
d="M464 602h-178v129q0 48 -39 48t-39 -48v-542q0 -27 10.5 -37.5t32.5 -10.5q44 0 44 48v196h-48v144h217v-341q0 -106 -56.5 -151.5t-160.5 -45.5t-160.5 45.5t-56.5 151.5v544q0 106 56.5 151.5t160.5 45.5t160.5 -45.5t56.5 -151.5v-130z" />
    <glyph glyph-name="H" unicode="H" horiz-adv-x="495" 
d="M286 920h179v-920h-179v375h-77v-375h-179v920h179v-395h77v395z" />
    <glyph glyph-name="I" unicode="I" horiz-adv-x="239" 
d="M30 0v920h179v-920h-179z" />
    <glyph glyph-name="J" unicode="J" 
d="M209 328v-139q0 -48 38 -48t38 48v731h179v-732q0 -106 -56.5 -151.5t-160.5 -45.5t-160.5 45.5t-56.5 151.5v140h179z" />
    <glyph glyph-name="K" unicode="K" horiz-adv-x="522" 
d="M337 0l-90 379l-39 -130v-249h-178v920h178v-375h8l104 375h178l-119 -429l128 -491h-170z" />
    <glyph glyph-name="L" unicode="L" horiz-adv-x="390" 
d="M209 150h151v-150h-330v920h179v-770z" />
    <glyph glyph-name="M" unicode="M" horiz-adv-x="735" 
d="M30 0v920h271l61 -681h11l61 681h271v-920h-165v676h-14l-63 -676h-191l-63 676h-14v-676h-165z" />
    <glyph glyph-name="N" unicode="N" horiz-adv-x="564" 
d="M30 0v920h227l106 -625h11l-5 122v503h165v-920h-227l-106 625h-11l5 -122v-503h-165z" />
    <glyph glyph-name="O" unicode="O" 
d="M247 929q104 0 160.5 -45.5t56.5 -151.5v-544q0 -106 -56.5 -151.5t-160.5 -45.5t-160.5 45.5t-56.5 151.5v544q0 106 56.5 151.5t160.5 45.5zM285 731q0 48 -38 48t-38 -48v-542q0 -48 38 -48t38 48v542z" />
    <glyph glyph-name="P" unicode="P" horiz-adv-x="496" 
d="M284 920q106 0 141.5 -43t35.5 -154v-333q0 -111 -35.5 -154t-141.5 -43h-75v-193h-179v920h254zM286 391v331q0 28 -9.5 38.5t-34.5 10.5h-33v-429h33q25 0 34.5 10.5t9.5 38.5z" />
    <glyph glyph-name="Q" unicode="Q" horiz-adv-x="525" 
d="M495 20l-98 -100l-81 77q-32 -6 -69 -6q-104 0 -160.5 45.5t-56.5 151.5v544q0 106 56.5 151.5t160.5 45.5t160.5 -45.5t56.5 -151.5v-544q0 -66 -24 -111zM209 189q0 -48 38 -48t38 48v542q0 48 -38 48t-38 -48v-542z" />
    <glyph glyph-name="R" unicode="R" horiz-adv-x="490" 
d="M480 0h-161l-64 269h-46v-269h-179v920h254q106 0 141.5 -43t35.5 -154v-268q0 -97 -60 -144zM209 771v-365l45 1q18 1 25 12.5t7 35.5v267q0 28 -9.5 38.5t-34.5 10.5h-33z" />
    <glyph glyph-name="S" unicode="S" horiz-adv-x="491" 
d="M458 600h-172v132q0 48 -38 48t-38 -48v-113q0 -28 18.5 -50t46.5 -35t60.5 -31.5t60.5 -39.5t46.5 -60t18.5 -92v-124q0 -105 -55 -150.5t-158 -45.5t-157.5 45.5t-54.5 150.5v133h172v-132q0 -48 39 -48q38 0 38 48v113q0 28 -18.5 50t-46.5 35t-60 31.5t-60 39.5
t-46.5 60t-18.5 92v124q0 105 55 150.5t157 45.5t156.5 -45.5t54.5 -150.5v-133z" />
    <glyph glyph-name="T" unicode="T" horiz-adv-x="465" 
d="M440 920v-150h-118v-770h-179v770h-118v150h415z" />
    <glyph glyph-name="U" unicode="U" 
d="M464 920v-732q0 -106 -56.5 -151.5t-160.5 -45.5t-160.5 45.5t-56.5 151.5v732h179v-731q0 -48 38 -48t38 48v731h179z" />
    <glyph glyph-name="V" unicode="V" horiz-adv-x="532" 
d="M20 920h173l65 -758h16l65 758h173l-91 -920h-310z" />
    <glyph glyph-name="W" unicode="W" horiz-adv-x="860" 
d="M661 920h174l-73 -920h-278l-49 727h-10l-49 -727h-278l-73 920h174l42 -728h10l53 728h252l53 -728h10z" />
    <glyph glyph-name="X" unicode="X" horiz-adv-x="533" 
d="M508 0h-176l-60 328h-11l-60 -328h-176l107 467l-103 453h176l56 -315h11l56 315h176l-103 -453z" />
    <glyph glyph-name="Y" unicode="Y" horiz-adv-x="534" 
d="M343 920h171l-159 -593v-327h-176v327l-159 593h171l71 -336h10z" />
    <glyph glyph-name="Z" unicode="Z" horiz-adv-x="446" 
d="M30 0v150l214 607v13h-205v150h377v-150l-220 -607v-13h215v-150h-381z" />
    <glyph glyph-name="bracketleft" unicode="[" horiz-adv-x="375" 
d="M30 -105v1130h315v-150h-140v-830h140v-150h-315z" />
    <glyph glyph-name="backslash" unicode="\" horiz-adv-x="344" 
d="M304 0h-165l-99 920h173z" />
    <glyph glyph-name="bracketright" unicode="]" horiz-adv-x="375" 
d="M345 -105h-315v150h140v830h-140v150h315v-1130z" />
    <glyph glyph-name="asciicircum" unicode="^" horiz-adv-x="758" 
d="M50 614l230 270h198l230 -270h-180l-142 156h-14l-142 -156h-180z" />
    <glyph glyph-name="underscore" unicode="_" horiz-adv-x="630" 
d="M35 -160v160h560v-160h-560z" />
    <glyph glyph-name="grave" unicode="`" horiz-adv-x="210" 
d="M210 680h-157l-53 160h157z" />
    <glyph glyph-name="a" unicode="a" horiz-adv-x="532" 
d="M339 0l-14 158h-118l-14 -158h-173l91 920h310l91 -920h-173zM219 308h94l-39 450h-16z" />
    <glyph glyph-name="b" unicode="b" horiz-adv-x="495" 
d="M392 469q73 -37 73 -135v-137q0 -111 -35.5 -154t-143.5 -43h-256v920h254q104 0 139 -43t35 -154v-121q0 -46 -14.5 -75.5t-51.5 -47.5v-10zM240 770h-31v-243h31q25 0 34.5 10.5t9.5 38.5v145q0 28 -9.5 38.5t-34.5 10.5zM286 200v160q0 28 -9.5 38.5t-34.5 10.5h-33
v-258h33q25 0 34.5 10.5t9.5 38.5z" />
    <glyph glyph-name="c" unicode="c" 
d="M464 332v-146q0 -106 -56.5 -151.5t-160.5 -45.5t-160.5 45.5t-56.5 151.5v546q0 106 56.5 151.5t160.5 45.5t160.5 -45.5t56.5 -151.5v-144h-179v143q0 48 -38 48t-38 -48v-544q0 -48 38 -48t38 48v145h179z" />
    <glyph glyph-name="d" unicode="d" 
d="M283 920q109 0 145 -43t36 -154v-526q0 -111 -36 -154t-145 -43h-253v920h253zM285 199v522q0 28 -9.5 38.5t-34.5 10.5h-32v-620h32q25 0 34.5 10.5t9.5 38.5z" />
    <glyph glyph-name="e" unicode="e" horiz-adv-x="375" 
d="M345 770h-136v-234h133v-148h-133v-238h136v-150h-315v920h315v-150z" />
    <glyph glyph-name="f" unicode="f" horiz-adv-x="375" 
d="M345 770h-135v-242h135v-148h-135v-380h-180v920h315v-150z" />
    <glyph glyph-name="g" unicode="g" 
d="M464 602h-178v129q0 48 -39 48t-39 -48v-542q0 -27 10.5 -37.5t32.5 -10.5q44 0 44 48v196h-48v144h217v-341q0 -106 -56.5 -151.5t-160.5 -45.5t-160.5 45.5t-56.5 151.5v544q0 106 56.5 151.5t160.5 45.5t160.5 -45.5t56.5 -151.5v-130z" />
    <glyph glyph-name="h" unicode="h" horiz-adv-x="495" 
d="M286 920h179v-920h-179v375h-77v-375h-179v920h179v-395h77v395z" />
    <glyph glyph-name="i" unicode="i" horiz-adv-x="239" 
d="M30 0v920h179v-920h-179z" />
    <glyph glyph-name="j" unicode="j" 
d="M209 328v-139q0 -48 38 -48t38 48v731h179v-732q0 -106 -56.5 -151.5t-160.5 -45.5t-160.5 45.5t-56.5 151.5v140h179z" />
    <glyph glyph-name="k" unicode="k" horiz-adv-x="522" 
d="M337 0l-90 379l-39 -130v-249h-178v920h178v-375h8l104 375h178l-119 -429l128 -491h-170z" />
    <glyph glyph-name="l" unicode="l" horiz-adv-x="390" 
d="M209 150h151v-150h-330v920h179v-770z" />
    <glyph glyph-name="m" unicode="m" horiz-adv-x="735" 
d="M30 0v920h271l61 -681h11l61 681h271v-920h-165v676h-14l-63 -676h-191l-63 676h-14v-676h-165z" />
    <glyph glyph-name="n" unicode="n" horiz-adv-x="564" 
d="M30 0v920h227l106 -625h11l-5 122v503h165v-920h-227l-106 625h-11l5 -122v-503h-165z" />
    <glyph glyph-name="o" unicode="o" 
d="M247 929q104 0 160.5 -45.5t56.5 -151.5v-544q0 -106 -56.5 -151.5t-160.5 -45.5t-160.5 45.5t-56.5 151.5v544q0 106 56.5 151.5t160.5 45.5zM285 731q0 48 -38 48t-38 -48v-542q0 -48 38 -48t38 48v542z" />
    <glyph glyph-name="p" unicode="p" horiz-adv-x="496" 
d="M284 920q106 0 141.5 -43t35.5 -154v-333q0 -111 -35.5 -154t-141.5 -43h-75v-193h-179v920h254zM286 391v331q0 28 -9.5 38.5t-34.5 10.5h-33v-429h33q25 0 34.5 10.5t9.5 38.5z" />
    <glyph glyph-name="q" unicode="q" horiz-adv-x="525" 
d="M495 20l-98 -100l-81 77q-32 -6 -69 -6q-104 0 -160.5 45.5t-56.5 151.5v544q0 106 56.5 151.5t160.5 45.5t160.5 -45.5t56.5 -151.5v-544q0 -66 -24 -111zM209 189q0 -48 38 -48t38 48v542q0 48 -38 48t-38 -48v-542z" />
    <glyph glyph-name="r" unicode="r" horiz-adv-x="490" 
d="M480 0h-161l-64 269h-46v-269h-179v920h254q106 0 141.5 -43t35.5 -154v-268q0 -97 -60 -144zM209 771v-365l45 1q18 1 25 12.5t7 35.5v267q0 28 -9.5 38.5t-34.5 10.5h-33z" />
    <glyph glyph-name="s" unicode="s" horiz-adv-x="491" 
d="M458 600h-172v132q0 48 -38 48t-38 -48v-113q0 -28 18.5 -50t46.5 -35t60.5 -31.5t60.5 -39.5t46.5 -60t18.5 -92v-124q0 -105 -55 -150.5t-158 -45.5t-157.5 45.5t-54.5 150.5v133h172v-132q0 -48 39 -48q38 0 38 48v113q0 28 -18.5 50t-46.5 35t-60 31.5t-60 39.5
t-46.5 60t-18.5 92v124q0 105 55 150.5t157 45.5t156.5 -45.5t54.5 -150.5v-133z" />
    <glyph glyph-name="t" unicode="t" horiz-adv-x="465" 
d="M440 920v-150h-118v-770h-179v770h-118v150h415z" />
    <glyph glyph-name="u" unicode="u" 
d="M464 920v-732q0 -106 -56.5 -151.5t-160.5 -45.5t-160.5 45.5t-56.5 151.5v732h179v-731q0 -48 38 -48t38 48v731h179z" />
    <glyph glyph-name="v" unicode="v" horiz-adv-x="532" 
d="M20 920h173l65 -758h16l65 758h173l-91 -920h-310z" />
    <glyph glyph-name="w" unicode="w" horiz-adv-x="860" 
d="M661 920h174l-73 -920h-278l-49 727h-10l-49 -727h-278l-73 920h174l42 -728h10l53 728h252l53 -728h10z" />
    <glyph glyph-name="x" unicode="x" horiz-adv-x="533" 
d="M508 0h-176l-60 328h-11l-60 -328h-176l107 467l-103 453h176l56 -315h11l56 315h176l-103 -453z" />
    <glyph glyph-name="y" unicode="y" horiz-adv-x="534" 
d="M343 920h171l-159 -593v-327h-176v327l-159 593h171l71 -336h10z" />
    <glyph glyph-name="z" unicode="z" horiz-adv-x="446" 
d="M30 0v150l214 607v13h-205v150h377v-150l-220 -607v-13h215v-150h-381z" />
    <glyph glyph-name="braceleft" unicode="{" horiz-adv-x="507" 
d="M281 -105q-51 0 -82 26.5t-31 82.5v302l-123 144v20l123 144v302q0 55 31.5 82t81.5 27h181v-150h-79q-41 0 -41 -38v-232l-112 -135v-20l112 -135v-232q0 -38 41 -38h79v-150h-181z" />
    <glyph glyph-name="bar" unicode="|" horiz-adv-x="240" 
d="M30 -84v1085h180v-1085h-180z" />
    <glyph glyph-name="braceright" unicode="}" horiz-adv-x="507" 
d="M226 -105h-181v150h79q41 0 41 38v232l112 135v20l-112 135v232q0 38 -41 38h-79v150h181q50 0 81.5 -27t31.5 -82v-302l123 -144v-20l-123 -144v-302q0 -56 -31 -82.5t-82 -26.5z" />
    <glyph glyph-name="asciitilde" unicode="~" horiz-adv-x="471" 
d="M318 379q-41 0 -67 17t-45 34t-42 17q-22 0 -36.5 -12t-15.5 -33h-77q-1 70 31.5 104.5t91.5 34.5q41 0 67 -17t45 -34t42 -17q22 0 36.5 12t15.5 33h77q1 -70 -31.5 -104.5t-91.5 -34.5z" />
    <glyph glyph-name="exclamdown" unicode="&#xa1;" horiz-adv-x="242" 
d="M121 640q40 0 68 -28t28 -67t-28 -67t-68 -28t-68 28t-28 67t28 67t68 28zM56 372h130l27 -668h-184z" />
    <glyph glyph-name="cent" unicode="&#xa2;" 
d="M464 527h-179v107q0 48 -38 48t-38 -48v-348q0 -48 38 -48t38 48v107h179v-98q0 -173 -147 -201v-94h-140v94q-147 28 -147 201v330q0 173 147 201v94h140v-94q147 -28 147 -201v-98z" />
    <glyph glyph-name="sterling" unicode="&#xa3;" horiz-adv-x="575" 
d="M276 150h269v-150h-520v150h72v203h-72v150h72v227q0 106 56.5 151.5t160.5 45.5t160.5 -45.5t56.5 -151.5v-142h-179v141q0 48 -38 48t-38 -48v-226h140v-150h-140v-203z" />
    <glyph glyph-name="currency" unicode="&#xa4;" horiz-adv-x="678" 
d="M611 651q0 -72 -36 -133l53 -53l-85 -84l-49 49q-70 -48 -155 -48t-155 48l-49 -49l-85 84l53 53q-36 61 -36 133q0 74 38 136l-55 55l85 84l52 -52q68 46 152 46t152 -46l52 52l85 -84l-55 -55q38 -62 38 -136zM339 492q75 0 119 51t44 108t-44 108.5t-119 51.5
t-119 -51.5t-44 -108.5t44 -108t119 -51z" />
    <glyph glyph-name="yen" unicode="&#xa5;" horiz-adv-x="534" 
d="M355 327v-3h124v-53h-124v-42h124v-53h-124v-176h-176v176h-123v53h123v42h-123v53h123v3l-159 593h171l71 -336h10l71 336h171z" />
    <glyph glyph-name="brokenbar" unicode="&#xa6;" horiz-adv-x="240" 
d="M30 496v505h180v-505h-180zM210 421v-505h-180v505h180z" />
    <glyph glyph-name="section" unicode="&#xa7;" horiz-adv-x="507" 
d="M209 699q0 -33 27.5 -49.5t67 -23.5t79 -19t67 -48t27.5 -98v-278q0 -105 -56.5 -150t-164.5 -45t-164.5 45t-56.5 150v52h174v-43q0 -50 47 -50q46 0 46 50v29q0 33 -27.5 49.5t-67 23.5t-78.5 19t-66.5 48t-27.5 98v278q0 105 56.5 150t163.5 45t163 -45t56 -150v-52
h-174v43q0 50 -45 50q-46 0 -46 -50v-29zM209 469q0 -33 23 -47.5t70 -24.5v54q0 33 -23 47.5t-70 24.5v-54z" />
    <glyph glyph-name="dieresis" unicode="&#xa8;" horiz-adv-x="350" 
d="M73 692q-31 0 -52 21.5t-21 52.5t21 52.5t52 21.5t52 -21.5t21 -52.5t-21 -52.5t-52 -21.5zM277 692q-31 0 -52 21.5t-21 52.5t21 52.5t52 21.5t52 -21.5t21 -52.5t-21 -52.5t-52 -21.5z" />
    <glyph glyph-name="copyright" unicode="&#xa9;" horiz-adv-x="491" 
d="M245 499q-94 0 -154.5 61.5t-60.5 154.5q0 94 60.5 155.5t154.5 61.5q95 0 155.5 -61.5t60.5 -155.5t-60.5 -155t-155.5 -61zM248 586q41 0 74 20.5t44 62.5h-49q-21 -40 -70 -40q-36 0 -59.5 23t-23.5 63t23.5 63.5t59.5 23.5q48 0 70 -40h49q-11 42 -44 63t-74 21
q-57 0 -94.5 -37t-37.5 -94q0 -56 37.5 -92.5t94.5 -36.5z" />
    <glyph glyph-name="ordfeminine" unicode="&#xaa;" horiz-adv-x="460" 
d="M277 406l-8 65h-78l-8 -65h-163l70 434h280l70 -434h-163zM205 576h50l-16 124h-18z" />
    <glyph glyph-name="guillemotleft" unicode="&#xab;" horiz-adv-x="733" 
d="M425 140h-181l-194 280l194 280h181l-194 -280zM683 140h-181l-194 280l194 280h181l-194 -280z" />
    <glyph glyph-name="logicalnot" unicode="&#xac;" horiz-adv-x="490" 
d="M465 545v-257h-180v97h-260v160h440z" />
    <glyph glyph-name="uni00AD" unicode="&#xad;" horiz-adv-x="340" 
d="M30 380v160h280v-160h-280z" />
    <glyph glyph-name="registered" unicode="&#xae;" horiz-adv-x="491" 
d="M245 499q-94 0 -154.5 61.5t-60.5 154.5q0 94 60.5 155.5t154.5 61.5q95 0 155.5 -61.5t60.5 -155.5t-60.5 -155t-155.5 -61zM143 587h49v78h82l45 -78h53l-52 88q46 22 46 75q0 41 -27.5 64t-78.5 23h-117v-250zM192 707v87h69q53 0 53 -44q0 -43 -53 -43h-69z" />
    <glyph glyph-name="macron" unicode="&#xaf;" horiz-adv-x="318" 
d="M0 691v144h318v-144h-318z" />
    <glyph glyph-name="degree" unicode="&#xb0;" horiz-adv-x="456" 
d="M228 933q95 0 146.5 -47.5t51.5 -158.5v-172q0 -111 -51.5 -158.5t-146.5 -47.5t-146.5 47.5t-51.5 158.5v172q0 111 51.5 158.5t146.5 47.5zM266 734q0 49 -38 49t-38 -49v-186q0 -49 38 -49t38 49v186z" />
    <glyph glyph-name="plusminus" unicode="&#xb1;" horiz-adv-x="625" 
d="M410 664h185v-170h-185v-185h-180v185h-185v170h185v185h180v-185zM30 28v170h534v-170h-534z" />
    <glyph glyph-name="acute" unicode="&#xb4;" horiz-adv-x="210" 
d="M0 680l53 160h157l-53 -160h-157z" />
    <glyph glyph-name="uni00B5" unicode="&#xb5;" 
d="M285 920h179v-732q0 -106 -56.5 -151.5t-160.5 -45.5q-22 0 -32 1v-142h-180v281q-5 28 -5 57v732h185v-762q10 -17 32 -17q38 0 38 48v731z" />
    <glyph glyph-name="paragraph" unicode="&#xb6;" horiz-adv-x="725" 
d="M479 920v-920h-180v193h-89q-109 0 -144.5 43t-35.5 154v333q0 111 35.5 154t144.5 43h269zM515 920h180v-920h-180v920zM254 353h45v407h-45q-25 0 -34.5 -11.5t-9.5 -39.5v-305q0 -28 9.5 -39.5t34.5 -11.5z" />
    <glyph glyph-name="periodcentered" unicode="&#xb7;" horiz-adv-x="312" 
d="M156 365q-40 0 -68 28t-28 67t28 67t68 28t68 -28t28 -67t-28 -67t-68 -28z" />
    <glyph glyph-name="cedilla" unicode="&#xb8;" horiz-adv-x="190" 
d="M97 -42q37 -6 65 -30t28 -68q0 -39 -12.5 -64t-37 -36.5t-47.5 -15.5t-56 -4h-37v81h37q44 0 44 39q0 38 -44 38h-37v58l51 44h95z" />
    <glyph glyph-name="ordmasculine" unicode="&#xba;" horiz-adv-x="496" 
d="M248 409q-93 0 -155.5 62.5t-62.5 155.5t62.5 156t155.5 63t155.5 -63t62.5 -156t-62.5 -155.5t-155.5 -62.5zM248 558q29 0 49 20t20 49t-20 49.5t-49 20.5t-49 -20.5t-20 -49.5t20 -49t49 -20z" />
    <glyph glyph-name="guillemotright" unicode="&#xbb;" horiz-adv-x="733" 
d="M50 140l194 280l-194 280h181l194 -280l-194 -280h-181zM308 140l194 280l-194 280h181l194 -280l-194 -280h-181z" />
    <glyph glyph-name="questiondown" unicode="&#xbf;" horiz-adv-x="499" 
d="M263 640q40 0 68 -28t28 -67t-28 -67t-68 -28t-68 28t-28 67t28 67t68 28zM469 36v-144q0 -106 -56.5 -151.5t-160.5 -45.5t-160.5 45.5t-56.5 151.5v123q0 59 14.5 99.5t35 60t41 34.5t35 37.5t14.5 55.5v70h175v-90q0 -56 -14 -93t-34 -54t-40 -30.5t-34 -35t-14 -54.5
v-122q0 -48 38 -48t38 48v143h179z" />
    <glyph glyph-name="Agrave" unicode="&#xc0;" horiz-adv-x="532" 
d="M345 970h-157l-53 160h157zM339 0l-14 158h-118l-14 -158h-173l91 920h310l91 -920h-173zM219 308h94l-39 450h-16z" />
    <glyph glyph-name="Aacute" unicode="&#xc1;" horiz-adv-x="532" 
d="M397 1130l-53 -160h-157l53 160h157zM339 0l-14 158h-118l-14 -158h-173l91 920h310l91 -920h-173zM219 308h94l-39 450h-16z" />
    <glyph glyph-name="Acircumflex" unicode="&#xc2;" horiz-adv-x="532" 
d="M258 1040l-28 -70h-129l64 160h200l64 -160h-129l-28 70h-14zM339 0l-14 158h-118l-14 -158h-173l91 920h310l91 -920h-173zM219 308h94l-39 450h-16z" />
    <glyph glyph-name="Atilde" unicode="&#xc3;" horiz-adv-x="532" 
d="M139 990h-77q-1 70 31.5 104.5t91.5 34.5q41 0 67 -17t45 -34t42 -17q22 0 36.5 12t15.5 33h77q1 -70 -31.5 -104.5t-91.5 -34.5q-41 0 -67 17t-45 34t-42 17q-22 0 -36.5 -12t-15.5 -33zM339 0l-14 158h-118l-14 -158h-173l91 920h310l91 -920h-173zM219 308h94l-39 450
h-16z" />
    <glyph glyph-name="Adieresis" unicode="&#xc4;" horiz-adv-x="532" 
d="M163 982q-31 0 -52 21.5t-21 52.5t21 52.5t52 21.5t52 -21.5t21 -52.5t-21 -52.5t-52 -21.5zM367 982q-31 0 -52 21.5t-21 52.5t21 52.5t52 21.5t52 -21.5t21 -52.5t-21 -52.5t-52 -21.5zM339 0l-14 158h-118l-14 -158h-173l91 920h310l91 -920h-173zM219 308h94l-39 450
h-16z" />
    <glyph glyph-name="Aring" unicode="&#xc5;" horiz-adv-x="532" 
d="M265 926q-51 0 -83.5 33t-32.5 82t32.5 81.5t83.5 32.5t83.5 -32.5t32.5 -81.5t-32.5 -82t-83.5 -33zM265 1074q-14 0 -23.5 -9t-9.5 -24t9 -24.5t24 -9.5t24 9.5t9 24.5t-9.5 24t-23.5 9zM339 0l-14 158h-118l-14 -158h-173l91 920h310l91 -920h-173zM219 308h94
l-39 450h-16z" />
    <glyph glyph-name="AE" unicode="&#xc6;" horiz-adv-x="690" 
d="M660 770h-136v-234h133v-148h-133v-238h136v-150h-315v161h-123l-29 -161h-173l171 920h469v-150zM249 316h96v444h-17z" />
    <glyph glyph-name="Ccedilla" unicode="&#xc7;" 
d="M464 588h-179v143q0 48 -38 48t-38 -48v-544q0 -48 38 -48t38 48v145h179v-146q0 -172 -161 -193l-40 -35q37 -6 65 -30t28 -68q0 -39 -12.5 -64t-37 -36.5t-47.5 -15.5t-56 -4h-37v81h37q44 0 44 39q0 38 -44 38h-37v58l40 35q-176 16 -176 195v546q0 106 56.5 151.5
t160.5 45.5t160.5 -45.5t56.5 -151.5v-144z" />
    <glyph glyph-name="Egrave" unicode="&#xc8;" horiz-adv-x="375" 
d="M274 970h-157l-53 160h157zM345 770h-136v-234h133v-148h-133v-238h136v-150h-315v920h315v-150z" />
    <glyph glyph-name="Eacute" unicode="&#xc9;" horiz-adv-x="375" 
d="M326 1130l-53 -160h-157l53 160h157zM345 770h-136v-234h133v-148h-133v-238h136v-150h-315v920h315v-150z" />
    <glyph glyph-name="Ecircumflex" unicode="&#xca;" horiz-adv-x="375" 
d="M187 1040l-28 -70h-129l64 160h200l64 -160h-129l-28 70h-14zM345 920v-150h-136v-234h133v-148h-133v-238h136v-150h-315v920h315z" />
    <glyph glyph-name="Edieresis" unicode="&#xcb;" horiz-adv-x="375" 
d="M92 982q-31 0 -52 21.5t-21 52.5t21 52.5t52 21.5t52 -21.5t21 -52.5t-21 -52.5t-52 -21.5zM296 1130q31 0 52 -21.5t21 -52.5t-21 -52.5t-52 -21.5t-52 21.5t-21 52.5t21 52.5t52 21.5zM345 920v-150h-136v-234h133v-148h-133v-238h136v-150h-315v920h315z" />
    <glyph glyph-name="Igrave" unicode="&#xcc;" horiz-adv-x="239" 
d="M200 970h-157l-53 160h157zM30 0v920h179v-920h-179z" />
    <glyph glyph-name="Iacute" unicode="&#xcd;" horiz-adv-x="239" 
d="M42 970l53 160h157l-53 -160h-157zM30 0v920h179v-920h-179z" />
    <glyph glyph-name="Icircumflex" unicode="&#xce;" horiz-adv-x="239" 
d="M-44 970l64 160h200l64 -160h-129l-28 70h-14l-28 -70h-129zM30 0v920h179v-920h-179z" />
    <glyph glyph-name="Idieresis" unicode="&#xcf;" horiz-adv-x="239" 
d="M18 982q-31 0 -52 21.5t-21 52.5t21 52.5t52 21.5t52 -21.5t21 -52.5t-21 -52.5t-52 -21.5zM222 982q-31 0 -52 21.5t-21 52.5t21 52.5t52 21.5t52 -21.5t21 -52.5t-21 -52.5t-52 -21.5zM30 0v920h179v-920h-179z" />
    <glyph glyph-name="Eth" unicode="&#xd0;" horiz-adv-x="521" 
d="M310 920q109 0 145 -43t36 -154v-526q0 -111 -36 -154t-145 -43h-253v380h-27v160h27v380h253zM312 199v522q0 28 -9.5 38.5t-34.5 10.5h-32v-230h45v-160h-45v-230h32q25 0 34.5 10.5t9.5 38.5z" />
    <glyph glyph-name="Ntilde" unicode="&#xd1;" horiz-adv-x="564" 
d="M362 967q-41 0 -67 17t-45 34t-42 17q-22 0 -36.5 -12t-15.5 -33h-77q-1 70 31.5 104.5t91.5 34.5q41 0 67 -17t45 -34t42 -17q22 0 36.5 12t15.5 33h77q1 -70 -31.5 -104.5t-91.5 -34.5zM30 0v920h227l106 -625h11l-5 122v503h165v-920h-227l-106 625h-11l5 -122v-503
h-165z" />
    <glyph glyph-name="Ograve" unicode="&#xd2;" 
d="M327 970h-157l-53 160h157zM247 929q104 0 160.5 -45.5t56.5 -151.5v-544q0 -106 -56.5 -151.5t-160.5 -45.5t-160.5 45.5t-56.5 151.5v544q0 106 56.5 151.5t160.5 45.5zM285 731q0 48 -38 48t-38 -48v-542q0 -48 38 -48t38 48v542z" />
    <glyph glyph-name="Oacute" unicode="&#xd3;" 
d="M169 970l53 160h157l-53 -160h-157zM247 929q104 0 160.5 -45.5t56.5 -151.5v-544q0 -106 -56.5 -151.5t-160.5 -45.5t-160.5 45.5t-56.5 151.5v544q0 106 56.5 151.5t160.5 45.5zM285 731q0 48 -38 48t-38 -48v-542q0 -48 38 -48t38 48v542z" />
    <glyph glyph-name="Ocircumflex" unicode="&#xd4;" 
d="M83 970l64 160h200l64 -160h-129l-28 70h-14l-28 -70h-129zM247 929q104 0 160.5 -45.5t56.5 -151.5v-544q0 -106 -56.5 -151.5t-160.5 -45.5t-160.5 45.5t-56.5 151.5v544q0 106 56.5 151.5t160.5 45.5zM285 731q0 48 -38 48t-38 -48v-542q0 -48 38 -48t38 48v542z" />
    <glyph glyph-name="Otilde" unicode="&#xd5;" 
d="M327 967q-41 0 -67 17t-45 34t-42 17q-22 0 -36.5 -12t-15.5 -33h-77q-1 70 31.5 104.5t91.5 34.5q41 0 67 -17t45 -34t42 -17q22 0 36.5 12t15.5 33h77q1 -70 -31.5 -104.5t-91.5 -34.5zM247 929q104 0 160.5 -45.5t56.5 -151.5v-544q0 -106 -56.5 -151.5t-160.5 -45.5
t-160.5 45.5t-56.5 151.5v544q0 106 56.5 151.5t160.5 45.5zM285 731q0 48 -38 48t-38 -48v-542q0 -48 38 -48t38 48v542z" />
    <glyph glyph-name="Odieresis" unicode="&#xd6;" 
d="M145 982q-31 0 -52 21.5t-21 52.5t21 52.5t52 21.5t52 -21.5t21 -52.5t-21 -52.5t-52 -21.5zM349 982q-31 0 -52 21.5t-21 52.5t21 52.5t52 21.5t52 -21.5t21 -52.5t-21 -52.5t-52 -21.5zM247 929q104 0 160.5 -45.5t56.5 -151.5v-544q0 -106 -56.5 -151.5t-160.5 -45.5
t-160.5 45.5t-56.5 151.5v544q0 106 56.5 151.5t160.5 45.5zM285 731q0 48 -38 48t-38 -48v-542q0 -48 38 -48t38 48v542z" />
    <glyph glyph-name="multiply" unicode="&#xd7;" horiz-adv-x="599" 
d="M554 585l-130 -130l130 -131l-120 -121l-131 131l-131 -131l-127 128l131 131l-131 130l120 121l131 -131l131 131z" />
    <glyph glyph-name="Oslash" unicode="&#xd8;" horiz-adv-x="498" 
d="M468 932l-31 -80q29 -46 29 -120v-544q0 -106 -56.5 -151.5t-160.5 -45.5q-87 0 -138 30l-13 -33h-68l31 80q-29 46 -29 120v544q0 106 56.5 151.5t160.5 45.5q87 0 138 -30l13 33h68zM211 731v-281l76 194v87q0 48 -38 48t-38 -48zM287 189v281l-76 -194v-87
q0 -48 38 -48t38 48z" />
    <glyph glyph-name="Ugrave" unicode="&#xd9;" 
d="M327 970h-157l-53 160h157zM464 920v-732q0 -106 -56.5 -151.5t-160.5 -45.5t-160.5 45.5t-56.5 151.5v732h179v-731q0 -48 38 -48t38 48v731h179z" />
    <glyph glyph-name="Uacute" unicode="&#xda;" 
d="M169 970l53 160h157l-53 -160h-157zM464 920v-732q0 -106 -56.5 -151.5t-160.5 -45.5t-160.5 45.5t-56.5 151.5v732h179v-731q0 -48 38 -48t38 48v731h179z" />
    <glyph glyph-name="Ucircumflex" unicode="&#xdb;" 
d="M83 970l64 160h200l64 -160h-129l-28 70h-14l-28 -70h-129zM464 920v-732q0 -106 -56.5 -151.5t-160.5 -45.5t-160.5 45.5t-56.5 151.5v732h179v-731q0 -48 38 -48t38 48v731h179z" />
    <glyph glyph-name="Udieresis" unicode="&#xdc;" 
d="M145 982q-31 0 -52 21.5t-21 52.5t21 52.5t52 21.5t52 -21.5t21 -52.5t-21 -52.5t-52 -21.5zM349 982q-31 0 -52 21.5t-21 52.5t21 52.5t52 21.5t52 -21.5t21 -52.5t-21 -52.5t-52 -21.5zM464 920v-732q0 -106 -56.5 -151.5t-160.5 -45.5t-160.5 45.5t-56.5 151.5v732
h179v-731q0 -48 38 -48t38 48v731h179z" />
    <glyph glyph-name="Yacute" unicode="&#xdd;" horiz-adv-x="534" 
d="M399 1130l-53 -160h-157l53 160h157zM343 920h171l-159 -593v-327h-176v327l-159 593h171l71 -336h10z" />
    <glyph glyph-name="Thorn" unicode="&#xde;" horiz-adv-x="490" 
d="M266 824q118 0 156 -42.5t38 -154.5v-333q0 -112 -38 -154.5t-156 -42.5h-56v-97h-180v920h180v-96h56zM280 308v305q0 28 -9.5 39.5t-34.5 11.5h-26v-407h26q25 0 34.5 11.5t9.5 39.5z" />
    <glyph glyph-name="germandbls" unicode="&#xdf;" horiz-adv-x="501" 
d="M469 616q0 -54 -17.5 -87.5t-60.5 -56.5v-8q43 -23 61.5 -56.5t18.5 -87.5v-143q0 -104 -53.5 -140.5t-164.5 -36.5h-18v140h16q23 0 34 11t11 39v156q0 52 -45 52h-16v140h16q44 0 44 53v140q0 48 -46 48q-40 0 -40 -48v-731h-179v732q0 197 219 197q106 0 163 -45.5
t57 -151.5v-116z" />
    <glyph glyph-name="agrave" unicode="&#xe0;" horiz-adv-x="532" 
d="M345 970h-157l-53 160h157zM339 0l-14 158h-118l-14 -158h-173l91 920h310l91 -920h-173zM219 308h94l-39 450h-16z" />
    <glyph glyph-name="aacute" unicode="&#xe1;" horiz-adv-x="532" 
d="M397 1130l-53 -160h-157l53 160h157zM339 0l-14 158h-118l-14 -158h-173l91 920h310l91 -920h-173zM219 308h94l-39 450h-16z" />
    <glyph glyph-name="acircumflex" unicode="&#xe2;" horiz-adv-x="532" 
d="M258 1040l-28 -70h-129l64 160h200l64 -160h-129l-28 70h-14zM339 0l-14 158h-118l-14 -158h-173l91 920h310l91 -920h-173zM219 308h94l-39 450h-16z" />
    <glyph glyph-name="atilde" unicode="&#xe3;" horiz-adv-x="532" 
d="M139 990h-77q-1 70 31.5 104.5t91.5 34.5q41 0 67 -17t45 -34t42 -17q22 0 36.5 12t15.5 33h77q1 -70 -31.5 -104.5t-91.5 -34.5q-41 0 -67 17t-45 34t-42 17q-22 0 -36.5 -12t-15.5 -33zM339 0l-14 158h-118l-14 -158h-173l91 920h310l91 -920h-173zM219 308h94l-39 450
h-16z" />
    <glyph glyph-name="adieresis" unicode="&#xe4;" horiz-adv-x="532" 
d="M163 982q-31 0 -52 21.5t-21 52.5t21 52.5t52 21.5t52 -21.5t21 -52.5t-21 -52.5t-52 -21.5zM367 982q-31 0 -52 21.5t-21 52.5t21 52.5t52 21.5t52 -21.5t21 -52.5t-21 -52.5t-52 -21.5zM339 0l-14 158h-118l-14 -158h-173l91 920h310l91 -920h-173zM219 308h94l-39 450
h-16z" />
    <glyph glyph-name="aring" unicode="&#xe5;" horiz-adv-x="532" 
d="M265 926q-51 0 -83.5 33t-32.5 82t32.5 81.5t83.5 32.5t83.5 -32.5t32.5 -81.5t-32.5 -82t-83.5 -33zM265 1074q-14 0 -23.5 -9t-9.5 -24t9 -24.5t24 -9.5t24 9.5t9 24.5t-9.5 24t-23.5 9zM339 0l-14 158h-118l-14 -158h-173l91 920h310l91 -920h-173zM219 308h94
l-39 450h-16z" />
    <glyph glyph-name="ae" unicode="&#xe6;" horiz-adv-x="690" 
d="M660 770h-136v-234h133v-148h-133v-238h136v-150h-315v161h-123l-29 -161h-173l171 920h469v-150zM249 316h96v444h-17z" />
    <glyph glyph-name="ccedilla" unicode="&#xe7;" 
d="M464 588h-179v143q0 48 -38 48t-38 -48v-544q0 -48 38 -48t38 48v145h179v-146q0 -172 -161 -193l-40 -35q37 -6 65 -30t28 -68q0 -39 -12.5 -64t-37 -36.5t-47.5 -15.5t-56 -4h-37v81h37q44 0 44 39q0 38 -44 38h-37v58l40 35q-176 16 -176 195v546q0 106 56.5 151.5
t160.5 45.5t160.5 -45.5t56.5 -151.5v-144z" />
    <glyph glyph-name="egrave" unicode="&#xe8;" horiz-adv-x="375" 
d="M274 970h-157l-53 160h157zM345 770h-136v-234h133v-148h-133v-238h136v-150h-315v920h315v-150z" />
    <glyph glyph-name="eacute" unicode="&#xe9;" horiz-adv-x="375" 
d="M326 1130l-53 -160h-157l53 160h157zM345 770h-136v-234h133v-148h-133v-238h136v-150h-315v920h315v-150z" />
    <glyph glyph-name="ecircumflex" unicode="&#xea;" horiz-adv-x="375" 
d="M187 1040l-28 -70h-129l64 160h200l64 -160h-129l-28 70h-14zM345 920v-150h-136v-234h133v-148h-133v-238h136v-150h-315v920h315z" />
    <glyph glyph-name="edieresis" unicode="&#xeb;" horiz-adv-x="375" 
d="M92 982q-31 0 -52 21.5t-21 52.5t21 52.5t52 21.5t52 -21.5t21 -52.5t-21 -52.5t-52 -21.5zM296 1130q31 0 52 -21.5t21 -52.5t-21 -52.5t-52 -21.5t-52 21.5t-21 52.5t21 52.5t52 21.5zM345 920v-150h-136v-234h133v-148h-133v-238h136v-150h-315v920h315z" />
    <glyph glyph-name="igrave" unicode="&#xec;" horiz-adv-x="239" 
d="M200 970h-157l-53 160h157zM30 0v920h179v-920h-179z" />
    <glyph glyph-name="iacute" unicode="&#xed;" horiz-adv-x="239" 
d="M42 970l53 160h157l-53 -160h-157zM30 0v920h179v-920h-179z" />
    <glyph glyph-name="icircumflex" unicode="&#xee;" horiz-adv-x="239" 
d="M-44 970l64 160h200l64 -160h-129l-28 70h-14l-28 -70h-129zM30 0v920h179v-920h-179z" />
    <glyph glyph-name="idieresis" unicode="&#xef;" horiz-adv-x="239" 
d="M18 982q-31 0 -52 21.5t-21 52.5t21 52.5t52 21.5t52 -21.5t21 -52.5t-21 -52.5t-52 -21.5zM222 982q-31 0 -52 21.5t-21 52.5t21 52.5t52 21.5t52 -21.5t21 -52.5t-21 -52.5t-52 -21.5zM30 0v920h179v-920h-179z" />
    <glyph glyph-name="eth" unicode="&#xf0;" horiz-adv-x="521" 
d="M310 920q109 0 145 -43t36 -154v-526q0 -111 -36 -154t-145 -43h-253v380h-27v160h27v380h253zM312 199v522q0 28 -9.5 38.5t-34.5 10.5h-32v-230h45v-160h-45v-230h32q25 0 34.5 10.5t9.5 38.5z" />
    <glyph glyph-name="ntilde" unicode="&#xf1;" horiz-adv-x="564" 
d="M362 967q-41 0 -67 17t-45 34t-42 17q-22 0 -36.5 -12t-15.5 -33h-77q-1 70 31.5 104.5t91.5 34.5q41 0 67 -17t45 -34t42 -17q22 0 36.5 12t15.5 33h77q1 -70 -31.5 -104.5t-91.5 -34.5zM30 0v920h227l106 -625h11l-5 122v503h165v-920h-227l-106 625h-11l5 -122v-503
h-165z" />
    <glyph glyph-name="ograve" unicode="&#xf2;" 
d="M327 970h-157l-53 160h157zM247 929q104 0 160.5 -45.5t56.5 -151.5v-544q0 -106 -56.5 -151.5t-160.5 -45.5t-160.5 45.5t-56.5 151.5v544q0 106 56.5 151.5t160.5 45.5zM285 731q0 48 -38 48t-38 -48v-542q0 -48 38 -48t38 48v542z" />
    <glyph glyph-name="oacute" unicode="&#xf3;" 
d="M169 970l53 160h157l-53 -160h-157zM247 929q104 0 160.5 -45.5t56.5 -151.5v-544q0 -106 -56.5 -151.5t-160.5 -45.5t-160.5 45.5t-56.5 151.5v544q0 106 56.5 151.5t160.5 45.5zM285 731q0 48 -38 48t-38 -48v-542q0 -48 38 -48t38 48v542z" />
    <glyph glyph-name="ocircumflex" unicode="&#xf4;" 
d="M83 970l64 160h200l64 -160h-129l-28 70h-14l-28 -70h-129zM247 929q104 0 160.5 -45.5t56.5 -151.5v-544q0 -106 -56.5 -151.5t-160.5 -45.5t-160.5 45.5t-56.5 151.5v544q0 106 56.5 151.5t160.5 45.5zM285 731q0 48 -38 48t-38 -48v-542q0 -48 38 -48t38 48v542z" />
    <glyph glyph-name="otilde" unicode="&#xf5;" 
d="M327 967q-41 0 -67 17t-45 34t-42 17q-22 0 -36.5 -12t-15.5 -33h-77q-1 70 31.5 104.5t91.5 34.5q41 0 67 -17t45 -34t42 -17q22 0 36.5 12t15.5 33h77q1 -70 -31.5 -104.5t-91.5 -34.5zM247 929q104 0 160.5 -45.5t56.5 -151.5v-544q0 -106 -56.5 -151.5t-160.5 -45.5
t-160.5 45.5t-56.5 151.5v544q0 106 56.5 151.5t160.5 45.5zM285 731q0 48 -38 48t-38 -48v-542q0 -48 38 -48t38 48v542z" />
    <glyph glyph-name="odieresis" unicode="&#xf6;" 
d="M145 982q-31 0 -52 21.5t-21 52.5t21 52.5t52 21.5t52 -21.5t21 -52.5t-21 -52.5t-52 -21.5zM349 982q-31 0 -52 21.5t-21 52.5t21 52.5t52 21.5t52 -21.5t21 -52.5t-21 -52.5t-52 -21.5zM247 929q104 0 160.5 -45.5t56.5 -151.5v-544q0 -106 -56.5 -151.5t-160.5 -45.5
t-160.5 45.5t-56.5 151.5v544q0 106 56.5 151.5t160.5 45.5zM285 731q0 48 -38 48t-38 -48v-542q0 -48 38 -48t38 48v542z" />
    <glyph glyph-name="divide" unicode="&#xf7;" horiz-adv-x="594" 
d="M301 627q-36 0 -61.5 25.5t-25.5 61.5q0 35 25.5 60.5t61.5 25.5t61.5 -25.5t25.5 -60.5q0 -36 -25.5 -61.5t-61.5 -25.5zM30 375v170h534v-170h-534zM301 120q-36 0 -61.5 25.5t-25.5 61.5q0 35 25.5 60.5t61.5 25.5t61.5 -25.5t25.5 -60.5q0 -36 -25.5 -61.5
t-61.5 -25.5z" />
    <glyph glyph-name="oslash" unicode="&#xf8;" horiz-adv-x="498" 
d="M468 932l-31 -80q29 -46 29 -120v-544q0 -106 -56.5 -151.5t-160.5 -45.5q-87 0 -138 30l-13 -33h-68l31 80q-29 46 -29 120v544q0 106 56.5 151.5t160.5 45.5q87 0 138 -30l13 33h68zM211 731v-281l76 194v87q0 48 -38 48t-38 -48zM287 189v281l-76 -194v-87
q0 -48 38 -48t38 48z" />
    <glyph glyph-name="ugrave" unicode="&#xf9;" 
d="M327 970h-157l-53 160h157zM464 920v-732q0 -106 -56.5 -151.5t-160.5 -45.5t-160.5 45.5t-56.5 151.5v732h179v-731q0 -48 38 -48t38 48v731h179z" />
    <glyph glyph-name="uacute" unicode="&#xfa;" 
d="M169 970l53 160h157l-53 -160h-157zM464 920v-732q0 -106 -56.5 -151.5t-160.5 -45.5t-160.5 45.5t-56.5 151.5v732h179v-731q0 -48 38 -48t38 48v731h179z" />
    <glyph glyph-name="ucircumflex" unicode="&#xfb;" 
d="M83 970l64 160h200l64 -160h-129l-28 70h-14l-28 -70h-129zM464 920v-732q0 -106 -56.5 -151.5t-160.5 -45.5t-160.5 45.5t-56.5 151.5v732h179v-731q0 -48 38 -48t38 48v731h179z" />
    <glyph glyph-name="udieresis" unicode="&#xfc;" 
d="M145 982q-31 0 -52 21.5t-21 52.5t21 52.5t52 21.5t52 -21.5t21 -52.5t-21 -52.5t-52 -21.5zM349 982q-31 0 -52 21.5t-21 52.5t21 52.5t52 21.5t52 -21.5t21 -52.5t-21 -52.5t-52 -21.5zM464 920v-732q0 -106 -56.5 -151.5t-160.5 -45.5t-160.5 45.5t-56.5 151.5v732
h179v-731q0 -48 38 -48t38 48v731h179z" />
    <glyph glyph-name="yacute" unicode="&#xfd;" horiz-adv-x="534" 
d="M399 1130l-53 -160h-157l53 160h157zM343 920h171l-159 -593v-327h-176v327l-159 593h171l71 -336h10z" />
    <glyph glyph-name="thorn" unicode="&#xfe;" horiz-adv-x="490" 
d="M266 824q118 0 156 -42.5t38 -154.5v-333q0 -112 -38 -154.5t-156 -42.5h-56v-97h-180v920h180v-96h56zM280 308v305q0 28 -9.5 39.5t-34.5 11.5h-26v-407h26q25 0 34.5 11.5t9.5 39.5z" />
    <glyph glyph-name="ydieresis" unicode="&#xff;" horiz-adv-x="534" 
d="M165 982q-31 0 -52 21.5t-21 52.5t21 52.5t52 21.5t52 -21.5t21 -52.5t-21 -52.5t-52 -21.5zM369 982q-31 0 -52 21.5t-21 52.5t21 52.5t52 21.5t52 -21.5t21 -52.5t-21 -52.5t-52 -21.5zM343 920h171l-159 -593v-327h-176v327l-159 593h171l71 -336h10z" />
    <glyph glyph-name="Amacron" unicode="&#x100;" horiz-adv-x="532" 
d="M424 1125v-144h-318v144h318zM339 0l-14 158h-118l-14 -158h-173l91 920h310l91 -920h-173zM219 308h94l-39 450h-16z" />
    <glyph glyph-name="amacron" unicode="&#x101;" horiz-adv-x="532" 
d="M424 1125v-144h-318v144h318zM339 0l-14 158h-118l-14 -158h-173l91 920h310l91 -920h-173zM219 308h94l-39 450h-16z" />
    <glyph glyph-name="Abreve" unicode="&#x102;" horiz-adv-x="532" 
d="M265 970q-93 0 -133 25t-40 95v40h117v-15q0 -36 56 -36t56 36v15h117v-40q0 -70 -40 -95t-133 -25zM339 0l-14 158h-118l-14 -158h-173l91 920h310l91 -920h-173zM219 308h94l-39 450h-16z" />
    <glyph glyph-name="abreve" unicode="&#x103;" horiz-adv-x="532" 
d="M265 970q-93 0 -133 25t-40 95v40h117v-15q0 -36 56 -36t56 36v15h117v-40q0 -70 -40 -95t-133 -25zM339 0l-14 158h-118l-14 -158h-173l91 920h310l91 -920h-173zM219 308h94l-39 450h-16z" />
    <glyph glyph-name="Aogonek" unicode="&#x104;" horiz-adv-x="532" 
d="M445 0q-55 0 -55 -49t55 -49h56l-15 -120h-44q-101 0 -155 45t-54 124q0 99 99 133l-7 74h-118l-14 -158h-173l91 920h310l91 -920h-67zM219 308h94l-39 450h-16z" />
    <glyph glyph-name="aogonek" unicode="&#x105;" horiz-adv-x="532" 
d="M445 0q-55 0 -55 -49t55 -49h56l-15 -120h-44q-101 0 -155 45t-54 124q0 99 99 133l-7 74h-118l-14 -158h-173l91 920h310l91 -920h-67zM219 308h94l-39 450h-16z" />
    <glyph glyph-name="Cacute" unicode="&#x106;" 
d="M169 970l53 160h157l-53 -160h-157zM464 332v-146q0 -106 -56.5 -151.5t-160.5 -45.5t-160.5 45.5t-56.5 151.5v546q0 106 56.5 151.5t160.5 45.5t160.5 -45.5t56.5 -151.5v-144h-179v143q0 48 -38 48t-38 -48v-544q0 -48 38 -48t38 48v145h179z" />
    <glyph glyph-name="cacute" unicode="&#x107;" 
d="M169 970l53 160h157l-53 -160h-157zM464 332v-146q0 -106 -56.5 -151.5t-160.5 -45.5t-160.5 45.5t-56.5 151.5v546q0 106 56.5 151.5t160.5 45.5t160.5 -45.5t56.5 -151.5v-144h-179v143q0 48 -38 48t-38 -48v-544q0 -48 38 -48t38 48v145h179z" />
    <glyph glyph-name="Cdotaccent" unicode="&#x10a;" 
d="M247 982q-32 0 -54.5 21.5t-22.5 52.5t22.5 52.5t54.5 21.5t54.5 -21.5t22.5 -52.5t-22.5 -52.5t-54.5 -21.5zM464 332v-146q0 -106 -56.5 -151.5t-160.5 -45.5t-160.5 45.5t-56.5 151.5v546q0 106 56.5 151.5t160.5 45.5t160.5 -45.5t56.5 -151.5v-144h-179v143
q0 48 -38 48t-38 -48v-544q0 -48 38 -48t38 48v145h179z" />
    <glyph glyph-name="cdotaccent" unicode="&#x10b;" 
d="M247 982q-32 0 -54.5 21.5t-22.5 52.5t22.5 52.5t54.5 21.5t54.5 -21.5t22.5 -52.5t-22.5 -52.5t-54.5 -21.5zM464 332v-146q0 -106 -56.5 -151.5t-160.5 -45.5t-160.5 45.5t-56.5 151.5v546q0 106 56.5 151.5t160.5 45.5t160.5 -45.5t56.5 -151.5v-144h-179v143
q0 48 -38 48t-38 -48v-544q0 -48 38 -48t38 48v145h179z" />
    <glyph glyph-name="Ccaron" unicode="&#x10c;" 
d="M83 1130h129l28 -70h14l28 70h129l-64 -160h-200zM464 332v-146q0 -106 -56.5 -151.5t-160.5 -45.5t-160.5 45.5t-56.5 151.5v546q0 106 56.5 151.5t160.5 45.5t160.5 -45.5t56.5 -151.5v-144h-179v143q0 48 -38 48t-38 -48v-544q0 -48 38 -48t38 48v145h179z" />
    <glyph glyph-name="ccaron" unicode="&#x10d;" 
d="M83 1130h129l28 -70h14l28 70h129l-64 -160h-200zM464 332v-146q0 -106 -56.5 -151.5t-160.5 -45.5t-160.5 45.5t-56.5 151.5v546q0 106 56.5 151.5t160.5 45.5t160.5 -45.5t56.5 -151.5v-144h-179v143q0 48 -38 48t-38 -48v-544q0 -48 38 -48t38 48v145h179z" />
    <glyph glyph-name="Dcaron" unicode="&#x10e;" 
d="M347 970h-200l-64 160h129l28 -70h14l28 70h129zM283 920q109 0 145 -43t36 -154v-526q0 -111 -36 -154t-145 -43h-253v920h253zM285 199v522q0 28 -9.5 38.5t-34.5 10.5h-32v-620h32q25 0 34.5 10.5t9.5 38.5z" />
    <glyph glyph-name="dcaron" unicode="&#x10f;" 
d="M347 970h-200l-64 160h129l28 -70h14l28 70h129zM283 920q109 0 145 -43t36 -154v-526q0 -111 -36 -154t-145 -43h-253v920h253zM285 199v522q0 28 -9.5 38.5t-34.5 10.5h-32v-620h32q25 0 34.5 10.5t9.5 38.5z" />
    <glyph glyph-name="Dcroat" unicode="&#x110;" horiz-adv-x="521" 
d="M310 920q109 0 145 -43t36 -154v-526q0 -111 -36 -154t-145 -43h-253v380h-27v160h27v380h253zM312 199v522q0 28 -9.5 38.5t-34.5 10.5h-32v-230h45v-160h-45v-230h32q25 0 34.5 10.5t9.5 38.5z" />
    <glyph glyph-name="dcroat" unicode="&#x111;" horiz-adv-x="521" 
d="M310 920q109 0 145 -43t36 -154v-526q0 -111 -36 -154t-145 -43h-253v380h-27v160h27v380h253zM312 199v522q0 28 -9.5 38.5t-34.5 10.5h-32v-230h45v-160h-45v-230h32q25 0 34.5 10.5t9.5 38.5z" />
    <glyph glyph-name="Emacron" unicode="&#x112;" horiz-adv-x="375" 
d="M35 1125h318v-144h-318v144zM345 920v-150h-136v-234h133v-148h-133v-238h136v-150h-315v920h315z" />
    <glyph glyph-name="emacron" unicode="&#x113;" horiz-adv-x="375" 
d="M35 1125h318v-144h-318v144zM345 920v-150h-136v-234h133v-148h-133v-238h136v-150h-315v920h315z" />
    <glyph glyph-name="Edotaccent" unicode="&#x116;" horiz-adv-x="375" 
d="M194 982q-32 0 -54.5 21.5t-22.5 52.5t22.5 52.5t54.5 21.5t54.5 -21.5t22.5 -52.5t-22.5 -52.5t-54.5 -21.5zM345 770h-136v-234h133v-148h-133v-238h136v-150h-315v920h315v-150z" />
    <glyph glyph-name="edotaccent" unicode="&#x117;" horiz-adv-x="375" 
d="M194 982q-32 0 -54.5 21.5t-22.5 52.5t22.5 52.5t54.5 21.5t54.5 -21.5t22.5 -52.5t-22.5 -52.5t-54.5 -21.5zM345 770h-136v-234h133v-148h-133v-238h136v-150h-315v920h315v-150z" />
    <glyph glyph-name="Eogonek" unicode="&#x118;" horiz-adv-x="375" 
d="M345 770h-136v-234h133v-148h-133v-238h136v-150h-56q-55 0 -55 -49t55 -49h56l-15 -120h-44q-101 0 -155 45t-54 124q0 23 7 49h-54v920h315v-150z" />
    <glyph glyph-name="eogonek" unicode="&#x119;" horiz-adv-x="375" 
d="M345 770h-136v-234h133v-148h-133v-238h136v-150h-56q-55 0 -55 -49t55 -49h56l-15 -120h-44q-101 0 -155 45t-54 124q0 23 7 49h-54v920h315v-150z" />
    <glyph glyph-name="Ecaron" unicode="&#x11a;" horiz-adv-x="375" 
d="M294 970h-200l-64 160h129l28 -70h14l28 70h129zM345 920v-150h-136v-234h133v-148h-133v-238h136v-150h-315v920h315z" />
    <glyph glyph-name="ecaron" unicode="&#x11b;" horiz-adv-x="375" 
d="M294 970h-200l-64 160h129l28 -70h14l28 70h129zM345 920v-150h-136v-234h133v-148h-133v-238h136v-150h-315v920h315z" />
    <glyph glyph-name="Gbreve" unicode="&#x11e;" 
d="M247 970q-93 0 -133 25t-40 95v40h117v-15q0 -36 56 -36t56 36v15h117v-40q0 -70 -40 -95t-133 -25zM464 602h-178v129q0 48 -39 48t-39 -48v-542q0 -27 10.5 -37.5t32.5 -10.5q44 0 44 48v196h-48v144h217v-341q0 -106 -56.5 -151.5t-160.5 -45.5t-160.5 45.5
t-56.5 151.5v544q0 106 56.5 151.5t160.5 45.5t160.5 -45.5t56.5 -151.5v-130z" />
    <glyph glyph-name="gbreve" unicode="&#x11f;" 
d="M247 970q-93 0 -133 25t-40 95v40h117v-15q0 -36 56 -36t56 36v15h117v-40q0 -70 -40 -95t-133 -25zM464 602h-178v129q0 48 -39 48t-39 -48v-542q0 -27 10.5 -37.5t32.5 -10.5q44 0 44 48v196h-48v144h217v-341q0 -106 -56.5 -151.5t-160.5 -45.5t-160.5 45.5
t-56.5 151.5v544q0 106 56.5 151.5t160.5 45.5t160.5 -45.5t56.5 -151.5v-130z" />
    <glyph glyph-name="Gdotaccent" unicode="&#x120;" 
d="M247 982q-32 0 -54.5 21.5t-22.5 52.5t22.5 52.5t54.5 21.5t54.5 -21.5t22.5 -52.5t-22.5 -52.5t-54.5 -21.5zM464 602h-178v129q0 48 -39 48t-39 -48v-542q0 -27 10.5 -37.5t32.5 -10.5q44 0 44 48v196h-48v144h217v-341q0 -106 -56.5 -151.5t-160.5 -45.5t-160.5 45.5
t-56.5 151.5v544q0 106 56.5 151.5t160.5 45.5t160.5 -45.5t56.5 -151.5v-130z" />
    <glyph glyph-name="gdotaccent" unicode="&#x121;" 
d="M247 982q-32 0 -54.5 21.5t-22.5 52.5t22.5 52.5t54.5 21.5t54.5 -21.5t22.5 -52.5t-22.5 -52.5t-54.5 -21.5zM464 602h-178v129q0 48 -39 48t-39 -48v-542q0 -27 10.5 -37.5t32.5 -10.5q44 0 44 48v196h-48v144h217v-341q0 -106 -56.5 -151.5t-160.5 -45.5t-160.5 45.5
t-56.5 151.5v544q0 106 56.5 151.5t160.5 45.5t160.5 -45.5t56.5 -151.5v-130z" />
    <glyph glyph-name="Gcommaaccent" unicode="&#x122;" 
d="M464 602h-178v129q0 48 -39 48t-39 -48v-542q0 -27 10.5 -37.5t32.5 -10.5q44 0 44 48v196h-48v144h217v-341q0 -106 -56.5 -151.5t-160.5 -45.5t-160.5 45.5t-56.5 151.5v544q0 106 56.5 151.5t160.5 45.5t160.5 -45.5t56.5 -151.5v-130zM174 -375q23 89 21 180h-52v136
h181v-51q0 -182 -51 -265h-99z" />
    <glyph glyph-name="gcommaaccent" unicode="&#x123;" 
d="M464 602h-178v129q0 48 -39 48t-39 -48v-542q0 -27 10.5 -37.5t32.5 -10.5q44 0 44 48v196h-48v144h217v-341q0 -106 -56.5 -151.5t-160.5 -45.5t-160.5 45.5t-56.5 151.5v544q0 106 56.5 151.5t160.5 45.5t160.5 -45.5t56.5 -151.5v-130zM174 -375q23 89 21 180h-52v136
h181v-51q0 -182 -51 -265h-99z" />
    <glyph glyph-name="Hbar" unicode="&#x126;" horiz-adv-x="495" 
d="M286 920h179v-920h-179v375h-77v-375h-179v920h179v-152h77v152zM209 525h77v98h-77v-98z" />
    <glyph glyph-name="hbar" unicode="&#x127;" horiz-adv-x="495" 
d="M286 920h179v-920h-179v375h-77v-375h-179v920h179v-152h77v152zM209 525h77v98h-77v-98z" />
    <glyph glyph-name="Imacron" unicode="&#x12a;" horiz-adv-x="239" 
d="M-39 981v144h318v-144h-318zM30 0v920h179v-920h-179z" />
    <glyph glyph-name="imacron" unicode="&#x12b;" horiz-adv-x="239" 
d="M-39 981v144h318v-144h-318zM30 0v920h179v-920h-179z" />
    <glyph glyph-name="Iogonek" unicode="&#x12e;" horiz-adv-x="239" 
d="M30 920h179v-920h-56q-55 0 -55 -49t55 -49h56l-15 -120h-44q-101 0 -155 45t-54 124q0 93 89 130v839z" />
    <glyph glyph-name="iogonek" unicode="&#x12f;" horiz-adv-x="239" 
d="M30 920h179v-920h-56q-55 0 -55 -49t55 -49h56l-15 -120h-44q-101 0 -155 45t-54 124q0 93 89 130v839z" />
    <glyph glyph-name="Idotaccent" unicode="&#x130;" horiz-adv-x="239" 
d="M120 982q-32 0 -54.5 21.5t-22.5 52.5t22.5 52.5t54.5 21.5t54.5 -21.5t22.5 -52.5t-22.5 -52.5t-54.5 -21.5zM30 0v920h179v-920h-179z" />
    <glyph glyph-name="dotlessi" unicode="&#x131;" horiz-adv-x="239" 
d="M30 0v920h179v-920h-179z" />
    <glyph glyph-name="IJ" unicode="&#x132;" horiz-adv-x="742" 
d="M30 0v920h179v-920h-179zM457 328v-139q0 -48 38 -48t38 48v731h179v-732q0 -106 -56.5 -151.5t-160.5 -45.5t-160.5 45.5t-56.5 151.5v140h179z" />
    <glyph glyph-name="Kcommaaccent" unicode="&#x136;" horiz-adv-x="522" 
d="M208 249v-249h-178v920h178v-375h8l104 375h178l-119 -429l128 -491h-170l-90 379zM161 -195v136h181v-51q0 -182 -51 -265h-99q23 89 21 180h-52z" />
    <glyph glyph-name="kcommaaccent" unicode="&#x137;" horiz-adv-x="522" 
d="M208 249v-249h-178v920h178v-375h8l104 375h178l-119 -429l128 -491h-170l-90 379zM161 -195v136h181v-51q0 -182 -51 -265h-99q23 89 21 180h-52z" />
    <glyph glyph-name="Lacute" unicode="&#x139;" horiz-adv-x="390" 
d="M255 1130l-53 -160h-157l53 160h157zM209 150h151v-150h-330v920h179v-770z" />
    <glyph glyph-name="lacute" unicode="&#x13a;" horiz-adv-x="390" 
d="M255 1130l-53 -160h-157l53 160h157zM209 150h151v-150h-330v920h179v-770z" />
    <glyph glyph-name="Lcommaaccent" unicode="&#x13b;" horiz-adv-x="390" 
d="M209 150h151v-150h-330v920h179v-770zM108 -195v136h181v-51q0 -182 -51 -265h-99q23 89 21 180h-52z" />
    <glyph glyph-name="lcommaaccent" unicode="&#x13c;" horiz-adv-x="390" 
d="M209 150h151v-150h-330v920h179v-770zM108 -195v136h181v-51q0 -182 -51 -265h-99q23 89 21 180h-52z" />
    <glyph glyph-name="Lcaron" unicode="&#x13d;" horiz-adv-x="502" 
d="M209 920v-770h151v-150h-330v920h179zM257 920h200v-56q0 -200 -56 -292h-110q26 98 24 198h-58v150z" />
    <glyph glyph-name="lcaron" unicode="&#x13e;" horiz-adv-x="502" 
d="M209 920v-770h151v-150h-330v920h179zM257 920h200v-56q0 -200 -56 -292h-110q26 98 24 198h-58v150z" />
    <glyph glyph-name="Ldot" unicode="&#x13f;" horiz-adv-x="499" 
d="M209 920v-770h151v-150h-330v920h179zM368 617q40 0 68 -28t28 -67t-28 -67t-68 -28t-68 28t-28 67t28 67t68 28z" />
    <glyph glyph-name="Lslash" unicode="&#x141;" horiz-adv-x="414" 
d="M233 150h151v-150h-330v247l-54 -45v160l54 45v513h179v-362l127 107v-160l-127 -107v-248z" />
    <glyph glyph-name="lslash" unicode="&#x142;" horiz-adv-x="414" 
d="M233 150h151v-150h-330v247l-54 -45v160l54 45v513h179v-362l127 107v-160l-127 -107v-248z" />
    <glyph glyph-name="Nacute" unicode="&#x143;" horiz-adv-x="564" 
d="M204 970l53 160h157l-53 -160h-157zM30 0v920h227l106 -625h11l-5 122v503h165v-920h-227l-106 625h-11l5 -122v-503h-165z" />
    <glyph glyph-name="nacute" unicode="&#x144;" horiz-adv-x="564" 
d="M204 970l53 160h157l-53 -160h-157zM30 0v920h227l106 -625h11l-5 122v503h165v-920h-227l-106 625h-11l5 -122v-503h-165z" />
    <glyph glyph-name="Ncommaaccent" unicode="&#x145;" horiz-adv-x="564" 
d="M30 0v920h227l106 -625h11l-5 122v503h165v-920h-227l-106 625h-11l5 -122v-503h-165zM209 -375q23 89 21 180h-52v136h181v-51q0 -182 -51 -265h-99z" />
    <glyph glyph-name="ncommaaccent" unicode="&#x146;" horiz-adv-x="564" 
d="M30 0v920h227l106 -625h11l-5 122v503h165v-920h-227l-106 625h-11l5 -122v-503h-165zM209 -375q23 89 21 180h-52v136h181v-51q0 -182 -51 -265h-99z" />
    <glyph glyph-name="Ncaron" unicode="&#x147;" horiz-adv-x="564" 
d="M118 1130h129l28 -70h14l28 70h129l-64 -160h-200zM30 0v920h227l106 -625h11l-5 122v503h165v-920h-227l-106 625h-11l5 -122v-503h-165z" />
    <glyph glyph-name="ncaron" unicode="&#x148;" horiz-adv-x="564" 
d="M118 1130h129l28 -70h14l28 70h129l-64 -160h-200zM30 0v920h227l106 -625h11l-5 122v503h165v-920h-227l-106 625h-11l5 -122v-503h-165z" />
    <glyph glyph-name="Eng" unicode="&#x14a;" horiz-adv-x="575" 
d="M534 64h11v-85q0 -112 -58 -149t-191 -37v137q36 0 52.5 10.5t16.5 39.5v20h-58l-106 625h-11l5 -122v-503h-165v920h227l106 -625h11l-5 122v503h165v-856z" />
    <glyph glyph-name="eng" unicode="&#x14b;" horiz-adv-x="575" 
d="M534 64h11v-85q0 -112 -58 -149t-191 -37v137q36 0 52.5 10.5t16.5 39.5v20h-58l-106 625h-11l5 -122v-503h-165v920h227l106 -625h11l-5 122v503h165v-856z" />
    <glyph glyph-name="Omacron" unicode="&#x14c;" 
d="M88 981v144h318v-144h-318zM247 929q104 0 160.5 -45.5t56.5 -151.5v-544q0 -106 -56.5 -151.5t-160.5 -45.5t-160.5 45.5t-56.5 151.5v544q0 106 56.5 151.5t160.5 45.5zM285 731q0 48 -38 48t-38 -48v-542q0 -48 38 -48t38 48v542z" />
    <glyph glyph-name="omacron" unicode="&#x14d;" 
d="M88 981v144h318v-144h-318zM247 929q104 0 160.5 -45.5t56.5 -151.5v-544q0 -106 -56.5 -151.5t-160.5 -45.5t-160.5 45.5t-56.5 151.5v544q0 106 56.5 151.5t160.5 45.5zM285 731q0 48 -38 48t-38 -48v-542q0 -48 38 -48t38 48v542z" />
    <glyph glyph-name="Ohungarumlaut" unicode="&#x150;" 
d="M49 976l53 160h157l-53 -160h-157zM274 976l53 160h157l-53 -160h-157zM247 929q104 0 160.5 -45.5t56.5 -151.5v-544q0 -106 -56.5 -151.5t-160.5 -45.5t-160.5 45.5t-56.5 151.5v544q0 106 56.5 151.5t160.5 45.5zM285 731q0 48 -38 48t-38 -48v-542q0 -48 38 -48
t38 48v542z" />
    <glyph glyph-name="ohungarumlaut" unicode="&#x151;" 
d="M49 976l53 160h157l-53 -160h-157zM274 976l53 160h157l-53 -160h-157zM247 929q104 0 160.5 -45.5t56.5 -151.5v-544q0 -106 -56.5 -151.5t-160.5 -45.5t-160.5 45.5t-56.5 151.5v544q0 106 56.5 151.5t160.5 45.5zM285 731q0 48 -38 48t-38 -48v-542q0 -48 38 -48
t38 48v542z" />
    <glyph glyph-name="OE" unicode="&#x152;" horiz-adv-x="630" 
d="M464 770v-234h133v-148h-133v-238h136v-150h-268q-39 -9 -85 -9q-104 0 -160.5 45.5t-56.5 151.5v544q0 106 56.5 151.5t160.5 45.5q46 0 85 -9h268v-150h-136zM247 141q38 0 38 48v542q0 48 -38 48t-38 -48v-542q0 -48 38 -48z" />
    <glyph glyph-name="oe" unicode="&#x153;" horiz-adv-x="630" 
d="M464 770v-234h133v-148h-133v-238h136v-150h-268q-39 -9 -85 -9q-104 0 -160.5 45.5t-56.5 151.5v544q0 106 56.5 151.5t160.5 45.5q46 0 85 -9h268v-150h-136zM247 141q38 0 38 48v542q0 48 -38 48t-38 -48v-542q0 -48 38 -48z" />
    <glyph glyph-name="Racute" unicode="&#x154;" horiz-adv-x="490" 
d="M384 1130l-53 -160h-157l53 160h157zM480 0h-161l-64 269h-46v-269h-179v920h254q106 0 141.5 -43t35.5 -154v-268q0 -97 -60 -144zM209 771v-365l45 1q18 1 25 12.5t7 35.5v267q0 28 -9.5 38.5t-34.5 10.5h-33z" />
    <glyph glyph-name="racute" unicode="&#x155;" horiz-adv-x="490" 
d="M384 1130l-53 -160h-157l53 160h157zM480 0h-161l-64 269h-46v-269h-179v920h254q106 0 141.5 -43t35.5 -154v-268q0 -97 -60 -144zM209 771v-365l45 1q18 1 25 12.5t7 35.5v267q0 28 -9.5 38.5t-34.5 10.5h-33z" />
    <glyph glyph-name="Rcommaaccent" unicode="&#x156;" horiz-adv-x="490" 
d="M209 269v-269h-179v920h254q106 0 141.5 -43t35.5 -154v-268q0 -97 -60 -144l79 -311h-161l-64 269h-46zM242 771h-33v-365l45 1q18 1 25 12.5t7 35.5v267q0 28 -9.5 38.5t-34.5 10.5zM148 -195v136h181v-51q0 -182 -51 -265h-99q23 89 21 180h-52z" />
    <glyph glyph-name="rcommaaccent" unicode="&#x157;" horiz-adv-x="490" 
d="M209 269v-269h-179v920h254q106 0 141.5 -43t35.5 -154v-268q0 -97 -60 -144l79 -311h-161l-64 269h-46zM242 771h-33v-365l45 1q18 1 25 12.5t7 35.5v267q0 28 -9.5 38.5t-34.5 10.5zM148 -195v136h181v-51q0 -182 -51 -265h-99q23 89 21 180h-52z" />
    <glyph glyph-name="Rcaron" unicode="&#x158;" horiz-adv-x="490" 
d="M352 970h-200l-64 160h129l28 -70h14l28 70h129zM480 0h-161l-64 269h-46v-269h-179v920h254q106 0 141.5 -43t35.5 -154v-268q0 -97 -60 -144zM209 771v-365l45 1q18 1 25 12.5t7 35.5v267q0 28 -9.5 38.5t-34.5 10.5h-33z" />
    <glyph glyph-name="rcaron" unicode="&#x159;" horiz-adv-x="490" 
d="M352 970h-200l-64 160h129l28 -70h14l28 70h129zM480 0h-161l-64 269h-46v-269h-179v920h254q106 0 141.5 -43t35.5 -154v-268q0 -97 -60 -144zM209 771v-365l45 1q18 1 25 12.5t7 35.5v267q0 28 -9.5 38.5t-34.5 10.5h-33z" />
    <glyph glyph-name="Sacute" unicode="&#x15a;" horiz-adv-x="491" 
d="M170 970l53 160h157l-53 -160h-157zM458 600h-172v132q0 48 -38 48t-38 -48v-113q0 -28 18.5 -50t46.5 -35t60.5 -31.5t60.5 -39.5t46.5 -60t18.5 -92v-124q0 -105 -55 -150.5t-158 -45.5t-157.5 45.5t-54.5 150.5v133h172v-132q0 -48 39 -48q38 0 38 48v113
q0 28 -18.5 50t-46.5 35t-60 31.5t-60 39.5t-46.5 60t-18.5 92v124q0 105 55 150.5t157 45.5t156.5 -45.5t54.5 -150.5v-133z" />
    <glyph glyph-name="sacute" unicode="&#x15b;" horiz-adv-x="491" 
d="M170 970l53 160h157l-53 -160h-157zM458 600h-172v132q0 48 -38 48t-38 -48v-113q0 -28 18.5 -50t46.5 -35t60.5 -31.5t60.5 -39.5t46.5 -60t18.5 -92v-124q0 -105 -55 -150.5t-158 -45.5t-157.5 45.5t-54.5 150.5v133h172v-132q0 -48 39 -48q38 0 38 48v113
q0 28 -18.5 50t-46.5 35t-60 31.5t-60 39.5t-46.5 60t-18.5 92v124q0 105 55 150.5t157 45.5t156.5 -45.5t54.5 -150.5v-133z" />
    <glyph glyph-name="Scedilla" unicode="&#x15e;" horiz-adv-x="491" 
d="M210 619q0 -28 18.5 -50t46.5 -35t60.5 -31.5t60.5 -39.5t46.5 -60t18.5 -92v-124q0 -168 -154 -192l-43 -37q37 -6 65 -30t28 -68q0 -39 -12.5 -64t-37 -36.5t-47.5 -15.5t-56 -4h-37v81h37q44 0 44 39q0 38 -44 38h-37v58l42 37q-173 15 -173 194v133h172v-132
q0 -48 39 -48q38 0 38 48v113q0 28 -18.5 50t-46.5 35t-60 31.5t-60 39.5t-46.5 60t-18.5 92v124q0 105 55 150.5t157 45.5t156.5 -45.5t54.5 -150.5v-133h-172v132q0 48 -38 48t-38 -48v-113z" />
    <glyph glyph-name="scedilla" unicode="&#x15f;" horiz-adv-x="491" 
d="M210 619q0 -28 18.5 -50t46.5 -35t60.5 -31.5t60.5 -39.5t46.5 -60t18.5 -92v-124q0 -168 -154 -192l-43 -37q37 -6 65 -30t28 -68q0 -39 -12.5 -64t-37 -36.5t-47.5 -15.5t-56 -4h-37v81h37q44 0 44 39q0 38 -44 38h-37v58l42 37q-173 15 -173 194v133h172v-132
q0 -48 39 -48q38 0 38 48v113q0 28 -18.5 50t-46.5 35t-60 31.5t-60 39.5t-46.5 60t-18.5 92v124q0 105 55 150.5t157 45.5t156.5 -45.5t54.5 -150.5v-133h-172v132q0 48 -38 48t-38 -48v-113z" />
    <glyph glyph-name="Scaron" unicode="&#x160;" horiz-adv-x="491" 
d="M84 1130h129l28 -70h14l28 70h129l-64 -160h-200zM458 600h-172v132q0 48 -38 48t-38 -48v-113q0 -28 18.5 -50t46.5 -35t60.5 -31.5t60.5 -39.5t46.5 -60t18.5 -92v-124q0 -105 -55 -150.5t-158 -45.5t-157.5 45.5t-54.5 150.5v133h172v-132q0 -48 39 -48q38 0 38 48
v113q0 28 -18.5 50t-46.5 35t-60 31.5t-60 39.5t-46.5 60t-18.5 92v124q0 105 55 150.5t157 45.5t156.5 -45.5t54.5 -150.5v-133z" />
    <glyph glyph-name="scaron" unicode="&#x161;" horiz-adv-x="491" 
d="M84 1130h129l28 -70h14l28 70h129l-64 -160h-200zM458 600h-172v132q0 48 -38 48t-38 -48v-113q0 -28 18.5 -50t46.5 -35t60.5 -31.5t60.5 -39.5t46.5 -60t18.5 -92v-124q0 -105 -55 -150.5t-158 -45.5t-157.5 45.5t-54.5 150.5v133h172v-132q0 -48 39 -48q38 0 38 48
v113q0 28 -18.5 50t-46.5 35t-60 31.5t-60 39.5t-46.5 60t-18.5 92v124q0 105 55 150.5t157 45.5t156.5 -45.5t54.5 -150.5v-133z" />
    <glyph glyph-name="uni0162" unicode="&#x162;" horiz-adv-x="465" 
d="M297 0l-49 -42q37 -6 65 -30t28 -68q0 -39 -12.5 -64t-37 -36.5t-47.5 -15.5t-56 -4h-37v81h37q44 0 44 39q0 38 -44 38h-37v58l51 44h-59v770h-118v150h415v-150h-118v-770h-25z" />
    <glyph glyph-name="uni0163" unicode="&#x163;" horiz-adv-x="465" 
d="M297 0l-49 -42q37 -6 65 -30t28 -68q0 -39 -12.5 -64t-37 -36.5t-47.5 -15.5t-56 -4h-37v81h37q44 0 44 39q0 38 -44 38h-37v58l51 44h-59v770h-118v150h415v-150h-118v-770h-25z" />
    <glyph glyph-name="Tcaron" unicode="&#x164;" horiz-adv-x="465" 
d="M332 970h-200l-64 160h129l28 -70h14l28 70h129zM440 920v-150h-118v-770h-179v770h-118v150h415z" />
    <glyph glyph-name="tcaron" unicode="&#x165;" horiz-adv-x="465" 
d="M332 970h-200l-64 160h129l28 -70h14l28 70h129zM440 920v-150h-118v-770h-179v770h-118v150h415z" />
    <glyph glyph-name="Tbar" unicode="&#x166;" horiz-adv-x="473" 
d="M448 584v-150h-126v-434h-179v434h-105v150h105v186h-118v150h415v-150h-118v-186h126z" />
    <glyph glyph-name="tbar" unicode="&#x167;" horiz-adv-x="473" 
d="M448 584v-150h-126v-434h-179v434h-105v150h105v186h-118v150h415v-150h-118v-186h126z" />
    <glyph glyph-name="Umacron" unicode="&#x16a;" 
d="M88 981v144h318v-144h-318zM464 920v-732q0 -106 -56.5 -151.5t-160.5 -45.5t-160.5 45.5t-56.5 151.5v732h179v-731q0 -48 38 -48t38 48v731h179z" />
    <glyph glyph-name="umacron" unicode="&#x16b;" 
d="M88 981v144h318v-144h-318zM464 920v-732q0 -106 -56.5 -151.5t-160.5 -45.5t-160.5 45.5t-56.5 151.5v732h179v-731q0 -48 38 -48t38 48v731h179z" />
    <glyph glyph-name="Ubreve" unicode="&#x16c;" 
d="M247 970q-93 0 -133 25t-40 95v40h117v-15q0 -36 56 -36t56 36v15h117v-40q0 -70 -40 -95t-133 -25zM464 920v-732q0 -106 -56.5 -151.5t-160.5 -45.5t-160.5 45.5t-56.5 151.5v732h179v-731q0 -48 38 -48t38 48v731h179z" />
    <glyph glyph-name="ubreve" unicode="&#x16d;" 
d="M252 970q-93 0 -133 25t-40 95v40h117v-15q0 -36 56 -36t56 36v15h117v-40q0 -70 -40 -95t-133 -25zM464 920v-732q0 -106 -56.5 -151.5t-160.5 -45.5t-160.5 45.5t-56.5 151.5v732h179v-731q0 -48 38 -48t38 48v731h179z" />
    <glyph glyph-name="Uring" unicode="&#x16e;" 
d="M247 926q-51 0 -83.5 33t-32.5 82t32.5 81.5t83.5 32.5t83.5 -32.5t32.5 -81.5t-32.5 -82t-83.5 -33zM247 1007q15 0 24 9.5t9 24.5t-9.5 24t-23.5 9t-23.5 -9t-9.5 -24t9 -24.5t24 -9.5zM464 920v-732q0 -106 -56.5 -151.5t-160.5 -45.5t-160.5 45.5t-56.5 151.5v732
h179v-731q0 -48 38 -48t38 48v731h179z" />
    <glyph glyph-name="uring" unicode="&#x16f;" 
d="M247 926q-51 0 -83.5 33t-32.5 82t32.5 81.5t83.5 32.5t83.5 -32.5t32.5 -81.5t-32.5 -82t-83.5 -33zM247 1007q15 0 24 9.5t9 24.5t-9.5 24t-23.5 9t-23.5 -9t-9.5 -24t9 -24.5t24 -9.5zM464 920v-732q0 -106 -56.5 -151.5t-160.5 -45.5t-160.5 45.5t-56.5 151.5v732
h179v-731q0 -48 38 -48t38 48v731h179z" />
    <glyph glyph-name="Uhungarumlaut" unicode="&#x170;" 
d="M49 976l53 160h157l-53 -160h-157zM274 976l53 160h157l-53 -160h-157zM464 920v-732q0 -106 -56.5 -151.5t-160.5 -45.5t-160.5 45.5t-56.5 151.5v732h179v-731q0 -48 38 -48t38 48v731h179z" />
    <glyph glyph-name="uhungarumlaut" unicode="&#x171;" 
d="M49 976l53 160h157l-53 -160h-157zM274 976l53 160h157l-53 -160h-157zM464 920v-732q0 -106 -56.5 -151.5t-160.5 -45.5t-160.5 45.5t-56.5 151.5v732h179v-731q0 -48 38 -48t38 48v731h179z" />
    <glyph glyph-name="Uogonek" unicode="&#x172;" 
d="M285 920h179v-732q0 -174 -166 -194q-41 -8 -41 -46q0 -46 53 -46h58l-15 -120h-44q-99 0 -154 42t-55 108q0 47 27 80q-97 41 -97 176v732h179v-731q0 -48 38 -48t38 48v731z" />
    <glyph glyph-name="uogonek" unicode="&#x173;" 
d="M285 920h179v-732q0 -174 -166 -194q-41 -8 -41 -46q0 -46 53 -46h58l-15 -120h-44q-99 0 -154 42t-55 108q0 47 27 80q-97 41 -97 176v732h179v-731q0 -48 38 -48t38 48v731z" />
    <glyph glyph-name="Wcircumflex" unicode="&#x174;" horiz-adv-x="860" 
d="M266 970l64 160h200l64 -160h-129l-28 70h-14l-28 -70h-129zM661 920h174l-73 -920h-278l-49 727h-10l-49 -727h-278l-73 920h174l42 -728h10l53 728h252l53 -728h10z" />
    <glyph glyph-name="wcircumflex" unicode="&#x175;" horiz-adv-x="860" 
d="M266 970l64 160h200l64 -160h-129l-28 70h-14l-28 -70h-129zM661 920h174l-73 -920h-278l-49 727h-10l-49 -727h-278l-73 920h174l42 -728h10l53 728h252l53 -728h10z" />
    <glyph glyph-name="Ycircumflex" unicode="&#x176;" horiz-adv-x="534" 
d="M260 1040l-28 -70h-129l64 160h200l64 -160h-129l-28 70h-14zM343 920h171l-159 -593v-327h-176v327l-159 593h171l71 -336h10z" />
    <glyph glyph-name="ycircumflex" unicode="&#x177;" horiz-adv-x="534" 
d="M260 1040l-28 -70h-129l64 160h200l64 -160h-129l-28 70h-14zM343 920h171l-159 -593v-327h-176v327l-159 593h171l71 -336h10z" />
    <glyph glyph-name="Ydieresis" unicode="&#x178;" horiz-adv-x="534" 
d="M165 982q-31 0 -52 21.5t-21 52.5t21 52.5t52 21.5t52 -21.5t21 -52.5t-21 -52.5t-52 -21.5zM369 982q-31 0 -52 21.5t-21 52.5t21 52.5t52 21.5t52 -21.5t21 -52.5t-21 -52.5t-52 -21.5zM343 920h171l-159 -593v-327h-176v327l-159 593h171l71 -336h10z" />
    <glyph glyph-name="Zacute" unicode="&#x179;" horiz-adv-x="446" 
d="M145 970l53 160h157l-53 -160h-157zM30 0v150l214 607v13h-205v150h377v-150l-220 -607v-13h215v-150h-381z" />
    <glyph glyph-name="zacute" unicode="&#x17a;" horiz-adv-x="446" 
d="M145 970l53 160h157l-53 -160h-157zM30 0v150l214 607v13h-205v150h377v-150l-220 -607v-13h215v-150h-381z" />
    <glyph glyph-name="Zdotaccent" unicode="&#x17b;" horiz-adv-x="446" 
d="M223 982q-32 0 -54.5 21.5t-22.5 52.5t22.5 52.5t54.5 21.5t54.5 -21.5t22.5 -52.5t-22.5 -52.5t-54.5 -21.5zM30 0v150l214 607v13h-205v150h377v-150l-220 -607v-13h215v-150h-381z" />
    <glyph glyph-name="zdotaccent" unicode="&#x17c;" horiz-adv-x="446" 
d="M223 982q-32 0 -54.5 21.5t-22.5 52.5t22.5 52.5t54.5 21.5t54.5 -21.5t22.5 -52.5t-22.5 -52.5t-54.5 -21.5zM30 0v150l214 607v13h-205v150h377v-150l-220 -607v-13h215v-150h-381z" />
    <glyph glyph-name="Zcaron" unicode="&#x17d;" horiz-adv-x="446" 
d="M59 1130h129l28 -70h14l28 70h129l-64 -160h-200zM30 0v150l214 607v13h-205v150h377v-150l-220 -607v-13h215v-150h-381z" />
    <glyph glyph-name="zcaron" unicode="&#x17e;" horiz-adv-x="446" 
d="M59 1130h129l28 -70h14l28 70h129l-64 -160h-200zM30 0v150l214 607v13h-205v150h377v-150l-220 -607v-13h215v-150h-381z" />
    <glyph glyph-name="florin" unicode="&#x192;" horiz-adv-x="754" 
d="M724 599h-179v130q0 48 -38 48t-38 -48v-199h131v-140h-131v-202q0 -106 -56.5 -151.5t-160.5 -45.5t-160.5 45.5t-56.5 151.5v133h179v-132q0 -48 38 -48t38 48v201h-130v140h130v200q0 106 56.5 151.5t160.5 45.5t160.5 -45.5t56.5 -151.5v-131z" />
    <glyph glyph-name="uni01CD" unicode="&#x1cd;" horiz-adv-x="532" 
d="M365 970h-200l-64 160h129l28 -70h14l28 70h129zM339 0l-14 158h-118l-14 -158h-173l91 920h310l91 -920h-173zM219 308h94l-39 450h-16z" />
    <glyph glyph-name="uni01CE" unicode="&#x1ce;" horiz-adv-x="532" 
d="M365 970h-200l-64 160h129l28 -70h14l28 70h129zM339 0l-14 158h-118l-14 -158h-173l91 920h310l91 -920h-173zM219 308h94l-39 450h-16z" />
    <glyph glyph-name="uni01CF" unicode="&#x1cf;" horiz-adv-x="239" 
d="M-44 1130h129l28 -70h14l28 70h129l-64 -160h-200zM30 0v920h179v-920h-179z" />
    <glyph glyph-name="uni01D0" unicode="&#x1d0;" horiz-adv-x="239" 
d="M-44 1130h129l28 -70h14l28 70h129l-64 -160h-200zM30 0v920h179v-920h-179z" />
    <glyph glyph-name="uni01D1" unicode="&#x1d1;" 
d="M83 1130h129l28 -70h14l28 70h129l-64 -160h-200zM247 929q104 0 160.5 -45.5t56.5 -151.5v-544q0 -106 -56.5 -151.5t-160.5 -45.5t-160.5 45.5t-56.5 151.5v544q0 106 56.5 151.5t160.5 45.5zM285 731q0 48 -38 48t-38 -48v-542q0 -48 38 -48t38 48v542z" />
    <glyph glyph-name="uni01D2" unicode="&#x1d2;" 
d="M83 1130h129l28 -70h14l28 70h129l-64 -160h-200zM247 929q104 0 160.5 -45.5t56.5 -151.5v-544q0 -106 -56.5 -151.5t-160.5 -45.5t-160.5 45.5t-56.5 151.5v544q0 106 56.5 151.5t160.5 45.5zM285 731q0 48 -38 48t-38 -48v-542q0 -48 38 -48t38 48v542z" />
    <glyph glyph-name="uni01D3" unicode="&#x1d3;" 
d="M83 1130h129l28 -70h14l28 70h129l-64 -160h-200zM464 920v-732q0 -106 -56.5 -151.5t-160.5 -45.5t-160.5 45.5t-56.5 151.5v732h179v-731q0 -48 38 -48t38 48v731h179z" />
    <glyph glyph-name="uni01D4" unicode="&#x1d4;" 
d="M83 1130h129l28 -70h14l28 70h129l-64 -160h-200zM464 920v-732q0 -106 -56.5 -151.5t-160.5 -45.5t-160.5 45.5t-56.5 151.5v732h179v-731q0 -48 38 -48t38 48v731h179z" />
    <glyph glyph-name="uni01EA" unicode="&#x1ea;" 
d="M247 929q104 0 160.5 -45.5t56.5 -151.5v-544q0 -162 -143 -190v-6q-53 -6 -53 -46q0 -44 53 -44h58l-15 -120h-44q-99 0 -154 42t-55 106q0 46 30 76q-111 39 -111 182v544q0 106 56.5 151.5t160.5 45.5zM209 731v-542q0 -48 38 -48t38 48v542q0 48 -38 48t-38 -48z" />
    <glyph glyph-name="Scommaaccent" unicode="&#x218;" horiz-adv-x="491" 
d="M458 600h-172v132q0 48 -38 48t-38 -48v-113q0 -28 18.5 -50t46.5 -35t60.5 -31.5t60.5 -39.5t46.5 -60t18.5 -92v-124q0 -105 -55 -150.5t-158 -45.5t-157.5 45.5t-54.5 150.5v133h172v-132q0 -48 39 -48q38 0 38 48v113q0 28 -18.5 50t-46.5 35t-60 31.5t-60 39.5
t-46.5 60t-18.5 92v124q0 105 55 150.5t157 45.5t156.5 -45.5t54.5 -150.5v-133zM175 -375q23 89 21 180h-52v136h181v-51q0 -182 -51 -265h-99z" />
    <glyph glyph-name="scommaaccent" unicode="&#x219;" horiz-adv-x="491" 
d="M458 600h-172v132q0 48 -38 48t-38 -48v-113q0 -28 18.5 -50t46.5 -35t60.5 -31.5t60.5 -39.5t46.5 -60t18.5 -92v-124q0 -105 -55 -150.5t-158 -45.5t-157.5 45.5t-54.5 150.5v133h172v-132q0 -48 39 -48q38 0 38 48v113q0 28 -18.5 50t-46.5 35t-60 31.5t-60 39.5
t-46.5 60t-18.5 92v124q0 105 55 150.5t157 45.5t156.5 -45.5t54.5 -150.5v-133zM175 -375q23 89 21 180h-52v136h181v-51q0 -182 -51 -265h-99z" />
    <glyph glyph-name="uni021A" unicode="&#x21a;" horiz-adv-x="465" 
d="M440 920v-150h-118v-770h-179v770h-118v150h415zM128 -195v136h181v-51q0 -182 -51 -265h-99q23 89 21 180h-52z" />
    <glyph glyph-name="uni021B" unicode="&#x21b;" horiz-adv-x="465" 
d="M440 920v-150h-118v-770h-179v770h-118v150h415zM128 -195v136h181v-51q0 -182 -51 -265h-99q23 89 21 180h-52z" />
    <glyph glyph-name="circumflex" unicode="&#x2c6;" horiz-adv-x="328" 
d="M0 680l64 160h200l64 -160h-129l-28 70h-14l-28 -70h-129z" />
    <glyph glyph-name="caron" unicode="&#x2c7;" horiz-adv-x="328" 
d="M0 840h129l28 -70h14l28 70h129l-64 -160h-200z" />
    <glyph glyph-name="breve" unicode="&#x2d8;" horiz-adv-x="346" 
d="M173 680q-93 0 -133 25t-40 95v40h117v-15q0 -36 56 -36t56 36v15h117v-40q0 -70 -40 -95t-133 -25z" />
    <glyph glyph-name="dotaccent" unicode="&#x2d9;" horiz-adv-x="154" 
d="M77 692q-32 0 -54.5 21.5t-22.5 52.5t22.5 52.5t54.5 21.5t54.5 -21.5t22.5 -52.5t-22.5 -52.5t-54.5 -21.5z" />
    <glyph glyph-name="ring" unicode="&#x2da;" horiz-adv-x="232" 
d="M116 636q-51 0 -83.5 33t-32.5 82t32.5 81.5t83.5 32.5t83.5 -32.5t32.5 -81.5t-32.5 -82t-83.5 -33zM116 717q14 0 23.5 9.5t9.5 24.5t-9.5 24t-23.5 9t-23.5 -9t-9.5 -24t9.5 -24.5t23.5 -9.5z" />
    <glyph glyph-name="ogonek" unicode="&#x2db;" horiz-adv-x="268" 
d="M268 0h-56q-55 0 -55 -49t55 -49h56l-15 -120h-44q-101 0 -155 45t-54 124q0 75 55 112t154 37h59v-100z" />
    <glyph glyph-name="tilde" unicode="&#x2dc;" horiz-adv-x="406" 
d="M283 677q-41 0 -67 17t-45 34t-42 17q-22 0 -36.5 -12t-15.5 -33h-77q-1 70 31.5 104.5t91.5 34.5q41 0 67 -17t45 -34t42 -17q22 0 36.5 12t15.5 33h77q1 -70 -31.5 -104.5t-91.5 -34.5z" />
    <glyph glyph-name="hungarumlaut" unicode="&#x2dd;" horiz-adv-x="435" 
d="M0 680l53 160h157l-53 -160h-157zM225 680l53 160h157l-53 -160h-157z" />
    <glyph glyph-name="uni0326" unicode="&#x326;" horiz-adv-x="0" 
d="M-173 -375q23 89 21 180h-52v136h181v-51q0 -182 -51 -265h-99z" />
    <glyph glyph-name="uni0394" unicode="&#x394;" horiz-adv-x="532" 
d="M421 920l91 -920h-492l91 920h310zM207 160h118l-51 598h-16z" />
    <glyph glyph-name="uni03A9" unicode="&#x3a9;" horiz-adv-x="664" 
d="M556 160h83v-160h-263v725q0 50 -44 50t-44 -50v-725h-263v160h83v566q0 113 57 159.5t167 46.5t167 -46.5t57 -159.5v-566z" />
    <glyph glyph-name="uni03BC" unicode="&#x3bc;" 
d="M285 920h179v-732q0 -106 -56.5 -151.5t-160.5 -45.5q-22 0 -32 1v-142h-180v281q-5 28 -5 57v732h185v-762q10 -17 32 -17q38 0 38 48v731z" />
    <glyph glyph-name="pi" unicode="&#x3c0;" horiz-adv-x="734" 
d="M704 760h-100v-530q0 -80 85 -80l-30 -157q-118 0 -176.5 46.5t-58.5 159.5v561h-114v-760h-180v760h-100v160h674v-160z" />
    <glyph glyph-name="Wgrave" unicode="&#x1e80;" horiz-adv-x="860" 
d="M510 970h-157l-53 160h157zM661 920h174l-73 -920h-278l-49 727h-10l-49 -727h-278l-73 920h174l42 -728h10l53 728h252l53 -728h10z" />
    <glyph glyph-name="wgrave" unicode="&#x1e81;" horiz-adv-x="860" 
d="M510 970h-157l-53 160h157zM661 920h174l-73 -920h-278l-49 727h-10l-49 -727h-278l-73 920h174l42 -728h10l53 728h252l53 -728h10z" />
    <glyph glyph-name="Wacute" unicode="&#x1e82;" horiz-adv-x="860" 
d="M352 970l53 160h157l-53 -160h-157zM661 920h174l-73 -920h-278l-49 727h-10l-49 -727h-278l-73 920h174l42 -728h10l53 728h252l53 -728h10z" />
    <glyph glyph-name="wacute" unicode="&#x1e83;" horiz-adv-x="860" 
d="M352 970l53 160h157l-53 -160h-157zM661 920h174l-73 -920h-278l-49 727h-10l-49 -727h-278l-73 920h174l42 -728h10l53 728h252l53 -728h10z" />
    <glyph glyph-name="Wdieresis" unicode="&#x1e84;" horiz-adv-x="860" 
d="M328 982q-31 0 -52 21.5t-21 52.5t21 52.5t52 21.5t52 -21.5t21 -52.5t-21 -52.5t-52 -21.5zM532 982q-31 0 -52 21.5t-21 52.5t21 52.5t52 21.5t52 -21.5t21 -52.5t-21 -52.5t-52 -21.5zM661 920h174l-73 -920h-278l-49 727h-10l-49 -727h-278l-73 920h174l42 -728h10
l53 728h252l53 -728h10z" />
    <glyph glyph-name="wdieresis" unicode="&#x1e85;" horiz-adv-x="860" 
d="M328 982q-31 0 -52 21.5t-21 52.5t21 52.5t52 21.5t52 -21.5t21 -52.5t-21 -52.5t-52 -21.5zM532 982q-31 0 -52 21.5t-21 52.5t21 52.5t52 21.5t52 -21.5t21 -52.5t-21 -52.5t-52 -21.5zM661 920h174l-73 -920h-278l-49 727h-10l-49 -727h-278l-73 920h174l42 -728h10
l53 728h252l53 -728h10z" />
    <glyph glyph-name="uni1E9E" unicode="&#x1e9e;" horiz-adv-x="548" 
d="M404 541q92 -33 92 -167v-199q0 -101 -38.5 -138t-139.5 -37h-83v140h29q28 0 40.5 14.5t12.5 50.5v141q0 36 -12.5 51.5t-40.5 15.5h-29v140l67 227h-93v-780h-179v920h488z" />
    <glyph glyph-name="Ygrave" unicode="&#x1ef2;" horiz-adv-x="534" 
d="M347 970h-157l-53 160h157zM343 920h171l-159 -593v-327h-176v327l-159 593h171l71 -336h10z" />
    <glyph glyph-name="ygrave" unicode="&#x1ef3;" horiz-adv-x="534" 
d="M347 970h-157l-53 160h157zM343 920h171l-159 -593v-327h-176v327l-159 593h171l71 -336h10z" />
    <glyph glyph-name="endash" unicode="&#x2013;" horiz-adv-x="795" 
d="M30 380v160h735v-160h-735z" />
    <glyph glyph-name="emdash" unicode="&#x2014;" horiz-adv-x="880" 
d="M30 380v160h820v-160h-820z" />
    <glyph glyph-name="quoteleft" unicode="&#x2018;" horiz-adv-x="270" 
d="M194 920q-28 -172 -21 -284h62v-154h-200v46q0 228 58 392h101z" />
    <glyph glyph-name="quoteright" unicode="&#x2019;" horiz-adv-x="270" 
d="M76 482q28 172 21 284h-62v154h200v-46q0 -228 -58 -392h-101z" />
    <glyph glyph-name="quotesinglbase" unicode="&#x201a;" horiz-adv-x="270" 
d="M69 -198q26 98 24 198h-58v150h200v-56q0 -200 -56 -292h-110z" />
    <glyph glyph-name="quotedblleft" unicode="&#x201c;" horiz-adv-x="500" 
d="M194 920q-28 -172 -21 -284h62v-154h-200v46q0 228 58 392h101zM424 920q-28 -172 -21 -284h62v-154h-200v46q0 228 58 392h101z" />
    <glyph glyph-name="quotedblright" unicode="&#x201d;" horiz-adv-x="500" 
d="M76 482q28 172 21 284h-62v154h200v-46q0 -228 -58 -392h-101zM306 482q28 172 21 284h-62v154h200v-46q0 -228 -58 -392h-101z" />
    <glyph glyph-name="quotedblbase" unicode="&#x201e;" horiz-adv-x="500" 
d="M76 -220q28 172 21 284h-62v154h200v-46q0 -228 -58 -392h-101zM306 -220q28 172 21 284h-62v154h200v-46q0 -228 -58 -392h-101z" />
    <glyph glyph-name="dagger" unicode="&#x2020;" horiz-adv-x="640" 
d="M595 816v-170h-185v-185h-180v185h-185v170h185v185h180v-185h185z" />
    <glyph glyph-name="daggerdbl" unicode="&#x2021;" horiz-adv-x="640" 
d="M410 816h185v-170h-185v-185h-180v185h-185v170h185v185h180v-185zM410 456v-185h185v-170h-185v-185h-180v185h-185v170h185v185h180z" />
    <glyph glyph-name="bullet" unicode="&#x2022;" horiz-adv-x="459" 
d="M230 300q-66 0 -113 47t-47 113t47 113t113 47q65 0 112 -47t47 -113t-47 -113t-112 -47z" />
    <glyph glyph-name="ellipsis" unicode="&#x2026;" horiz-adv-x="798" 
d="M126 -16q-40 0 -68 28t-28 67t28 67t68 28t68 -28t28 -67t-28 -67t-68 -28zM399 -16q-40 0 -68 28t-28 67t28 67t68 28t68 -28t28 -67t-28 -67t-68 -28zM672 -16q-40 0 -68 28t-28 67t28 67t68 28t68 -28t28 -67t-28 -67t-68 -28z" />
    <glyph glyph-name="perthousand" unicode="&#x2030;" horiz-adv-x="1590" 
d="M235 933q99 0 152 -47.5t53 -158.5v-172q0 -111 -53 -158.5t-152 -47.5t-152 47.5t-53 158.5v172q0 111 53 158.5t152 47.5zM276 0l402 920h170l-402 -920h-170zM273 734q0 49 -38 49t-38 -49v-186q0 -49 38 -49t38 49v186zM889 -13q-99 0 -152 47.5t-53 158.5v172
q0 111 53 158.5t152 47.5t152 -47.5t53 -158.5v-172q0 -111 -53 -158.5t-152 -47.5zM1355 -13q-99 0 -152 47.5t-53 158.5v172q0 111 53 158.5t152 47.5t152 -47.5t53 -158.5v-172q0 -111 -53 -158.5t-152 -47.5zM851 186q0 -49 38 -49t38 49v186q0 49 -38 49t-38 -49v-186z
M1317 186q0 -49 38 -49t38 49v186q0 49 -38 49t-38 -49v-186z" />
    <glyph glyph-name="guilsinglleft" unicode="&#x2039;" horiz-adv-x="475" 
d="M425 140h-181l-194 280l194 280h181l-194 -280z" />
    <glyph glyph-name="guilsinglright" unicode="&#x203a;" horiz-adv-x="475" 
d="M50 140l194 280l-194 280h181l194 -280l-194 -280h-181z" />
    <glyph glyph-name="Euro" unicode="&#x20ac;" horiz-adv-x="549" 
d="M519 588h-179v143q0 48 -38 48t-38 -48v-196h168v-53h-168v-46h168v-53h-168v-196q0 -48 38 -48t38 48v145h179v-146q0 -106 -56.5 -151.5t-160.5 -45.5t-160.5 45.5t-56.5 151.5v197h-55v53h55v46h-55v53h55v197q0 106 56.5 151.5t160.5 45.5t160.5 -45.5t56.5 -151.5
v-144z" />
    <glyph glyph-name="uni2116" unicode="&#x2116;" horiz-adv-x="980" 
d="M763 927q95 0 141 -44.5t46 -150.5v-217q0 -106 -45.5 -150t-141.5 -44t-141.5 44t-45.5 150v217q0 106 46 150.5t141 44.5zM30 0v920h233l87 -625h11l-5 122v503h168v-920h-223l-97 625h-11l5 -122v-503h-168zM793 732q0 26 -7.5 35.5t-22.5 9.5t-22.5 -9.5t-7.5 -35.5
v-211q0 -26 7.5 -35.5t22.5 -9.5t22.5 9.5t7.5 35.5v211zM576 0v160h374v-160h-374z" />
    <glyph glyph-name="trademark" unicode="&#x2122;" horiz-adv-x="355" 
d="M135 920v-36h-35v-167h-40v167h-35v36h110zM261 920h69v-203h-38v164h-6l-17 -164h-52l-17 164h-6v-164h-38v203h69l15 -167h6z" />
    <glyph glyph-name="partialdiff" unicode="&#x2202;" horiz-adv-x="492" 
d="M245 -9q-105 0 -160 45.5t-55 150.5v192q0 100 47.5 141.5t118.5 41.5q55 0 87 -32l1 209q0 48 -38 48q-37 0 -37 -48v-129h-174v131q0 105 53.5 150.5t157.5 45.5q105 0 160.5 -45.5t55.5 -150.5v-554q0 -105 -56 -150.5t-161 -45.5zM246 141q38 0 38 48v173
q0 48 -38 48t-38 -48v-173q0 -48 38 -48z" />
    <glyph glyph-name="product" unicode="&#x220f;" horiz-adv-x="508" 
d="M478 920v-920h-180v760h-88v-760h-180v920h448z" />
    <glyph glyph-name="summation" unicode="&#x2211;" horiz-adv-x="430" 
d="M30 0v160l173 291l-173 309v160h370v-160h-183l165 -296v-26l-165 -278h183v-160h-370z" />
    <glyph glyph-name="minus" unicode="&#x2212;" horiz-adv-x="594" 
d="M30 375v170h534v-170h-534z" />
    <glyph glyph-name="radical" unicode="&#x221a;" horiz-adv-x="566" 
d="M373 920h173l-99 -920h-306l-41 382h-80v160h230l36 -380h16z" />
    <glyph glyph-name="infinity" unicode="&#x221e;" horiz-adv-x="824" 
d="M602 626q85 0 129 -56t44 -149q0 -95 -44 -151t-129 -56q-59 0 -102.5 32t-87.5 93q-44 -61 -87 -93t-102 -32q-86 0 -130 56t-44 151q0 93 44 149t130 56q59 0 102 -32t87 -93q44 61 87.5 93t102.5 32zM240 328q29 0 51 20t64 73q-29 37 -42.5 52t-33 27.5t-39.5 12.5
q-38 0 -55.5 -25.5t-17.5 -66.5q0 -93 73 -93zM584 328q73 0 73 93q0 41 -17.5 66.5t-55.5 25.5q-29 0 -51 -19.5t-64 -72.5q29 -37 42.5 -52.5t33 -28t39.5 -12.5z" />
    <glyph glyph-name="integral" unicode="&#x222b;" horiz-adv-x="754" 
d="M507 927q104 0 160.5 -45.5t56.5 -151.5v-131h-179v130q0 48 -38 48t-38 -48v-541q0 -106 -56.5 -151.5t-160.5 -45.5t-160.5 45.5t-56.5 151.5v133h179v-132q0 -48 38 -48t38 48v541q0 106 56.5 151.5t160.5 45.5z" />
    <glyph glyph-name="approxequal" unicode="&#x2248;" horiz-adv-x="471" 
d="M318 459q-41 0 -67 17t-45 34t-42 17q-22 0 -36.5 -12t-15.5 -33h-77q-1 70 31.5 104.5t91.5 34.5q41 0 67 -17t45 -34t42 -17q22 0 36.5 12t15.5 33h77q1 -70 -31.5 -104.5t-91.5 -34.5zM318 231q-41 0 -67 17t-45 34t-42 17q-22 0 -36.5 -12t-15.5 -33h-77
q-1 70 31.5 104.5t91.5 34.5q41 0 67 -17t45 -34t42 -17q22 0 36.5 12t15.5 33h77q1 -70 -31.5 -104.5t-91.5 -34.5z" />
    <glyph glyph-name="notequal" unicode="&#x2260;" horiz-adv-x="614" 
d="M574 503h-175l-9 -85h184v-170h-202l-27 -248h-165l25 248h-165v170h181l9 85h-190v170h207l24 247h173l-27 -247h157v-170z" />
    <glyph glyph-name="lessequal" unicode="&#x2264;" horiz-adv-x="333" 
d="M303 241l-270 230v198l270 230v-180l-156 -142v-14l156 -142v-180zM30 28v170h270v-170h-270z" />
    <glyph glyph-name="greaterequal" unicode="&#x2265;" horiz-adv-x="333" 
d="M30 241v180l156 142v14l-156 142v180l270 -230v-198zM303 28h-270v170h270v-170z" />
    <glyph glyph-name="lozenge" unicode="&#x25ca;" horiz-adv-x="506" 
d="M100 0l-70 460l70 460h306l70 -460l-70 -460h-306zM245 162h16l44 298l-44 298h-16l-44 -298z" />
    <glyph glyph-name="G.ss01" 
d="M464 602h-178v129q0 48 -39 48t-39 -48v-542q0 -27 10.5 -37.5t32.5 -10.5q44 0 44 48v171l3 25h-51v144h217v-529h-66l-16 81q-15 -48 -51.5 -69t-99.5 -21q-201 0 -201 197v544q0 106 56.5 151.5t160.5 45.5t160.5 -45.5t56.5 -151.5v-130z" />
    <glyph glyph-name="i.loclTRK" horiz-adv-x="239" 
d="M120 982q-32 0 -54.5 21.5t-22.5 52.5t22.5 52.5t54.5 21.5t54.5 -21.5t22.5 -52.5t-22.5 -52.5t-54.5 -21.5zM30 0v920h179v-920h-179z" />
    <glyph glyph-name="g.ss01" 
d="M464 602h-178v129q0 48 -39 48t-39 -48v-542q0 -27 10.5 -37.5t32.5 -10.5q44 0 44 48v171l3 25h-51v144h217v-529h-66l-16 81q-15 -48 -51.5 -69t-99.5 -21q-201 0 -201 197v544q0 106 56.5 151.5t160.5 45.5t160.5 -45.5t56.5 -151.5v-130z" />
    </font>
</defs>
</svg>
