<svg xmlns="http://www.w3.org/2000/svg" width="110.061" height="21.884" viewBox="0 0 110.061 21.884">
    <defs>
        <style>
            .cls-2{fill:#ed1c24;fill-rule:evenodd}
        </style>
    </defs>
    <g id="Group_8159" transform="translate(-332.504 -281.181)" style="isolation:isolate">
        <path id="Path_1837" d="M337.18 281.181l-3.977 6.034h9.759l-10.462 15.85h9.7l10.67-15.715h7.916l4.055-6.169z" class="cls-2"/>
        <path id="Path_1838" d="M403.819 281.181H381.2s-7.353.407-9.914 5.316c-2.541 4.909-1.222 7.955 3.958 8.032h12.921c1.009.039 1.28 2.716-2.076 2.716h-20.936l-4.055 5.82h26.6a11.837 11.837 0 0 0 9.158-6.771c2.638-5.9-2.677-6.79-4.249-6.79h-13.02c-.5 0-1.746-1.96 2.27-2.154h17.83l4.133-6.169z" class="cls-2" transform="translate(-10.687)"/>
        <path id="Path_1839" d="M425.526 281.181s1.028.873-.1 2.871l-10.282 16.219s-1.572 2.794.659 2.794h6.6l15.947-10.632-4.248 7.644s-1.862 2.988.562 2.988h6.325l32.263-21.884-28.112 15.307 7.547-12.824s1.727-2.483 2.833-2.483h-12.649A1.3 1.3 0 0 1 442.6 283c-1.048.757-13.115 9.429-13.115 9.429l5.18-8.963s1.455-2.289 2.93-2.289z" class="cls-2" transform="translate(-30.687)"/>
        <path id="Path_1840" d="M481.418 281.181s1.8 1.261-.931 3.434L470.3 292.9l21.593-11.718z" class="cls-2" transform="translate(-51.503)"/>
    </g>
</svg>
