<svg xmlns="http://www.w3.org/2000/svg" xmlns:xlink="http://www.w3.org/1999/xlink" width="10" height="7" viewBox="0 0 10 7">
    <defs>
        <path id="o9pxw6qz3a" d="M4.65 6.553L.645 1.88c-.193-.225-.193-.59 0-.816l.467-.545c.193-.225.505-.225.699 0L5 4.22 8.19.518c.193-.224.505-.224.698.001l.467.545c.193.225.193.59 0 .816L5.35 6.553c-.193.225-.507.225-.7 0z"/>
    </defs>
    <g fill="none" fill-rule="evenodd">
        <g>
            <g>
                <g>
                    <g transform="translate(-1238 -308) translate(367 279) rotate(-180 440.5 18)">
                        <mask id="dxa92hycob" fill="#fff">
                            <use xlink:href="#o9pxw6qz3a"/>
                        </mask>
                        <use fill="#FFF" fill-opacity="0" xlink:href="#o9pxw6qz3a"/>
                        <g fill="#29152B" mask="url(#dxa92hycob)">
                            <path d="M0 0H16V18.667H0z" transform="translate(-3 -5.833)"/>
                        </g>
                    </g>
                </g>
            </g>
        </g>
    </g>
</svg>
