<?xml version="1.0" encoding="utf-8"?>
<!-- Generator: Adobe Illustrator 23.0.1, SVG Export Plug-In . SVG Version: 6.00 Build 0)  -->
<svg version="1.1" id="Layer_1" xmlns="http://www.w3.org/2000/svg" xmlns:xlink="http://www.w3.org/1999/xlink" x="0px" y="0px"
	 viewBox="0 0 62 62" style="enable-background:new 0 0 62 62;" xml:space="preserve">
<style type="text/css">
	.st0{fill:#2B2B2B;}
	.st1{fill:#D91F26;}
</style>
<circle class="st0" cx="31" cy="31" r="31"/>
<path class="st1" d="M37.9,27.9c0-3.8-3.1-6.9-6.9-6.9c-3.8,0-6.9,3.1-6.9,6.9c0,0.2,0,0.3,0,0.5h0c0,0,0,0,0,0.1
	c0.1,0.8,0.3,1.5,0.6,2.2c0.7,2.1,2.4,5.6,6.3,10.1c0,0,6.5-6.8,6.9-12.4h0C37.9,28.3,37.9,28.1,37.9,27.9z M31,30.6
	c-1.4,0-2.5-1.1-2.5-2.5c0-1.4,1.1-2.5,2.5-2.5c1.4,0,2.5,1.1,2.5,2.5C33.5,29.4,32.4,30.6,31,30.6z"/>
</svg>
