<svg xmlns="http://www.w3.org/2000/svg" width="100.894" height="51.909" viewBox="0 0 100.894 51.909">
    <g>
        <path fill="#d90016" d="M196.244 246.214l-3.918-.011-4.575-.011 4.575-16.018.53-1.828h8.954l-3.112 10.8-2.051 7.072h-.4zm0-23.493l-1.025 3.542h-5.347l-5.635 19.928-8.908.023L181 226.275l-6.741-.012 1.648-5.83h21.007l-.322 1.115zm.346-4.795l-.323.034c.1-.058.207-.126.323-.2.668-.4 1.371-.794 2.109-1.184a36.59 36.59 0 0 1 13.69-4.013c.979-.081 1.97-.127 2.973-.115a32.142 32.142 0 0 1 10.221 1.713 28.1 28.1 0 0 1 12.2 8.245 26.146 26.146 0 0 1 1.637 2.127 19.415 19.415 0 0 0-1.637-1.207 29.8 29.8 0 0 0-12.2-4.071 42.044 42.044 0 0 0-6.488-.322 32.227 32.227 0 0 0-6.707.851 38.018 38.018 0 0 0-10.648 4.623 6.117 6.117 0 0 0 .184-1.38 5.139 5.139 0 0 0-3.226-4.807 4.742 4.742 0 0 0-1.763-.31c-.115 0-.23 0-.345.011m-.346 35.314h-.668l.668-2.115.069-.242h7.052c4.724-.012 7.236-1.587 8.147-4.7.012-.023.369-1.023.438-1.345l-.9.632a5.136 5.136 0 0 1-2.858.725h-4.218c-2.466 0-4.033-1.024-3.1-4.255l2.892-10.188a4.241 4.241 0 0 1 4.079-3.415h4.54s1.8.151 2.5.268a2.054 2.054 0 0 1 1.668 1.22c.222-1.442.333-1.489.333-1.489h9.174l-.484 1.7-4.575 16.122c-.783 2.633-.979 6.2-8.619 6.934a30.623 30.623 0 0 1-3.065.138l-10.625.011h-2.455zm16.145-21.035c-.714.483-.876 1.288-1.176 2.162l-1.947 6.9c-.368 1.346.035 1.633 1.475 1.622h1.694l3.2-11.166-1.175.011a3.689 3.689 0 0 0-2.074.472m13.194 12.982c-.541-.678-.68-1.748-.242-3.312l.242-.8 2.708-9.291a4.314 4.314 0 0 1 4.022-3.427l5.473-.011h8.677a4.094 4.094 0 0 1 2.6.506c.691.541 1.094 1.621.484 3.76l-.484 1.564-.518 1.679-10.763 1.679-3.054.483-.922 3.174c-.311 1.023-.023 1.644 1.452 1.644l1.717-.011.806-2.748.357-1.23 9.576-.023-1.118 3.91c-.553 1.886-2.524 3.473-4.056 3.473h-14.05a3.582 3.582 0 0 1-2.9-1.012m12.2-13.316c-1.475.322-1.659 1.254-2.039 2.4l-.426 1.656c.818-.23 1.636-.46 2.466-.69.5-.138.991-.288 1.5-.425l.957-3.07h-1.175a5.632 5.632 0 0 0-1.279.126m11.282 14.328h-.773l.772-2.737 4.3-15.121h9.76l-.392 1.2s3.042-.8 5.531-1.426c3.63-.9 6.868-.023 5.923 3.369l-.818 2.84-10.809 3.277c.9-1.185 2.477-3.254 3.111-4.151.392-.552 1.233-2.047-.219-1.909-1.152.057-3.3.322-3.3.322l-4.183 14.339z" transform="translate(-170.294 -212.451) translate(-3.166)"/>
        <path fill="#161615" d="M185.92 405.323h.933l-.933 1.483-4.563 7.233-3.918.011.611-6.716-3.8 6.716h-3.952q.19-4.364.368-8.728h3.134c-.265 2.231-.53 4.473-.784 6.7l3.837-6.693 3.883-.011-.634 6.7 3.768-6.7zm0 5.888c.864-2.6 1.751-5.209 2.593-7.808l2.95.011-1.637 5.06a4.908 4.908 0 0 1 3.273-1.115c2.362 0 2.858 1.253 2.432 2.61l-1.372 4.071h-2.973c.346-1.046.7-2.1 1.06-3.151.1-.333.657-1.644-.83-1.644a2.55 2.55 0 0 0-2.535 2.047l-.922 2.748h-2.974q.467-1.4.934-2.829m15.326-2.369c-.622.138-1.533.517-1.682 1.311h3.307c.253-1-.357-1.368-1.2-1.368a2.423 2.423 0 0 0-.426.058m0 2.587h-2.1c-.311 1.3 1.59 1.253 2.1 1.253h.034a8.53 8.53 0 0 0 2.812-.506l-.553 1.61a8.154 8.154 0 0 1-2.293.368c-.4.034-.761.034-1 .034-2.846 0-4.6-1.265-3.872-3.427a5.468 5.468 0 0 1 4.875-3.358 7.509 7.509 0 0 1 .9-.058c3.192 0 3.768 1.725 3.122 3.668l-.138.414zm9.806-2.61a2.377 2.377 0 0 0-1.682 1.322h1.682l1.625.011c.2-.667-.058-1.368-1.2-1.368a2.463 2.463 0 0 0-.426.034m0 2.6h-2.074c-.426 1.058.726 1.253 2.074 1.265a8.518 8.518 0 0 0 2.846-.506l-.553 1.6a8.485 8.485 0 0 1-2.293.4c-.472.023-.853.023-1 .011-2.869 0-4.609-1.265-3.872-3.427.634-1.92 2.57-3.128 4.874-3.369a7.359 7.359 0 0 1 .876-.057c3.226 0 3.8 1.725 3.146 3.68l-.138.414zm4.632 2.622q1.417-4.709 2.869-9.429c.933-.012 1.867-.012 2.8-.012h.185c-.058.207-.127.414-.185.621q-1.349 4.416-2.685 8.82zm5.67-.874a1.314 1.314 0 0 1-.092-1.208 2.076 2.076 0 0 1 .092-.241 3.532 3.532 0 0 1 2.42-1.725 1.335 1.335 0 0 1-.622-1.6 2.538 2.538 0 0 1 1.8-1.46 7.067 7.067 0 0 1 1.395-.242 4.23 4.23 0 0 1 .542-.023c1.659 0 3.146.425 2.7 1.782-.3.92-1.5 1.38-2.65 1.828.438.379.853.759 1.245 1.162a2.583 2.583 0 0 0 1.06-1.322h2.224c-.415 1.127-.784 1.575-2.282 2.484a10.9 10.9 0 0 1 1.2 1.437h-2.708a1.6 1.6 0 0 0-.391-.552 5.518 5.518 0 0 1-.933.391 6.6 6.6 0 0 1-1.395.253c-.276.023-.564.034-.829.034a3.279 3.279 0 0 1-2.766-1m3.6-2.07c-.057-.057-.127-.115-.184-.173-1 .368-1.152.782-1.187 1s-.173.989 1.187.989h.184a3.458 3.458 0 0 0 1.395-.391c-.438-.506-.911-.966-1.395-1.426m1.395-3.231c-.438.034-.968.23-1.037.632-.069.333.046.563.576.977.15-.057.3-.115.461-.184.449-.2.91-.437 1.025-.793.15-.437-.265-.644-.853-.644a.862.862 0 0 0-.173.012m12.41 9c-.127.012-.242.012-.346.012a11.058 11.058 0 0 1-1.775-.15c.242-.586.507-1.173.761-1.748a4.106 4.106 0 0 0 1.118.126 1.74 1.74 0 0 0 .242-.011 2.122 2.122 0 0 0 1.556-.909c-.4-2.2-.576-2.967-1.244-6.819 1.072 0 2.132-.011 3.2-.011.138 1.46.277 2.909.4 4.358l3.215-4.358h2.961l-.714.851c-1.487 1.794-2.962 3.588-4.448 5.37a6.394 6.394 0 0 1-4.932 3.288m0-10.119h-1.106l-2.4 7.29H232.2l2.4-7.29h-2.835l.588-1.759h8.516l-.415 1.759zm9.38 7.29h-.714c.242-.736.472-1.472.714-2.208.484-1.5.968-2.978 1.452-4.473.9 0 1.786 0 2.708-.012-.15.414-.3.828-.415 1.242h.034a4.707 4.707 0 0 1 3-1.392c.15 0 .288 0 .426.011q.295.034.553.069c-.184.46-.369.909-.553 1.357-.08.2-.15.38-.23.563a4.019 4.019 0 0 0-.968-.08 2.872 2.872 0 0 0-2.846 2.093l-.91 2.829zm7.2-.978a2.274 2.274 0 0 1-.391-2.38 3.97 3.97 0 0 1 .391-.874 5.83 5.83 0 0 1 4.448-2.564 7.551 7.551 0 0 1 .9-.058c3.215 0 3.78 1.759 3.134 3.76l-.15.414h-3.883c-.691 0-1.371.012-2.063.012-.311 1.092.207 1.265 2.063 1.276h.058a8.17 8.17 0 0 0 2.8-.518l-.553 1.633a11.727 11.727 0 0 1-2.3.368c-.519.046-.91.057-.991.057a4.638 4.638 0 0 1-3.457-1.127m4.448-4.358a2.157 2.157 0 0 0-1.66 1.357h3.307c.034-.552-.092-1.4-1.21-1.4a1.756 1.756 0 0 0-.438.046" transform="translate(-170.294 -212.451) translate(0 -152.519)"/>
    </g>
</svg>
