<svg xmlns="http://www.w3.org/2000/svg" width="15" height="15" viewBox="0 0 15 15">
    <g>
        <path d="M6.625 7.14h1.044l1.565 6.438a2.037 2.037 0 0 0 .743 3.922h8.287a.572.572 0 1 0 0-1.14H9.977a.907.907 0 0 1 0-1.792h8.287a.625.625 0 0 0 .588-.377l2.111-5.341a.528.528 0 0 0-.077-.521.645.645 0 0 0-.511-.242H9.18l-.4-1.645A.615.615 0 0 0 8.171 6H6.625a.572.572 0 1 0 0 1.14zm12.86 2.092l-1.66 4.2h-7.347l-1.021-4.2z" transform="translate(-6 -6)"/>
        <path d="M19.261 50a.917.917 0 0 0 0 1.833h1.164a.917.917 0 1 0 0-1.833z" transform="translate(-6 -6) translate(-8.771 -30.834)"/>
        <path d="M37.713 50a.917.917 0 0 0 0 1.833h1.164a.917.917 0 1 0 0-1.833z" transform="translate(-6 -6) translate(-21.881 -30.834)"/>
    </g>
</svg>
