<?xml version="1.0" encoding="utf-8"?>
<!-- Generator: Adobe Illustrator 23.0.2, SVG Export Plug-In . SVG Version: 6.00 Build 0)  -->
<svg version="1.1" id="Layer_1" xmlns="http://www.w3.org/2000/svg" xmlns:xlink="http://www.w3.org/1999/xlink" x="0px" y="0px"
	 viewBox="0 0 14.2 14.2" style="enable-background:new 0 0 14.2 14.2;" xml:space="preserve">
<style type="text/css">
	.st0{fill:#FFFFFF;}
</style>
<path class="st0" d="M10,0C8.9,0,7.8,0.5,7.1,1.3C6.3,0.5,5.3,0,4.1,0C1.8,0.1-0.1,2.1,0,4.5c0,3.6,6.4,9.3,6.7,9.5
	c0.2,0.2,0.5,0.2,0.8,0c0.3-0.2,6.7-5.7,6.7-9.5C14.3,2.1,12.4,0.1,10,0z M7.1,12.8c-2-1.8-5.9-5.9-5.9-8.3c-0.1-1.7,1.2-3.2,3-3.3
	c1,0,1.9,0.6,2.4,1.4C6.8,2.9,7.1,3,7.4,2.8c0.1,0,0.1-0.1,0.2-0.2C8.1,1.8,9,1.2,10,1.2c1.7,0.1,3,1.6,3,3.3C13,7,9,11.1,7.1,12.8z
	"/>
</svg>
