<svg xmlns="http://www.w3.org/2000/svg" width="14.175" height="14.175" viewBox="0 0 14.175 14.175">
    <path d="M16.034 6a3.978 3.978 0 0 0-2.946 1.335A3.979 3.979 0 0 0 10.142 6 4.334 4.334 0 0 0 6 10.5c0 3.618 6.425 9.293 6.7 9.533a.591.591 0 0 0 .771.007c.274-.232 6.706-5.725 6.706-9.54A4.334 4.334 0 0 0 16.034 6zm-2.94 12.8c-1.951-1.786-5.912-5.908-5.912-8.3a3.156 3.156 0 0 1 2.96-3.314 2.888 2.888 0 0 1 2.443 1.443.591.591 0 0 0 1.007 0 2.888 2.888 0 0 1 2.443-1.443 3.156 3.156 0 0 1 2.96 3.314c-.001 2.527-3.951 6.562-5.901 8.3z" transform="translate(-6 -6)"/>
</svg>
