<svg xmlns="http://www.w3.org/2000/svg" width="14" height="8" viewBox="0 0 14 8">
    <g fill="none" fill-rule="evenodd">
        <g fill="#000" fill-rule="nonzero">
            <g>
                <g>
                    <path d="M437.761 271c-2.58 0-4.935 1.354-6.66 3.571-.135.187-.135.432 0 .62 1.725 2.203 4.08 3.556 6.66 3.556s4.935-1.353 6.66-3.571c.135-.187.135-.432 0-.62-1.725-2.202-4.08-3.556-6.66-3.556zm.18 6.595c-1.71.101-3.135-1.253-3.03-2.909.09-1.353 1.245-2.462 2.655-2.548 1.71-.101 3.135 1.252 3.03 2.908-.09 1.368-1.23 2.463-2.655 2.55zm-.075-1.253c-.93.058-1.68-.676-1.635-1.57.045-.734.66-1.324 1.425-1.367.93-.058 1.68.677 1.635 1.57-.045.72-.675 1.324-1.425 1.367z" transform="translate(-1101 -378) translate(670 107)"/>
                </g>
            </g>
        </g>
    </g>
</svg>
