<svg xmlns="http://www.w3.org/2000/svg" width="13" height="13" viewBox="0 0 13 13">
    <path d="M6.891 11.985l.284-.239v6.712a.542.542 0 0 0 .541.542h9.567a.542.542 0 0 0 .542-.542v-6.712l.284.239a.542.542 0 0 0 .7-.828l-2.6-2.2V6.9a.542.542 0 1 0-1.083 0v1.148l-2.275-1.92a.542.542 0 0 0-.7 0l-5.958 5.03a.542.542 0 1 0 .7.828zm4.4 5.931v-3.91h2.421v3.911zM12.5 7.25l4.242 3.581v7.085h-1.948v-4.452a.542.542 0 0 0-.542-.542h-3.5a.542.542 0 0 0-.542.542v4.452H8.258v-7.084z" transform="translate(-6 -6)"/>
</svg>
