<svg xmlns="http://www.w3.org/2000/svg" xmlns:xlink="http://www.w3.org/1999/xlink" width="14" height="14" viewBox="0 0 14 14">
    <defs>
        <path id="ff5enklqja" d="M7 0C3.134 0 0 3.135 0 7c0 3.867 3.134 7 7 7s7-3.133 7-7c0-3.865-3.134-7-7-7zm0 12.645c-3.12 0-5.645-2.524-5.645-5.645C1.355 3.881 3.88 1.355 7 1.355c3.119 0 5.645 2.525 5.645 5.645 0 3.12-2.524 5.645-5.645 5.645zM6.889 8.35c.496 0 .9.404.9.9 0 .497-.404.9-.9.9s-.9-.403-.9-.9c0-.496.404-.9.9-.9zm.124-4.587c1.052 0 2.175.821 2.175 1.904 0 1.437-1.553 1.459-1.553 1.99v.136c0 .142-.115.257-.257.257H6.4c-.142 0-.257-.115-.257-.257v-.186c0-.766.58-1.072 1.02-1.318.376-.211.606-.355.606-.634 0-.37-.471-.615-.852-.615-.497 0-.727.235-1.05.642-.086.11-.245.13-.356.046l-.597-.452c-.11-.083-.134-.238-.057-.351.507-.744 1.152-1.162 2.156-1.162z"/>
    </defs>
    <g fill="none" fill-rule="evenodd">
        <g>
            <g>
                <g transform="translate(-1295 -445) translate(500 119) translate(795 326)">
                    <mask id="7k3tobks7b" fill="#fff">
                        <use xlink:href="#ff5enklqja"/>
                    </mask>
                    <use fill="#FFF" fill-opacity="0" fill-rule="nonzero" xlink:href="#ff5enklqja"/>
                    <g fill="#C2C2C2" mask="url(#7k3tobks7b)">
                        <path d="M0 0H14V14H0z"/>
                    </g>
                </g>
            </g>
        </g>
    </g>
</svg>
