<svg xmlns="http://www.w3.org/2000/svg" xmlns:xlink="http://www.w3.org/1999/xlink" width="16" height="16" viewBox="0 0 16 16">
    <defs>
        <path id="zhtekhdcca" d="M15.596 4.378c0 5.613-3.065 9.93-6.737 11.46-.52.216-1.105.216-1.625 0C3.427 14.25.5 9.743.5 4.378c0-.855.515-1.626 1.303-1.952L7.238.162c.52-.216 1.103-.216 1.624 0l5.434 2.264c.786.327 1.3 1.098 1.3 1.952zm-1.881-.556L8.282 1.558c-.149-.061-.316-.061-.464 0L2.383 3.823c-.224.092-.37.312-.37.555 0 4.761 2.566 8.715 5.801 10.064.149.061.316.061.464 0 3.123-1.3 5.806-5.08 5.806-10.064 0-.243-.147-.463-.37-.556zm-6.317 6.304l4.165-4.165c.142-.142.142-.371 0-.513l-.512-.512c-.141-.141-.37-.141-.512 0L7.142 8.333 5.556 6.747c-.142-.141-.37-.141-.512 0l-.513.512c-.141.142-.141.371 0 .513l2.355 2.354c.141.141.37.141.512 0z"/>
    </defs>
    <g fill="none" fill-rule="evenodd">
        <g>
            <g>
                <g>
                    <g transform="translate(-1049 -521) translate(1029 125) translate(20 393) translate(0 3)">
                        <mask id="idjka47bqb" fill="#fff">
                            <use xlink:href="#zhtekhdcca"/>
                        </mask>
                        <use fill="#FFF" fill-opacity="0" fill-rule="nonzero" xlink:href="#zhtekhdcca"/>
                        <g fill="#E00" mask="url(#idjka47bqb)">
                            <path d="M0 0H16V16H0z"/>
                        </g>
                    </g>
                </g>
            </g>
        </g>
    </g>
</svg>
