<?xml version="1.0" encoding="utf-8"?>
<!-- Generator: Adobe Illustrator 16.0.0, SVG Export Plug-In . SVG Version: 6.00 Build 0)  -->
<!DOCTYPE svg PUBLIC "-//W3C//DTD SVG 1.1//EN" "http://www.w3.org/Graphics/SVG/1.1/DTD/svg11.dtd">
<svg version="1.1" id="Layer_1" xmlns="http://www.w3.org/2000/svg" xmlns:xlink="http://www.w3.org/1999/xlink" x="0px" y="0px"
	 width="20px" height="20px" viewBox="0 0 20 20" enable-background="new 0 0 20 20" xml:space="preserve">
<path fill="none" d="M0,0h20v20H0V0z"/>
<path fill="#D90016" d="M15.27,15.399c-0.335,0.982-1.403,1.506-2.385,1.171c-0.551-0.188-0.982-0.62-1.171-1.171H3.967
	c-0.351,0-0.635-0.284-0.634-0.635s0.284-0.635,0.634-0.635h7.747c0.336-0.982,1.403-1.506,2.386-1.17
	c0.551,0.188,0.982,0.62,1.17,1.17h0.764c0.351,0,0.635,0.284,0.635,0.635c0,0.352-0.284,0.635-0.635,0.635l0,0H15.27z
	 M12.857,14.765c0,0.352,0.283,0.635,0.635,0.635c0.351,0,0.635-0.283,0.635-0.635c0-0.351-0.284-0.635-0.635-0.635
	c-0.331-0.02-0.615,0.232-0.635,0.563C12.855,14.717,12.855,14.741,12.857,14.765z M11.777,5.875
	c-0.336,0.982-1.405,1.506-2.387,1.17c-0.55-0.188-0.982-0.62-1.17-1.17H3.967c-0.331,0.02-0.615-0.232-0.635-0.563
	c-0.001-0.026-0.001-0.052,0-0.078c-0.02-0.331,0.232-0.615,0.563-0.635c0.024-0.001,0.048-0.001,0.072,0h4.254
	c0.335-0.982,1.404-1.506,2.386-1.17c0.551,0.188,0.982,0.62,1.17,1.17h4.256c0.33-0.02,0.615,0.232,0.635,0.563
	c0.002,0.024,0.002,0.048,0,0.072c0.02,0.331-0.232,0.615-0.563,0.635c-0.024,0.001-0.049,0.001-0.072,0L11.777,5.875z M9.365,5.235
	c0,0.351,0.284,0.635,0.635,0.635s0.635-0.285,0.635-0.635S10.35,4.601,10,4.601S9.365,4.885,9.365,5.235z M16.033,10.636H8.285
	c-0.339,0.98-1.409,1.502-2.39,1.162c-0.545-0.188-0.974-0.617-1.163-1.162H3.967c-0.351,0-0.635-0.284-0.635-0.635
	s0.284-0.635,0.634-0.636c0,0,0.001,0,0.001,0h0.765c0.336-0.982,1.404-1.506,2.386-1.17c0.55,0.188,0.982,0.62,1.17,1.17h7.745
	c0.351,0,0.635,0.285,0.635,0.635S16.384,10.636,16.033,10.636z M5.873,10.002c-0.02,0.331,0.232,0.616,0.563,0.635
	c0.024,0.002,0.048,0.002,0.072,0c0.351,0,0.635-0.285,0.635-0.635S6.858,9.368,6.507,9.368C6.177,9.348,5.893,9.6,5.873,9.93
	C5.871,9.954,5.871,9.979,5.873,10.002z"/>
</svg>
