<svg xmlns="http://www.w3.org/2000/svg" width="20" height="20" viewBox="0 0 20 20">
    <path fill="none" d="M0 0H20V20H0z"/>
    <path d="M14.437 14.564a1.879 1.879 0 0 1-3.556 0H3.135a.635.635 0 0 1 0-1.27h7.746a1.879 1.879 0 0 1 3.556 0h.763a.635.635 0 0 1 0 1.27zm-2.413-.635a.635.635 0 1 0 .635-.635.6.6 0 0 0-.635.635zm-1.08-8.889a1.879 1.879 0 0 1-3.556 0H3.135A.6.6 0 0 1 2.5 4.4a.6.6 0 0 1 .635-.635h4.254a1.879 1.879 0 0 1 3.556 0H15.2a.6.6 0 0 1 .635.635.6.6 0 0 1-.635.635zM8.532 4.4a.635.635 0 1 0 1.27 0 .635.635 0 1 0-1.27 0zM15.2 9.8H7.452a1.879 1.879 0 0 1-3.552 0h-.765a.635.635 0 1 1 0-1.27H3.9a1.879 1.879 0 0 1 3.556 0H15.2a.635.635 0 0 1 0 1.27zM5.04 9.167a.6.6 0 0 0 .635.635.635.635 0 0 0 0-1.27.6.6 0 0 0-.635.635z" transform="translate(.833 .833)"/>
</svg>
