<svg xmlns="http://www.w3.org/2000/svg" width="284.719" height="47.719" viewBox="0 0 284.719 47.719">
    <path fill="#070707" d="M31.768-13.962a24.173 24.173 0 0 1 5.109.516 33.126 33.126 0 0 1 4.641 1.359v-1.969l10.219 8.344v2.625a16.066 16.066 0 0 0-8.86-5.2 21.34 21.34 0 0 0-10.777.231A18.608 18.608 0 0 0 22.956-2.1q-3.845 4.45-3.844 11.857a19.182 19.182 0 0 0 3.422 11.625 19.206 19.206 0 0 0 8.437 6.7 19.574 19.574 0 0 0 10.688 1.078 18.007 18.007 0 0 0 10.078-5.437 29.744 29.744 0 0 0 0 3.468 29.76 29.76 0 0 1-9.137 4.738 34.588 34.588 0 0 1-10.828 1.734 24.53 24.53 0 0 1-17.672-6.89 22.342 22.342 0 0 1-7.176-16.735A21.023 21.023 0 0 1 8.987.851 25.321 25.321 0 0 1 14.471-6.7a26.667 26.667 0 0 1 7.922-5.156 26.227 26.227 0 0 1 9.375-2.106zm7.875 10.313A11.581 11.581 0 0 1 48.6.663a14.957 14.957 0 0 1 3.8 10.219A14.739 14.739 0 0 1 48.6 21.1a11.761 11.761 0 0 1-18.047 0A14.844 14.844 0 0 1 26.8 10.882 15.065 15.065 0 0 1 30.549.663a11.629 11.629 0 0 1 9.094-4.312zm.375 2.718A2.4 2.4 0 0 0 37.3 1.788v18.563a2.4 2.4 0 0 0 2.719 2.718 2.4 2.4 0 0 0 2.719-2.718V1.788a2.4 2.4 0 0 0-2.72-2.719zm13.875-1.687h11.625v1.687q6.938-3.375 10.641-2.3a7.721 7.721 0 0 1 5.2 5.015v20.348h2.719v2.344H71.706V2.163q-.47-1.5-3.094-1.969-2.719 0-2.719 2.344v19.594h2.344v2.344H53.893v-2.344h2.344V-.181h-2.344zm31.875.375l12-11.25v11.25h2.813V.1h-2.813v22.032h2.625v2.344H85.768v-2.344h2.344V.1h-2.344zm16.125 0h11.625v24.375h2.719v2.344h-14.344v-2.344h2.719V-.087h-2.719zm6.75-11.063a6.094 6.094 0 0 1 3.938 1.36 4.045 4.045 0 0 1 1.687 3.234 4.128 4.128 0 0 1-1.687 3.328 6.089 6.089 0 0 1-3.938 1.36 6.035 6.035 0 0 1-3.984-1.36 4.168 4.168 0 0 1-1.641-3.328 4.082 4.082 0 0 1 1.641-3.234 6.04 6.04 0 0 1 3.984-1.36zM118.3-2.243h11.625v1.125q6.938-3.375 10.641-2.25a7.852 7.852 0 0 1 5.2 4.969v20.531h2.718v2.344h-12.372v-22.5Q135.642.382 133.018.1 130.3.1 130.3 2.351v19.781h2.344v2.344H118.3v-2.344h2.344V.1H118.3zm43.219-.75a13.79 13.79 0 0 1 9.937 4.359 11.482 11.482 0 0 1 3.563 10.266h-16.314v6.75q1.595 5.625 6.328 4.734t6.8-7.359h2.625a15.029 15.029 0 0 1-4.922 7.359 12.349 12.349 0 0 1-8.015 2.86 12.678 12.678 0 0 1-9.61-4.266 14.508 14.508 0 0 1-3.984-10.266 14.387 14.387 0 0 1 3.984-10.171 12.678 12.678 0 0 1 9.607-4.266zm-.094 1.875a2.4 2.4 0 0 0-2.72 2.718v7.782h5.438V1.6a2.4 2.4 0 0 0-2.719-2.719zm14.156-.938h11.625v1.782q6.938-3.469 10.641-2.344a7.854 7.854 0 0 1 5.2 4.969v19.781h2.719v2.344h-12.373V2.726q-.47-1.407-3.094-1.875-2.72 0-2.719 2.343v18.938h2.344v2.344H175.58v-2.344h2.344V.851h-2.344zm31.219.75l12-11.25v11.25h2.812v2.25H218.8v21.188h2.531v2.344H206.8v-2.344h2.25V.944h-2.25zm16.687.844q1.313-2.062 4.969-2.906a24.064 24.064 0 0 1 7.5-.516 17.514 17.514 0 0 1 6.891 1.969 5.227 5.227 0 0 1 3.14 4.547v19.406h2.25l.094 2.25-11.25.094v-1.594a11.186 11.186 0 0 1-2.344 1.969 7.329 7.329 0 0 1-3.75.75 7 7 0 0 1-4.828-1.547 9.94 9.94 0 0 1-2.578-3.516 13.024 13.024 0 0 1-1.031-3.75q-.187-1.781-.188-2.25a8.908 8.908 0 0 1 .141-2.156 13.686 13.686 0 0 1 1.078-3.7 10.081 10.081 0 0 1 2.578-3.469 7 7 0 0 1 4.828-1.547 11.59 11.59 0 0 1 2.672.375 9.748 9.748 0 0 1 3.422 1.782v-4.5a6.24 6.24 0 0 0-5.812-2.2q-3.562.422-7.782 4.078zm10.969 7.219q-2.53 0-2.531 2.719v9.281a2.7 2.7 0 0 0 .75 1.922 2.366 2.366 0 0 0 1.781.8q2.345 0 2.344-2.719V9.476q0-2.719-2.344-2.719zm15.188-20.25h12v35.625h2.531v2.344h-14.532v-2.344h2.25v-33.375h-2.25zm29.25-.469a12.274 12.274 0 0 1 9 3.75 12.274 12.274 0 0 1 3.75 9 12.229 12.229 0 0 1-3.75 9.047 12.351 12.351 0 0 1-9 3.7 12.3 12.3 0 0 1-9.047-3.7 12.306 12.306 0 0 1-3.7-9.047 12.351 12.351 0 0 1 3.7-9 12.227 12.227 0 0 1 9.046-3.75zm0 .563a11.672 11.672 0 0 0-8.625 3.609 11.8 11.8 0 0 0-3.569 8.578 11.9 11.9 0 0 0 3.563 8.672 11.672 11.672 0 0 0 8.625 3.609 11.823 11.823 0 0 0 8.671-3.609 11.822 11.822 0 0 0 3.61-8.672 11.715 11.715 0 0 0-3.61-8.578 11.823 11.823 0 0 0-8.666-3.61zm-8.158 15.562l-2.343.75-.094-.281 2.062-.656-.375-1.125.282-.094zm-1.5-2.812a.382.382 0 0 1-.281.093.548.548 0 0 1-.375-.093.73.73 0 0 1-.094-.282.709.709 0 0 0 .094-.281c.125-.125.219-.187.281-.187a.539.539 0 0 1 .375.187c.063 0 .094.094.094.281a.383.383 0 0 1-.094.282zm2.157-5.438a.769.769 0 0 0-.282-.469l.188-.187q.375.375.375.562a1.6 1.6 0 0 1-.094.657 1.591 1.591 0 0 1-.469.468.663.663 0 0 1-.562.094 1.506 1.506 0 0 1-.656-.187 2.028 2.028 0 0 1-.469-.375.765.765 0 0 1-.188-.563 1.617 1.617 0 0 1 .094-.656l.469-.469h.656l-.094.281a.741.741 0 0 0-.468.094c-.125 0-.219.094-.282.281a.749.749 0 0 0-.093.469.539.539 0 0 0 .187.375 1.456 1.456 0 0 0 .375.281 1.647 1.647 0 0 0 .469.188.74.74 0 0 0 .469-.094l.281-.281a1.05 1.05 0 0 0 .094-.469zm.562 10.406l-2.531.563-.188-.281 1.5-2.157.188.282-.469.656.563.844.75-.188zm-1.219 0l-.468-.75-.375.657-.375.375a.417.417 0 0 0 .187-.047l.281-.141zm2.157.657l-1.5 1.5.562.562-.281.188-1.313-1.407.282-.187.562.562 1.5-1.406zm-1.219-12.282a.433.433 0 0 1-.469-.281.922.922 0 0 1-.469-.844 1.141 1.141 0 0 1 .282-.843 2.177 2.177 0 0 1 .562-.375 2.089 2.089 0 0 1 .656.093l.563.282.281.562a2.063 2.063 0 0 1 .094.656 1.013 1.013 0 0 1-.375.469 1.019 1.019 0 0 1-.469.375 1.6 1.6 0 0 1-.656-.094zm7.219-1.875a7.938 7.938 0 0 1 5.765 2.344 7.6 7.6 0 0 1 2.391 5.625 7.552 7.552 0 0 1-2.391 5.672 8.022 8.022 0 0 1-5.765 2.3 8.024 8.024 0 0 1-5.766-2.3 7.552 7.552 0 0 1-2.391-5.672 7.6 7.6 0 0 1 2.391-5.625 7.941 7.941 0 0 1 5.766-2.344zm-7.875.657a1.08 1.08 0 0 0 .375.75.9.9 0 0 0 .656.281.631.631 0 0 0 .562-.281c.188-.063.282-.25.282-.563a1.029 1.029 0 0 0-.375-.656.551.551 0 0 0-.469-.281.542.542 0 0 0-.375-.094 1.456 1.456 0 0 0-.375.281.63.63 0 0 0-.281.563zm7.875-.094a7.332 7.332 0 0 0-5.391 2.2 7.114 7.114 0 0 0-2.2 5.2 7.221 7.221 0 0 0 2.2 5.3 7.332 7.332 0 0 0 5.391 2.2 7.534 7.534 0 0 0 5.39-2.2 7.079 7.079 0 0 0 2.3-5.3 6.977 6.977 0 0 0-2.3-5.2 7.534 7.534 0 0 0-5.39-2.2zm-5.719 6.844l-.094.187-.844.188.188-.938.187-.094h.094l.094-.093.281-.282.281-.093.469-.282h.375l.281-.093.469.093.188.094.562.281v-.375l.281-.281.094-.187.094-.094.187-.188.188-.187.094-.188.187-.093.094-.188.094-.094.281-.187h.094l.093-.281v-.563l-.187-.094h-.75l-.094.094-.094.094h-.281l-.094-.094-.093-.094v-.187h.187l.469-.094v-.281l-.094-.094-.562.281-.188-.187v-.375l.281-.188h.094l1.219-.281h.094l.937-.375v-.562l.656.75h.282v.375h-.094v.093h.469v.375l-.188.094.188.094h.093v.281l-.093.094v.281h.187v.188l-.094.187h-.093v.188l.093.093v.282l-.093.093h-.282l.094.094.188.188v.093l-.282.094h-.093v.281h.093v.188h-.093v.094h-.094v.375l.094.093.468.094.844.188h.094l.375-.188h.562l.563.188.375.093.187.282.282.187h.093l.094.094h.188l.187-.094h.094l.281-.094.188-.093.281-.188.187-.094h.282l.187.094.281.281.094.282v.562l-.094.469v.281l-.281.469V.1l-.094.375v.376l.094.093.188.094.093.094h-.468l-.469-.094-.469-.281-.094-.563v-.281l.094-.281.094-.188.094-.375.187-.468v-.188l-.281-.187-.094-.094h-.281l-.469.281.188.469v.281l-.188.281-.094.094-.093.375v.563l.093.093v.282l.094.093.188.094.093.094.094.187h.094v.375l-.188.094-.281.188-.187.375-.282.375-.093.187V3.1l-.094.187h-.375l-.188.094.094.094h.094v.281h-.938l.094-.469.469-.375.187-.187.188-.282.281-.093.094-.282.094-.093v-.093l.093-.094v-.094l-.093-.187-.188-.188-.281-.187-.188-.188-.186-.093-.1-.282-.094-.093V.1l-.093.093v.189h-.188v.469l.281.281.188.375.187.187v.188l-.187.094-.094.093-.375.282-.281.187-.281.281V3.1l-.094.187h-.563v.188h.188l-.094.281h3.75l-.094.281h-9.75v-.28h5.157l.093-.375.094-.094.188-.094.093-.281.094-.094.094-.093h.187l.188-.282h.281l.094-.093.094-.094.281-.188v-.281l-.188-.281-.093-.188-.188-.187v-.094l-.187-.094-.088-.093-.1-.094-.094-.281V.1l.094-.469h-.75l-.562.187h-.563l-.094-.187h-.187l-1.125-.469-.094.281-.281.094-1.776-.937h-.188l-.094.281-.187.094-.188.187-.093.281v.469l-.188-.094h-.094l-.093.094.093.094V.1h.282v.282l-.75.562V.851l-.094-.375v-.844l.094-.188v-.281l.093-.094.282-.187.375-.469.093-.375.657-.187v.187l.75.188-.75-.75-.469-.188-.75.375-.188.188h-.187v-.094h-.094l-.281.094v.187h.094l.187.094zm2.25 8.531l-1.313 2.062-.281-.187-.094-2.25-.936 1.594-.281-.094 1.218-2.063.282.188.093 2.25 1.032-1.594zM274.2-8.524l-1.219-2.063.375-.187 1.969 1.031-.844-1.688.188-.093 1.219 2.156-.282.094-2.062-1.032.937 1.688zm3.281 16.031l-.656 2.344-1.687-.563.093-.281 1.407.469.187-.75-1.312-.375.093-.282 1.313.375.187-.75-1.406-.468.094-.282zm-.562-17.25l-.469-2.063-.75.188-.094-.281 1.875-.469v.281l-.75.188.563 2.062zm3 17.344l.094 2.437h-.375l-1.308-1.875.094 1.875h-.375V7.6h.375l1.219 1.875V7.6zm-1.5-17.625l-.094-2.438h.281l.188 2.438zm.937-.094l.375-2.344h.282l1.031 2.063.281-1.875.281.093-.375 2.344h-.281l-1.026-2.063-.281 1.875zm1.5 17.625l.375 2.344-.281.093-.469-2.437zm.944-17.156l.937-2.25 1.594.656-.094.281-1.406-.562-.281.656 1.312.562-.187.188-1.219-.469-.281.75 1.406.563-.187.281zm.469 16.687l.656 2.063.75-.282.094.282-1.782.562-.093-.281.75-.188-.657-2.062zm2.625-1.5l1.406 1.969-.281.187-2.063-.843 1.031 1.593-.281.188-1.312-1.969.281-.187 2.062.843-1.037-1.593zm-1.033-14.344l1.594-1.875.188.282-.282 2.25 1.313-1.5.187.281-1.593 1.781-.188-.187.281-2.25-1.312 1.406zm3.75 13.032a4.9 4.9 0 0 1 .563.843 1.148 1.148 0 0 1-.281.844 2.185 2.185 0 0 1-.563.375 1.3 1.3 0 0 1-.562.094 2.185 2.185 0 0 1-.563-.375.858.858 0 0 1-.469-.469 1.621 1.621 0 0 1-.093-.656.453.453 0 0 1 .093-.234 3.106 3.106 0 0 0 .188-.329l.562-.281a1.315 1.315 0 0 1 .563-.094 1.5 1.5 0 0 0 .234.188.582.582 0 0 0 .328.094zm.188.937a.81.81 0 0 0-.375-.656 1.6 1.6 0 0 0-.75-.281.809.809 0 0 0-.563.281 1.51 1.51 0 0 0-.187.656q.188.563.469.656a.635.635 0 0 0 .468.188.234.234 0 0 0 .375 0 .541.541 0 0 0 .375-.188.651.651 0 0 0 .188-.656zm-1.781-11.906l1.682-1.313-.469-.562.188-.188 1.219 1.5-.188.188-.562-.656-1.688 1.312zm.656.75l2.625-.094.094.281-1.782 1.875-.187-.281.562-.562-.375-.938h-.75zm.75 8.812a1.974 1.974 0 0 0 .375.469l-.188.281a1.416 1.416 0 0 1-.468-.562 1.167 1.167 0 0 1 .093-.75 1.018 1.018 0 0 1 .375-.469.765.765 0 0 1 .563-.187 2.089 2.089 0 0 1 .656.093 2.185 2.185 0 0 1 .563.375 1.438 1.438 0 0 1 .187.563.663.663 0 0 1-.094.562 1.465 1.465 0 0 1-.375.563 1.31 1.31 0 0 1-.562.094v-.282a.776.776 0 0 0 .234-.046.752.752 0 0 1 .235-.047 1.48 1.48 0 0 0 .282-.376v-.468a.541.541 0 0 0-.188-.375.38.38 0 0 1-.281-.094l-.187-.187a1.558 1.558 0 0 1-.469-.094.635.635 0 0 0-.469.187l-.281.282v.468zm.187-6.468l2.344-.563.094.281-2.063.469.282 1.219h-.282zm.282-2.063l.281.75.562-.562q.563-.282.375-.282h-.468zm.937 5.063a.38.38 0 0 1 .281-.094c.188 0 .282.062.282.187q.188.188.093.282a.384.384 0 0 1-.093.281.387.387 0 0 1-.282.094c-.187 0-.281-.063-.281-.188q-.375 0-.094-.281a.383.383 0 0 1 .094-.281z" transform="translate(-6.924 14.056)"/>
</svg>
