<svg xmlns="http://www.w3.org/2000/svg" id="Group_8617" width="41.386" height="40.982" viewBox="0 0 41.386 40.982">
    <defs>
        <clipPath id="clip-path">
            <path id="Rectangle_4342" d="M0 0H41.386V40.982H0z" class="cls-1"/>
        </clipPath>
        <style>
            .cls-1{fill:#fff}
        </style>
    </defs>
    <g id="Group_8566" clip-path="url(#clip-path)">
        <path id="Path_1880" d="M41.386 2.758A2.759 2.759 0 0 0 38.628 0H2.759a2.753 2.753 0 0 0-.691 5.419v33.495l2.072-2.072 4.139 4.139 4.135-4.139 4.14 4.139 4.139-4.139 4.139 4.139 4.14-4.139 4.135 4.139 4.139-4.139 2.072 2.072V5.419a2.754 2.754 0 0 0 2.068-2.661m-3.449 32.824l-.69-.689-4.139 4.138-4.135-4.138-4.14 4.138-4.139-4.138-4.139 4.138-4.14-4.138-4.136 4.138-4.139-4.138-.691.689V3.449h34.488zm1.381-31.628V2.068H2.068v1.886a1.381 1.381 0 0 1 .691-2.574h35.869a1.381 1.381 0 0 1 .69 2.574" class="cls-1"/>
        <path id="Path_1881" d="M40.579 42.207H30.233a.69.69 0 1 0 0 1.381h10.346a.69.69 0 1 0 0-1.381" class="cls-1" transform="translate(-10.231 -14.616)"/>
        <path id="Path_1882" d="M50.848 42.409a.715.715 0 0 0-.2.492.691.691 0 0 0 .691.69.693.693 0 1 0-.488-1.183" class="cls-1" transform="translate(-17.538 -14.621)"/>
        <path id="Path_1883" d="M45.855 27.436H35.509a.688.688 0 1 0 0 1.377h10.346a.688.688 0 1 0 0-1.377" class="cls-1" transform="translate(-12.057 -9.501)"/>
        <path id="Path_1884" d="M47.682 34.818h-6.9a.691.691 0 0 0 0 1.381h6.9a.691.691 0 1 0 0-1.381" class="cls-1" transform="translate(-13.885 -12.057)"/>
        <path id="Path_1885" d="M29.543 35.509a.692.692 0 0 0 .69.691h1.381a.691.691 0 1 0 0-1.382h-1.381a.692.692 0 0 0-.69.691" class="cls-1" transform="translate(-10.231 -12.057)"/>
        <path id="Path_1886" d="M41.27 20.738a.692.692 0 0 0-.691-.691H30.233a.691.691 0 0 0 0 1.382h10.346a.692.692 0 0 0 .691-.691" class="cls-1" transform="translate(-10.231 -6.942)"/>
        <path id="Path_1887" d="M50.848 20.254a.7.7 0 0 0-.2.489.693.693 0 0 0 1.183.488.7.7 0 0 0 0-.977.723.723 0 0 0-.981 0" class="cls-1" transform="translate(-17.538 -6.948)"/>
        <path id="Path_1888" d="M31.777 28.617a.694.694 0 0 0 0-.98.689.689 0 1 0 0 .98" class="cls-1" transform="translate(-10.596 -9.504)"/>
        <path id="Path_1889" d="M37.053 36.006a.72.72 0 0 0 .2-.492.7.7 0 0 0-.2-.488.691.691 0 0 0-1.179.488.692.692 0 0 0 1.179.492" class="cls-1" transform="translate(-12.423 -12.063)"/>
        <path id="Path_1890" d="M42.532 11.242a.691.691 0 1 1-.691-.691.691.691 0 0 1 .691.691" class="cls-1" transform="translate(-14.25 -3.654)"/>
        <path id="Path_1891" d="M38.312 11.242a.691.691 0 1 1-.69-.691.691.691 0 0 1 .69.691" class="cls-1" transform="translate(-12.789 -3.654)"/>
        <path id="Path_1892" d="M46.751 11.242a.691.691 0 1 1-.691-.691.691.691 0 0 1 .691.691" class="cls-1" transform="translate(-15.712 -3.654)"/>
        <path id="Path_1893" d="M34.088 11.242a.689.689 0 1 1-.686-.691.688.688 0 0 1 .686.691" class="cls-1" transform="translate(-11.328 -3.654)"/>
        <path id="Path_1894" d="M50.973 11.242a.688.688 0 1 1-.69-.691.688.688 0 0 1 .69.691" class="cls-1" transform="translate(-17.175 -3.654)"/>
        <path id="Path_1895" d="M21.428 11.242a.691.691 0 1 1-.69-.691.691.691 0 0 1 .69.691" class="cls-1" transform="translate(-6.942 -3.654)"/>
        <path id="Path_1896" d="M25.647 11.242a.691.691 0 1 1-.691-.691.691.691 0 0 1 .691.691" class="cls-1" transform="translate(-8.403 -3.654)"/>
        <path id="Path_1897" d="M29.869 11.242a.689.689 0 1 1-.69-.691.688.688 0 0 1 .69.691" class="cls-1" transform="translate(-9.867 -3.654)"/>
        <path id="Path_1898" d="M55.192 11.242a.689.689 0 1 1-.687-.691.688.688 0 0 1 .687.691" class="cls-1" transform="translate(-18.636 -3.654)"/>
        <path id="Path_1899" d="M17.209 11.242a.691.691 0 1 1-.692-.691.692.692 0 0 1 .692.691" class="cls-1" transform="translate(-5.481 -3.654)"/>
        <path id="Path_1900" d="M12.985 11.242a.688.688 0 1 1-.686-.691.687.687 0 0 1 .686.691" class="cls-1" transform="translate(-4.02 -3.654)"/>
        <path id="Path_1901" d="M8.766 11.242a.688.688 0 1 1-.691-.691.688.688 0 0 1 .691.691" class="cls-1" transform="translate(-2.559 -3.654)"/>
        <path id="Path_1902" d="M11.265 21.253a17.166 17.166 0 0 1 3.165-.265 5.223 5.223 0 0 1 3.7 1.043 3.18 3.18 0 0 1 1.005 2.426 3.355 3.355 0 0 1-2.408 3.261v.056a3.186 3.186 0 0 1 1.873 2.578 20.239 20.239 0 0 0 .986 3.506H17.88a16.478 16.478 0 0 1-.854-3.052c-.378-1.762-1.061-2.426-2.559-2.483h-1.553v5.535h-1.649zm1.649 5.819H14.6c1.763 0 2.882-.967 2.882-2.426 0-1.649-1.194-2.37-2.938-2.389a6.831 6.831 0 0 0-1.63.151z" class="cls-1" transform="translate(-3.901 -7.268)"/>
    </g>
</svg>
