<svg xmlns="http://www.w3.org/2000/svg" id="Group_8620" width="37.004" height="42.599" viewBox="0 0 37.004 42.599">
    <defs>
        <clipPath id="clip-path">
            <path id="Rectangle_4346" fill="none" d="M0 0H37.004V42.599H0z"/>
        </clipPath>
        <style>
            .cls-3{fill:#e20d22}
        </style>
    </defs>
    <g id="Group_8578" clip-path="url(#clip-path)">
        <path id="Path_1921" d="M34.922 39.459h1.45l-.631-.632v3.14l.631-.631H.644l.631.631v-3.138l-.631.632h1.332a.64.64 0 0 0 .631-.632V3.783a.64.64 0 0 0-.631-.631H.632l.631.631V.631l-.631.632h35.74l-.631-.632v3.135l.631-.631h-1.45a.641.641 0 0 0-.632.631v35.061a.632.632 0 0 0 1.264 0V3.766l-.632.632h1.45A.642.642 0 0 0 37 3.766V.631A.642.642 0 0 0 36.372 0H.632A.641.641 0 0 0 0 .631v3.152a.641.641 0 0 0 .632.632h1.344l-.632-.632v35.046l.632-.631H.644a.641.641 0 0 0-.632.631v3.138a.641.641 0 0 0 .632.632h35.728a.641.641 0 0 0 .628-.632v-3.14a.641.641 0 0 0-.632-.631h-1.45a.632.632 0 0 0 0 1.263" class="cls-3"/>
        <path id="Path_1922" d="M10.077 5.055c-1.277-.089-2.569-.016-3.847-.03a1.454 1.454 0 0 0-1.1.273c-.382.37-.3.98-.3 1.457q0 4.1.006 8.205v25.716a.64.64 0 0 0 .631.631h4.581a.641.641 0 0 0 .633-.631v-9.654a.639.639 0 0 0-.951-.546c-.5.278-.769.674-1.4.4a1.439 1.439 0 0 1-.72-1.655A5.534 5.534 0 0 1 9.067 26.9a6.562 6.562 0 0 0 1.585-2.16 5.349 5.349 0 0 0 .048-1.24v-1.623-3.128V5.693a.632.632 0 0 0-1.263 0v13.638q0 1.736-.006 3.475a6.933 6.933 0 0 1 0 1.609c-.132.478-.735.976-1.047 1.35-1.159 1.385-2.681 3.063-1.834 5.005a2.463 2.463 0 0 0 1.726 1.414 2.35 2.35 0 0 0 1.069-.016 4.3 4.3 0 0 0 1.023-.6c-.317-.182-.633-.364-.95-.544v9.653l.631-.632H5.47l.632.632v-33.1-1.055c0-.1.051-.335 0-.4.016-.1-.024-.077-.117.058-.168.1-.16.138.021.1a3.326 3.326 0 0 0 1.024.02h1.028c.673 0 1.348-.026 2.019.021.811.057.807-1.207 0-1.263" class="cls-3" transform="translate(-1.813 -1.882)"/>
        <path id="Path_1923" d="M44.864 5.663c-.092.964-.028 1.959-.029 2.927v8.864q0 2.974.007 5.947a4.281 4.281 0 0 0 .066 1.189 2.215 2.215 0 0 0 .651.9 23.114 23.114 0 0 1 1.873 1.928c.5.624 1.091 1.544.676 2.353-.533 1.038-1.554.406-2.17-.124a.641.641 0 0 0-1.079.447v10.59a.641.641 0 0 0 .632.631c.685 0 1.369 0 2.054-.006a13.2 13.2 0 0 0 2.32-.011.965.965 0 0 0 .8-.717 9.489 9.489 0 0 0 .038-2.3q-.012-4.807 0-9.614V7.201c0-.624.2-1.63-.415-2.045-.517-.35-1.465-.156-2.053-.156-.908 0-1.833-.052-2.739.028-.8.071-.812 1.334 0 1.264.675-.06 1.359-.029 2.037-.028h1.871q.386.085.135-.117c-.032-.037-.065-.076-.1-.113v32.014a18.532 18.532 0 0 0 .008 2.2l.2-.184h-.094c-.074-.074-.536-.01-.669-.012q-.558-.006-1.116 0c-.759 0-1.517.006-2.277.006l.632.632V30.093l-1.078.446a3.251 3.251 0 0 0 2.193 1.061 2.316 2.316 0 0 0 1.962-1.193c.923-1.667-.382-3.419-1.5-4.59-.352-.367-.723-.712-1.086-1.068-.145-.143-.4-.308-.48-.5a2.45 2.45 0 0 1-.022-.851v-3.381-6.765V9.52c0-1.274-.092-2.591.027-3.86.077-.809-1.186-.8-1.263 0" class="cls-3" transform="translate(-16.832 -1.858)"/>
        <path id="Path_1924" d="M35.519 20.895a2.669 2.669 0 0 1 .97.292c.352.222.686.478 1.019.729.7.529 1.372 1.1 2.047 1.659a.64.64 0 0 0 1.078-.446V5.716A.641.641 0 0 0 40 5.085h-4.674a.641.641 0 0 0-.631.631v34.99a.64.64 0 0 0 .631.631h4.637a.621.621 0 0 0 .545-.313 3.129 3.129 0 0 0 .135-1.342v-1.5-3.11-2.994-1.382a4.567 4.567 0 0 0-.052-1.406c-.279-.794-1.219-.711-1.905-.761-.7-.051-1.67.142-2.044-.617a1.052 1.052 0 0 1 .468-1.435 3.183 3.183 0 0 1 1.3-.134c.523 0 1.045.014 1.567.016a.648.648 0 0 0 .632-.631c.141-1.311-1.253-1.147-2.187-1.158a3.858 3.858 0 0 0-3.1 1.03l.447-.185.082.007.463.609v-5.746a.632.632 0 0 0-1.263 0v5.749a.642.642 0 0 0 .464.609c.377.1.559-.057.83-.288a2.04 2.04 0 0 1 1.184-.493 9.685 9.685 0 0 1 1.346-.014 2.688 2.688 0 0 0 .785.038q.459.071-.288-.415c0 .087-.012.174-.024.261l.632-.631c-1.586-.007-3.8-.38-4.55 1.445a2.339 2.339 0 0 0 2.025 3.194c.48.038.962.034 1.442.072.141.011.282.023.423.037q.393.081.057-.071c.022.221 0 .469 0 .691v9.213c0 .121.059.657.037.7l.546-.313h-4.634l.632.632V5.716l-.632.632H40l-.632-.632v17.412l1.079-.446c-.759-.633-1.515-1.262-2.3-1.856a10.169 10.169 0 0 0-1.194-.842 3.726 3.726 0 0 0-1.1-.306c-.794-.164-1.133 1.053-.336 1.218" class="cls-3" transform="translate(-13.032 -1.91)"/>
        <path id="Path_1925" d="M15.943 23.694l1.907-1.67a6.933 6.933 0 0 1 .89-.752 3.015 3.015 0 0 1 1.079-.324c-.266-.2-.533-.406-.8-.61v5.639l1.078-.446c-1.349-1.269-2.9-1.038-4.6-.962a.643.643 0 0 0-.632.632v.483a.641.641 0 0 0 .632.632h1.484a4.275 4.275 0 0 1 1.161.049 1.089 1.089 0 0 1 .524 1.746c-.881 1.038-3.341-.3-3.785 1.281a4.115 4.115 0 0 0-.047 1.122v10.201a.642.642 0 0 0 .632.632c1.426 0 2.881.087 4.3 0 1.186-.074.919-1.371.92-2.225v-9.806V9.707 7.066c0-.6.163-1.5-.44-1.883a1.6 1.6 0 0 0-.9-.154c-.456 0-.913.01-1.371.01-.831 0-1.662-.006-2.493-.006a.641.641 0 0 0-.632.633v17.582a.632.632 0 0 0 1.263 0V5.663l-.631.631h1.808a14.917 14.917 0 0 0 2.285-.014l-.144-.14v.23a2.325 2.325 0 0 0 0 .574V40.05a1.106 1.106 0 0 0 0 .315c.086.147.192-.443.332-.283a3.548 3.548 0 0 0-.81 0h-3.476l.631.631v-6.545q0-1.6-.006-3.2v-.913c0-.683-.017 0-.143-.174a4.074 4.074 0 0 0 .878-.063c.265-.017.529-.03.8-.044a2.622 2.622 0 0 0 1.987-.831 2.368 2.368 0 0 0 .487-2.215c-.648-2.034-2.933-1.677-4.6-1.676l.631.632V25.2l-.631.631c1.3-.057 2.659-.391 3.7.591a.639.639 0 0 0 1.078-.446v-5.638a.642.642 0 0 0-.8-.609 4.17 4.17 0 0 0-2.207 1.121q-1.111.978-2.226 1.951c-.613.536.283 1.426.893.893" class="cls-3" transform="translate(-5.568 -1.887)"/>
        <path id="Path_1926" d="M30.58 40.708V5.733a.64.64 0 0 0-.632-.631h-4.4a.641.641 0 0 0-.632.631v34.975a.642.642 0 0 0 .632.632h4.4a.632.632 0 0 0 0-1.264h-4.4l.631.632V5.733l-.631.632h4.4l-.631-.632v34.975a.632.632 0 0 0 1.263 0" class="cls-3" transform="translate(-9.357 -1.916)"/>
        <path id="Path_1927" d="M35.379 16.109a3.714 3.714 0 0 1 .26.461c.048.1-.006-.019.018.044.014.038.029.075.042.114.031.087.058.175.082.265s.047.181.066.272c.011.051.019.1.029.154s.014.087.006.018a4.46 4.46 0 0 1 .037.6c0 .094 0 .189-.008.282 0 .041-.006.082-.01.124 0 .015-.019.175-.01.1s-.009.057-.011.068q-.013.076-.028.15c-.017.088-.04.175-.064.262s-.051.168-.081.25l-.041.107c.046-.111-.006.009-.017.031a3 3 0 0 1-.27.44l1.177.318V15.79a.632.632 0 0 0-1.263 0v4.379a.646.646 0 0 0 .463.609.662.662 0 0 0 .713-.29 4.126 4.126 0 0 0 .713-2.453 4.617 4.617 0 0 0-.713-2.564.646.646 0 0 0-.864-.227.637.637 0 0 0-.227.864" class="cls-3" transform="translate(-13.255 -5.694)"/>
        <path id="Path_1928" d="M21.242 16.089v4.175l1.078-.447-.068-.075s.079.13.036.042c-.032-.062-.072-.121-.1-.183-.043-.081-.016-.04 0 .018l-.037-.1c-.027-.079-.051-.16-.071-.24s-.037-.158-.051-.238c-.008-.042-.013-.084-.021-.125-.015-.077.009.113 0-.012-.016-.189-.029-.377-.029-.568a5.584 5.584 0 0 1 .021-.56l.015-.139c-.016.145.007-.038.01-.054.015-.091.032-.182.052-.272a4.307 4.307 0 0 1 .148-.516c.017-.048.036-.1.056-.144-.032.078-.022.049.007-.01.041-.079.081-.157.127-.234a.632.632 0 0 0-1.091-.638 5.077 5.077 0 0 0-.614 2.621 3.361 3.361 0 0 0 .713 2.318.638.638 0 0 0 1.078-.446v-4.173a.631.631 0 1 0-1.263 0" class="cls-3" transform="translate(-7.78 -5.805)"/>
        <path id="Path_1929" d="M26.31 12.535a4.536 4.536 0 0 1 2.6-.129c.109.027.219.056.327.089-.052-.122-.081-.13-.084-.023-.072.075 0 .608 0 .722V19.695c0 .129.072.628 0 .722.081-.049.037-.04-.13.026-.109.029-.217.055-.327.078a4.133 4.133 0 0 1-.651.079 4.531 4.531 0 0 1-.657-.016c-.128-.013-.571-.025-.656-.124.036.106.042.062.019-.131v-.361-.721-1.443-2.885-1.442a6.21 6.21 0 0 1 .007-1.384.632.632 0 0 0-1.218-.336 5.672 5.672 0 0 0-.051 1.359V17.534c0 .991-.021 1.986.008 2.975.029 1.015.867 1.219 1.735 1.32a4.651 4.651 0 0 0 2.659-.359c.785-.463.538-1.643.54-2.407q.011-2.935 0-5.869a2.808 2.808 0 0 0-.159-1.433 1.631 1.631 0 0 0-1.177-.611 5.744 5.744 0 0 0-3.111.165c-.763.266-.434 1.487.336 1.218" class="cls-3" transform="translate(-9.565 -4.136)"/>
    </g>
</svg>
