<svg xmlns="http://www.w3.org/2000/svg" id="Group_8619" width="33.618" height="40.982" viewBox="0 0 33.618 40.982">
    <defs>
        <clipPath id="clip-path">
            <path id="Rectangle_4345" d="M0 0H33.618V40.982H0z" class="cls-1"/>
        </clipPath>
        <style>
            .cls-1{fill:#fff}
        </style>
    </defs>
    <g id="Group_8573" clip-path="url(#clip-path)">
        <path id="Path_1916" d="M32.818 4.8a4.007 4.007 0 0 1-4-4 .8.8 0 0 0-.8-.8H5.6a.8.8 0 0 0-.8.8 4.006 4.006 0 0 1-4 4 .8.8 0 0 0-.8.8v13.065a23.25 23.25 0 0 0 16.579 22.283.8.8 0 0 0 .46 0 23.252 23.252 0 0 0 16.579-22.283V5.6a.8.8 0 0 0-.8-.8m-.8 13.863a21.525 21.525 0 0 1-15.21 20.681A21.643 21.643 0 0 1 1.6 18.665V6.346A5.617 5.617 0 0 0 6.346 1.6h20.925a5.617 5.617 0 0 0 4.745 4.745z" class="cls-1"/>
        <path id="Path_1917" d="M28.068 5.665a.8.8 0 0 0-.733-.479h-5.472a.8.8 0 1 0 0 1.6h4.966a8.8 8.8 0 0 0 3.84 3.84V20.65a18.233 18.233 0 0 1-12.006 17.3 18.234 18.234 0 0 1-12.007-17.3V10.627a8.8 8.8 0 0 0 3.84-3.84h4.966a.8.8 0 1 0 0-1.6H9.99a.8.8 0 0 0-.733.479 7.209 7.209 0 0 1-3.722 3.721.8.8 0 0 0-.48.733v10.53A19.925 19.925 0 0 0 18.4 39.553a.794.794 0 0 0 .534 0 19.927 19.927 0 0 0 13.34-18.9V10.121a.8.8 0 0 0-.479-.733 7.2 7.2 0 0 1-3.722-3.722" class="cls-1" transform="translate(-1.854 -1.902)"/>
        <path id="Path_1918" d="M15.166 28.184a7.2 7.2 0 1 0 7.2-7.2 7.212 7.212 0 0 0-7.2 7.2m12.807 0a5.6 5.6 0 1 1-5.6-5.6 5.609 5.609 0 0 1 5.6 5.6" class="cls-1" transform="translate(-5.561 -7.693)"/>
        <path id="Path_1919" d="M22.22 30.567a.8.8 0 1 0-1.133 1.133l1.6 1.6a.8.8 0 0 0 1.132 0l4-4a.8.8 0 1 0-1.132-1.132L23.255 31.6z" class="cls-1" transform="translate(-7.647 -10.242)"/>
    </g>
</svg>
