<svg xmlns="http://www.w3.org/2000/svg" id="Group_8618" width="42.434" height="42.433" viewBox="0 0 42.434 42.433">
    <defs>
        <clipPath id="clip-path">
            <path id="Rectangle_4344" fill="none" d="M0 0H42.434V42.433H0z"/>
        </clipPath>
        <style>
            .cls-3{fill:#e20d22}
        </style>
    </defs>
    <g id="Group_8571" clip-path="url(#clip-path)">
        <path id="Path_1909" d="M1.415 36.774h.707a5.658 5.658 0 1 0 11.316 0h3.536a2.828 2.828 0 0 0 2.826-2.828v-7.072a1.414 1.414 0 0 0-1.415-1.415h-4.13a.7.7 0 0 1-.615-.357l-4.819-8.444 3.274-2.382a5.006 5.006 0 0 0 2.05-4.037V3.52a.71.71 0 0 0-.424-.647L7.355.059a.712.712 0 0 0-.571 0L.424 2.871A.706.706 0 0 0 0 3.517v6.718a5.007 5.007 0 0 0 2.051 4.038l1.762 1.285h-2.4A1.415 1.415 0 0 0 0 16.972V35.36a1.414 1.414 0 0 0 1.415 1.414m6.364 4.244a4.243 4.243 0 1 1 4.244-4.244 4.243 4.243 0 0 1-4.244 4.244m10.608-12.73h-1.414v-1.415h1.415zM1.415 10.239V3.978l5.658-2.5 5.658 2.5v6.26a3.591 3.591 0 0 1-1.468 2.894l-3.853 2.8-.337.246-4.191-3.045a3.588 3.588 0 0 1-1.467-2.894m4.341 6.734l.694.505a1.043 1.043 0 0 0 1.218.014l4.745 8.308a2.127 2.127 0 0 0 1.844 1.071h1.3v1.414a1.414 1.414 0 0 0 1.416 1.415h1.414v4.243a1.414 1.414 0 0 1-1.414 1.415h-3.722a5.649 5.649 0 0 0-10.944 0h-.892v-8.484h7.779a.708.708 0 0 0 .633-1.024l-3.536-7.072a.708.708 0 0 0-.633-.391H1.415v-1.415zM1.415 19.8H5.22l2.83 5.659H1.415z" class="cls-3"/>
        <path id="Path_1910" d="M10.4 51.93a2.829 2.829 0 1 0 2.829 2.829A2.829 2.829 0 0 0 10.4 51.93m0 4.243a1.414 1.414 0 1 1 1.415-1.415 1.415 1.415 0 0 1-1.415 1.415" class="cls-3" transform="translate(-2.623 -17.984)"/>
        <path id="Path_1911" d="M53.008 23.8h-5.543a2.125 2.125 0 0 0-1.843 1.069l-4.843 8.478a.706.706 0 0 1-.614.354h-4.129a1.415 1.415 0 0 0-1.415 1.415v7.072a2.828 2.828 0 0 0 2.829 2.829h3.536a5.658 5.658 0 0 0 11.316 0h.707a1.414 1.414 0 0 0 1.414-1.417V25.216a1.415 1.415 0 0 0-1.415-1.416M37.45 36.531h-1.415v-1.414h1.415zm9.194 12.729a4.243 4.243 0 1 1 4.243-4.243 4.244 4.244 0 0 1-4.243 4.243m5.471-5.66a5.649 5.649 0 0 0-10.944 0H37.45a1.413 1.413 0 0 1-1.414-1.415v-4.239h1.414a1.415 1.415 0 0 0 1.415-1.415v-1.414h1.3a2.126 2.126 0 0 0 1.843-1.069l4.843-8.478a.708.708 0 0 1 .615-.354h5.543v1.414h-4.244a.707.707 0 0 0-.636.391l-3.537 7.073a.707.707 0 0 0 .636 1.023h7.78V43.6zm.893-9.9h-6.635l2.827-5.656h3.806z" class="cls-3" transform="translate(-11.989 -8.243)"/>
        <path id="Path_1912" d="M51.513 51.93a2.829 2.829 0 1 0 2.829 2.829 2.829 2.829 0 0 0-2.829-2.829m0 4.243a1.414 1.414 0 1 1 1.415-1.415 1.415 1.415 0 0 1-1.415 1.415" class="cls-3" transform="translate(-16.859 -17.984)"/>
        <path id="Path_1913" d="M20.536 22.351a.707.707 0 0 0-.969.957l3.533 6.365a.707.707 0 1 0 1.236-.688l-2.306-4.15 2.746 1.573a.707.707 0 0 0 1.06-.678l-.471-5.183 2.02 2.829.084.078.081.087.023.009a.584.584 0 0 0 .135.061.7.7 0 0 0 .507 0 .647.647 0 0 0 .134-.06l.023-.01.082-.088.084-.078 2.019-2.829-.476 5.183a.707.707 0 0 0 1.054.678l2.752-1.573-2.307 4.15a.708.708 0 0 0 1.237.688l3.536-6.365a.707.707 0 0 0-.969-.957l-3.771 2.155.588-6.428a.707.707 0 0 0-1.28-.475l-2.963 4.144L25 17.6a.707.707 0 0 0-1.283.475l.586 6.428z" class="cls-3" transform="translate(-6.745 -5.992)"/>
        <path id="Path_1914" d="M33.382 33.18a.708.708 0 0 0-.949-.317l-.394.2v-.977a.707.707 0 1 0-1.414 0v.977l-.392-.2a.708.708 0 0 0-.633 1.266l1.415.707.086.03.053.019a.683.683 0 0 0 .178.025.725.725 0 0 0 .282-.067l.031-.007 1.414-.707a.705.705 0 0 0 .323-.949" class="cls-3" transform="translate(-10.115 -10.865)"/>
        <path id="Path_1915" d="M12.549 7.722a.708.708 0 0 0-.99.124L7.1 13.578l-1.552-1.555a.707.707 0 0 0-1 1l2.121 2.122a.712.712 0 0 0 .5.208h.044a.708.708 0 0 0 .514-.272l4.95-6.365a.707.707 0 0 0-.124-.994" class="cls-3" transform="translate(-1.506 -2.623)"/>
    </g>
</svg>
