<svg xmlns="http://www.w3.org/2000/svg" width="45.453" height="41.425" viewBox="0 0 45.453 41.425">
    <defs>
        <clipPath id="p3ig3slyfa">
            <path d="M0 0H45.453V41.425H0z"/>
        </clipPath>
    </defs>
    <g>
        <g clip-path="url(#p3ig3slyfa)">
            <path d="M5.973 5.779C4.786 4.684 3.518 6 2.75 6.952a7.585 7.585 0 0 0-1.582 3.43A7.819 7.819 0 0 0 3.092 17c1.949 2.177 3.952 4.309 5.927 6.461l2.416 2.636q-.066-.5-.129-1c-.492.652-.963 1.326-1.479 1.96a3.35 3.35 0 0 1-1.513 1.085 17.531 17.531 0 0 1-2.385.359 7.457 7.457 0 1 0 7.879 11.189 7.576 7.576 0 0 0 .885-5.611 3.34 3.34 0 0 1 .452-2.789 10.843 10.843 0 0 1 1.1-1.217h-1.166l.009.009a.835.835 0 0 0 1.41-.584l.047-5.578.026-2.942a1.591 1.591 0 0 0-.264-1.011c-2.394-3.5-5-6.865-7.492-10.29L6.1 5.946c-.62-.852-2.055-.027-1.428.834l6.514 8.946q1.712 2.353 3.425 4.7a2.443 2.443 0 0 0 .348.478l.071.096c-.141-.021-.026-.587-.11-.31a3.538 3.538 0 0 0-.008.864l-.012 1.5-.055 6.436 1.411-.584-.009-.01a.834.834 0 0 0-1.168 0 7.948 7.948 0 0 0-1.89 2.6c-.611 1.613.141 3.053.046 4.68a5.857 5.857 0 0 1-6.361 5.4 5.87 5.87 0 0 1-5.2-6.316 5.757 5.757 0 0 1 1.873-3.772 6.246 6.246 0 0 1 3.9-1.509 5.177 5.177 0 0 0 3.774-2.052c.508-.664 1.008-1.335 1.512-2a.832.832 0 0 0-.13-1q-2.423-2.645-4.849-5.289l-2.87-3.129a7.723 7.723 0 0 1-1.94-3A6.1 6.1 0 0 1 3 9.864a5.9 5.9 0 0 1 .8-1.584 5.815 5.815 0 0 1 .662-.772c.1-.1.2-.194.307-.286l.162-.136c.265-.147.221-.194-.131-.139.78.722 1.952-.445 1.169-1.168" transform="translate(0 -2.924)"/>
            <path d="M64.829 21.948l.615.005a.838.838 0 0 0 .826-.827c.029-3.352.2-6.732.087-10.081-.066-2.013-1.757-2.926-3.187-3.987l-5.69-4.214-2.261-1.673A7.07 7.07 0 0 0 53.8.242c-1.93-.806-3.41.576-4.864 1.615l-5.76 4.115-2.357 1.684a9.136 9.136 0 0 0-1.267.967 3.9 3.9 0 0 0-.9 2.9l-.03 3.5-.051 5.879a.839.839 0 0 0 .827.826c.706.006 1.729-.031 1.713.971s-1.037.933-1.744.927a.838.838 0 0 0-.826.827l-.1 11.758c-.005.586-.026 1.173-.015 1.758a3.254 3.254 0 0 0 2.263 3.13 13.642 13.642 0 0 0 3.659.163l14.364.123c1.365.012 2.731.043 4.095.035a3.285 3.285 0 0 0 2.9-1.619 4.388 4.388 0 0 0 .42-2.233l.107-12.53v-.364a.839.839 0 0 0-.827-.826c-.482 0-1 .063-1.338-.364a.956.956 0 0 1 .753-1.541c1.059-.052 1.066-1.705 0-1.653a2.637 2.637 0 0 0-2.517 3.311c.425 1.471 1.728 1.887 3.1 1.9l-.826-.827q-.048 5.623-.1 11.248c-.012 1.355.4 3.757-1.583 3.846-1.019.045-2.054-.017-3.074-.027L46.1 39.624c-1.425-.012-2.85-.016-4.276-.036a1.619 1.619 0 0 1-1.752-1.359 10.122 10.122 0 0 1 0-1.282l.108-12.495-.827.826a4.053 4.053 0 0 0 1.98-.28 2.6 2.6 0 0 0 .027-4.618 4.1 4.1 0 0 0-1.976-.306l.826.826c.028-3.324-.022-6.657.086-9.978.042-1.318 1.574-2.008 2.522-2.685l5.448-3.877c1.111-.793 2.2-1.649 3.347-2.391a1.8 1.8 0 0 1 2.254.246l1.713 1.268 5.5 4.07a38.065 38.065 0 0 1 3.087 2.293c.667.609.54 1.456.533 2.265q-.016 1.719-.03 3.439l-.047 5.577.827-.826-.615-.005a.827.827 0 0 0 0 1.653" transform="translate(-20.941)"/>
            <path d="M56.067 47.84l-2.083-.017h-.305c-.061 0-.122 0-.182-.01.169.022-.086-.029-.1-.032-.051-.015-.1-.033-.151-.051.076.03.071.024-.016-.018-.008-.005-.222-.147-.092-.047l-.116-.1c-.009-.008-.172-.2-.075-.069-.047-.063-.082-.132-.124-.2-.11-.176.012.109-.04-.093-.02-.078-.045-.153-.058-.233.008.047 0 .127 0-.025 0-.038.033-.343 0-.192.017-.079.039-.156.062-.232.062-.2-.072.081.045-.091l.082-.134c-.087.132.055-.061.068-.073s.2-.174.069-.075c.063-.048.132-.083.2-.125.2-.122-.072.016.056-.027a1.631 1.631 0 0 1 .271-.072c-.155.025.091 0 .125 0h.592l1.319.011h.486c.054 0 .115 0 .168.009-.157-.02.143.047.175.057.159.049.052.024.021.008.027.014.28.175.161.084.062.047.113.106.171.159.062.074.069.077.02.013l.085.131.075.139c-.065-.136.037.145.047.177.059.2.02-.112.012.1 0 .037-.033.343 0 .192-.011.052-.023.105-.038.157s-.032.1-.051.151c.03-.077.024-.071-.018.016-.005.008-.146.222-.046.091a1.506 1.506 0 0 1-.188.2c-.1.092.152-.081-.048.039-.029.016-.295.149-.153.094-.076.029-.153.046-.23.069-.1.018-.106.02-.021.007-.056 0-.111.006-.167.006a.827.827 0 0 0 0 1.653 2.6 2.6 0 1 0 .026-5.2c-.379-.01-.76-.007-1.139-.01-.413 0-.826-.013-1.238-.01a2.643 2.643 0 0 0-2.124 1.042 2.6 2.6 0 0 0 1.9 4.154c.847.076 1.721.022 2.571.03a.827.827 0 0 0 0-1.653" transform="translate(-27.843 -24.127)"/>
            <path d="M64.435 16.261c0-.066.006-.131.01-.2.01-.156 0 0 0 .027.023-.1.043-.208.076-.31.012-.037.093-.231.005-.037l.054-.112a2.969 2.969 0 0 1 .193-.318c-.116.172.071-.076.11-.115s.285-.235.112-.112a2.746 2.746 0 0 1 .26-.167l.11-.056c.14-.077-.139.034.063-.024.1-.03.2-.062.307-.083.053-.01.195-.017 0 0 .055 0 .109-.009.163-.011a3.061 3.061 0 0 1 .329.012c.13.008-.2-.045 0 0 .062.015.124.028.186.045s.119.04.179.06c-.026-.009-.158-.078-.025-.01a2.972 2.972 0 0 1 .272.151c.006 0 .175.119.068.043s.052.046.059.052c.093.084.171.177.256.268-.115-.124-.043-.06-.017-.02s.069.1.1.157.151.34.08.139a2.912 2.912 0 0 1 .094.3l.026.125c.036.165-.007-.153.006.07a2.483 2.483 0 0 1 0 .3c0 .05-.05.242 0 .038l-.026.126c-.024.1-.058.2-.091.3.064-.2 0-.009-.017.031-.029.056-.058.111-.091.162l-.085.13c-.046.1.124-.136 0 0-.071.076-.137.152-.214.222-.005.005-.161.136-.058.054s-.059.038-.066.043a2.559 2.559 0 0 1-.326.18c.027-.013.166-.058.024-.013-.06.019-.119.04-.181.056l-.123.03c-.01 0-.216.03-.081.017s-.077 0-.084 0h-.166c-.056 0-.11-.006-.164-.009-.19-.01.131.038-.036-.008-.122-.035-.244-.066-.365-.106.176.058.044.022 0 0-.064-.035-.129-.066-.191-.105l-.1-.067c-.074-.053-.067-.047.019.019l-.094-.079c-.077-.069-.145-.146-.217-.22-.14-.145.086.143-.022-.028-.033-.053-.069-.1-.1-.156s-.058-.11-.088-.165c-.081-.147.039.143-.014-.033-.036-.122-.07-.242-.1-.366-.012-.051 0-.146 0 .028 0-.087-.011-.175-.012-.262a.826.826 0 1 0-1.652 0 3.248 3.248 0 0 0 2.107 3.021 3.192 3.192 0 0 0 3.5-.909 3.193 3.193 0 1 0-5.605-2.112.826.826 0 0 0 1.652 0" transform="translate(-34.218 -7.14)"/>
            <path d="M75.89 48.01l-2.083-.018h-.305a1.616 1.616 0 0 1-.182-.009c.169.021-.086-.028-.1-.033-.051-.015-.1-.032-.151-.051.077.03.071.025-.016-.018-.008-.005-.222-.147-.091-.046l-.116-.1c-.009-.008-.172-.2-.074-.068-.048-.063-.083-.132-.125-.2-.11-.176.013.109-.04-.093-.02-.078-.045-.154-.058-.234.008.048 0 .128 0-.025 0-.037.033-.343 0-.192.017-.079.039-.155.063-.232.061-.2-.072.081.045-.091l.082-.134c-.087.132.055-.061.068-.074s.2-.173.069-.075c.062-.047.132-.082.2-.125.2-.122-.071.016.056-.026a1.694 1.694 0 0 1 .272-.072c-.156.025.091 0 .125 0h.593l1.319.01h.479c.053 0 .115 0 .168.009-.157-.021.143.047.175.057.159.049.052.025.021.009.027.014.28.174.161.083.062.048.113.106.171.159.062.074.069.077.019.014l.086.13.074.139c-.064-.136.038.145.048.177.059.2.02-.112.012.1 0 .038-.033.343 0 .192-.011.053-.023.105-.039.157s-.032.1-.051.151q.044-.115-.018.017c-.005.008-.146.222-.046.091a1.534 1.534 0 0 1-.188.2c-.1.092.153-.081-.048.038-.028.016-.295.15-.152.094-.076.03-.153.046-.23.069-.1.018-.106.021-.021.007-.056.005-.111.007-.167.007a.826.826 0 1 0 0 1.652 2.6 2.6 0 1 0 .026-5.2c-.379-.01-.76-.006-1.139-.01-.413 0-.825-.013-1.238-.01a2.641 2.641 0 0 0-2.112 1.041 2.6 2.6 0 0 0 1.893 4.154c.847.076 1.721.022 2.571.03a.826.826 0 1 0 0-1.652" transform="translate(-38.646 -24.22)"/>
        </g>
    </g>
</svg>
