<svg xmlns="http://www.w3.org/2000/svg" width="44.138" height="39.824" viewBox="0 0 44.138 39.824">
    <defs>
        <clipPath id="md271mrfya">
            <path d="M0 0H44.138V39.824H0z"/>
        </clipPath>
    </defs>
    <g>
        <g clip-path="url(#md271mrfya)">
            <path d="M43.32 30.774L27.295 3.017a6.033 6.033 0 0 0-10.45 0L.819 30.774a6.033 6.033 0 0 0 5.224 9.051h32.052a6.033 6.033 0 0 0 5.225-9.051m-1.492 5.172a4.265 4.265 0 0 1-3.733 2.154H6.043a4.31 4.31 0 0 1-3.731-6.465L18.337 3.879a4.309 4.309 0 0 1 7.465 0l16.025 27.757a4.269 4.269 0 0 1 0 4.31"/>
            <path d="M26.595 7.033a2.568 2.568 0 0 0-4.446 0l-.035.061a.862.862 0 0 0 1.493.862l.035-.061a.843.843 0 0 1 1.461 0l16.04 27.786a.842.842 0 0 1-.729 1.264H8.33a.842.842 0 0 1-.73-1.264l12.144-21.035a.862.862 0 0 0-1.494-.861L6.106 34.818a2.566 2.566 0 0 0 2.223 3.85h32.085a2.566 2.566 0 0 0 2.222-3.85z" transform="translate(-2.303 -2.301)"/>
            <path d="M39.521 50.73a.862.862 0 0 0 .862-.862v-3.829a.862.862 0 0 0-.862-.862h-9.383a1.4 1.4 0 0 0-1.4 1.4.386.386 0 0 1-.386.386.4.4 0 0 1-.149-.029.372.372 0 0 1-.124-.085.886.886 0 0 0-.216-.157l-.951-.488a1.386 1.386 0 0 0-.866-.3h-1.311a1.4 1.4 0 0 0-1.359-1.07h-3.787a.862.862 0 0 0-.862.862v4.172a.862.862 0 0 0 .862.862h12.172a.862.862 0 1 0 0-1.724H20.45v-2.448h2.638a1.4 1.4 0 0 0 1.358 1.07h1.487l.1.062.941.482a2.11 2.11 0 0 0 3.467-1.272h8.219v2.967a.862.862 0 0 0 .861.862" transform="translate(-7.494 -17.942)"/>
            <path d="M46.114 51.823a.862.862 0 1 0 .953.35.871.871 0 0 0-.953-.35" transform="translate(-18.204 -20.726)"/>
            <path d="M30.645 14.357a.862.862 0 1 0-.837-.531.87.87 0 0 0 .837.531" transform="translate(-11.903 -5.058)"/>
            <path d="M39.068 30.316a1.532 1.532 0 0 0-1.622-1.248l-.408-1a3.794 3.794 0 0 0-4.185-2.294l-1.751.323a3.739 3.739 0 0 0-.72.209 3.793 3.793 0 0 0-2.373 3.425l-.022 1.083-.021.008-.089.031-.051.02-.014.005-.022.011a1.532 1.532 0 0 0-.876 1.67l.419 2.271a1.529 1.529 0 0 0 1.5 1.253 1.586 1.586 0 0 0 .281-.025l.788-.146.1.569a.862.862 0 0 0 .846.707.883.883 0 0 0 .158-.015.861.861 0 0 0 .691-1l-.1-.569 4.2-.773.1.569a.862.862 0 0 0 .847.705.828.828 0 0 0 .157-.014.862.862 0 0 0 .692-1l-.1-.569.767-.142a1.53 1.53 0 0 0 1.227-1.781zm-9.336-.552a2.062 2.062 0 0 1 1.173-1.811 2.015 2.015 0 0 1 .508-.164l.8-.147.957-.176a2.069 2.069 0 0 1 1.682.442 2.092 2.092 0 0 1 .538.683c.059.125.109.256.161.384s.108.269.163.4L29.716 30.5zm.706 4.294l-1.444.267-.345-1.875 8.76-1.637.35 1.9z" transform="translate(-10.761 -10.288)"/>
        </g>
    </g>
</svg>
